<svg width="20" height="20" viewBox="0 0 20 20" fill="none" xmlns="http://www.w3.org/2000/svg">
<path d="M16.3215 2.5H3.67851C3.02764 2.5 2.5 3.02764 2.5 3.67851C2.5 3.99107 2.62416 4.29083 2.84518 4.51184L7.01185 8.67851C7.32441 8.99107 7.5 9.415 7.5 9.85702V13.9699C7.5 14.6012 7.85667 15.1783 8.42131 15.4607L11.897 17.1985C12.174 17.337 12.5 17.1356 12.5 16.8258V9.85702C12.5 9.415 12.6756 8.99107 12.9882 8.67851L17.1548 4.51184C17.3758 4.29083 17.5 3.99107 17.5 3.67851C17.5 3.02764 16.9724 2.5 16.3215 2.5Z" stroke="#252525" stroke-width="1.66667" stroke-linecap="round"/>
</svg>
