<svg width="20" height="20" viewBox="0 0 20 20" fill="none" xmlns="http://www.w3.org/2000/svg">
<g clip-path="url(#clip0_3_14866)">
<path d="M6.92714 6.92771H7.23964M6.92714 7.24021H7.23964M12.7605 6.92771H13.073M12.7605 7.24021H13.073M5.8335 12.5006C6.18072 13.334 7.50016 15.0006 10.0002 15.0006C12.5002 15.0006 13.8196 13.334 14.1668 12.5006M7.50016 7.08398C7.50016 7.3141 7.31361 7.50065 7.0835 7.50065C6.85338 7.50065 6.66683 7.3141 6.66683 7.08398C6.66683 6.85387 6.85338 6.66732 7.0835 6.66732C7.31361 6.66732 7.50016 6.85387 7.50016 7.08398ZM13.3335 7.08398C13.3335 7.3141 13.1469 7.50065 12.9168 7.50065C12.6867 7.50065 12.5002 7.3141 12.5002 7.08398C12.5002 6.85387 12.6867 6.66732 12.9168 6.66732C13.1469 6.66732 13.3335 6.85387 13.3335 7.08398ZM19.1668 10.0007C19.1668 15.0633 15.0628 19.1673 10.0002 19.1673C4.93755 19.1673 0.833496 15.0633 0.833496 10.0007C0.833496 4.93804 4.93755 0.833984 10.0002 0.833984C15.0628 0.833984 19.1668 4.93804 19.1668 10.0007Z" stroke="#252525" stroke-width="1.66667" stroke-linecap="round"/>
</g>
<defs>
<clipPath id="clip0_3_14866">
<rect width="20" height="20" fill="white"/>
</clipPath>
</defs>
</svg>
