<svg width="16" height="16" viewBox="0 0 16 16" fill="none" xmlns="http://www.w3.org/2000/svg">
<path d="M14.489 5.1197C14.7392 4.84958 14.723 4.42778 14.4529 4.17758C14.1828 3.92738 13.761 3.94353 13.5108 4.21364L7.5066 10.6959C7.2564 10.966 7.27255 11.3878 7.54266 11.638C7.81278 11.8882 8.23458 11.872 8.48478 11.6019L14.489 5.1197Z" fill="#BBB8B0"/>
<path d="M11.1556 5.1197C11.4058 4.84958 11.3897 4.42778 11.1195 4.17758C10.8494 3.92738 10.4276 3.94353 10.1774 4.21364L4.24984 10.6131L1.82227 7.9923C1.57207 7.72218 1.15027 7.70603 0.880148 7.95623C0.610029 8.20643 0.593881 8.62823 0.84408 8.89835L3.34827 11.6019C3.83992 12.1327 4.65976 12.1327 5.15141 11.6019L11.1556 5.1197Z" fill="#BBB8B0"/>
</svg>
