<svg width="16" height="16" viewBox="0 0 16 16" fill="none" xmlns="http://www.w3.org/2000/svg">
<path fill-rule="evenodd" clip-rule="evenodd" d="M8 0.999999C11.8663 1 15 4.13367 15 8C15 11.8663 11.8663 15 8 15C4.13367 15 1 11.8663 1 8C1 4.13366 4.13367 0.999999 8 0.999999ZM8 8.77778C7.57045 8.77778 7.22222 8.42955 7.22222 8L7.22222 4.11111C7.22222 3.68156 7.57045 3.33333 8 3.33333C8.42956 3.33333 8.77778 3.68156 8.77778 4.11111L8.77778 8C8.77778 8.42955 8.42956 8.77778 8 8.77778ZM8.97222 10.9138C8.97461 11.4549 8.53564 11.8889 8.00078 11.8889C7.46513 11.8889 7.02778 11.4556 7.02778 10.9167C7.02778 10.3798 7.46311 9.94444 8 9.94444C8.53595 9.94444 8.9707 10.3783 8.97222 10.9138Z" fill="#A2392B"/>
</svg>
