<svg width="24" height="24" viewBox="0 0 24 24" fill="none" xmlns="http://www.w3.org/2000/svg">
<path fill-rule="evenodd" clip-rule="evenodd" d="M12.8161 0.107964C12.2816 -0.0359879 11.7184 -0.0359879 11.1839 0.107964C10.5721 0.272789 10.0446 0.681572 9.44293 1.14788L9.31433 1.24746L8.4691 1.90041C8.17593 2.12688 8.11673 2.16882 8.06033 2.19952C8.01607 2.22363 7.97014 2.2445 7.92293 2.26196C7.90082 2.27013 7.87843 2.27758 7.85579 2.28423C7.79419 2.30242 7.72269 2.31463 7.35524 2.36181L6.29587 2.49773L6.13452 2.51827C5.37935 2.61398 4.71732 2.6979 4.16815 3.014C3.68835 3.29015 3.29018 3.68835 3.01401 4.16814C2.69789 4.71731 2.614 5.37936 2.5183 6.13451L2.49776 6.29586L2.3618 7.35522C2.31465 7.72268 2.30241 7.79418 2.28426 7.8558C2.26334 7.92678 2.23492 7.99532 2.19954 8.06033C2.16881 8.11672 2.12691 8.17593 1.90042 8.46911L1.24747 9.31432L1.1479 9.44292C0.68158 10.0446 0.272781 10.572 0.107986 11.1839C-0.0359955 11.7184 -0.0359955 12.2815 0.107986 12.8161C0.272781 13.4279 0.68158 13.9554 1.1479 14.5571L1.24747 14.6857L1.90042 15.5309C2.12691 15.8241 2.16881 15.8833 2.19954 15.9397C2.23492 16.0047 2.26334 16.0732 2.28426 16.1442C2.30241 16.2058 2.31465 16.2773 2.3618 16.6448L2.49776 17.7041L2.5183 17.8655C2.614 18.6206 2.69789 19.2827 3.01401 19.8318C3.29018 20.3116 3.68835 20.7098 4.16815 20.986C4.71732 21.3021 5.37935 21.386 6.13451 21.4817L6.29587 21.5023L7.35524 21.6382C7.7227 21.6854 7.79419 21.6976 7.85579 21.7158C7.92677 21.7367 7.99533 21.7651 8.06033 21.8005C8.11673 21.8312 8.17593 21.8731 8.46912 22.0996L9.31433 22.7525L9.44293 22.8521C10.0446 23.3184 10.5721 23.7272 11.1839 23.892C11.7184 24.036 12.2816 24.036 12.8161 23.892C13.4279 23.7272 13.9554 23.3184 14.5571 22.8521L14.6857 22.7525L15.5309 22.0996C15.8241 21.8731 15.8833 21.8312 15.9397 21.8005C16.0047 21.7651 16.0732 21.7367 16.1442 21.7158C16.2058 21.6976 16.2773 21.6854 16.6448 21.6382L17.7041 21.5023L17.8655 21.4817C18.6207 21.386 19.2827 21.3021 19.8318 20.986C20.3116 20.7098 20.7098 20.3116 20.986 19.8318C21.3021 19.2827 21.386 18.6207 21.4817 17.8655L21.5023 17.7041L21.6382 16.6448C21.6854 16.2773 21.6976 16.2058 21.7158 16.1442C21.7367 16.0732 21.7651 16.0047 21.8005 15.9397C21.8176 15.9082 21.8383 15.8758 21.8925 15.8024C21.9355 15.7443 21.9995 15.6604 22.0996 15.5309L22.7525 14.6857L22.8521 14.5571C23.3184 13.9554 23.7272 13.4279 23.892 12.8161C24.036 12.2815 24.036 11.7184 23.892 11.1839C23.7272 10.572 23.3184 10.0446 22.8521 9.44292L22.7525 9.31432L22.0996 8.46911C21.8731 8.17593 21.8312 8.11672 21.8005 8.06033C21.7651 7.99532 21.7367 7.92678 21.7158 7.8558C21.6976 7.79418 21.6854 7.72268 21.6382 7.35522L21.5023 6.29586L21.4817 6.13451C21.386 5.37933 21.3021 4.71731 20.986 4.16814C20.7098 3.68835 20.3116 3.29015 19.8318 3.014C19.2827 2.6979 18.6207 2.61398 17.8655 2.51827L17.7041 2.49773L16.6448 2.36181C16.2773 2.31463 16.2058 2.30242 16.1442 2.28423C16.0732 2.26333 16.0047 2.23492 15.9397 2.19952C15.8833 2.16882 15.8241 2.12688 15.5309 1.90041L14.6857 1.24746L14.5571 1.14791C13.9554 0.681572 13.4279 0.272789 12.8161 0.107964Z" fill="#EDB53E"/>
<path d="M13.9572 7.16133V6.38711C13.9572 6.28444 13.998 6.18598 14.0705 6.11338C14.143 6.04078 14.2413 6 14.3438 6C14.4463 6 14.5446 6.04078 14.6171 6.11338C14.6896 6.18598 14.7303 6.28444 14.7303 6.38711V7.16133C14.7303 7.264 14.6896 7.36246 14.6171 7.43506C14.5446 7.50766 14.4463 7.54844 14.3438 7.54844C14.2413 7.54844 14.143 7.50766 14.0705 7.43506C13.998 7.36246 13.9572 7.264 13.9572 7.16133ZM15.6885 7.98394C15.7493 8.02056 15.8191 8.0395 15.89 8.03862C15.9563 8.03873 16.0216 8.02173 16.0795 7.98927C16.1374 7.95682 16.1859 7.90999 16.2205 7.85329L16.6071 7.21891C16.634 7.1755 16.652 7.12719 16.6602 7.07676C16.6683 7.02633 16.6665 6.97478 16.6546 6.92508C16.6428 6.87538 16.6213 6.82852 16.5913 6.78719C16.5613 6.74587 16.5234 6.7109 16.4799 6.6843C16.4363 6.6577 16.3879 6.64 16.3375 6.63221C16.2871 6.62443 16.2356 6.62672 16.1861 6.63894C16.1366 6.65117 16.0899 6.6731 16.0489 6.70346C16.0079 6.73382 15.9732 6.77201 15.947 6.81584L15.5605 7.44973C15.5337 7.49317 15.5157 7.5415 15.5077 7.59192C15.4996 7.64235 15.5016 7.69387 15.5135 7.74352C15.5254 7.79318 15.547 7.83999 15.577 7.88125C15.607 7.92251 15.6449 7.95741 15.6885 7.98394ZM17.9808 8.59316C17.9652 8.54476 17.9403 8.49992 17.9074 8.46118C17.8745 8.42244 17.8343 8.39056 17.7891 8.36738C17.7439 8.34419 17.6946 8.33015 17.644 8.32604C17.5934 8.32194 17.5425 8.32786 17.4942 8.34347L16.7694 8.57815C16.6815 8.60629 16.6066 8.66497 16.5582 8.74359C16.5097 8.82221 16.491 8.91559 16.5052 9.00686C16.5195 9.09813 16.566 9.18127 16.6361 9.24127C16.7063 9.30126 16.7955 9.33415 16.8878 9.33399C16.9281 9.33383 16.9682 9.32747 17.0067 9.31512L17.7314 9.08043C17.78 9.06485 17.825 9.0398 17.8638 9.00674C17.9027 8.97368 17.9346 8.93325 17.9577 8.88778C17.9809 8.84231 17.9949 8.7927 17.9988 8.7418C18.0028 8.69091 17.9966 8.63973 17.9808 8.59122V8.59316ZM16.5312 10.5258C16.9586 11.262 17.1307 12.1191 17.0206 12.9636C16.9106 13.808 16.5246 14.5922 15.9229 15.1939C15.7141 15.9246 15.2951 16.5775 14.7183 17.0714C14.1414 17.5652 13.4321 17.8781 12.6789 17.971C11.9256 18.0639 11.1618 17.9326 10.4825 17.5937C9.80324 17.2547 9.23864 16.723 8.85909 16.0649L7.16792 13.1311C7.06467 12.9517 7.0072 12.7496 7.00063 12.5427C6.99406 12.3357 7.03859 12.1304 7.13026 11.9448C7.22193 11.7592 7.35791 11.5992 7.52615 11.4789C7.69438 11.3585 7.88967 11.2817 8.09468 11.255L7.90141 10.9192C7.79975 10.7429 7.74235 10.5445 7.73414 10.341C7.72592 10.1376 7.76714 9.93517 7.85424 9.75119C7.94135 9.56721 8.07174 9.40715 8.23423 9.28475C8.39671 9.16236 8.58643 9.08128 8.7871 9.04849C8.68645 8.77096 8.68648 8.46682 8.78718 8.18931C8.88788 7.9118 9.08284 7.6786 9.33793 7.53054C9.57184 7.39579 9.8428 7.33989 10.1108 7.37108C10.3789 7.40227 10.6298 7.5189 10.8266 7.70377C10.9472 7.5295 11.1098 7.38856 11.2993 7.29405C11.4888 7.19953 11.699 7.15451 11.9106 7.16315C12.1221 7.17179 12.328 7.23382 12.5092 7.34347C12.6903 7.45313 12.8409 7.60686 12.9469 7.79039L13.5267 8.79639C13.6523 8.63176 13.8164 8.50073 14.0047 8.41491C14.193 8.3291 14.3995 8.29116 14.6059 8.30447C14.8123 8.31778 15.0122 8.38192 15.1879 8.4912C15.3637 8.60048 15.5097 8.75152 15.6131 8.93091L16.5312 10.5258ZM11.4408 8.66138L11.7273 9.15834C11.823 9.24584 11.9045 9.3477 11.9689 9.46028L12.5487 10.4644C12.7393 10.2165 13.0147 10.0479 13.3218 9.99111L12.2777 8.1775C12.2136 8.06636 12.1081 7.98527 11.9843 7.95205C11.8605 7.91884 11.7286 7.93623 11.6176 8.00039C11.5067 8.06456 11.4257 8.17025 11.3925 8.29421C11.3593 8.41817 11.3767 8.55024 11.4408 8.66138ZM9.54764 8.8622L9.83417 9.35963L9.84963 9.37367C9.94338 9.23774 10.063 9.12169 10.2016 9.03217C10.3403 8.94266 10.4952 8.88144 10.6575 8.85204L10.3845 8.37831C10.3368 8.29542 10.2655 8.22858 10.1798 8.18624C10.0941 8.1439 9.99777 8.12796 9.90302 8.14044C9.80826 8.15293 9.71934 8.19327 9.64748 8.25636C9.57562 8.31946 9.52406 8.40248 9.49932 8.49493C9.48268 8.5563 9.47838 8.62037 9.48668 8.68342C9.49497 8.74647 9.51569 8.80724 9.54764 8.8622ZM15.1937 14.9311C15.2999 14.5383 15.3272 14.1284 15.2741 13.725C15.221 13.3216 15.0886 12.9327 14.8845 12.5809L13.9664 10.9884C13.904 10.8812 13.8028 10.8021 13.6838 10.7675C13.5648 10.7329 13.437 10.7454 13.327 10.8025C13.2169 10.8595 13.1329 10.9567 13.0924 11.074C13.0519 11.1913 13.0579 11.3196 13.1092 11.4326L13.661 12.3873C13.7123 12.4763 13.7262 12.5821 13.6996 12.6813C13.673 12.7805 13.6081 12.8651 13.5192 12.9165C13.4304 12.9678 13.3248 12.9817 13.2257 12.955C13.1266 12.9284 13.0421 12.8634 12.9909 12.7744L11.2997 9.84836C11.2333 9.74315 11.1291 9.66758 11.0085 9.63735C10.888 9.60712 10.7605 9.62455 10.6524 9.68603C10.5444 9.7475 10.4642 9.84829 10.4284 9.96747C10.3926 10.0866 10.4041 10.215 10.4604 10.326L11.6505 12.3873C11.6775 12.4314 11.6954 12.4804 11.7031 12.5315C11.7109 12.5826 11.7083 12.6348 11.6957 12.6849C11.683 12.735 11.6604 12.782 11.6292 12.8233C11.5981 12.8645 11.559 12.8991 11.5143 12.9249C11.4696 12.9508 11.4202 12.9674 11.369 12.9738C11.3178 12.9802 11.2658 12.9763 11.2161 12.9623C11.1664 12.9483 11.12 12.9244 11.0797 12.8922C11.0394 12.8599 11.0059 12.8199 10.9813 12.7744L9.40751 10.0482C9.37602 9.99273 9.33388 9.94404 9.28351 9.90494C9.23315 9.86584 9.17556 9.83711 9.11407 9.82039C9.05257 9.80367 8.98838 9.79929 8.92519 9.80752C8.86199 9.81574 8.80105 9.83641 8.74587 9.86831C8.69068 9.90022 8.64234 9.94275 8.60363 9.99344C8.56493 10.0441 8.53661 10.102 8.52033 10.1637C8.50404 10.2254 8.5001 10.2897 8.50873 10.3529C8.51736 10.4161 8.5384 10.477 8.57063 10.5321L10.3101 13.5496C10.3355 13.5937 10.352 13.6423 10.3586 13.6927C10.3652 13.7431 10.3619 13.7943 10.3487 13.8434C10.3356 13.8925 10.3129 13.9386 10.282 13.9789C10.2511 14.0192 10.2125 14.0531 10.1685 14.0785C10.1246 14.1039 10.076 14.1204 10.0257 14.1271C9.97535 14.1337 9.9242 14.1303 9.87515 14.1172C9.82611 14.104 9.78014 14.0813 9.73986 14.0503C9.69959 14.0194 9.66579 13.9808 9.64041 13.9367L8.67403 12.2605C8.6095 12.1503 8.50405 12.0701 8.38069 12.0375C8.25734 12.0048 8.12609 12.0223 8.01559 12.0862C7.90509 12.1501 7.82431 12.2552 7.79088 12.3785C7.75745 12.5018 7.77408 12.6333 7.83714 12.7444L9.52831 15.6782C9.83411 16.2088 10.2901 16.6366 10.8387 16.9075C11.3873 17.1784 12.0038 17.2804 12.6103 17.2004C13.2167 17.1204 13.7859 16.8621 14.2457 16.4582C14.7056 16.0543 15.0355 15.5228 15.1937 14.9311ZM15.8615 10.911L14.9434 9.3185C14.8789 9.20827 14.7735 9.12807 14.6501 9.09541C14.5267 9.06275 14.3955 9.08028 14.285 9.14417C14.1745 9.20806 14.0937 9.31313 14.0603 9.43644C14.0268 9.55976 14.0435 9.69131 14.1065 9.80239L14.3921 10.2984C14.4878 10.3863 14.5692 10.4885 14.6337 10.6013L15.5518 12.1938C15.8097 12.6402 15.9761 13.1338 16.0412 13.6454C16.2234 13.2065 16.302 12.7314 16.2708 12.2571C16.2396 11.7829 16.0996 11.3222 15.8615 10.911Z" fill="#FFFCF5"/>
</svg>
