<svg width="24" height="24" viewBox="0 0 24 24" fill="none" xmlns="http://www.w3.org/2000/svg">
<path fill-rule="evenodd" clip-rule="evenodd" d="M12.8161 0.107964C12.2816 -0.0359879 11.7184 -0.0359879 11.1839 0.107964C10.5721 0.272789 10.0446 0.681572 9.44293 1.14788L9.31433 1.24746L8.4691 1.90041C8.17593 2.12688 8.11673 2.16882 8.06033 2.19952C8.01607 2.22363 7.97014 2.2445 7.92293 2.26196C7.90082 2.27013 7.87843 2.27758 7.85579 2.28423C7.79419 2.30242 7.72269 2.31463 7.35524 2.36181L6.29587 2.49773L6.13452 2.51827C5.37935 2.61398 4.71732 2.6979 4.16815 3.014C3.68835 3.29015 3.29018 3.68835 3.01401 4.16814C2.69789 4.71731 2.614 5.37936 2.5183 6.13451L2.49776 6.29586L2.3618 7.35522C2.31465 7.72268 2.30241 7.79418 2.28426 7.8558C2.26334 7.92678 2.23492 7.99532 2.19954 8.06033C2.16881 8.11672 2.12691 8.17593 1.90042 8.46911L1.24747 9.31432L1.1479 9.44292C0.68158 10.0446 0.272781 10.572 0.107986 11.1839C-0.0359955 11.7184 -0.0359955 12.2815 0.107986 12.8161C0.272781 13.4279 0.68158 13.9554 1.1479 14.5571L1.24747 14.6857L1.90042 15.5309C2.12691 15.8241 2.16881 15.8833 2.19954 15.9397C2.23492 16.0047 2.26334 16.0732 2.28426 16.1442C2.30241 16.2058 2.31465 16.2773 2.3618 16.6448L2.49776 17.7041L2.5183 17.8655C2.614 18.6206 2.69789 19.2827 3.01401 19.8318C3.29018 20.3116 3.68835 20.7098 4.16815 20.986C4.71732 21.3021 5.37935 21.386 6.13451 21.4817L6.29587 21.5023L7.35524 21.6382C7.7227 21.6854 7.79419 21.6976 7.85579 21.7158C7.92677 21.7367 7.99533 21.7651 8.06033 21.8005C8.11673 21.8312 8.17593 21.8731 8.46912 22.0996L9.31433 22.7525L9.44293 22.8521C10.0446 23.3184 10.5721 23.7272 11.1839 23.892C11.7184 24.036 12.2816 24.036 12.8161 23.892C13.4279 23.7272 13.9554 23.3184 14.5571 22.8521L14.6857 22.7525L15.5309 22.0996C15.8241 21.8731 15.8833 21.8312 15.9397 21.8005C16.0047 21.7651 16.0732 21.7367 16.1442 21.7158C16.2058 21.6976 16.2773 21.6854 16.6448 21.6382L17.7041 21.5023L17.8655 21.4817C18.6207 21.386 19.2827 21.3021 19.8318 20.986C20.3116 20.7098 20.7098 20.3116 20.986 19.8318C21.3021 19.2827 21.386 18.6207 21.4817 17.8655L21.5023 17.7041L21.6382 16.6448C21.6854 16.2773 21.6976 16.2058 21.7158 16.1442C21.7367 16.0732 21.7651 16.0047 21.8005 15.9397C21.8176 15.9082 21.8383 15.8758 21.8925 15.8024C21.9355 15.7443 21.9995 15.6604 22.0996 15.5309L22.7525 14.6857L22.8521 14.5571C23.3184 13.9554 23.7272 13.4279 23.892 12.8161C24.036 12.2815 24.036 11.7184 23.892 11.1839C23.7272 10.572 23.3184 10.0446 22.8521 9.44292L22.7525 9.31432L22.0996 8.46911C21.8731 8.17593 21.8312 8.11672 21.8005 8.06033C21.7651 7.99532 21.7367 7.92678 21.7158 7.8558C21.6976 7.79418 21.6854 7.72268 21.6382 7.35522L21.5023 6.29586L21.4817 6.13451C21.386 5.37933 21.3021 4.71731 20.986 4.16814C20.7098 3.68835 20.3116 3.29015 19.8318 3.014C19.2827 2.6979 18.6207 2.61398 17.8655 2.51827L17.7041 2.49773L16.6448 2.36181C16.2773 2.31463 16.2058 2.30242 16.1442 2.28423C16.0732 2.26333 16.0047 2.23492 15.9397 2.19952C15.8833 2.16882 15.8241 2.12688 15.5309 1.90041L14.6857 1.24746L14.5571 1.14791C13.9554 0.681572 13.4279 0.272789 12.8161 0.107964Z" fill="#F8F2EA"/>
<g clip-path="url(#clip0_3_16318)">
<path d="M14.4887 15.75C15.3673 15.1682 16.0138 14.2965 16.3156 13.2868C16.6174 12.2772 16.5553 11.1937 16.1401 10.2252C15.725 9.25664 14.9831 8.46451 14.0438 7.98687C13.1045 7.50923 12.0274 7.37638 11.0002 7.61147M14.4887 15.75V14M14.4887 15.75H16.2502M9.50017 8.25797C8.62462 8.84192 7.98144 9.71427 7.68247 10.7233C7.3835 11.7324 7.44765 12.8143 7.86378 13.781C8.2799 14.7476 9.02167 15.5379 9.96009 16.0143C10.8985 16.4907 11.9742 16.6231 13.0002 16.3885M9.50017 8.25797V9.99997M9.50017 8.25797H7.75017" stroke="#343330" stroke-linecap="round" stroke-linejoin="round"/>
</g>
<defs>
<clipPath id="clip0_3_16318">
<rect width="12" height="12" fill="white" transform="translate(6 6)"/>
</clipPath>
</defs>
</svg>
