<svg width="24" height="24" viewBox="0 0 24 24" fill="none" xmlns="http://www.w3.org/2000/svg">
<path fill-rule="evenodd" clip-rule="evenodd" d="M12.8161 0.107964C12.2816 -0.0359879 11.7184 -0.0359879 11.1839 0.107964C10.5721 0.272789 10.0446 0.681572 9.44293 1.14788L9.31433 1.24746L8.4691 1.90041C8.17593 2.12688 8.11673 2.16882 8.06033 2.19952C8.01607 2.22363 7.97014 2.2445 7.92293 2.26196C7.90082 2.27013 7.87843 2.27758 7.85579 2.28423C7.79419 2.30242 7.72269 2.31463 7.35524 2.36181L6.29587 2.49773L6.13452 2.51827C5.37935 2.61398 4.71732 2.6979 4.16815 3.014C3.68835 3.29015 3.29018 3.68835 3.01401 4.16814C2.69789 4.71731 2.614 5.37936 2.5183 6.13451L2.49776 6.29586L2.3618 7.35522C2.31465 7.72268 2.30241 7.79418 2.28426 7.8558C2.26334 7.92678 2.23492 7.99532 2.19954 8.06033C2.16881 8.11672 2.12691 8.17593 1.90042 8.46911L1.24747 9.31432L1.1479 9.44292C0.68158 10.0446 0.272781 10.572 0.107986 11.1839C-0.0359955 11.7184 -0.0359955 12.2815 0.107986 12.8161C0.272781 13.4279 0.68158 13.9554 1.1479 14.5571L1.24747 14.6857L1.90042 15.5309C2.12691 15.8241 2.16881 15.8833 2.19954 15.9397C2.23492 16.0047 2.26334 16.0732 2.28426 16.1442C2.30241 16.2058 2.31465 16.2773 2.3618 16.6448L2.49776 17.7041L2.5183 17.8655C2.614 18.6206 2.69789 19.2827 3.01401 19.8318C3.29018 20.3116 3.68835 20.7098 4.16815 20.986C4.71732 21.3021 5.37935 21.386 6.13451 21.4817L6.29587 21.5023L7.35524 21.6382C7.7227 21.6854 7.79419 21.6976 7.85579 21.7158C7.92677 21.7367 7.99533 21.7651 8.06033 21.8005C8.11673 21.8312 8.17593 21.8731 8.46912 22.0996L9.31433 22.7525L9.44293 22.8521C10.0446 23.3184 10.5721 23.7272 11.1839 23.892C11.7184 24.036 12.2816 24.036 12.8161 23.892C13.4279 23.7272 13.9554 23.3184 14.5571 22.8521L14.6857 22.7525L15.5309 22.0996C15.8241 21.8731 15.8833 21.8312 15.9397 21.8005C16.0047 21.7651 16.0732 21.7367 16.1442 21.7158C16.2058 21.6976 16.2773 21.6854 16.6448 21.6382L17.7041 21.5023L17.8655 21.4817C18.6207 21.386 19.2827 21.3021 19.8318 20.986C20.3116 20.7098 20.7098 20.3116 20.986 19.8318C21.3021 19.2827 21.386 18.6207 21.4817 17.8655L21.5023 17.7041L21.6382 16.6448C21.6854 16.2773 21.6976 16.2058 21.7158 16.1442C21.7367 16.0732 21.7651 16.0047 21.8005 15.9397C21.8176 15.9082 21.8383 15.8758 21.8925 15.8024C21.9355 15.7443 21.9995 15.6604 22.0996 15.5309L22.7525 14.6857L22.8521 14.5571C23.3184 13.9554 23.7272 13.4279 23.892 12.8161C24.036 12.2815 24.036 11.7184 23.892 11.1839C23.7272 10.572 23.3184 10.0446 22.8521 9.44292L22.7525 9.31432L22.0996 8.46911C21.8731 8.17593 21.8312 8.11672 21.8005 8.06033C21.7651 7.99532 21.7367 7.92678 21.7158 7.8558C21.6976 7.79418 21.6854 7.72268 21.6382 7.35522L21.5023 6.29586L21.4817 6.13451C21.386 5.37933 21.3021 4.71731 20.986 4.16814C20.7098 3.68835 20.3116 3.29015 19.8318 3.014C19.2827 2.6979 18.6207 2.61398 17.8655 2.51827L17.7041 2.49773L16.6448 2.36181C16.2773 2.31463 16.2058 2.30242 16.1442 2.28423C16.0732 2.26333 16.0047 2.23492 15.9397 2.19952C15.8833 2.16882 15.8241 2.12688 15.5309 1.90041L14.6857 1.24746L14.5571 1.14791C13.9554 0.681572 13.4279 0.272789 12.8161 0.107964Z" fill="#267F53"/>
<g clip-path="url(#clip0_3_16288)">
<path fill-rule="evenodd" clip-rule="evenodd" d="M16.9678 12.844C17.0772 11.9934 16.9061 11.1299 16.4809 10.3884L15.5677 8.78177C15.4648 8.60107 15.3195 8.44892 15.1447 8.33884C14.97 8.22876 14.7711 8.16415 14.5657 8.15074C14.3604 8.13734 14.155 8.17555 13.9677 8.26199C13.7805 8.34844 13.6172 8.48043 13.4923 8.64627L12.9155 7.63289C12.8101 7.44802 12.6603 7.29316 12.4801 7.1827C12.2999 7.07224 12.095 7.00976 11.8846 7.00105C11.6742 6.99235 11.4651 7.03771 11.2766 7.13291C11.0881 7.22812 10.9264 7.37009 10.8065 7.54564C10.6107 7.35942 10.3611 7.24193 10.0944 7.21051C9.8278 7.17909 9.55827 7.2354 9.3256 7.37114C9.07186 7.52029 8.87792 7.7552 8.77775 8.03474C8.67758 8.31429 8.67755 8.62066 8.77767 8.90022C8.57806 8.93325 8.38934 9.01492 8.22771 9.13821C8.06609 9.2615 7.93638 9.42273 7.84974 9.60806C7.76309 9.79339 7.72209 9.99728 7.73027 10.2022C7.73844 10.4071 7.79553 10.607 7.89665 10.7846L8.08891 11.1229C7.88497 11.1497 7.69072 11.2272 7.52337 11.3484C7.35602 11.4696 7.22076 11.6308 7.12957 11.8178C7.03839 12.0047 6.9941 12.2116 7.00063 12.42C7.00717 12.6284 7.06432 12.832 7.16704 13.0127L8.34173 15.0764C8.47541 15.3112 8.8346 15.288 8.9886 15.0662Lnan nanL8.9886 15.0662C9.06523 14.9559 9.07833 14.8115 9.01182 14.6946L7.83273 12.6232C7.76999 12.5114 7.75345 12.3788 7.7867 12.2546C7.81996 12.1304 7.90031 12.0246 8.01023 11.9602C8.12015 11.8958 8.2507 11.8782 8.37341 11.9111C8.49611 11.944 8.60101 12.0248 8.6652 12.1358L9.62648 13.8243C9.65173 13.8686 9.68534 13.9075 9.72541 13.9387C9.76547 13.9699 9.8112 13.9928 9.85998 14.006C9.90877 14.0193 9.95965 14.0227 10.0097 14.016C10.0598 14.0093 10.1081 13.9927 10.1518 13.9671C10.1956 13.9415 10.2339 13.9074 10.2647 13.8668C10.2954 13.8261 10.318 13.7798 10.331 13.7303C10.3441 13.6808 10.3475 13.6292 10.3409 13.5784C10.3343 13.5277 10.3179 13.4787 10.2926 13.4343L8.56234 10.3947C8.53028 10.3392 8.50936 10.2779 8.50077 10.2142C8.49218 10.1505 8.4961 10.0857 8.51231 10.0236C8.52851 9.96144 8.55667 9.90316 8.59517 9.85209C8.63368 9.80103 8.68176 9.75819 8.73665 9.72605C8.79155 9.69391 8.85217 9.67309 8.91503 9.66481C8.97789 9.65652 9.04174 9.66093 9.10291 9.67777C9.16409 9.69461 9.22137 9.72356 9.27147 9.76295C9.32156 9.80233 9.36348 9.85138 9.39481 9.90726L10.9603 12.6535C10.9848 12.6992 11.0181 12.7395 11.0582 12.772C11.0983 12.8046 11.1444 12.8286 11.1938 12.8427C11.2433 12.8568 11.295 12.8608 11.3459 12.8543C11.3969 12.8478 11.446 12.8311 11.4905 12.805C11.535 12.779 11.5738 12.7442 11.6048 12.7027C11.6358 12.6611 11.6583 12.6137 11.6709 12.5633C11.6835 12.5128 11.686 12.4603 11.6783 12.4088C11.6706 12.3573 11.6528 12.3079 11.6259 12.2635L10.4421 10.187C10.3861 10.0753 10.3747 9.94597 10.4103 9.82593C10.4459 9.70588 10.5257 9.60435 10.6332 9.54242C10.7406 9.4805 10.8675 9.46294 10.9874 9.49339C11.1073 9.52384 11.211 9.59997 11.277 9.70595L12.9592 12.6535C13.0102 12.7431 13.0943 12.8086 13.1928 12.8354C13.2914 12.8622 13.3964 12.8482 13.4848 12.7965C13.5732 12.7448 13.6378 12.6596 13.6642 12.5597C13.6907 12.4597 13.6769 12.3532 13.6259 12.2635L13.077 11.3018C13.026 11.188 13.02 11.0587 13.0603 10.9405C13.1006 10.8224 13.1841 10.7245 13.2936 10.667C13.4031 10.6096 13.5301 10.597 13.6485 10.6318C13.7669 10.6667 13.8676 10.7464 13.9297 10.8543L14.8429 12.4585C15.0459 12.8129 15.1776 13.2046 15.2304 13.611C15.2832 14.0174 15.2561 14.4303 15.1505 14.826C14.9931 15.422 14.6649 15.9573 14.2075 16.3642C14.1747 16.3934 14.1414 16.4218 14.1076 16.4494C14.0184 16.5222 13.9653 16.6345 13.9615 16.7504Lnan nanL13.9615 16.7504C13.9514 17.055 14.2653 17.3076 14.5048 17.1231C14.5636 17.0778 14.6212 17.0308 14.6775 16.9819C15.2514 16.4844 15.6681 15.8267 15.8758 15.0906C16.4744 14.4845 16.8583 13.6946 16.9678 12.844ZM11.7024 9.01087L11.4174 8.51027C11.3536 8.39832 11.3363 8.26527 11.3693 8.14041C11.4023 8.01554 11.4829 7.90908 11.5933 7.84444C11.7037 7.7798 11.8348 7.76229 11.958 7.79574C12.0811 7.8292 12.1861 7.91089 12.2498 8.02284L13.2885 9.84974C12.9829 9.90698 12.709 10.0768 12.5195 10.3265L11.9427 9.31503C11.8786 9.20162 11.7975 9.09901 11.7024 9.01087ZM9.81922 9.21364L9.5342 8.71256C9.50242 8.65719 9.48181 8.59598 9.47356 8.53247C9.4653 8.46896 9.46958 8.40442 9.48613 8.34259C9.51074 8.24947 9.56203 8.16584 9.63351 8.10228C9.70499 8.03872 9.79345 7.99809 9.8877 7.98551C9.98195 7.97294 10.0778 7.98899 10.163 8.03164C10.2483 8.07429 10.3191 8.14162 10.3667 8.22512L10.6382 8.70232C10.4768 8.73194 10.3227 8.79361 10.1847 8.88378C10.0468 8.97395 9.92785 9.09085 9.8346 9.22778L9.81922 9.21364ZM14.9015 9.17221L15.8147 10.7764C16.0516 11.1906 16.1909 11.6546 16.2219 12.1324C16.2529 12.6102 16.1748 13.0887 15.9935 13.5308C15.9288 13.0154 15.7632 12.5183 15.5067 12.0685L14.5934 10.4644C14.5293 10.3507 14.4482 10.2478 14.3531 10.1593L14.0691 9.65964C14.0063 9.54775 13.9898 9.41523 14.023 9.29101C14.0563 9.16679 14.1366 9.06096 14.2466 8.9966C14.3565 8.93224 14.487 8.91458 14.6097 8.94748C14.7324 8.98038 14.8373 9.06117 14.9015 9.17221Z" fill="#FFFCF5"/>
<path fill-rule="evenodd" clip-rule="evenodd" d="M10.9497 15.8343V16.6756C10.9497 16.7656 10.9971 16.8487 11.0741 16.8937L11.4412 17.1084C11.5742 17.1861 11.7442 17.14 11.821 17.0053C11.8978 16.8706 11.8522 16.6984 11.7192 16.6206L11.5059 16.4959V15.8343C11.5059 15.6787 11.3814 15.5527 11.2278 15.5527C11.0742 15.5527 10.9497 15.6787 10.9497 15.8343ZM11.2278 14.3164C11.0845 14.3164 10.9441 14.3296 10.8076 14.355C10.6566 14.3831 10.5566 14.5299 10.5843 14.6828C10.6121 14.8358 10.757 14.937 10.9081 14.9089C11.0116 14.8897 11.1184 14.8796 11.2278 14.8796C12.1979 14.8796 12.9844 15.676 12.9844 16.6584C12.9844 17.6409 12.1979 18.4373 11.2278 18.4373C11.1184 18.4373 11.0116 18.4272 10.9081 18.408C10.757 18.3799 10.6121 18.4811 10.5843 18.634C10.5566 18.787 10.6566 18.9338 10.8076 18.9619C10.9441 18.9873 11.0845 19.0005 11.2278 19.0005C12.5051 19.0005 13.5405 17.9519 13.5405 16.6584C13.5405 15.365 12.5051 14.3164 11.2278 14.3164ZM10.3497 15.1174C10.4826 15.0395 10.528 14.8673 10.4511 14.7326C10.3743 14.598 10.2041 14.552 10.0712 14.6299C9.75582 14.8147 9.48767 15.0726 9.28923 15.3808C9.20535 15.511 9.24164 15.6855 9.37028 15.7704C9.49893 15.8554 9.67121 15.8186 9.75509 15.6884C9.906 15.454 10.11 15.2578 10.3497 15.1174ZM9.51674 16.2539C9.55151 16.1024 9.45843 15.9511 9.30884 15.9159C9.15925 15.8807 9.0098 15.9749 8.97504 16.1264C8.93575 16.2976 8.91504 16.4758 8.91504 16.6584C8.91504 16.8411 8.93575 17.0193 8.97504 17.1905C9.0098 17.342 9.15925 17.4362 9.30884 17.401C9.45843 17.3658 9.55151 17.2145 9.51674 17.063C9.48698 16.9333 9.47118 16.7979 9.47118 16.6584C9.47118 16.519 9.48698 16.3836 9.51674 16.2539ZM9.75509 17.6285C9.67122 17.4982 9.49893 17.4615 9.37028 17.5464C9.24164 17.6314 9.20535 17.8058 9.28923 17.9361C9.48767 18.2443 9.75582 18.5022 10.0712 18.687C10.2041 18.7649 10.3742 18.7189 10.4511 18.5842C10.528 18.4496 10.4826 18.2774 10.3497 18.1995C10.11 18.0591 9.906 17.8629 9.75509 17.6285Z" fill="#FFFCF5"/>
</g>
<defs>
<clipPath id="clip0_3_16288">
<rect width="12" height="12" fill="white" transform="translate(6 7)"/>
</clipPath>
</defs>
</svg>
