<svg width="24" height="24" viewBox="0 0 24 24" fill="none" xmlns="http://www.w3.org/2000/svg">
<circle cx="12" cy="12" r="12" fill="#EDB53E" fill-opacity="0.5"/>
<path fill-rule="evenodd" clip-rule="evenodd" d="M11.0006 6.59067C11.325 6.53107 11.6591 6.5 12 6.5C15.0376 6.5 17.5 8.96243 17.5 12C17.5 15.0376 15.0376 17.5 12 17.5C11.6591 17.5 11.325 17.4689 11.0006 17.4093C10.729 17.3594 10.5492 17.0988 10.5991 16.8272C10.649 16.5556 10.9096 16.3759 11.1812 16.4258C11.4464 16.4745 11.72 16.5 12 16.5C14.4853 16.5 16.5 14.4853 16.5 12C16.5 9.51472 14.4853 7.5 12 7.5C11.72 7.5 11.4464 7.52551 11.1812 7.57422C10.9096 7.6241 10.649 7.44437 10.5991 7.17278C10.5492 6.90118 10.729 6.64056 11.0006 6.59067ZM9.9328 7.41855C10.0711 7.65758 9.98939 7.96344 9.75036 8.10171C9.13646 8.45684 8.61395 8.95302 8.22744 9.54581C8.07662 9.77713 7.76683 9.84238 7.53552 9.69156C7.3042 9.54074 7.23895 9.23096 7.38977 8.99964C7.86175 8.27575 8.49956 7.67 9.24964 7.23611C9.48867 7.09784 9.79453 7.17952 9.9328 7.41855ZM7.24288 10.3766C7.51186 10.4391 7.67923 10.7078 7.61672 10.9768C7.54044 11.305 7.5 11.6475 7.5 12C7.5 12.3525 7.54044 12.695 7.61672 13.0232C7.67923 13.2922 7.51186 13.5609 7.24288 13.6234C6.97391 13.6859 6.70519 13.5185 6.64268 13.2495C6.54927 12.8476 6.5 12.4293 6.5 12C6.5 11.5707 6.54927 11.1524 6.64268 10.7505C6.70519 10.4815 6.97391 10.3141 7.24288 10.3766ZM7.53552 14.3084C7.76683 14.1576 8.07662 14.2229 8.22744 14.4542C8.61395 15.047 9.13646 15.5432 9.75036 15.8983C9.98939 16.0366 10.0711 16.3424 9.9328 16.5815C9.79453 16.8205 9.48867 16.9022 9.24964 16.7639C8.49956 16.33 7.86175 15.7242 7.38977 15.0004C7.23895 14.769 7.3042 14.4593 7.53552 14.3084Z" fill="#A2392B"/>
<circle cx="12" cy="14" r="0.5" fill="#A2392B"/>
<rect x="11.5" y="9" width="1" height="4" rx="0.5" fill="#A2392B"/>
</svg>
