<svg width="24" height="24" viewBox="0 0 24 24" fill="none" xmlns="http://www.w3.org/2000/svg">
<path d="M12.0002 2.25C10.3169 2.24963 8.66213 2.68508 7.19704 3.51396C5.73194 4.34285 4.50641 5.53692 3.63971 6.97997C2.77302 8.42301 2.29469 10.0659 2.25129 11.7486C2.20789 13.4314 2.60089 15.0967 3.39205 16.5825L2.32799 19.7747C2.23985 20.039 2.22706 20.3226 2.29105 20.5938C2.35504 20.8649 2.49328 21.1129 2.69029 21.3099C2.88729 21.5069 3.13526 21.6451 3.40642 21.7091C3.67757 21.7731 3.96119 21.7603 4.22549 21.6722L7.41768 20.6081C8.72527 21.3036 10.1741 21.6921 11.6543 21.744C13.1344 21.7959 14.6069 21.51 15.9601 20.9079C17.3132 20.3057 18.5114 19.4033 19.4636 18.269C20.4159 17.1346 21.0972 15.7983 21.4559 14.3613C21.8146 12.9244 21.8412 11.4246 21.5337 9.97578C21.2263 8.527 20.5928 7.16731 19.6813 5.99992C18.7699 4.83253 17.6045 3.88811 16.2736 3.23836C14.9427 2.58861 13.4812 2.25061 12.0002 2.25ZM15.0002 14.25H9.00017C8.80126 14.25 8.6105 14.171 8.46984 14.0303C8.32919 13.8897 8.25017 13.6989 8.25017 13.5C8.25017 13.3011 8.32919 13.1103 8.46984 12.9697C8.6105 12.829 8.80126 12.75 9.00017 12.75H15.0002C15.1991 12.75 15.3899 12.829 15.5305 12.9697C15.6712 13.1103 15.7502 13.3011 15.7502 13.5C15.7502 13.6989 15.6712 13.8897 15.5305 14.0303C15.3899 14.171 15.1991 14.25 15.0002 14.25ZM15.0002 11.25H9.00017C8.80126 11.25 8.6105 11.171 8.46984 11.0303C8.32919 10.8897 8.25017 10.6989 8.25017 10.5C8.25017 10.3011 8.32919 10.1103 8.46984 9.96967C8.6105 9.82902 8.80126 9.75 9.00017 9.75H15.0002C15.1991 9.75 15.3899 9.82902 15.5305 9.96967C15.6712 10.1103 15.7502 10.3011 15.7502 10.5C15.7502 10.6989 15.6712 10.8897 15.5305 11.0303C15.3899 11.171 15.1991 11.25 15.0002 11.25Z" fill="#343330"/>
</svg>
