<svg width="16" height="16" viewBox="0 0 16 16" fill="none" xmlns="http://www.w3.org/2000/svg">
<path d="M14 2.9502C14.2785 2.9502 14.5453 3.0609 14.7422 3.25781C14.9391 3.45473 15.0498 3.72152 15.0498 4V5.5C15.0498 5.77848 14.9391 6.04527 14.7422 6.24219C14.5571 6.42731 14.3101 6.5345 14.0498 6.54688V13.333C14.0498 13.6115 13.9391 13.8793 13.7422 14.0762C13.5453 14.2729 13.2783 14.3838 13 14.3838H3C2.72168 14.3838 2.45469 14.2729 2.25781 14.0762C2.0609 13.8793 1.9502 13.6115 1.9502 13.333V6.54688C1.68988 6.5345 1.44293 6.42731 1.25781 6.24219C1.0609 6.04527 0.950195 5.77848 0.950195 5.5V4C0.950195 3.72152 1.0609 3.45473 1.25781 3.25781C1.45473 3.0609 1.72152 2.9502 2 2.9502H14ZM3.0498 13.2832H12.9502V6.5498H3.0498V13.2832ZM9.5 7.9502C9.64587 7.9502 9.78553 8.00818 9.88867 8.11133C9.99182 8.21447 10.0498 8.35413 10.0498 8.5C10.0498 8.64587 9.99182 8.78553 9.88867 8.88867C9.78553 8.99182 9.64587 9.0498 9.5 9.0498H6.5C6.35413 9.0498 6.21447 8.99182 6.11133 8.88867C6.00818 8.78553 5.9502 8.64587 5.9502 8.5C5.9502 8.35413 6.00818 8.21447 6.11133 8.11133C6.21447 8.00818 6.35413 7.9502 6.5 7.9502H9.5ZM2.0498 5.4502H13.9502V4.0498H2.0498V5.4502Z" fill="#343330" stroke="#343330" stroke-width="0.1"/>
</svg>
