<svg width="20" height="20" viewBox="0 0 20 20" fill="none" xmlns="http://www.w3.org/2000/svg">
<path d="M9.68734 9.68777H10.3123M9.68734 10.3128H10.3123M3.854 9.68777H4.479M3.854 10.3128H4.479M15.5207 9.68777H16.1457M15.5207 10.3128H16.1457M10.8334 10.0003C10.8334 10.4606 10.4603 10.8337 10 10.8337C9.5398 10.8337 9.16671 10.4606 9.16671 10.0003C9.16671 9.54009 9.5398 9.16699 10 9.16699C10.4603 9.16699 10.8334 9.54009 10.8334 10.0003ZM5.00004 10.0003C5.00004 10.4606 4.62694 10.8337 4.16671 10.8337C3.70647 10.8337 3.33337 10.4606 3.33337 10.0003C3.33337 9.54009 3.70647 9.16699 4.16671 9.16699C4.62694 9.16699 5.00004 9.54009 5.00004 10.0003ZM16.6667 10.0003C16.6667 10.4606 16.2936 10.8337 15.8334 10.8337C15.3731 10.8337 15 10.4606 15 10.0003C15 9.54009 15.3731 9.16699 15.8334 9.16699C16.2936 9.16699 16.6667 9.54009 16.6667 10.0003Z" stroke="#181818" stroke-width="1.5" stroke-linecap="round"/>
</svg>
