<svg width="14" height="14" viewBox="0 0 14 14" fill="none" xmlns="http://www.w3.org/2000/svg">
<path d="M0.937728 10.5951L1.50694 10.7848L0.937728 10.5951ZM1.55478 8.74389L0.985575 8.55415H0.985575L1.55478 8.74389ZM2.19149 7.71368L2.61575 8.13794L2.61576 8.13794L2.19149 7.71368ZM8.34061 1.56456L7.91635 1.14029V1.14029L8.34061 1.56456ZM11.6351 4.85909L12.0594 5.28336H12.0594L11.6351 4.85909ZM5.48603 11.0082L5.06176 10.584H5.06176L5.48603 11.0082ZM4.45582 11.6449L4.64555 12.2141H4.64555L4.45582 11.6449ZM2.60465 12.262L2.79438 12.8312H2.79438L2.60465 12.262ZM5.1483 11.3234L4.78696 10.8445L4.78696 10.8445L5.1483 11.3234ZM4.8888 11.4838L4.62198 10.9464L4.8888 11.4838ZM12.4288 2.48041L11.8912 2.74682L11.8912 2.74682L12.4288 2.48041ZM12.4288 3.94324L11.8912 3.67683L11.8912 3.67683L12.4288 3.94324ZM9.25647 0.770894L9.52288 1.30851V1.30851L9.25647 0.770894ZM10.7193 0.770894L10.4529 1.30851L10.4529 1.30851L10.7193 0.770894ZM1.71588 8.31091L2.25329 8.57773L2.25329 8.57773L1.71588 8.31091ZM1.87626 8.0514L1.39727 7.69006L1.39727 7.69006L1.87626 8.0514ZM0.630764 12.0698L0.0656209 12.2713L0.630764 12.0698ZM1.12991 12.5689L0.928379 13.1341H0.92838L1.12991 12.5689ZM7.94124 1.96395C7.70692 1.72964 7.32702 1.72964 7.09271 1.96395C6.85839 2.19827 6.8584 2.57817 7.09271 2.81248L7.94124 1.96395ZM10.3872 6.10702C10.6216 6.34133 11.0015 6.34133 11.2358 6.10702C11.4701 5.87271 11.4701 5.49281 11.2358 5.25849L10.3872 6.10702ZM1.50694 10.7848L2.12399 8.93363L0.985575 8.55415L0.368518 10.4053L1.50694 10.7848ZM2.61576 8.13794L8.76488 1.98882L7.91635 1.14029L1.76723 7.28941L2.61576 8.13794ZM11.2109 4.43483L5.06176 10.584L5.91029 11.4325L12.0594 5.28336L11.2109 4.43483ZM4.26608 11.0757L2.41491 11.6928L2.79438 12.8312L4.64555 12.2141L4.26608 11.0757ZM5.06176 10.584C4.88636 10.7594 4.83757 10.8063 4.78696 10.8445L5.50965 11.8024C5.64225 11.7024 5.75753 11.5852 5.91029 11.4325L5.06176 10.584ZM4.64555 12.2141C4.8505 12.1458 5.00685 12.0951 5.15562 12.0212L4.62198 10.9464C4.5652 10.9746 4.50141 10.9973 4.26608 11.0757L4.64555 12.2141ZM4.78696 10.8445C4.73524 10.8835 4.68001 10.9176 4.62198 10.9464L5.15562 12.0212C5.28014 11.9594 5.39866 11.8862 5.50965 11.8024L4.78696 10.8445ZM11.2109 1.98882C11.6942 2.47216 11.8259 2.61506 11.8912 2.74682L12.9664 2.214C12.7916 1.86131 12.4742 1.55512 12.0594 1.14029L11.2109 1.98882ZM12.0594 5.28336C12.4742 4.86853 12.7916 4.56234 12.9664 4.20965L11.8912 3.67683C11.8259 3.80859 11.6942 3.95149 11.2109 4.43483L12.0594 5.28336ZM11.8912 2.74682C12.0364 3.03982 12.0364 3.38383 11.8912 3.67683L12.9664 4.20965C13.278 3.58091 13.278 2.84274 12.9664 2.214L11.8912 2.74682ZM8.76488 1.98882C9.24822 1.50548 9.39112 1.3738 9.52288 1.30851L8.99006 0.233282C8.63737 0.408057 8.33118 0.725465 7.91635 1.14029L8.76488 1.98882ZM12.0594 1.14029C11.6446 0.725462 11.3384 0.408057 10.9857 0.233282L10.4529 1.30851C10.5846 1.3738 10.7275 1.50548 11.2109 1.98882L12.0594 1.14029ZM9.52288 1.30851C9.81588 1.16331 10.1599 1.16331 10.4529 1.30851L10.9857 0.233283C10.357 -0.0782818 9.61879 -0.0782818 8.99006 0.233283L9.52288 1.30851ZM2.12399 8.93363C2.20244 8.6983 2.2251 8.63451 2.25329 8.57773L1.17848 8.04408C1.10461 8.19286 1.05389 8.34921 0.985575 8.55415L2.12399 8.93363ZM1.76723 7.28941C1.61447 7.44217 1.49731 7.55746 1.39727 7.69006L2.35525 8.41275C2.39343 8.36214 2.44035 8.31334 2.61575 8.13794L1.76723 7.28941ZM2.25329 8.57773C2.2821 8.5197 2.31623 8.46447 2.35525 8.41275L1.39727 7.69006C1.31355 7.80105 1.2403 7.91956 1.17848 8.04409L2.25329 8.57773ZM0.368518 10.4053C0.238172 10.7964 0.12667 11.129 0.0637766 11.3966C0.00297469 11.6554 -0.0429538 11.9669 0.0656209 12.2713L1.19591 11.8683C1.20906 11.9052 1.18249 11.8817 1.23196 11.6711C1.27934 11.4695 1.36903 11.1985 1.50694 10.7848L0.368518 10.4053ZM2.41491 11.6928C2.00118 11.8307 1.73021 11.9204 1.52858 11.9677C1.31805 12.0172 1.29455 11.9906 1.33143 12.0038L0.92838 13.1341C1.23286 13.2427 1.54434 13.1967 1.80309 13.1359C2.07074 13.073 2.40335 12.9615 2.79438 12.8312L2.41491 11.6928ZM0.0656209 12.2713C0.209149 12.6738 0.525885 12.9906 0.928379 13.1341L1.33144 12.0038C1.26821 11.9813 1.21845 11.9315 1.19591 11.8683L0.0656209 12.2713ZM7.09271 2.81248L10.3872 6.10702L11.2358 5.25849L7.94124 1.96395L7.09271 2.81248Z" fill="#252525"/>
</svg>
