<svg width="18" height="18" viewBox="0 0 18 18" fill="none" xmlns="http://www.w3.org/2000/svg">
<path d="M11.9359 1.742V0.580666C11.9359 0.426663 11.9969 0.278969 12.1057 0.170073C12.2144 0.0611771 12.3619 0 12.5157 0C12.6695 0 12.817 0.0611771 12.9257 0.170073C13.0344 0.278969 13.0955 0.426663 13.0955 0.580666V1.742C13.0955 1.896 13.0344 2.04369 12.9257 2.15259C12.817 2.26149 12.6695 2.32266 12.5157 2.32266C12.3619 2.32266 12.2144 2.26149 12.1057 2.15259C11.9969 2.04369 11.9359 1.896 11.9359 1.742ZM14.5328 2.97591C14.6239 3.03084 14.7286 3.05925 14.835 3.05793C14.9345 3.05809 15.0324 3.0326 15.1192 2.98391C15.206 2.93523 15.2789 2.86498 15.3308 2.77994L15.9106 1.82837C15.9509 1.76325 15.978 1.69078 15.9903 1.61514C16.0025 1.53949 15.9997 1.46217 15.9819 1.38762C15.9642 1.31307 15.9319 1.24278 15.8869 1.18079C15.8419 1.1188 15.7851 1.06634 15.7198 1.02645C15.6545 0.986547 15.5819 0.959994 15.5063 0.948318C15.4306 0.936642 15.3534 0.940073 15.2791 0.958415C15.2048 0.976757 15.1349 1.00965 15.0733 1.05519C15.0118 1.10073 14.9599 1.15802 14.9205 1.22375L14.3407 2.17459C14.3005 2.23976 14.2736 2.31225 14.2615 2.38788C14.2494 2.46352 14.2523 2.5408 14.2702 2.61529C14.288 2.68977 14.3204 2.75998 14.3655 2.82187C14.4106 2.88376 14.4674 2.93612 14.5328 2.97591ZM17.9712 3.88973C17.9478 3.81714 17.9104 3.74987 17.8611 3.69176C17.8117 3.63366 17.7515 3.58585 17.6837 3.55107C17.6159 3.51629 17.542 3.49522 17.4661 3.48907C17.3901 3.48291 17.3138 3.49179 17.2413 3.5152L16.1541 3.86723C16.0223 3.90943 15.9099 3.99745 15.8373 4.11539C15.7646 4.23332 15.7364 4.37339 15.7579 4.51029C15.7793 4.6472 15.8489 4.77191 15.9542 4.8619C16.0594 4.95189 16.1933 5.00122 16.3317 5.00098C16.3922 5.00075 16.4524 4.9912 16.51 4.97267L17.5972 4.62065C17.67 4.59727 17.7375 4.55971 17.7957 4.51011C17.854 4.46051 17.9019 4.39987 17.9366 4.33166C17.9714 4.26346 17.9923 4.18904 17.9983 4.1127C18.0042 4.03636 17.995 3.95959 17.9712 3.88683V3.88973ZM15.7968 6.78871C16.4379 7.893 16.696 9.17872 16.531 10.4453C16.3659 11.712 15.7869 12.8883 14.8843 13.7908C14.5711 14.8868 13.9427 15.8663 13.0774 16.6071C12.2121 17.3479 11.1482 17.8172 10.0183 17.9565C8.88846 18.0958 7.74265 17.899 6.72376 17.3905C5.70486 16.8821 4.85795 16.0845 4.28864 15.0973L1.75188 10.6966C1.597 10.4275 1.51081 10.1244 1.50095 9.81399C1.4911 9.5036 1.55788 9.19557 1.69539 8.91721C1.83289 8.63886 2.03687 8.3988 2.28922 8.21831C2.54157 8.03782 2.8345 7.92248 3.14202 7.88253L2.85211 7.37881C2.69963 7.1143 2.61353 6.81669 2.60121 6.51152C2.58889 6.20635 2.65071 5.90275 2.78137 5.62678C2.91202 5.35081 3.10761 5.11072 3.35134 4.92713C3.59507 4.74354 3.87965 4.62193 4.18064 4.57274C4.02967 4.15645 4.02972 3.70024 4.18077 3.28397C4.33183 2.86771 4.62427 2.51791 5.0069 2.29581C5.35776 2.09369 5.7642 2.00984 6.16626 2.05662C6.56833 2.10341 6.94473 2.27835 7.23997 2.55565C7.4208 2.29425 7.66465 2.08284 7.9489 1.94107C8.23314 1.7993 8.54855 1.73176 8.86583 1.74472C9.18311 1.75768 9.49197 1.85073 9.76374 2.01521C10.0355 2.1797 10.2614 2.41029 10.4203 2.68558L11.2901 4.19458C11.4784 3.94765 11.7247 3.75109 12.007 3.62237C12.2894 3.49365 12.5992 3.43674 12.9088 3.45671C13.2184 3.47667 13.5183 3.57288 13.7819 3.7368C14.0455 3.90072 14.2646 4.12728 14.4197 4.39636L15.7968 6.78871ZM8.16117 3.99208L8.59097 4.7375C8.73448 4.86876 8.85673 5.02155 8.95336 5.19042L9.82311 6.69653C10.109 6.32473 10.522 6.0719 10.9828 5.98666L9.4165 3.26624C9.32038 3.09954 9.16208 2.9779 8.97641 2.92808C8.79074 2.87826 8.59291 2.90434 8.42644 3.00059C8.25998 3.09684 8.13851 3.25538 8.08877 3.44132C8.03902 3.62725 8.06506 3.82537 8.16117 3.99208ZM5.32146 4.2933L5.75126 5.03945L5.77445 5.0605C5.91506 4.85661 6.0945 4.68253 6.30246 4.54826C6.51042 4.41399 6.74281 4.32216 6.98629 4.27805L6.57679 3.56746C6.50513 3.44313 6.39826 3.34286 6.2697 3.27935C6.14113 3.21584 5.99665 3.19194 5.85452 3.21066C5.7124 3.22939 5.579 3.2899 5.47122 3.38455C5.36343 3.47919 5.28609 3.60372 5.24898 3.74239C5.22402 3.83445 5.21757 3.93055 5.23001 4.02513C5.24245 4.1197 5.27354 4.21085 5.32146 4.2933ZM13.7906 13.3967C13.9498 12.8075 13.9908 12.1926 13.9111 11.5875C13.8315 10.9824 13.6329 10.3991 13.3267 9.87131L11.9496 7.4826C11.856 7.3218 11.7042 7.20318 11.5257 7.15127C11.3472 7.09936 11.1556 7.11812 10.9905 7.20368C10.8254 7.28923 10.6994 7.43504 10.6386 7.61096C10.5778 7.78689 10.5869 7.97947 10.6639 8.14891L11.4916 9.58098C11.5685 9.71448 11.5892 9.8731 11.5493 10.022C11.5095 10.1708 11.4121 10.2977 11.2788 10.3747C11.1455 10.4517 10.9871 10.4725 10.8385 10.4325C10.6899 10.3926 10.5632 10.2951 10.4863 10.1616L7.94953 5.77254C7.85001 5.61472 7.6936 5.50137 7.5128 5.45602C7.332 5.41067 7.1407 5.43682 6.97865 5.52904C6.8166 5.62125 6.69625 5.77244 6.6426 5.9512C6.58896 6.12995 6.60614 6.32254 6.69058 6.48894L8.47573 9.58098C8.51621 9.64708 8.54306 9.72063 8.55469 9.79729C8.56633 9.87395 8.56252 9.95217 8.54348 10.0273C8.52444 10.1025 8.49056 10.1731 8.44384 10.2349C8.39712 10.2967 8.33851 10.3486 8.27146 10.3874C8.20442 10.4262 8.13029 10.4511 8.05346 10.4607C7.97663 10.4704 7.89865 10.4645 7.82413 10.4434C7.7496 10.4224 7.68004 10.3866 7.61955 10.3382C7.55905 10.2898 7.50885 10.2298 7.4719 10.1616L5.11127 6.07231C5.06403 5.9891 5.00081 5.91606 4.92527 5.85741C4.84973 5.79877 4.76335 5.75566 4.6711 5.73058C4.57885 5.7055 4.48257 5.69894 4.38778 5.71128C4.29299 5.72362 4.20158 5.75461 4.1188 5.80247C4.03602 5.85033 3.96351 5.91412 3.90545 5.99016C3.84739 6.0662 3.80492 6.15299 3.78049 6.24553C3.75606 6.33808 3.75015 6.43454 3.76309 6.52938C3.77604 6.62422 3.8076 6.71556 3.85594 6.79814L6.46517 11.3244C6.50324 11.3905 6.52795 11.4634 6.53788 11.539C6.54781 11.6146 6.54278 11.6915 6.52306 11.7651C6.50334 11.8388 6.46932 11.9079 6.42295 11.9684C6.37658 12.0289 6.31877 12.0796 6.25281 12.1178C6.18685 12.1559 6.11403 12.1806 6.03853 12.1906C5.96302 12.2005 5.88629 12.1955 5.81273 12.1757C5.73917 12.156 5.67021 12.1219 5.6098 12.0755C5.54938 12.029 5.49869 11.9712 5.46062 11.9051L4.01104 9.39081C3.91425 9.22546 3.75607 9.10517 3.57104 9.05618C3.386 9.00719 3.18913 9.03348 3.02338 9.12931C2.85763 9.22515 2.73646 9.38275 2.68632 9.56772C2.63617 9.7527 2.66112 9.95002 2.75571 10.1166L5.29247 14.5174C5.75116 15.3131 6.43522 15.9548 7.25811 16.3613C8.081 16.7677 9.00577 16.9206 9.91544 16.8006C10.8251 16.6806 11.6788 16.2932 12.3686 15.6873C13.0584 15.0814 13.5532 14.2843 13.7906 13.3967ZM14.7922 7.36647L13.4151 4.97776C13.3184 4.81241 13.1602 4.69211 12.9751 4.64312C12.7901 4.59413 12.5932 4.62042 12.4275 4.71626C12.2617 4.81209 12.1406 4.96969 12.0904 5.15467C12.0403 5.33964 12.0652 5.53697 12.1598 5.70359L12.5882 6.44757C12.7316 6.57941 12.8539 6.73268 12.9506 6.90194L14.3277 9.29065C14.7146 9.96035 14.9642 10.7006 15.0619 11.4681C15.3352 10.8098 15.453 10.0971 15.4062 9.38572C15.3595 8.67428 15.1494 7.98326 14.7922 7.36647Z" fill="#68727D"/>
</svg>
