<?xml version="1.0" encoding="UTF-8"?>
<svg id="_Слой_1" data-name="Слой_1" xmlns="http://www.w3.org/2000/svg" version="1.1" viewBox="0 0 45 45">
  <!-- Generator: Adobe Illustrator 29.7.1, SVG Export Plug-In . SVG Version: 2.1.1 Build 8)  -->
  <defs>
    <style>
      .st0 {
        fill: #edb53e;
      }

      .st1 {
        fill: #99b7f5;
      }

      .st2 {
        fill: #fefefe;
      }

      .st3 {
        fill: #267e52;
      }
    </style>
  </defs>
  <path class="st3" d="M2.57,22.87v-2.06c0-1-.02-1.97.1-2.95C3.95,6.94,13.79-1.14,24.83.13c9.98,1.15,17.75,9.9,17.82,19.87v2.87c-.16-.01-.47,0-.64,0h-1.26c-.21.03-.41.02-.59.04-.4-1.54-1.75-2.74-3.37-2.76-.11-.07-.11-.34-.17-.5-.16-.42-.34-.81-.61-1.17.1-.11.51-.37.66-.42-.18-.32-.21-.75-.29-1.11-.53-2.37-1.68-4.58-3.33-6.37-.27-.29-.52-.58-.81-.86-5.66-5.51-14.83-5.07-20.02.71-1.66,1.84-2.83,3.9-3.39,6.33-.08.36-.12.83-.3,1.14h.09c.08.13-.07,1.07.02,1.43-.17.31-.23.47-.29.82-1.81.08-2.72,1.16-3.29,2.72-.23-.02-.35-.01-.58,0-.42-.03-1.46-.04-1.88,0Z"/>
  <path class="st0" d="M9.13,7.88c1.01-1.31,3.26-2.97,4.66-3.72,2.23-1.16,4.21-1.87,6.75-2.16,5.68-.65,11.87,1.63,15.54,6.05-.71.19-1.33.67-1.81,1.21-.34.15-1.1,1-1.23,1.32-.27-.29-.52-.58-.81-.86-5.66-5.51-14.83-5.07-20.02.71-.46-.33-.96-.8-1.39-1.17-.54-.39-1.12-.94-1.69-1.38Z"/>
  <path class="st2" d="M36.08,8.04c.42.34.97,1.09,1.29,1.55,3.08,4.36,3.39,8.25,3.38,13.28-.21.03-.41.02-.59.04-.4-1.54-1.75-2.74-3.37-2.76-.11-.07-.11-.34-.17-.5-.16-.42-.34-.81-.61-1.17.1-.11.51-.37.66-.42-.18-.32-.21-.75-.29-1.11-.53-2.37-1.68-4.58-3.33-6.37.13-.32.89-1.17,1.23-1.32.48-.55,1.1-1.03,1.81-1.21Z"/>
  <path class="st3" d="M34.27,9.26c1.96,1.89,3.31,5,3.86,7.6.31,1.44-.67,2-1.47,1.21-.18-.32-.21-.75-.29-1.11-.53-2.37-1.68-4.58-3.33-6.37.13-.32.89-1.17,1.23-1.32Z"/>
  <path class="st2" d="M9.13,7.88c.57.43,1.15.99,1.69,1.38.43.37.93.85,1.39,1.17-1.66,1.84-2.83,3.9-3.39,6.33-.08.36-.12.83-.3,1.14h.09c.08.13-.07,1.07.02,1.43-.17.31-.23.47-.29.82-1.81.08-2.72,1.16-3.29,2.72-.23-.02-.35-.01-.58,0,0-1.45-.05-3.25.08-4.66.36-3.76,2.01-7.57,4.59-10.34Z"/>
  <path class="st3" d="M10.82,9.26c.43.37.93.85,1.39,1.17-1.66,1.84-2.83,3.9-3.39,6.33-.08.36-.12.83-.3,1.14-.46.44-.86.68-1.46.25-.54-.39-.18-1.43-.03-1.99.78-2.93,1.92-4.67,3.79-6.9Z"/>
  <path class="st1" d="M30.27,32.01c-.04-.5,0-1.41,0-1.96v-7.86c0-1.49-.17-2.78,1.1-3.87,1.46-1.25,3.22-.89,4.63.16.27.37.45.75.61,1.17.06.16.06.43.17.5,1.62.02,2.97,1.22,3.37,2.76.18-.02.38-.01.59-.04h1.26c.17,0,.48-.01.64,0,.72.21,1.35.78,1.38,1.58.04,1.55,0,3.08.01,4.64.02,1.6-1.19,1.85-2.43,1.85h-1.38c-.43,1.31-1.3,2.6-2.86,2.59-.23.04-.36.02-.59,0-.22,1.08-.59,1.77-1.64,2.31-.09.04-.4.16-.45.2-.73.22-1.19.09-1.89.13,0,.1.02.74,0,.79v-.79c-2.3-.95-2.56-1.91-2.54-4.16Z"/>
  <path class="st3" d="M36.79,20.15c1.62.02,2.97,1.22,3.37,2.76.18-.02.38-.01.59-.04h1.26c.17,0,.48-.01.64,0,.72.21,1.35.78,1.38,1.58.04,1.55,0,3.08.01,4.64.02,1.6-1.19,1.85-2.43,1.85h-1.38c-.43,1.31-1.3,2.6-2.86,2.59-.22,0-.37.01-.59,0,0-.32,0-.67,0-.99v-11.77c0-.21-.03-.39-.03-.59l.03-.03Z"/>
  <path class="st0" d="M40.75,22.87h1.26c.17,0,.48-.01.64,0,.72.21,1.35.78,1.38,1.58.04,1.55,0,3.08.01,4.64.02,1.6-1.19,1.85-2.43,1.85h-1.38c-.03-.23,0-.55,0-.78v-5.24c0-.56.03-1.49-.07-2.01.18-.02.38-.01.59-.04Z"/>
  <path class="st1" d="M30.27,31.26c1.16,0,2.34-.01,3.5,0-.05,1.62,1.88,1.28,3.02,1.27,0,.32,0,.67,0,.99.22.01.37,0,.59,0-.23.04-.36.02-.59,0-.22,1.08-.59,1.77-1.64,2.31-.09.04-.4.16-.45.2-.73.22-1.19.09-1.89.13,0,.1.02.74,0,.79v-.79c-2.3-.95-2.56-1.91-2.54-4.16.03-.2,0-.53,0-.75Z"/>
  <path class="st1" d="M8.62,19.33c1.25-2.66,5.17-2.26,6.05.49.24.74.19,1.44.19,2.21v9.23s0,1.36,0,1.36c0,.55.03,1.08-.17,1.6-1.11,2.92-5.23,2.72-6.14-.25-.03-.09-.09-.4-.13-.45-1.77.06-3.04-.79-3.39-2.59h-1.4c-1.04,0-2.26-.14-2.52-1.43-.07-.34-.05-.87-.05-1.23v-3.02c0-1.16.17-2.14,1.5-2.39.42-.04,1.46-.03,1.88,0,.23-.01.35-.02.58,0,.57-1.56,1.49-2.64,3.29-2.72.06-.35.12-.51.29-.82Z"/>
  <path class="st3" d="M8.33,20.15c-.02.74,0,1.54,0,2.29v7.83c0,.39-.05,1.92.1,2.2-.01.35,0,.71,0,1.06-1.77.06-3.04-.79-3.39-2.59h-1.4c-1.04,0-2.26-.14-2.52-1.43-.07-.34-.05-.87-.05-1.23v-3.02c0-1.16.17-2.14,1.5-2.39.42-.04,1.46-.03,1.88,0,.23-.01.35-.02.58,0,.57-1.56,1.49-2.64,3.29-2.72Z"/>
  <path class="st0" d="M4.45,22.87c.23-.01.35-.02.58,0v5.59c0,.82-.01,1.66,0,2.48h-1.4c-1.04,0-2.26-.14-2.52-1.43-.07-.34-.05-.87-.05-1.23v-3.02c0-1.16.17-2.14,1.5-2.39.42-.04,1.46-.03,1.88,0Z"/>
  <path class="st1" d="M11.21,31.26h3.65v1.36c0,.55.03,1.08-.17,1.6-1.11,2.92-5.23,2.72-6.14-.25-.03-.09-.09-.4-.13-.45,0-.35-.01-.71,0-1.06,1.16,0,2.69.35,2.78-1.21Z"/>
  <path class="st3" d="M32.81,36.17c.7-.04,1.16.09,1.89-.13,0,2.69-.62,4.73-3.22,6.12-1.71.92-3.47.58-5.3.67-.83,2.58-2.8,2.1-4.86,2.15-1.19.01-2.24-.56-2.78-1.63-1.11-2.07.56-4.27,2.75-4.26,1.93.01,3.9-.36,4.8,1.86.82.03,3.11.08,3.77-.14,1.79-.58,2.87-2.02,2.94-3.88.02-.05,0-.69,0-.79Z"/>
</svg>