<?xml version="1.0" encoding="UTF-8"?>
<svg id="_Слой_1" data-name="Слой_1" xmlns="http://www.w3.org/2000/svg" version="1.1" viewBox="0 0 45 45">
  <!-- Generator: Adobe Illustrator 29.7.1, SVG Export Plug-In . SVG Version: 2.1.1 Build 8)  -->
  <defs>
    <style>
      .st0 {
        fill: #edb53e;
      }

      .st1 {
        fill: #99b7f5;
      }

      .st2 {
        fill: #1e4d31;
      }

      .st3 {
        fill: #c7d9c5;
      }

      .st4 {
        fill: #67ac71;
      }

      .st5 {
        fill: #267e52;
      }
    </style>
  </defs>
  <path class="st1" d="M0,16.31s0-.03,0-.05V6.42c0-2.38.23-2.79,2.69-2.79h31.85c1.8,0,1.93,1.13,1.93,2.69v7.87c.05.3-.06,2.45.04,2.56.56.01,1.16,0,1.73,0h3.34c.73,0,1.99-.12,2.64.19.87.43.78,1.26.77,2.08v16.55c0,1.04.07,2.12-.32,3.11-.58,1.48-2.12,2.69-3.75,2.69-.31,0-.69-.03-.99,0-.31-.02-.6,0-.91,0H5.03c-.43,0-1.04.03-1.45-.04-1.72-.32-3.27-1.86-3.52-3.61-.1-.66-.05-1.56-.05-2.25v-19.15Z"/>
  <path class="st5" d="M0,16.31s0-.03,0-.05V6.42c0-2.38.23-2.79,2.69-2.79h31.85c1.8,0,1.93,1.13,1.93,2.69v7.87s0,2.13,0,2.13H1.32c-.41,0-.9-.01-1.31,0Z"/>
  <path class="st3" d="M21.59,7.07c.68-.15.82.71.96,1.18l.37,1.26c.14.48.39,1.12.49,1.57.32-.75.6-2.29.78-3.13.3-1.43,1.48-.94,1.22,0l-1.03,3.7c-.15.51-.23,1.48-.93,1.45-.99-.04-1.23-3.66-1.87-4.29-.15.08-1.15,3.35-1.35,3.85-.24.59-1.02.54-1.21,0-.48-1.41-1.02-3.52-1.36-4.97-.13-.55.89-.84,1.07-.31.43,1.23.65,2.51,1.03,3.75.12-.25.22-.72.3-1.01.23-.77.47-1.72.73-2.46.16-.45.33-.57.78-.62Z"/>
  <path class="st3" d="M6.61,7.07c.75-.03,1.3,1.07,1.68,1.59.59.8,1.16,1.62,1.76,2.42-.02-1.14-.04-2.31.01-3.45.03-.72,1.15-.78,1.16.15.02,1.25,0,2.5,0,3.75-.03.65.23,1.58-.7,1.59-.21,0-.35-.01-.49-.19-.89-1.12-2.07-2.71-2.83-3.94v2.32c0,.43,0,.85,0,1.28,0,.68-1.05.79-1.16.12-.04-.24-.03-.58-.03-.82v-3.22c0-.73-.22-1.43.61-1.6Z"/>
  <path class="st3" d="M12.98,7.07h2.25c.8,0,1.73-.26,1.72.76-.3.36-.54.31-.96.31h-2.61s0,1.34,0,1.34h2.03c.33,0,.71-.02,1.03.02.62.08.52.97-.02,1.05-.27.04-.66.02-.94.02h-1.83s-.27,0-.27,0v1.46c.45.02,4.27-.41,3.48.82-.25.38-.84.29-1.22.29h-2.09c-1.39.02-1.26-.24-1.26-1.6v-2.94c0-.69-.18-1.41.69-1.51Z"/>
  <path class="st3" d="M27.86,6.99c1.64-.22,3.47,1.64,1.94,2.15-.61-.16-1.5-1.89-2.56-.8-1.4,1.44,3.55.41,3.33,3.01-.1,1.14-1.2,1.85-2.29,1.78-1.29.24-3.23-1.33-2.18-2.15.82-.17.69.35,1.15.79.54.53,2.25.44,2.17-.58-.05-.66-2.23-.71-2.97-1.28-1.29-.98-.26-2.73,1.41-2.93Z"/>
  <path class="st4" d="M36.51,16.74c.56.01,1.16,0,1.73,0h3.34c.73,0,1.99-.12,2.64.19.87.43.78,1.26.77,2.08v16.55c0,1.04.07,2.12-.32,3.11-.58,1.48-2.12,2.69-3.75,2.69-.31,0-.69-.03-.99,0-1.82-.39-3.43-1.98-3.46-3.92,0-.53-.01-1.06-.01-1.59v-17.86c0-.18-.03-1.17.04-1.27Z"/>
  <path class="st0" d="M12.07,23.87v-1.47c0-2.44-.8-2.17-2.93-2.17h-2.55c-1.89,0-2.69-.25-2.7,2.03v3.53c0,2.01-.19,2.8,2.16,2.8h1.42s1.07,0,1.07,0c2.35,0,3.52.44,3.53-2.29v-1.39s0-1.04,0-1.04Z"/>
  <path class="st2" d="M16.95,24.19h13.09c.55,0,1.51-.04,2.04.06,1.03.19,1.05,2.03-.12,2.17-.21.02-.54,0-.75,0h-12.95c-.48,0-1.39.07-1.76-.2-.83-.59-.57-1.84.46-2.03Z"/>
  <path class="st2" d="M17.34,28.14h14.33c1.68-.03,1.54,2.21-.03,2.2h-13.17c-.47,0-1.17.04-1.59-.02-.96-.14-1.45-2.18.47-2.17Z"/>
  <path class="st2" d="M16.95,20.37h14.83c1.38.11,1.38,1.91.18,2.13-.29.02-.58,0-.87,0h-13.08c-.41,0-1.2.07-1.53-.16-.79-.57-.55-1.82.47-1.96Z"/>
  <path class="st2" d="M4.7,35.89c.11-.02,1,0,1.17,0h8.26c.66,0,3.21-.13,3.7.19.87.55.58,1.8-.5,1.99H5.91c-.5,0-1.49.11-1.86-.23-.72-.65-.41-1.91.65-1.95Z"/>
  <path class="st2" d="M23.12,35.82h7.72c.36,0,.77-.03,1.11.02,1.21.17,1.42,2.2-.41,2.23h-7.9c-.33,0-.71.02-1.03-.02-1.04-.12-1.55-2.19.51-2.24Z"/>
  <path class="st2" d="M22.83,31.99h7.98c.48,0,1.2-.09,1.6.21.84.64.43,1.94-.61,2.04h-8.02c-.36,0-.73.01-1.09,0-1.35-.09-1.29-2.1.14-2.24Z"/>
  <path class="st2" d="M4.57,31.99c.11.02,1.13,0,1.34,0h3.97c.52,0,2.48-.1,2.91.14.93.53.8,1.75-.23,2.06-.25.02-.83,0-1.12,0h-6.61c-1.43-.01-1.66-1.88-.26-2.19Z"/>
</svg>