<svg width="167" height="148" viewBox="0 0 167 148" fill="none" xmlns="http://www.w3.org/2000/svg">
<g clip-path="url(#clip0_2562_28618)">
<path fill-rule="evenodd" clip-rule="evenodd" d="M35.8574 80.8416L11.7772 66.3036L6.36521 75.2678L58.3941 106.679L64.8383 98.5392C64.8422 98.5355 64.8422 98.5355 64.8422 98.5355L64.8417 98.535L64.8413 98.5346L64.835 98.5281L64.805 98.4973C64.7773 98.4689 64.7344 98.4248 64.6769 98.3654C64.5619 98.2465 64.3885 98.0666 64.1614 97.829C63.7071 97.3537 63.0383 96.6481 62.1933 95.7396C60.5026 93.9222 58.1097 91.2966 55.3189 88.0832C49.724 81.6411 42.5904 72.9056 36.3155 63.6249C29.9782 54.2519 24.7966 44.726 22.7309 36.6493C20.6707 28.5936 21.991 23.5827 26.1896 20.5572C27.9583 19.2828 30.4084 18.9993 34.2061 20.4797C38.0473 21.9771 42.3222 24.9681 46.4859 28.6035C48.7276 30.5608 50.8486 32.626 52.7507 34.5991L38.776 33.1486L37.695 43.5639L70.078 46.925L73.3591 14.5256L62.9411 13.4706L61.4174 28.5164C59.0756 26.0268 56.3376 23.3043 53.3729 20.7157C48.858 16.7737 43.5099 12.8677 38.0092 10.7235C32.4649 8.56223 25.854 7.89243 20.0679 12.0618C10.7516 18.7751 10.0609 29.3695 12.5862 39.2438C15.1062 49.097 21.1067 59.8258 27.641 69.49C30.2996 73.4222 33.0932 77.2452 35.8574 80.8416Z" fill="#EDB53E"/>
<path d="M68.0764 130.548C63.9988 130.548 64.7306 128.98 63.2669 125.112L51.3477 85.799L125.372 39.5859L134.05 41.8861L126.836 61.5424L68.0764 130.548Z" fill="#CCDCFF"/>
<path d="M68.0767 130.548C71.2133 130.548 72.5725 129.085 74.3499 127.412C77.0683 124.798 111.99 90.8176 111.99 90.8176L90.5559 85.5898L70.6905 98.1364L68.0767 129.503V130.548Z" fill="#99B7F5"/>
<path d="M70.1678 98.5536L120.772 135.88C126.523 139.016 130.705 137.448 132.169 130.547L152.766 33.5207C154.857 25.0517 149.525 21.2878 143.983 23.7971L23.1183 70.4284C14.8585 73.7742 14.963 78.3746 21.6545 80.3611L52.7072 90.0847L124.536 44.8126C127.882 42.7215 131.019 43.8716 128.509 46.1718L70.1678 98.5536Z" fill="#B0CAFF"/>
<path d="M145.604 57.3495C145.84 56.2379 146.932 55.528 148.044 55.764C149.155 56 149.865 57.0924 149.629 58.204L134.181 130.974L134.181 130.974C133.39 134.705 131.737 137.606 128.911 138.858C126.106 140.1 122.896 139.382 119.787 137.685L119.664 137.618L94.2485 118.872L94.2061 118.84C93.3281 118.157 93.1499 116.895 93.8139 115.995C94.478 115.094 95.7367 114.892 96.6482 115.529L96.6913 115.56L121.877 134.137C124.451 135.515 126.171 135.571 127.245 135.096C128.313 134.622 129.484 133.289 130.156 130.12L130.156 130.119L145.604 57.3495Z" fill="#343330"/>
<path d="M150.622 35.7501C150.874 34.6422 151.978 33.9489 153.085 34.2017C154.193 34.4544 154.887 35.5575 154.634 36.6654L151.566 50.1153C151.313 51.2232 150.21 51.9165 149.102 51.6638C147.994 51.411 147.301 50.308 147.554 49.2L150.622 35.7501Z" fill="#343330"/>
<path d="M79.2451 36.8437C82.2719 36.0183 82.1988 35.7418 85.2257 34.9164C88.2525 34.0909 88.2438 34.0557 91.2707 33.2303C92.8888 32.7871 94.2011 34.3968 94.4732 36.7349C94.7782 39.3291 94.6416 39.3441 94.9467 41.9382C95.2155 44.2445 94.486 45.9927 92.8333 45.9839C89.7061 45.9692 89.7066 45.8008 86.5794 45.7861C83.4523 45.7713 83.4524 46.1687 80.3253 46.1539C78.8625 46.1475 77.2947 44.5447 77.0565 42.5044C76.9504 41.5932 77.3166 41.552 77.2077 40.6392C76.9728 38.6308 77.8496 37.2227 79.2423 36.842L79.2451 36.8437Z" fill="#EDB53E"/>
<path d="M78.7579 47.8099C80.5143 49.212 80.6256 49.0729 82.3837 50.474C84.1401 51.8762 84.1551 51.8581 85.9115 53.2603C86.8511 54.0091 86.5253 55.4494 85.3296 56.5666C84.0036 57.8062 83.9456 57.7425 82.6196 58.9821C81.4409 60.0847 80.1088 60.3559 79.4073 59.4034C78.0799 57.6002 78.1638 57.5374 76.8381 55.7333C75.5125 53.9291 75.3111 54.0767 73.9838 52.2736C73.3637 51.4289 73.6052 49.8916 74.6494 48.9161C75.1139 48.4805 75.2719 48.6482 75.7374 48.2143C76.7646 47.2534 77.9524 47.1638 78.7596 47.8088L78.7579 47.8099Z" fill="#267F53"/>
<path fill-rule="evenodd" clip-rule="evenodd" d="M111.523 103.424L134.774 106.842L127.367 93.0205L131.682 90.7081L138.729 103.858L146.252 81.833L150.885 83.4154L144.091 103.306L151.148 98.0592L154.069 101.988L146.298 107.766L159.686 108.227L159.518 113.12L144.419 112.599L153.679 124.338L149.835 127.371L141.054 116.239L139.193 134.657L134.322 134.165L136.148 116.103L128.417 123.169L125.114 119.555L133.77 111.643L110.811 108.268L111.523 103.424Z" fill="#267F53"/>
</g>
<defs>
<clipPath id="clip0_2562_28618">
<rect width="166.919" height="147.246" fill="white" transform="translate(0.0405273 0.375)"/>
</clipPath>
</defs>
</svg>
