<svg width="102" height="97" viewBox="0 0 102 97" fill="none" xmlns="http://www.w3.org/2000/svg">
<path d="M19.253 20.5121C19.2355 18.7923 19.426 18.7899 19.4085 17.0701C19.3911 15.3502 19.4152 15.3495 19.3994 13.6312C19.3834 11.9098 19.2262 11.9113 19.2102 10.1899C19.1943 8.46852 19.1021 8.46964 19.0861 6.74826C19.0681 4.90751 20.9661 3.34452 22.7977 3.52492C24.8278 3.72533 24.8396 3.61313 26.8713 3.81501C28.6755 3.99317 29.8836 5.89661 29.5522 7.68084C29.2391 9.3678 29.1054 9.34441 28.7923 11.0314C28.4792 12.7183 28.7209 12.7643 28.4078 14.4513C28.0948 16.1382 27.9641 16.1148 27.6511 17.8047C27.3381 19.4947 27.2742 19.4814 26.9626 21.1699C26.669 22.7489 25.3155 24.1149 23.7189 23.9565C23.0063 23.8862 23.0098 23.8513 22.2973 23.781C20.7235 23.6265 19.2694 22.0959 19.2531 20.5152L19.253 20.5121Z" fill="#EDB53E"/>
<path d="M11.4667 26.0733C9.9145 24.6743 10.0406 24.5333 8.48844 23.1344C6.93626 21.7354 6.95062 21.7184 5.39844 20.3194C4.56845 19.5722 4.80455 17.8453 6.0172 16.8497C7.36178 15.7483 7.30415 15.6768 8.64872 14.5754C9.84506 13.5961 11.6686 13.7254 12.2598 14.6533C13.3755 16.4105 13.4716 16.3497 14.5872 18.1068C15.7028 19.864 15.479 20.0046 16.5966 21.7626C17.1196 22.5843 16.6285 23.7264 15.5694 24.5928C15.0972 24.9798 15.2533 25.1683 14.781 25.5553C13.7394 26.4083 12.1816 26.7149 11.4667 26.0733Z" fill="#1E4A2F"/>
<path d="M97.8188 31.1724C100.347 35.3374 99.5653 41.6262 95.3508 43.9636C95.3508 43.9636 52.7884 75.1038 53.4261 75.2207C53.4261 75.2207 44.6828 81.167 41.5202 83.7529C38.0372 86.6017 33.2698 86.7415 29.9727 83.8755C29.5294 83.4915 29.1333 83.0709 28.8014 82.6346C28.8014 82.6346 20.8766 69.4004 20.3508 68.7186C20.3508 68.7186 9.12676 52.3527 8.48519 49.5682C8.40409 49.2166 8.30558 48.8709 8.14861 48.5554C6.10981 44.5127 7.38973 39.6654 10.9774 36.4079C10.9774 36.4079 15.1556 33.9291 16.5213 32.5374C17.1738 31.8744 17.8988 31.2872 18.7193 30.9237C22.4842 29.2579 27.1785 30.1127 28.5586 34.2506C28.5586 34.2506 37.1829 47.1584 38.1371 49.7237C38.3396 50.2676 38.6133 50.7791 39.0005 51.1802C40.2458 52.4656 41.988 52.9032 43.7944 51.2384C43.7944 51.2384 81.8063 21.9988 82.3303 22.5049C86.2234 19.6025 91.3562 21.4251 93.9523 24.7881C93.9523 24.7881 97.7523 31.7813 97.8204 31.1636L97.8188 31.1724Z" fill="#99B7F5"/>
<path d="M50.3352 63.8219C51.6388 65.9693 51.2357 69.2117 49.0627 70.4168C49.0627 70.4168 27.1184 86.4721 27.4471 86.5324C27.4471 86.5324 22.9393 89.5982 21.3087 90.9314C19.5129 92.4002 17.0549 92.4723 15.355 90.9946C15.1264 90.7966 14.9223 90.5798 14.7511 90.3548C14.7511 90.3548 10.6652 83.5315 10.3942 83.18C10.3942 83.18 4.60724 74.7421 4.27646 73.3064C4.23464 73.1251 4.18385 72.9469 4.10292 72.7843C3.05176 70.6999 3.71166 68.2007 5.56141 66.5212C5.56141 66.5212 7.71559 65.2432 8.41971 64.5256C8.75613 64.1838 9.12994 63.8811 9.55297 63.6936C11.4941 62.8348 13.9144 63.2755 14.6259 65.409C14.6259 65.409 19.0725 72.064 19.5644 73.3866C19.6688 73.667 19.81 73.9307 20.0096 74.1375C20.6516 74.8003 21.5499 75.0259 22.4812 74.1676C22.4812 74.1676 42.0794 59.0921 42.3496 59.3531C44.3568 57.8567 47.0032 58.7963 48.3417 60.5302C48.3417 60.5302 50.3009 64.1358 50.336 63.8174L50.3352 63.8219Z" fill="#267F53"/>
<path d="M21.3074 90.9325C19.5117 92.4012 17.0537 92.4733 15.3538 90.9957C15.1252 90.7977 14.921 90.5808 14.7498 90.3559C14.7498 90.3559 10.664 83.5326 10.3929 83.181C10.3929 83.181 4.60597 74.7431 4.27519 73.3074C4.23337 73.1262 4.18259 72.948 4.10165 72.7853C3.05049 70.7009 3.71039 68.2018 5.56014 66.5222C5.56014 66.5222 7.71433 65.2442 8.41844 64.5267C8.75486 64.1849 9.12867 63.8821 9.5517 63.6947C11.4928 62.8359 13.9131 63.2765 14.6247 65.41C14.6247 65.41 19.0712 72.065 19.5631 73.3876C19.6676 73.6681 19.8087 73.9318 20.0083 74.1385C20.6503 74.8013 21.5486 75.0269 22.4799 74.1686C22.4799 74.1686 42.0782 59.0932 42.3483 59.3541" stroke="#1E4A2F" stroke-width="1.27818" stroke-linecap="round"/>
<path d="M77.4945 73.822C80.3862 74.9981 80.2932 75.2274 83.1848 76.4062C86.0765 77.5823 86.0649 77.6127 88.9566 78.7888C90.5019 79.4189 92.0259 78.046 92.5677 75.8385C93.1692 73.39 93.0527 73.363 93.6543 70.9146C94.1899 68.7376 93.6139 66.9393 91.9833 66.7361C88.8971 66.3521 88.8779 66.4964 85.7917 66.1153C82.7054 65.7341 82.7475 65.39 79.6613 65.006C78.2167 64.8283 76.5179 66.1648 76.045 68.0925C75.8326 68.9511 76.1431 69.0288 75.9335 69.8874C75.4667 71.7846 76.1647 73.2847 77.4945 73.8248L77.4945 73.822Z" fill="#267F53"/>
<path d="M63.9192 80.9277C65.5248 83.9324 65.2521 84.0809 66.8577 87.0855C68.4633 90.0902 68.429 90.1096 70.0346 93.1142C70.8914 94.7219 73.1405 94.5574 75.1889 93.0286C77.464 91.3349 77.374 91.2159 79.649 89.5222C81.6699 88.0147 82.5057 86.1353 81.2664 84.8373C78.9229 82.38 78.7903 82.5059 76.4468 80.0486C74.1033 77.5913 74.417 77.2951 72.0735 74.8378C70.9775 73.688 68.5434 73.6457 66.7553 74.9792C65.957 75.5749 66.1976 75.8946 65.3959 76.4894C63.6354 77.8016 63.1778 79.5436 63.9159 80.9268L63.9192 80.9277Z" fill="#EDB53E"/>
</svg>
