<svg width="18" height="18" viewBox="0 0 18 18" fill="none" xmlns="http://www.w3.org/2000/svg">
<path d="M3.88803 15.423L4.20582 14.7993H4.20582L3.88803 15.423ZM2.57698 14.112L1.95328 14.4298L2.57698 14.112ZM15.423 14.112L14.7993 13.7942L15.423 14.112ZM14.112 15.423L14.4298 16.0467V16.0467L14.112 15.423ZM5.3 15.75C5.3 16.1366 5.6134 16.45 6 16.45C6.3866 16.45 6.7 16.1366 6.7 15.75H5.3ZM11.3 15.75C11.3 16.1366 11.6134 16.45 12 16.45C12.3866 16.45 12.7 16.1366 12.7 15.75H11.3ZM6.75 6L6.06359 5.86272L6.05 5.93069V6H6.75ZM2.26829 6.28826L1.57395 6.37705H1.57395L2.26829 6.28826ZM11.25 6H11.95V5.93069L11.9364 5.86272L11.25 6ZM15.7225 6.35275L15.031 6.24387V6.24387L15.7225 6.35275ZM2.35728 5.73179L3.00722 5.99176L3.00722 5.99176L2.35728 5.73179ZM3.37283 3.19291L4.02277 3.45289L3.37283 3.19291ZM14.2896 3.07918L13.6635 3.39223V3.39223L14.2896 3.07918ZM15.5916 5.68328L16.2177 5.37023V5.37023L15.5916 5.68328ZM15.05 6.00007V10.95H16.45V6.00007H15.05ZM10.95 15.05H7.05V16.45H10.95V15.05ZM2.95 10.95V6.00007H1.55V10.95H2.95ZM7.05 15.05C6.19837 15.05 5.60175 15.0495 5.13661 15.0115C4.67964 14.9741 4.41156 14.9041 4.20582 14.7993L3.57023 16.0467C4.00623 16.2689 4.47906 16.3624 5.0226 16.4068C5.55798 16.4505 6.22147 16.45 7.05 16.45V15.05ZM1.55 10.95C1.55 11.7785 1.54946 12.442 1.5932 12.9774C1.63761 13.5209 1.73113 13.9938 1.95328 14.4298L3.20069 13.7942C3.09586 13.5884 3.02588 13.3204 2.98855 12.8634C2.95054 12.3983 2.95 11.8016 2.95 10.95H1.55ZM4.20582 14.7993C3.77305 14.5788 3.42119 14.227 3.20069 13.7942L1.95328 14.4298C2.30801 15.126 2.87404 15.692 3.57024 16.0467L4.20582 14.7993ZM15.05 10.95C15.05 11.8016 15.0495 12.3983 15.0115 12.8634C14.9741 13.3204 14.9041 13.5884 14.7993 13.7942L16.0467 14.4298C16.2689 13.9938 16.3624 13.5209 16.4068 12.9774C16.4505 12.442 16.45 11.7785 16.45 10.95H15.05ZM10.95 16.45C11.7785 16.45 12.442 16.4505 12.9774 16.4068C13.5209 16.3624 13.9938 16.2689 14.4298 16.0467L13.7942 14.7993C13.5884 14.9041 13.3204 14.9741 12.8634 15.0115C12.3983 15.0495 11.8016 15.05 10.95 15.05V16.45ZM14.7993 13.7942C14.5788 14.227 14.227 14.5788 13.7942 14.7993L14.4298 16.0467C15.126 15.692 15.692 15.126 16.0467 14.4298L14.7993 13.7942ZM6.7 15.75V12.75H5.3V15.75H6.7ZM7.5 11.95H10.5V10.55H7.5V11.95ZM11.3 12.75V15.75H12.7V12.75H11.3ZM10.5 11.95C10.9418 11.95 11.3 12.3082 11.3 12.75H12.7C12.7 11.535 11.715 10.55 10.5 10.55V11.95ZM6.7 12.75C6.7 12.3082 7.05817 11.95 7.5 11.95V10.55C6.28497 10.55 5.3 11.535 5.3 12.75H6.7ZM6.05 6C6.05 6.85604 5.35604 7.55 4.5 7.55V8.95C6.12924 8.95 7.45 7.62924 7.45 6H6.05ZM4.5 7.55C3.71178 7.55 3.06003 6.96101 2.96264 6.19946L1.57395 6.37705C1.75957 7.82851 2.99827 8.95 4.5 8.95V7.55ZM10.55 6C10.55 6.85604 9.85604 7.55 9 7.55V8.95C10.6292 8.95 11.95 7.62924 11.95 6H10.55ZM9 7.55C8.14396 7.55 7.45 6.85604 7.45 6H6.05C6.05 7.62924 7.37076 8.95 9 8.95V7.55ZM15.031 6.24387C14.9145 6.98389 14.2727 7.55 13.5 7.55V8.95C14.9726 8.95 16.192 7.87175 16.414 6.46162L15.031 6.24387ZM13.5 7.55C12.644 7.55 11.95 6.85604 11.95 6H10.55C10.55 7.62924 11.8708 8.95 13.5 8.95V7.55ZM3.00722 5.99176L4.02277 3.45289L2.7229 2.93294L1.70735 5.47181L3.00722 5.99176ZM13.6635 3.39223L14.9655 5.99633L16.2177 5.37023L14.9157 2.76613L13.6635 3.39223ZM4.76555 2.95H7.5V1.55H4.76555V2.95ZM7.43641 6.13728L8.18641 2.38728L6.81359 2.11272L6.06359 5.86272L7.43641 6.13728ZM7.5 2.95H10.5V1.55H7.5V2.95ZM10.5 2.95H12.9479V1.55H10.5V2.95ZM11.9364 5.86272L11.1864 2.11272L9.81359 2.38728L10.5636 6.13728L11.9364 5.86272ZM14.9157 2.76613C14.543 2.02081 13.7812 1.55 12.9479 1.55V2.95C13.251 2.95 13.528 3.1212 13.6635 3.39223L14.9157 2.76613ZM16.414 6.46163C16.481 6.03635 16.3593 5.65326 16.2177 5.37023L14.9655 5.99633C15.0323 6.12987 15.0365 6.20907 15.031 6.24387L16.414 6.46163ZM4.02277 3.45289C4.14426 3.14916 4.43843 2.95 4.76555 2.95V1.55C3.86596 1.55 3.057 2.09769 2.7229 2.93294L4.02277 3.45289ZM2.96264 6.19946C2.95881 6.16956 2.96203 6.10474 3.00722 5.99176L1.70735 5.47181C1.6108 5.7132 1.52936 6.02838 1.57395 6.37705L2.96264 6.19946Z" fill="#68727D"/>
</svg>
