<svg width="18" height="18" viewBox="0 0 18 18" fill="none" xmlns="http://www.w3.org/2000/svg">
<path fill-rule="evenodd" clip-rule="evenodd" d="M9.00001 1.6875C7.73752 1.68722 6.49647 2.01381 5.39766 2.63547C4.29884 3.25714 3.37968 4.15269 2.72966 5.23498C2.07964 6.31726 1.72089 7.5494 1.68834 8.81146C1.65579 10.0735 1.95055 11.3225 2.54392 12.4369L1.74587 14.831C1.67976 15.0292 1.67017 15.242 1.71816 15.4453C1.76616 15.6487 1.86984 15.8347 2.01759 15.9824C2.16534 16.1302 2.35133 16.2339 2.55469 16.2818C2.75806 16.3298 2.97077 16.3202 3.16899 16.2541L5.56313 15.4561C6.54383 15.9777 7.63047 16.269 8.74058 16.308C9.85068 16.347 10.9551 16.1325 11.9699 15.6809C12.9848 15.2293 13.8834 14.5525 14.5976 13.7017C15.3118 12.851 15.8228 11.8487 16.0918 10.771C16.3608 9.69326 16.3808 8.56842 16.1502 7.48184C15.9196 6.39525 15.4444 5.37549 14.7609 4.49994C14.0773 3.6244 13.2033 2.91608 12.2051 2.42877C11.2069 1.94146 10.1108 1.68796 9.00001 1.6875ZM8.25006 6C8.25006 5.58579 8.58585 5.25 9.00006 5.25C9.41427 5.25 9.75006 5.58579 9.75006 6V8.25L12.0001 8.25C12.4143 8.25 12.7501 8.58579 12.7501 9C12.7501 9.41421 12.4143 9.75 12.0001 9.75H9.75006V12C9.75006 12.4142 9.41427 12.75 9.00006 12.75C8.58585 12.75 8.25006 12.4142 8.25006 12V9.75H6.00006C5.58585 9.75 5.25006 9.41421 5.25006 9C5.25006 8.58579 5.58585 8.25 6.00006 8.25H8.25006V6Z" fill="#FFFCF5"/>
</svg>
