<svg width="18" height="18" viewBox="0 0 18 18" fill="none" xmlns="http://www.w3.org/2000/svg">
<path d="M8.66347 1.43169C8.80103 1.15298 9.19847 1.15298 9.33603 1.43169L11.3371 5.48634C11.3917 5.59702 11.4973 5.67373 11.6195 5.69148L16.094 6.34167C16.4016 6.38637 16.5244 6.76436 16.3019 6.98131L13.064 10.1374C12.9757 10.2236 12.9353 10.3477 12.9562 10.4693L13.7205 14.9258C13.7731 15.2322 13.4515 15.4658 13.1764 15.3211L9.17425 13.2171C9.06501 13.1596 8.93449 13.1596 8.82525 13.2171L4.82307 15.3211C4.54796 15.4658 4.22643 15.2322 4.27897 14.9258L5.04331 10.4693C5.06418 10.3477 5.02385 10.2236 4.93547 10.1374L1.69764 6.98131C1.47507 6.76436 1.59789 6.38637 1.90547 6.34167L6.38004 5.69148C6.50218 5.67373 6.60776 5.59702 6.66239 5.48634L8.66347 1.43169Z" stroke="#68727D" stroke-width="1.4"/>
</svg>
