<svg width="16" height="16" viewBox="0 0 16 16" fill="none" xmlns="http://www.w3.org/2000/svg">
<path d="M6.66683 14.6674C9.50038 14.6674 11.8178 12.4577 11.9899 9.66749C12.0012 9.48375 11.8509 9.3341 11.6668 9.3341H7.00016C6.81607 9.3341 6.66683 9.18486 6.66683 9.00077V4.3341C6.66683 4.15001 6.51718 3.99969 6.33344 4.01102C3.54322 4.18311 1.3335 6.50055 1.3335 9.3341C1.3335 12.2796 3.72131 14.6674 6.66683 14.6674Z" stroke="#252525" stroke-width="1.2"/>
<path d="M14.6566 6.33404C14.4913 3.65408 12.3468 1.50965 9.66689 1.34435C9.48314 1.33302 9.3335 1.48334 9.3335 1.66743V6.3341C9.3335 6.5182 9.48273 6.66743 9.66683 6.66743L14.3335 6.66743C14.5176 6.66743 14.6679 6.51779 14.6566 6.33404Z" stroke="#252525" stroke-width="1.2"/>
</svg>
