<svg width="340" height="391" viewBox="0 0 340 391" fill="none" xmlns="http://www.w3.org/2000/svg">
<g filter="url(#filter0_d_2013_38264)">
<path d="M219.9 25.3613C237.412 20.8231 255.208 31.6648 259.206 49.3077C261.695 60.2881 269.763 69.159 280.459 72.6747C297.646 78.3246 306.755 97.0667 300.583 114.071C296.74 124.655 298.731 136.477 305.829 145.219C317.23 159.262 314.762 179.953 300.377 190.921C291.422 197.747 286.706 208.769 287.951 219.96C289.951 237.94 276.686 254.011 258.654 255.459C247.431 256.36 237.503 263.085 232.502 273.169C224.465 289.376 204.616 295.726 188.665 287.197C178.736 281.886 166.751 282.176 157.088 287.957C141.564 297.246 121.433 291.856 112.627 276.056C107.145 266.221 96.9049 259.985 85.6522 259.623C67.5711 259.044 53.5504 243.629 54.6843 225.573C55.39 214.338 50.1486 203.553 40.8741 197.165C25.9769 186.903 22.5157 166.353 33.2312 151.775C39.8986 142.704 41.3197 130.798 36.9722 120.411C29.9878 103.724 38.1853 84.5662 55.0805 78.0968C65.5954 74.0711 73.2259 64.8213 75.1843 53.7345C78.3311 35.9208 95.5853 24.2348 113.295 27.9263C124.317 30.2239 135.736 26.5695 143.379 18.3002C155.657 5.01481 176.488 4.51222 189.393 17.1935C197.424 25.0865 209.006 28.1863 219.905 25.3613H219.9Z" fill="#F8F2EA"/>
<path d="M255.352 187.292C254.665 191.385 252.528 195.071 250.391 198.63C244.229 208.893 237.626 219.105 228.671 227.049C219.715 234.992 208.025 240.519 196.079 239.762C181.238 238.824 168.58 227.93 162.462 214.238C148.809 176.601 187.484 148.949 187.484 148.949L194.424 132.3C197.188 125.674 201.029 119.725 206.831 115.496C210.052 113.147 213.816 111.739 216.641 111.753C223.17 111.782 226.108 116.927 224.238 120.153C227.68 114.214 236.079 111.441 241.987 115.581C247.171 119.213 248.297 127.266 244.787 132.407C247.605 130.425 252.761 132.063 254.392 135.55C256.345 139.725 254.904 144.627 253.337 148.961C249.769 158.819 245.648 168.476 240.998 177.871C242.784 174.125 248.417 173.475 251.7 176.014C254.985 178.554 256.04 183.198 255.352 187.292Z" fill="#EDB53E"/>
<path d="M91.4889 115.305C80.657 133.822 74.8997 156.335 80.6512 177.002C86.4026 197.669 105.691 215.185 127.132 214.431C140.931 213.946 153.719 206.279 163.101 196.149C172.482 186.019 178.903 173.55 184.813 161.072C186.863 156.746 188.899 152.272 189.225 147.496C189.55 142.72 187.813 137.508 183.756 134.966C179.7 132.424 173.308 133.806 171.683 138.309C175.957 126.998 179.595 115.448 182.571 103.73C183.88 98.58 184.98 92.7878 182.267 88.2193C179.554 83.6487 171.348 82.6928 169.519 87.6841C174.77 81.4983 172.837 70.6857 165.767 66.7047C158.517 62.6209 149.191 66.7551 145.912 73.9628C147.692 70.0477 143.739 64.4747 136.242 65.1805C128.243 65.9329 119.151 77.8314 111.526 87.2187C103.647 96.9201 97.8143 104.489 91.487 115.305H91.4889Z" fill="#9CAFE5"/>
<path d="M249.68 170.885L248.526 174.529C247.231 174.228 245.307 174.773 243.95 175.457C240.62 177.127 238.003 179.805 235.561 182.754C231.912 187.286 228.966 192.434 226.339 197.678C227.06 197.854 227.766 198.079 228.447 198.347C231.363 199.543 234.322 201.849 234.824 205.237L233.473 205.514C232.274 202.066 228.355 200.307 225.051 199.685C221.745 199.115 217.462 199.402 215.206 202.239L214.023 201.515C214.531 200.488 215.352 199.665 216.25 199.043C218.782 197.377 221.877 196.958 224.842 197.389L224.559 197.251C228.394 188.481 234.291 176.66 242.947 172.062C244.902 171.092 247.161 170.4 249.374 170.811L249.5 170.838L249.566 170.856L249.68 170.887V170.885Z" fill="#C45B0C"/>
<path d="M182.319 134.343C180.793 134.231 178.697 134.857 177.27 135.538C173.764 137.202 171.241 139.604 168.968 142.205C165.517 146.281 163.01 150.797 160.888 155.352L158.926 154.892C161.79 147.491 166.477 137.45 175.544 132.916C177.605 131.947 180.058 131.171 182.647 131.282L182.796 131.293L182.872 131.299L183.008 131.314L182.319 134.343Z" fill="#2E2E68"/>
<path d="M230.198 117.243C230.175 117.252 230.069 117.305 230.041 117.316C229.921 117.359 229.7 117.481 229.584 117.555C229.095 117.83 228.544 118.249 228.102 118.645C227.914 118.813 227.534 119.124 227.371 119.304C226.826 119.866 226.247 120.442 225.76 121.063C225.228 121.664 224.515 122.606 224.046 123.273C223.805 123.607 223.443 124.08 223.231 124.429C219.006 130.799 215.845 138.061 213.08 145.203C212.775 146.015 211.835 148.497 211.532 149.306C211.356 149.814 210.906 151.125 210.435 152.49C212.318 154.466 213.861 157.303 214.651 158.901C214.817 159.236 214.435 159.576 214.119 159.372C211.383 157.617 207.829 155.94 207.057 155.583L206.832 155.513C207.189 154.356 208.68 149.451 208.996 148.441C210.396 144.268 211.86 139.952 213.543 135.889C215.651 130.842 217.924 125.763 221.024 121.173C222.008 119.688 223.142 118.17 224.364 116.87C224.664 116.51 225.161 116.046 225.508 115.726C225.851 115.377 226.404 114.945 226.797 114.646C227.003 114.47 227.301 114.293 227.53 114.146C227.839 113.94 228.248 113.723 228.589 113.57C228.781 113.473 229.043 113.397 229.244 113.326C229.355 113.298 229.471 113.269 229.582 113.25L230.197 117.233" fill="#C45B0C"/>
<path d="M247.493 133.619C247.394 133.646 247.192 133.735 247.092 133.788C246.83 133.892 246.438 134.15 246.188 134.296C239.861 138.686 233.748 149.914 230.225 156.889C229.595 158.176 228.528 160.265 227.949 161.572L227.495 162.559C229.339 164.531 230.848 167.304 231.623 168.876C231.788 169.212 231.408 169.549 231.092 169.347C228.728 167.831 225.753 166.373 224.489 165.774C224.485 165.774 224.479 165.77 224.476 165.766L223.531 165.37C223.946 164.375 225.689 160.148 226.054 159.279C227.648 155.694 229.312 151.986 231.138 148.517C234.07 143.012 237.258 137.383 241.751 132.931C243.033 131.709 244.451 130.52 246.118 129.857L246.335 129.774L246.446 129.733C246.587 129.692 246.826 129.63 246.969 129.597C247.08 129.58 247.196 129.56 247.309 129.551L247.609 133.594" fill="#C45B0C"/>
<path d="M172.954 85.5302C172.954 85.5302 172.95 85.5302 172.949 85.5341C172.914 85.5438 172.869 85.5554 172.83 85.5593C172.805 85.5651 172.689 85.6117 172.658 85.6233C172.522 85.6621 172.276 85.7687 172.148 85.8385C171.601 86.0868 170.98 86.4746 170.48 86.8488C170.267 87.0078 169.838 87.2948 169.65 87.4694C169.026 88.0026 168.368 88.5436 167.806 89.1409C167.199 89.711 166.375 90.6165 165.832 91.2584C165.553 91.5783 165.134 92.0321 164.888 92.3676C159.97 98.5049 156.167 105.592 152.807 112.579C152.435 113.374 151.289 115.804 150.918 116.595C150.455 117.652 148.469 122.267 147.986 123.382L146.542 122.895C144.82 122.511 141.835 121.897 139.204 121.606C138.797 121.561 138.707 121.057 139.078 120.902C140.837 120.177 144.065 118.984 147.007 118.65C147.527 117.309 148.019 116.05 148.199 115.594C149.929 111.499 151.736 107.268 153.769 103.296C156.313 98.3672 159.039 93.4147 162.642 88.9954C163.784 87.5644 165.097 86.1081 166.491 84.8748C166.838 84.5316 167.403 84.0953 167.796 83.7928C168.188 83.4651 168.81 83.0617 169.253 82.7844C169.485 82.6177 169.819 82.4567 170.079 82.321C170.422 82.1348 170.881 81.939 171.26 81.8032C171.475 81.716 171.762 81.6559 171.989 81.5938C172.109 81.5725 172.237 81.5473 172.361 81.5337L172.834 85.5457C172.879 85.5419 172.919 85.538 172.96 85.5263L172.954 85.5302Z" fill="#2E2E68"/>
<path d="M151.839 71.2416L151.832 71.2455C151.791 71.2552 151.77 71.2552 151.707 71.2843L151.601 71.323C151.405 71.3793 151.07 71.5751 150.848 71.6721C150.688 71.7749 150.195 72.0754 150.022 72.1801L148.927 72.9926C148.708 73.1865 147.796 73.9661 147.604 74.1406C147.453 74.2918 147.009 74.7359 146.848 74.8949C146.662 75.083 146.27 75.4689 146.092 75.6492C145.948 75.8102 145.072 76.8069 144.907 76.993C144.345 77.5961 143.608 78.5773 143.092 79.225C142.84 79.5469 142.44 80.0375 142.217 80.369C141.24 81.7226 139.836 83.7431 138.983 85.1412C134.347 92.3994 130.561 100.358 127.09 108.095L126.386 107.876C126.386 107.876 126.379 107.876 126.375 107.874C124.99 107.507 120.967 106.477 117.498 105.962C117.061 105.898 116.991 105.392 117.401 105.256C119.283 104.635 122.696 103.64 125.818 103.412C126.328 102.145 126.807 100.964 126.984 100.536C128.32 97.5032 129.724 94.2629 131.207 91.2883C133.311 86.931 135.752 82.5447 138.487 78.4377C138.952 77.7221 139.751 76.675 140.253 75.9653C140.746 75.2459 141.624 74.2434 142.177 73.5472C142.725 72.8724 143.458 72.1433 144.046 71.4937C144.271 71.261 145.305 70.3224 145.547 70.0859C146.2 69.5507 146.928 68.9592 147.662 68.4977C148.49 67.9509 149.414 67.4681 150.445 67.1927C150.573 67.1636 150.781 67.1151 150.924 67.1016L151.657 71.2687C151.711 71.2629 151.766 71.2571 151.816 71.2435C151.824 71.2435 151.83 71.2397 151.832 71.2397L151.839 71.2416Z" fill="#2E2E68"/>
<path d="M182.354 209.778C189.056 213.986 197.644 215.684 205.292 213.4C209.576 212.147 213.398 209.652 216.609 206.582L219.365 209.516C217.433 211.267 215.294 212.874 213.02 214.174C209.178 216.338 204.835 217.66 200.425 217.893C195.151 218.172 189.946 217.022 185.182 214.864C183.574 214.127 182.067 213.326 180.594 212.301L182.354 209.78V209.778Z" fill="#C45B0C"/>
<path d="M198.077 192.257L196.5 195.274L194.517 195.833C192.977 195.109 191.15 194.524 189.485 194.514C188.09 194.497 186.894 195.011 186.415 196.438C185.096 199.661 188.437 201.334 191.259 201.52L190.925 205.639C189.704 205.509 188.556 205.201 187.449 204.724C184.323 203.422 181.887 200.494 182.579 196.909C182.956 194.933 183.993 193.04 185.806 192.048C188.629 190.558 191.926 191.394 194.689 192.625L195.777 190.925L198.077 192.257Z" fill="#C45B0C"/>
<path d="M115.554 148.058C117.52 148.058 119.113 146.464 119.113 144.499C119.113 142.534 117.52 140.941 115.554 140.941C113.589 140.941 111.996 142.534 111.996 144.499C111.996 146.464 113.589 148.058 115.554 148.058Z" fill="#2E2E68"/>
<path d="M187.484 186.614C189.449 186.614 191.042 185.021 191.042 183.056C191.042 181.091 189.449 179.498 187.484 179.498C185.519 179.498 183.926 181.091 183.926 183.056C183.926 185.021 185.519 186.614 187.484 186.614Z" fill="#C45B0C"/>
<path d="M142.691 150.489C144.656 150.489 146.249 148.896 146.249 146.93C146.249 144.965 144.656 143.372 142.691 143.372C140.726 143.372 139.133 144.965 139.133 146.93C139.133 148.896 140.726 150.489 142.691 150.489Z" fill="#2E2E68"/>
<path d="M208.086 192.434C210.051 192.434 211.644 190.841 211.644 188.876C211.644 186.91 210.051 185.317 208.086 185.317C206.12 185.317 204.527 186.91 204.527 188.876C204.527 190.841 206.12 192.434 208.086 192.434Z" fill="#C45B0C"/>
<path d="M129.421 144.898C136.926 150.605 150.401 163.345 140.43 172.488C135.863 176.453 129.429 177.163 123.643 177.072C123.094 177.052 121.783 176.975 121.227 176.952L121.678 172.077L123.135 172.207C128.169 172.643 135.64 172.338 138.97 168.045C141.888 164.25 138.477 158.939 136.01 155.679C133.897 152.955 131.401 150.442 128.787 148.167C128.415 147.845 128.019 147.514 127.659 147.223L129.419 144.896L129.421 144.898Z" fill="#2E2E68"/>
<path d="M104.256 168.726C104.83 173.43 106.992 177.971 110.259 181.406C112.6 183.87 115.536 185.73 118.724 186.949C124.62 189.282 131.535 189.862 137.353 187.012C138.171 186.612 138.954 186.156 139.672 185.602C139.687 185.59 139.713 185.569 139.707 185.575L141.803 187.902L141.689 188.002L141.594 188.082C136.668 191.991 130.005 193.112 123.889 192.268C118.708 191.501 113.647 189.67 109.458 186.455C104.983 183.015 101.743 178.092 100.147 172.691C99.8075 171.539 99.5224 170.353 99.3789 169.152L104.256 168.728V168.726Z" fill="#2E2E68"/>
</g>
<path d="M339.396 342.193C338.625 338.785 337.223 335.834 335.176 333.35C333.163 330.83 330.602 328.879 327.491 327.484C324.381 326.061 320.841 325.353 316.871 325.353C313.262 325.353 309.943 325.943 306.923 327.13C303.931 328.282 301.321 329.929 299.1 332.06C296.913 334.198 295.192 336.724 293.949 339.66C292.734 342.589 292.123 345.803 292.123 349.303C292.123 354.127 293.178 358.347 295.282 361.965C297.386 365.547 300.315 368.345 304.078 370.358C307.841 372.344 312.206 373.336 317.184 373.336C319.433 373.336 321.794 373.086 324.251 372.58C326.736 372.108 329.076 371.455 331.27 370.628C333.491 369.767 335.296 368.802 336.691 367.741L332.11 357.877C329.923 359.328 327.625 360.411 325.23 361.118C322.829 361.798 320.295 362.139 317.63 362.139C315.228 362.139 313.132 361.771 311.32 361.029C309.515 360.258 308.092 359.21 307.058 357.877C306.024 356.544 305.489 354.99 305.462 353.212H339.49C340.198 349.242 340.17 345.57 339.4 342.196L339.396 342.193ZM306.34 343.386C306.583 341.11 307.617 339.284 309.457 337.924C311.318 336.563 313.657 335.883 316.475 335.883C319.294 335.883 321.466 336.563 323.091 337.924C324.722 339.284 325.569 341.11 325.625 343.386H306.341H306.34ZM285.257 336.722C283.306 333.113 280.627 330.314 277.219 328.329C273.846 326.343 269.992 325.351 265.668 325.351C262.204 325.351 259.15 325.94 256.519 327.128C253.909 328.316 251.764 329.898 250.077 331.883V326.684H237.498V390.658H252.027V368.403C253.804 369.972 255.803 371.187 258.025 372.041C260.281 372.902 262.738 373.332 265.404 373.332C268.75 373.332 271.797 372.729 274.553 371.514C277.337 370.299 279.753 368.605 281.793 366.446C283.841 364.252 285.41 361.705 286.507 358.804C287.631 355.875 288.193 352.716 288.193 349.342C288.193 344.545 287.214 340.339 285.257 336.722ZM272.512 355.429C271.561 357.143 270.256 358.476 268.596 359.428C266.937 360.344 265.056 360.803 262.96 360.803C260.863 360.803 258.975 360.344 257.316 359.428C255.685 358.477 254.4 357.144 253.449 355.429C252.505 353.708 252.026 351.681 252.026 349.341C252.026 347.002 252.505 344.94 253.449 343.253C254.4 341.539 255.698 340.219 257.358 339.303C259.017 338.352 260.883 337.88 262.96 337.88C265.036 337.88 266.924 338.351 268.555 339.303C270.214 340.219 271.518 341.538 272.463 343.253C273.442 344.94 273.928 346.974 273.928 349.341C273.928 351.708 273.456 353.708 272.512 355.429ZM227.467 336.722C225.516 333.113 222.837 330.314 219.429 328.329C216.056 326.343 212.203 325.351 207.879 325.351C204.415 325.351 201.361 325.94 198.729 327.128C196.119 328.316 193.974 329.898 192.287 331.883V326.684H179.709V390.658H194.237V368.403C196.015 369.972 198.013 371.187 200.235 372.041C202.491 372.902 204.948 373.332 207.614 373.332C210.96 373.332 214.007 372.729 216.764 371.514C219.547 370.299 221.963 368.605 224.003 366.446C226.051 364.252 227.62 361.705 228.717 358.804C229.841 355.875 230.404 352.716 230.404 349.342C230.404 344.545 229.425 340.339 227.467 336.722ZM214.722 355.429C213.771 357.143 212.466 358.476 210.807 359.428C209.147 360.344 207.266 360.803 205.17 360.803C203.073 360.803 201.185 360.344 199.526 359.428C197.895 358.477 196.61 357.144 195.66 355.429C194.715 353.708 194.236 351.681 194.236 349.341C194.236 347.002 194.715 344.94 195.66 343.253C196.61 341.539 197.909 340.219 199.568 339.303C201.227 338.352 203.094 337.88 205.17 337.88C207.246 337.88 209.134 338.351 210.765 339.303C212.424 340.219 213.728 341.538 214.673 343.253C215.652 344.94 216.138 346.974 216.138 349.341C216.138 351.708 215.666 353.708 214.722 355.429ZM110.673 326.684L103.433 355.249L95.3045 326.684H81.8859L73.4453 355.249L66.1148 326.684H52.0304L65.5812 372H80.0682L88.329 344.497L96.1943 372H110.674L124.225 326.684H110.674H110.673ZM45.4551 342.366C42.6094 339.554 38.0067 337.215 31.634 335.347L26.2129 333.751C23.7556 333.008 21.8044 332.328 20.3536 331.703C18.9301 331.085 17.9105 330.434 17.2851 329.752C16.6955 329.038 16.3965 328.162 16.3965 327.128C16.3965 325.858 16.7991 324.761 17.5972 323.838C18.4227 322.893 19.5686 322.166 21.0194 321.665C22.4703 321.159 24.1713 320.909 26.1284 320.909C28.0855 320.909 30.0783 321.159 32.0354 321.665C33.9865 322.166 35.7983 322.866 37.4564 323.755C39.1157 324.643 40.5034 325.677 41.6279 326.865L48.8261 316.203C46.3688 313.829 43.1133 311.961 39.0526 310.601C35.0264 309.212 30.6536 308.511 25.9461 308.511C22.5382 308.511 19.3863 309.004 16.4846 309.982C13.6103 310.927 11.1053 312.273 8.9743 314.023C6.84329 315.737 5.18399 317.786 3.99758 320.153C2.81713 322.492 2.22035 325.053 2.22035 327.837C2.22035 332.162 3.62951 335.869 6.44068 338.943C9.25899 342.025 13.8617 344.455 20.2619 346.232L25.5935 347.745C29.3565 348.751 31.9175 349.8 33.2778 350.897C34.6727 351.994 35.3671 353.34 35.3671 354.937C35.3671 356.894 34.4022 358.387 32.4797 359.428C30.5845 360.434 28.1069 360.935 25.0587 360.935C22.9003 360.935 20.6573 360.671 18.3536 360.137C16.0701 359.574 13.9248 358.789 11.9117 357.783C9.89149 356.776 8.23935 355.576 6.93502 354.187L0 365.203C3.08156 367.84 6.84448 369.853 11.2875 371.242C15.7306 372.637 20.3047 373.331 25.0182 373.331C30.0783 373.331 34.4523 372.484 38.1247 370.798C41.8244 369.111 44.6844 366.771 46.6975 363.779C48.7106 360.76 49.7171 357.275 49.7171 353.339C49.7171 348.834 48.2937 345.183 45.4551 342.364V342.366Z" fill="#F8F2EA"/>
<path d="M166.833 333.259C165 330.419 162.454 328.317 159.191 326.949C155.963 325.589 152.214 324.909 147.952 324.909C144.724 324.909 141.434 325.353 138.088 326.242C134.742 327.103 131.605 328.449 128.668 330.282L132.403 340.278C134.242 338.889 136.311 337.856 138.623 337.168C140.935 336.461 143.26 336.106 145.6 336.106C147.939 336.106 149.966 336.459 151.417 337.168C152.896 337.856 153.978 338.813 154.658 340.056C155.297 341.215 155.638 342.533 155.679 344.02C151.292 343.721 147.398 343.784 143.996 344.194C140.061 344.638 136.791 345.505 134.181 346.811C131.571 348.116 129.62 349.774 128.316 351.787C127.046 353.801 126.406 356.113 126.406 358.715C126.406 361.77 127.101 364.387 128.496 366.581C129.884 368.746 131.778 370.42 134.181 371.599C136.582 372.758 139.29 373.335 142.31 373.335C145.565 373.335 148.474 372.8 151.022 371.738C153.57 370.67 155.561 369.156 157.019 367.206V372.003H169.591V344.195C169.591 339.752 168.668 336.108 166.835 333.261L166.833 333.259ZM155.685 354.715C155.685 356.465 155.255 357.943 154.394 359.158C153.569 360.346 152.437 361.248 151.021 361.873C149.626 362.491 148.057 362.803 146.307 362.803C144.294 362.803 142.676 362.387 141.469 361.561C140.281 360.736 139.691 359.534 139.691 357.965C139.691 356.75 140.114 355.723 140.975 354.896C141.837 354.071 143.05 353.46 144.62 353.078C146.217 352.661 148.146 352.466 150.396 352.494C152.028 352.494 153.791 352.626 155.686 352.882V354.714L155.685 354.715Z" fill="#F8F2EA"/>
<defs>
<filter id="filter0_d_2013_38264" x="11" y="0.1" width="318" height="316.511" filterUnits="userSpaceOnUse" color-interpolation-filters="sRGB">
<feFlood flood-opacity="0" result="BackgroundImageFix"/>
<feColorMatrix in="SourceAlpha" type="matrix" values="0 0 0 0 0 0 0 0 0 0 0 0 0 0 0 0 0 0 127 0" result="hardAlpha"/>
<feOffset dy="8.1"/>
<feGaussianBlur stdDeviation="8"/>
<feComposite in2="hardAlpha" operator="out"/>
<feColorMatrix type="matrix" values="0 0 0 0 0 0 0 0 0 0 0 0 0 0 0 0 0 0 0.1 0"/>
<feBlend mode="normal" in2="BackgroundImageFix" result="effect1_dropShadow_2013_38264"/>
<feBlend mode="normal" in="SourceGraphic" in2="effect1_dropShadow_2013_38264" result="shape"/>
</filter>
</defs>
</svg>
