<svg width="134" height="40" viewBox="0 0 134 40" fill="none" xmlns="http://www.w3.org/2000/svg">
<path d="M131.901 25.6635C131.692 24.7426 131.313 23.9454 130.76 23.274C130.216 22.5932 129.524 22.066 128.684 21.6891C127.843 21.3045 126.887 21.1133 125.814 21.1133C124.839 21.1133 123.942 21.2726 123.126 21.5935C122.318 21.9048 121.613 22.3496 121.012 22.9254C120.421 23.5031 119.956 24.1858 119.621 24.9792C119.292 25.7706 119.127 26.639 119.127 27.5847C119.127 28.8882 119.412 30.0285 119.981 31.006C120.549 31.9739 121.341 32.7299 122.357 33.2739C123.374 33.8104 124.554 34.0785 125.899 34.0785C126.506 34.0785 127.144 34.0109 127.808 33.8741C128.48 33.7467 129.112 33.5703 129.705 33.3469C130.305 33.1142 130.793 32.8535 131.17 32.5667L129.932 29.9014C129.341 30.2934 128.72 30.586 128.073 30.7772C127.424 30.961 126.74 31.053 126.019 31.053C125.37 31.053 124.804 30.9536 124.314 30.7531C123.827 30.5448 123.442 30.2616 123.163 29.9014C122.883 29.5412 122.739 29.1212 122.731 28.641H131.926C132.117 27.5682 132.11 26.5759 131.902 25.6644L131.901 25.6635ZM122.969 25.986C123.034 25.3709 123.314 24.8775 123.811 24.5099C124.314 24.1423 124.946 23.9586 125.707 23.9586C126.469 23.9586 127.056 24.1423 127.495 24.5099C127.936 24.8775 128.164 25.3709 128.18 25.986H122.969H122.969ZM117.272 24.1851C116.745 23.2099 116.021 22.4539 115.1 21.9173C114.189 21.3808 113.147 21.1127 111.979 21.1127C111.043 21.1127 110.218 21.272 109.507 21.5929C108.802 21.9138 108.222 22.3412 107.766 22.8777V21.4728H104.367V38.759H108.293V32.7457C108.773 33.1696 109.313 33.4979 109.914 33.7287C110.523 33.9614 111.187 34.0776 111.907 34.0776C112.812 34.0776 113.635 33.9144 114.38 33.5861C115.132 33.2578 115.785 32.8001 116.336 32.2169C116.889 31.624 117.313 30.9359 117.61 30.1518C117.913 29.3604 118.065 28.5068 118.065 27.5953C118.065 26.2991 117.801 25.1626 117.272 24.1851ZM113.828 29.24C113.571 29.7031 113.218 30.0633 112.77 30.3205C112.322 30.568 111.814 30.6919 111.247 30.6919C110.681 30.6919 110.17 30.568 109.722 30.3205C109.281 30.0636 108.934 29.7035 108.677 29.24C108.422 28.7749 108.293 28.2271 108.293 27.595C108.293 26.9628 108.422 26.4057 108.677 25.9499C108.934 25.4868 109.285 25.1301 109.733 24.8826C110.182 24.6258 110.686 24.498 111.247 24.498C111.808 24.498 112.318 24.6255 112.759 24.8826C113.207 25.1301 113.56 25.4864 113.815 25.9499C114.079 26.4057 114.211 26.9554 114.211 27.595C114.211 28.2345 114.083 28.7749 113.828 29.24ZM101.657 24.1851C101.13 23.2099 100.406 22.4539 99.4849 21.9173C98.5734 21.3808 97.5322 21.1127 96.3638 21.1127C95.4279 21.1127 94.6026 21.272 93.8916 21.5929C93.1864 21.9138 92.6067 22.3412 92.151 22.8777V21.4728H88.7521V38.759H92.6779V32.7457C93.1581 33.1696 93.6982 33.4979 94.2984 33.7287C94.9081 33.9614 95.572 34.0776 96.2924 34.0776C97.1965 34.0776 98.0198 33.9144 98.7646 33.5861C99.5168 33.2578 100.17 32.8001 100.721 32.2169C101.274 31.624 101.698 30.9359 101.994 30.1518C102.298 29.3604 102.45 28.5068 102.45 27.5953C102.45 26.2991 102.186 25.1626 101.657 24.1851ZM98.2129 29.24C97.9561 29.7031 97.6033 30.0633 97.155 30.3205C96.7066 30.568 96.1984 30.6919 95.6319 30.6919C95.0654 30.6919 94.5553 30.568 94.1069 30.3205C93.6663 30.0636 93.319 29.7035 93.0622 29.24C92.8069 28.7749 92.6775 28.2271 92.6775 27.595C92.6775 26.9628 92.8069 26.4057 93.0622 25.9499C93.319 25.4868 93.6698 25.1301 94.1182 24.8826C94.5666 24.6258 95.0709 24.498 95.6319 24.498C96.1929 24.498 96.7031 24.6255 97.1437 24.8826C97.592 25.1301 97.9445 25.4864 98.1997 25.9499C98.4643 26.4057 98.5956 26.9554 98.5956 27.595C98.5956 28.2345 98.4682 28.7749 98.2129 29.24ZM70.0983 21.4728L68.142 29.1914L65.9457 21.4728H62.3199L60.0392 29.1914L58.0584 21.4728H54.2528L57.9143 33.7174H61.8287L64.0608 26.2859L66.1861 33.7174H70.0986L73.7601 21.4728H70.0986H70.0983ZM52.4761 25.7101C51.7072 24.9505 50.4635 24.3184 48.7415 23.8137L47.2767 23.3824C46.6127 23.1816 46.0855 22.9978 45.6935 22.8291C45.3089 22.6621 45.0334 22.486 44.8644 22.3019C44.7051 22.1088 44.6243 21.8723 44.6243 21.5929C44.6243 21.2498 44.7331 20.9533 44.9487 20.7039C45.1718 20.4487 45.4814 20.252 45.8734 20.1168C46.2654 19.98 46.7251 19.9124 47.2539 19.9124C47.7827 19.9124 48.3212 19.98 48.85 20.1168C49.3772 20.252 49.8667 20.4413 50.3148 20.6814C50.7631 20.9215 51.1381 21.2008 51.4419 21.5217L53.3869 18.6408C52.7229 17.9993 51.8433 17.4946 50.7461 17.127C49.6582 16.7518 48.4766 16.5625 47.2046 16.5625C46.2838 16.5625 45.4321 16.6957 44.6481 16.96C43.8714 17.2152 43.1946 17.5789 42.6188 18.0518C42.0429 18.5149 41.5946 19.0685 41.274 19.7081C40.955 20.3402 40.7938 21.0322 40.7938 21.7844C40.7938 22.9531 41.1746 23.9547 41.9342 24.7854C42.6957 25.6181 43.9393 26.2747 45.6687 26.7549L47.1094 27.1637C48.1261 27.4356 48.8181 27.7189 49.1857 28.0153C49.5626 28.3117 49.7502 28.6754 49.7502 29.1071C49.7502 29.6359 49.4895 30.0392 48.97 30.3205C48.458 30.5924 47.7885 30.7276 46.9648 30.7276C46.3816 30.7276 45.7756 30.6565 45.1531 30.512C44.5361 30.3601 43.9564 30.148 43.4125 29.876C42.8666 29.604 42.4202 29.2796 42.0677 28.9043L40.1938 31.8809C41.0265 32.5935 42.0433 33.1374 43.2438 33.5127C44.4444 33.8896 45.6803 34.0772 46.9539 34.0772C48.3212 34.0772 49.503 33.8484 50.4953 33.3926C51.495 32.9369 52.2678 32.3048 52.8118 31.4962C53.3557 30.6803 53.6277 29.7389 53.6277 28.6751C53.6277 27.4578 53.2431 26.4713 52.4761 25.7098V25.7101Z" fill="#252525"/>
<path d="M85.2728 23.2489C84.7774 22.4816 84.0893 21.9135 83.2077 21.544C82.3355 21.1765 81.3226 20.9927 80.171 20.9927C79.2987 20.9927 78.4097 21.1127 77.5056 21.3528C76.6015 21.5855 75.7537 21.9492 74.9603 22.4446L75.9694 25.1457C76.4663 24.7704 77.0254 24.491 77.6501 24.3053C78.2749 24.1141 78.9031 24.0182 79.5353 24.0182C80.1674 24.0182 80.7152 24.1138 81.1073 24.3053C81.5067 24.491 81.7993 24.7498 81.983 25.0855C82.1556 25.3986 82.2476 25.7549 82.2589 26.1566C81.0735 26.0758 80.0213 26.0929 79.1021 26.2036C78.0386 26.3237 77.1551 26.558 76.4499 26.9107C75.7447 27.2635 75.2175 27.7115 74.8651 28.2555C74.522 28.7994 74.3491 29.4242 74.3491 30.1274C74.3491 30.9527 74.5368 31.6598 74.9137 32.2527C75.289 32.8378 75.8007 33.29 76.4499 33.6087C77.0988 33.9219 77.8304 34.0776 78.6463 34.0776C79.5259 34.0776 80.3119 33.9331 81.0004 33.6463C81.6889 33.3576 82.227 32.9486 82.621 32.4217V33.7178H86.0179V26.2039C86.0179 25.0034 85.7685 24.0188 85.2731 23.2496L85.2728 23.2489ZM82.2605 29.0466C82.2605 29.5194 82.1443 29.9189 81.9116 30.2472C81.6885 30.5681 81.3828 30.8117 81.0001 30.9807C80.6232 31.1477 80.1993 31.2321 79.7265 31.2321C79.1825 31.2321 78.7454 31.1194 78.4191 30.8964C78.0982 30.6733 77.9388 30.3486 77.9388 29.9247C77.9388 29.5964 78.0531 29.3189 78.2858 29.0955C78.5185 28.8725 78.8465 28.7074 79.2707 28.6041C79.702 28.4914 80.2234 28.4389 80.8314 28.4464C81.2724 28.4464 81.7487 28.4821 82.2608 28.5513V29.0463L82.2605 29.0466Z" fill="#252525"/>
<path d="M26.0503 3.49722C28.3268 2.90724 30.6404 4.31668 31.1602 6.61026C31.4836 8.03771 32.5326 9.19094 33.923 9.64799C36.1574 10.3825 37.3415 12.819 36.5391 15.0295C36.0396 16.4055 36.2984 17.9424 37.2211 19.0788C38.7033 20.9044 38.3824 23.5942 36.5124 25.0201C35.3482 25.9075 34.7351 27.3404 34.897 28.7952C35.157 31.1326 33.4325 33.2218 31.0884 33.4101C29.6294 33.5272 28.3387 34.4014 27.6886 35.7123C26.6438 37.8192 24.0634 38.6448 21.9897 37.536C20.699 36.8456 19.1409 36.8833 17.8847 37.6348C15.8666 38.8424 13.2495 38.1417 12.1047 36.0876C11.3921 34.8092 10.0608 33.9984 8.59798 33.9514C6.24742 33.8761 4.42472 31.8722 4.57213 29.5249C4.66386 28.0643 3.98248 26.6622 2.77679 25.8318C0.840145 24.4977 0.390182 21.8263 1.7832 19.9311C2.64997 18.7518 2.83472 17.204 2.26953 15.8538C1.36156 13.6845 2.42724 11.1939 4.62363 10.3529C5.99058 9.82952 6.98255 8.62704 7.23715 7.18575C7.64623 4.86995 9.88929 3.35077 12.1916 3.83066C13.6245 4.12935 15.1089 3.65428 16.1025 2.57927C17.6986 0.852158 20.4068 0.78682 22.0843 2.43539C23.1284 3.46149 24.6341 3.86446 26.0509 3.49722H26.0503Z" fill="#F8F2EA"/>
<path d="M33.7303 25.8809C33.6163 26.5604 33.2616 27.1722 32.9069 27.7628C31.8841 29.4665 30.7881 31.1614 29.3018 32.48C27.8151 33.7984 25.8749 34.7157 23.8919 34.5902C21.4287 34.4344 19.3276 32.6262 18.3121 30.3535C16.0459 24.1065 22.4654 19.5167 22.4654 19.5167L23.6174 16.7532C24.076 15.6534 24.7136 14.666 25.6766 13.964C26.2113 13.5742 26.836 13.3405 27.3049 13.3428C28.3886 13.3476 28.8763 14.2015 28.566 14.7371C29.1373 13.7512 30.5313 13.291 31.512 13.9781C32.3723 14.581 32.5593 15.9177 31.9768 16.7709C32.4444 16.442 33.3003 16.714 33.5709 17.2927C33.8951 17.9856 33.6559 18.7993 33.3958 19.5187C32.8036 21.155 32.1197 22.7579 31.3478 24.3173C31.6443 23.6955 32.5793 23.5877 33.1242 24.009C33.6694 24.4306 33.8445 25.2015 33.7303 25.8809Z" fill="#EDB53E"/>
<path d="M6.53184 13.9325C4.73392 17.006 3.77831 20.7428 4.73295 24.1732C5.6876 27.6036 8.88916 30.511 12.448 30.3857C14.7384 30.3053 16.861 29.0326 18.4182 27.3512C19.9754 25.6698 21.0411 23.6003 22.0221 21.5291C22.3623 20.811 22.7003 20.0685 22.7543 19.2757C22.8084 18.483 22.52 17.6178 21.8467 17.1959C21.1733 16.7739 20.1125 17.0034 19.8428 17.7508C20.5521 15.8733 21.156 13.9563 21.65 12.0113C21.8673 11.1565 22.0498 10.1951 21.5995 9.43675C21.1492 8.67812 19.7871 8.51944 19.4836 9.34791C20.3552 8.32117 20.0343 6.52647 18.8608 5.86569C17.6573 5.18785 16.1095 5.87406 15.5652 7.07042C15.8607 6.42058 15.2044 5.49555 13.9601 5.61271C12.6324 5.73759 11.1232 7.71253 9.85764 9.27067C8.54991 10.8809 7.58175 12.1372 6.53152 13.9325H6.53184Z" fill="#9CAFE5"/>
<path d="M32.789 23.1578L32.5975 23.7626C32.3825 23.7127 32.0632 23.8031 31.8379 23.9167C31.2853 24.1939 30.8507 24.6383 30.4455 25.1279C29.8398 25.8801 29.3509 26.7346 28.9147 27.6049C29.0345 27.6342 29.1516 27.6716 29.2646 27.716C29.7487 27.9146 30.2399 28.2973 30.3232 28.8596L30.0989 28.9056C29.9 28.3333 29.2495 28.0414 28.701 27.9381C28.1523 27.8434 27.4413 27.8911 27.0669 28.362L26.8706 28.2419C26.9549 28.0713 27.0911 27.9348 27.2401 27.8315C27.6605 27.5551 28.1741 27.4855 28.6663 27.557L28.6193 27.5341C29.2559 26.0784 30.2347 24.1163 31.6715 23.3532C31.9959 23.1922 32.3709 23.0773 32.7381 23.1456L32.7591 23.1501L32.77 23.153L32.789 23.1581V23.1578Z" fill="#C45B0C"/>
<path d="M21.6083 17.0925C21.355 17.0738 21.007 17.1778 20.7702 17.2908C20.1882 17.5669 19.7695 17.9657 19.3923 18.3973C18.8193 19.0739 18.4032 19.8235 18.0511 20.5795L17.7253 20.5032C18.2007 19.2747 18.9787 17.6081 20.4837 16.8556C20.8258 16.6947 21.233 16.5659 21.6627 16.5843L21.6875 16.5862L21.7 16.5872L21.7225 16.5897L21.6083 17.0925Z" fill="#2E2E68"/>
<path d="M29.5549 14.254C29.5511 14.2556 29.5334 14.2643 29.5289 14.2663C29.5089 14.2733 29.4722 14.2936 29.4529 14.3058C29.3718 14.3515 29.2804 14.4211 29.207 14.4867C29.1758 14.5147 29.1127 14.5662 29.0857 14.5962C28.9952 14.6895 28.899 14.7851 28.8182 14.8881C28.73 14.9879 28.6116 15.1443 28.5337 15.255C28.4938 15.3104 28.4336 15.3889 28.3985 15.4468C27.6972 16.5042 27.1725 17.7095 26.7136 18.8949C26.663 19.0298 26.5069 19.4418 26.4567 19.576C26.4274 19.6603 26.3527 19.8779 26.2745 20.1045C26.5871 20.4325 26.8433 20.9034 26.9743 21.1686C27.0019 21.2243 26.9385 21.2806 26.8861 21.2468C26.4319 20.9555 25.8419 20.6771 25.7138 20.6179L25.6765 20.6063C25.7357 20.4141 25.9832 19.6001 26.0357 19.4325C26.2681 18.7398 26.5111 18.0233 26.7905 17.349C27.1403 16.5112 27.5176 15.6683 28.0322 14.9064C28.1954 14.6599 28.3837 14.4079 28.5865 14.1922C28.6364 14.1324 28.7187 14.0554 28.7764 14.0023C28.8333 13.9444 28.9251 13.8726 28.9904 13.823C29.0245 13.7938 29.0741 13.7645 29.1121 13.74C29.1632 13.7059 29.2312 13.6698 29.2878 13.6444C29.3197 13.6283 29.3631 13.6158 29.3966 13.6039C29.4149 13.5994 29.4342 13.5945 29.4526 13.5913L29.5546 14.2524" fill="#C45B0C"/>
<path d="M32.4257 16.9721C32.4093 16.9766 32.3758 16.9915 32.3591 17.0001C32.3157 17.0175 32.2506 17.0603 32.2091 17.0845C31.1589 17.8132 30.1444 19.6767 29.5596 20.8345C29.4549 21.0482 29.2779 21.3948 29.1817 21.6118L29.1064 21.7756C29.4125 22.1029 29.6629 22.5632 29.7916 22.8242C29.819 22.8799 29.7559 22.9359 29.7034 22.9024C29.3111 22.6507 28.8173 22.4087 28.6075 22.3093C28.6068 22.3093 28.6059 22.3086 28.6052 22.308L28.4485 22.2423C28.5174 22.0772 28.8067 21.3755 28.8672 21.2313C29.1318 20.6362 29.408 20.0208 29.7111 19.445C30.1978 18.5312 30.7269 17.5969 31.4727 16.8579C31.6854 16.6551 31.9207 16.4578 32.1975 16.3477L32.2336 16.3339L32.2519 16.3271C32.2754 16.3204 32.315 16.3101 32.3388 16.3046C32.3572 16.3017 32.3765 16.2985 32.3952 16.2969L32.445 16.968" fill="#C45B0C"/>
<path d="M20.0534 8.99002C20.0534 8.99002 20.0527 8.99002 20.0524 8.99066C20.0466 8.99227 20.0392 8.9942 20.0328 8.99484C20.0286 8.99581 20.0093 9.00353 20.0041 9.00547C19.9816 9.0119 19.9407 9.02961 19.9195 9.04119C19.8287 9.08239 19.7257 9.14676 19.6427 9.20888C19.6073 9.23528 19.5362 9.28291 19.5049 9.31188C19.4013 9.40039 19.2922 9.49019 19.1988 9.58932C19.0981 9.68395 18.9613 9.83426 18.8712 9.9408C18.8248 9.9939 18.7553 10.0692 18.7144 10.1249C17.8982 11.1436 17.267 12.32 16.7092 13.4797C16.6474 13.6116 16.4572 14.0149 16.3957 14.1462C16.3188 14.3217 15.9892 15.0877 15.9091 15.2728L15.6693 15.192C15.3835 15.1282 14.8881 15.0262 14.4514 14.9779C14.3838 14.9705 14.369 14.8868 14.4305 14.8611C14.7224 14.7407 15.2583 14.5428 15.7466 14.4874C15.8328 14.2647 15.9146 14.0558 15.9445 13.9802C16.2316 13.3004 16.5316 12.5981 16.8689 11.9389C17.2912 11.1207 17.7437 10.2987 18.3417 9.56518C18.5313 9.32765 18.7492 9.08593 18.9806 8.88123C19.0382 8.82426 19.1319 8.75184 19.1972 8.70163C19.2622 8.64723 19.3656 8.58029 19.4389 8.53426C19.4776 8.50658 19.5329 8.47987 19.5761 8.45734C19.633 8.42644 19.7093 8.39393 19.7721 8.3714C19.8078 8.35692 19.8554 8.34694 19.8931 8.33664C19.9131 8.3331 19.9343 8.32891 19.9549 8.32666L20.0334 8.99259C20.0408 8.99195 20.0476 8.9913 20.0543 8.98937L20.0534 8.99002Z" fill="#2E2E68"/>
<path d="M16.5489 6.61833L16.5477 6.61897C16.5409 6.62058 16.5374 6.62058 16.5271 6.62541L16.5094 6.63184C16.4769 6.64118 16.4212 6.67369 16.3845 6.68978C16.3578 6.70684 16.276 6.75673 16.2474 6.77411L16.0655 6.90897C16.0291 6.94115 15.8779 7.07054 15.846 7.09951C15.8209 7.12461 15.7472 7.19832 15.7205 7.22471C15.6896 7.25593 15.6246 7.31998 15.595 7.34992C15.5711 7.37663 15.4257 7.54207 15.3983 7.57297C15.305 7.67307 15.1826 7.83593 15.097 7.94343C15.0552 7.99686 14.9889 8.07829 14.9519 8.13333C14.7897 8.35799 14.5566 8.69337 14.415 8.92543C13.6454 10.1302 13.0172 11.4511 12.441 12.7353L12.3242 12.6989C12.3242 12.6989 12.3229 12.6989 12.3223 12.6986C12.0925 12.6378 11.4246 12.4669 10.8488 12.3813C10.7764 12.3706 10.7648 12.2866 10.8327 12.2641C11.1452 12.1611 11.7117 11.996 12.2299 11.958C12.3145 11.7478 12.394 11.5518 12.4233 11.4807C12.6451 10.9773 12.8781 10.4395 13.1243 9.94573C13.4736 9.22251 13.8788 8.49446 14.3326 7.81275C14.4099 7.69399 14.5425 7.52018 14.6258 7.40238C14.7076 7.28297 14.8534 7.11657 14.9451 7.00102C15.0362 6.88901 15.1579 6.76799 15.2554 6.66017C15.2927 6.62154 15.4643 6.46576 15.5045 6.4265C15.613 6.33766 15.7337 6.2395 15.8557 6.16289C15.9931 6.07213 16.1463 5.99198 16.3175 5.94628C16.3388 5.94145 16.3732 5.93341 16.397 5.93115L16.5187 6.62283C16.5277 6.62187 16.5367 6.6209 16.5451 6.61865C16.5464 6.61865 16.5473 6.618 16.5477 6.618L16.5489 6.61833Z" fill="#2E2E68"/>
<path d="M21.6138 29.6134C22.7261 30.3119 24.1517 30.5938 25.4211 30.2147C26.1321 30.0067 26.7665 29.5925 27.2995 29.083L27.7568 29.57C27.4363 29.8606 27.0812 30.1274 26.7037 30.3431C26.0661 30.7023 25.3451 30.9218 24.6132 30.9604C23.7377 31.0068 22.8739 30.8159 22.0831 30.4577C21.8162 30.3354 21.5661 30.2024 21.3215 30.0322L21.6138 29.6138V29.6134Z" fill="#C45B0C"/>
<path d="M24.2233 26.7045L23.9617 27.2053L23.6324 27.298C23.3768 27.178 23.0736 27.0808 22.7972 27.0792C22.5657 27.0763 22.3672 27.1616 22.2877 27.3985C22.0688 27.9334 22.6234 28.2112 23.0917 28.2421L23.0363 28.9257C22.8335 28.9041 22.643 28.8529 22.4592 28.7738C21.9404 28.5578 21.5361 28.0718 21.651 27.4767C21.7134 27.1487 21.8856 26.8345 22.1866 26.6698C22.6552 26.4226 23.2024 26.5613 23.661 26.7657L23.8416 26.4834L24.2233 26.7045Z" fill="#C45B0C"/>
<path d="M10.5259 19.3687C10.8521 19.3687 11.1165 19.1043 11.1165 18.7781C11.1165 18.4519 10.8521 18.1875 10.5259 18.1875C10.1997 18.1875 9.9353 18.4519 9.9353 18.7781C9.9353 19.1043 10.1997 19.3687 10.5259 19.3687Z" fill="#2E2E68"/>
<path d="M22.4654 25.7686C22.7916 25.7686 23.056 25.5042 23.056 25.178C23.056 24.8518 22.7916 24.5874 22.4654 24.5874C22.1392 24.5874 21.8748 24.8518 21.8748 25.178C21.8748 25.5042 22.1392 25.7686 22.4654 25.7686Z" fill="#C45B0C"/>
<path d="M15.0308 19.7725C15.357 19.7725 15.6214 19.5081 15.6214 19.1819C15.6214 18.8557 15.357 18.5913 15.0308 18.5913C14.7046 18.5913 14.4402 18.8557 14.4402 19.1819C14.4402 19.5081 14.7046 19.7725 15.0308 19.7725Z" fill="#2E2E68"/>
<path d="M25.885 26.7345C26.2112 26.7345 26.4757 26.47 26.4757 26.1438C26.4757 25.8177 26.2112 25.5532 25.885 25.5532C25.5589 25.5532 25.2944 25.8177 25.2944 26.1438C25.2944 26.47 25.5589 26.7345 25.885 26.7345Z" fill="#C45B0C"/>
<path d="M12.8275 18.8446C14.0731 19.7918 16.3097 21.9064 14.6547 23.424C13.8967 24.0822 12.8288 24.2 11.8683 24.1849C11.7772 24.1817 11.5597 24.1688 11.4673 24.1649L11.5423 23.3558L11.784 23.3773C12.6195 23.4498 13.8597 23.3992 14.4123 22.6866C14.8967 22.0567 14.3306 21.1752 13.9212 20.6341C13.5703 20.1819 13.1561 19.7648 12.7222 19.3872C12.6604 19.3338 12.5948 19.2788 12.5349 19.2305L12.8271 18.8442L12.8275 18.8446Z" fill="#2E2E68"/>
<path d="M8.65103 22.7998C8.74631 23.5806 9.10518 24.3344 9.64752 24.9045C10.036 25.3135 10.5233 25.6222 11.0524 25.8247C12.0312 26.2119 13.179 26.3081 14.1446 25.835C14.2804 25.7687 14.4104 25.693 14.5295 25.601C14.5321 25.599 14.5363 25.5955 14.5353 25.5965L14.8832 25.9827L14.8643 25.9994L14.8485 26.0126C14.031 26.6615 12.925 26.8475 11.9099 26.7075C11.0499 26.5801 10.2098 26.2762 9.51459 25.7426C8.77173 25.1716 8.2339 24.3544 7.96901 23.458C7.91268 23.2668 7.86537 23.0698 7.84155 22.8706L8.65103 22.8001V22.7998Z" fill="#2E2E68"/>
</svg>
