<svg width="27" height="27" viewBox="0 0 27 27" fill="none" xmlns="http://www.w3.org/2000/svg">
<path d="M17.6192 2.57152V0.857173C17.6192 0.629836 17.7094 0.411811 17.8699 0.25106C18.0304 0.090309 18.2481 0 18.4751 0C18.7021 0 18.9198 0.090309 19.0804 0.25106C19.2409 0.411811 19.3311 0.629836 19.3311 0.857173V2.57152C19.3311 2.79886 19.2409 3.01688 19.0804 3.17763C18.9198 3.33838 18.7021 3.42869 18.4751 3.42869C18.2481 3.42869 18.0304 3.33838 17.8699 3.17763C17.7094 3.01688 17.6192 2.79886 17.6192 2.57152ZM21.4527 4.39301C21.5873 4.4741 21.7418 4.51603 21.8989 4.51409C22.0458 4.51432 22.1903 4.47669 22.3184 4.40482C22.4466 4.33295 22.5541 4.22926 22.6307 4.10372L23.4866 2.69902C23.5462 2.6029 23.5862 2.49592 23.6043 2.38425C23.6223 2.27258 23.6182 2.15843 23.592 2.04839C23.5658 1.93834 23.5181 1.83457 23.4517 1.74307C23.3853 1.65156 23.3014 1.57413 23.205 1.51523C23.1085 1.45633 23.0014 1.41713 22.8898 1.3999C22.7781 1.38266 22.6642 1.38773 22.5545 1.4148C22.4448 1.44188 22.3416 1.49043 22.2507 1.55766C22.1599 1.62488 22.0832 1.70945 22.0251 1.80649L21.1692 3.21011C21.1098 3.30631 21.0701 3.41332 21.0522 3.52497C21.0344 3.63662 21.0387 3.75071 21.0651 3.86066C21.0914 3.97061 21.1393 4.07426 21.2058 4.16562C21.2723 4.25699 21.3562 4.33427 21.4527 4.39301ZM26.5284 5.74199C26.4939 5.63483 26.4387 5.53553 26.3659 5.44975C26.2931 5.36397 26.2041 5.29339 26.1041 5.24205C26.004 5.19071 25.8949 5.15961 25.7828 5.15053C25.6708 5.14144 25.558 5.15455 25.451 5.18911L23.8461 5.70877C23.6516 5.77107 23.4857 5.901 23.3784 6.07509C23.2711 6.24918 23.2295 6.45596 23.2612 6.65805C23.2929 6.86015 23.3956 7.04425 23.551 7.17709C23.7063 7.30993 23.904 7.38275 24.1083 7.3824C24.1976 7.38206 24.2864 7.36797 24.3715 7.34061L25.9764 6.82095C26.0838 6.78645 26.1834 6.73099 26.2694 6.65778C26.3554 6.58457 26.4261 6.49504 26.4775 6.39436C26.5288 6.29368 26.5597 6.18383 26.5684 6.07113C26.5772 5.95843 26.5636 5.84512 26.5284 5.7377V5.74199ZM23.3187 10.0214C24.265 11.6516 24.6461 13.5495 24.4024 15.4193C24.1588 17.2891 23.3041 19.0255 21.9716 20.3579C21.5093 21.9758 20.5816 23.4217 19.3043 24.5152C18.0269 25.6087 16.4564 26.3015 14.7885 26.5072C13.1206 26.7128 11.4292 26.4223 9.92513 25.6717C8.42104 24.9212 7.17085 23.7438 6.33043 22.2865L2.5857 15.7902C2.35706 15.393 2.22982 14.9455 2.21527 14.4873C2.20072 14.0291 2.29931 13.5744 2.5023 13.1635C2.70528 12.7526 3.00639 12.3982 3.3789 12.1318C3.75142 11.8654 4.18384 11.6951 4.63781 11.6361L4.20984 10.8925C3.98475 10.5021 3.85765 10.0627 3.83946 9.61224C3.82127 9.16176 3.91253 8.71358 4.10541 8.3062C4.29828 7.89881 4.58701 7.5444 4.9468 7.27338C5.30658 7.00236 5.72668 6.82284 6.17101 6.75024C5.94814 6.13571 5.94821 5.46225 6.1712 4.84777C6.39418 4.23328 6.82588 3.71691 7.39072 3.38905C7.90866 3.09068 8.50863 2.9669 9.10216 3.03596C9.69568 3.10503 10.2513 3.36328 10.6872 3.77263C10.9541 3.38675 11.3141 3.07467 11.7337 2.86539C12.1533 2.65611 12.6189 2.5564 13.0872 2.57554C13.5556 2.59467 14.0115 2.73202 14.4127 2.97484C14.8139 3.21765 15.1473 3.55805 15.382 3.96442L16.6659 6.192C16.9439 5.82748 17.3074 5.53732 17.7243 5.34731C18.1411 5.15729 18.5984 5.07329 19.0554 5.10276C19.5125 5.13222 19.9552 5.27425 20.3443 5.51623C20.7334 5.75821 21.0568 6.09266 21.2858 6.48987L23.3187 10.0214ZM12.047 5.89306L12.6815 6.99346C12.8933 7.18721 13.0738 7.41277 13.2164 7.66205L14.5004 9.88535C14.9223 9.3365 15.5321 8.96328 16.2122 8.83745L13.9001 4.8216C13.7582 4.57551 13.5246 4.39595 13.2505 4.3224C12.9764 4.24886 12.6844 4.28736 12.4386 4.42944C12.1929 4.57153 12.0136 4.80556 11.9401 5.08004C11.8667 5.35452 11.9051 5.64697 12.047 5.89306ZM7.85507 6.33772L8.48953 7.43919L8.52377 7.47026C8.73134 7.16928 8.99623 6.91231 9.30321 6.7141C9.6102 6.51589 9.95325 6.38034 10.3127 6.31522L9.70817 5.26626C9.60239 5.08271 9.44463 4.93471 9.25485 4.84095C9.06507 4.7472 8.85178 4.71191 8.64197 4.73955C8.43217 4.76719 8.23525 4.85652 8.07614 4.99624C7.91703 5.13595 7.80286 5.31978 7.74807 5.52448C7.71123 5.66037 7.70171 5.80225 7.72008 5.94185C7.73844 6.08146 7.78433 6.21602 7.85507 6.33772ZM20.3571 19.7761C20.5921 18.9063 20.6526 17.9986 20.5351 17.1053C20.4175 16.2121 20.1243 15.351 19.6724 14.5719L17.6395 11.0457C17.5013 10.8084 17.2772 10.6333 17.0137 10.5566C16.7502 10.48 16.4673 10.5077 16.2236 10.634C15.9799 10.7603 15.7939 10.9755 15.7042 11.2352C15.6145 11.4949 15.6278 11.7792 15.7415 12.0294L16.9633 14.1434C17.0768 14.3404 17.1075 14.5746 17.0486 14.7943C16.9897 15.014 16.8461 15.2013 16.6493 15.315C16.4525 15.4287 16.2187 15.4594 15.9993 15.4004C15.7799 15.3414 15.5928 15.1976 15.4793 15.0005L11.7346 8.52137C11.5877 8.2884 11.3568 8.12106 11.0899 8.05412C10.823 7.98718 10.5406 8.02579 10.3014 8.16191C10.0622 8.29804 9.88452 8.52122 9.80533 8.7851C9.72614 9.04898 9.7515 9.33327 9.87615 9.57891L12.5114 14.1434C12.5711 14.2409 12.6108 14.3495 12.6279 14.4627C12.6451 14.5758 12.6395 14.6913 12.6114 14.8022C12.5833 14.9132 12.5333 15.0174 12.4643 15.1087C12.3953 15.2 12.3088 15.2765 12.2098 15.3337C12.1109 15.391 12.0014 15.4278 11.888 15.442C11.7746 15.4562 11.6595 15.4476 11.5495 15.4165C11.4395 15.3854 11.3368 15.3326 11.2475 15.2612C11.1582 15.1897 11.0841 15.1011 11.0295 15.0005L7.54479 8.96389C7.47505 8.84105 7.38173 8.73324 7.27022 8.64666C7.1587 8.56008 7.03119 8.49645 6.89502 8.45943C6.75884 8.42241 6.6167 8.41272 6.47678 8.43094C6.33685 8.44915 6.20191 8.4949 6.07971 8.56555C5.95752 8.63621 5.85048 8.73037 5.76477 8.84262C5.67906 8.95487 5.61637 9.08298 5.5803 9.21959C5.54424 9.35621 5.53551 9.49861 5.55463 9.63861C5.57374 9.77862 5.62032 9.91345 5.69168 10.0354L9.5434 16.717C9.59961 16.8145 9.63608 16.9222 9.65074 17.0338C9.6654 17.1454 9.65797 17.2588 9.62886 17.3676C9.59975 17.4763 9.54953 17.5783 9.48108 17.6676C9.41263 17.7569 9.32729 17.8318 9.22992 17.8881C9.13255 17.9444 9.02506 17.9809 8.9136 17.9956C8.80213 18.0103 8.68887 18.0029 8.58028 17.9737C8.47169 17.9445 8.36989 17.8943 8.28071 17.8257C8.19152 17.7572 8.11669 17.6717 8.06049 17.5742L5.92065 13.8626C5.77776 13.6185 5.54426 13.441 5.27111 13.3686C4.99797 13.2963 4.70735 13.3351 4.46267 13.4766C4.21799 13.6181 4.03912 13.8507 3.96509 14.1238C3.89107 14.3968 3.9279 14.6881 4.06754 14.9341L7.81227 21.4304C8.48939 22.6051 9.49919 23.5524 10.7139 24.1523C11.9287 24.7523 13.2938 24.978 14.6367 24.8009C15.9795 24.6238 17.2398 24.0519 18.258 23.1575C19.2763 22.263 20.0068 21.0863 20.3571 19.7761ZM21.8357 10.8743L19.8029 7.34811C19.66 7.10403 19.4265 6.92645 19.1534 6.85413C18.8802 6.78181 18.5896 6.82062 18.3449 6.96209C18.1002 7.10357 17.9214 7.33621 17.8473 7.60927C17.7733 7.88232 17.8101 8.17362 17.9498 8.41958L18.5821 9.51783C18.7939 9.71246 18.9743 9.93871 19.1171 10.1886L21.1499 13.7148C21.7211 14.7034 22.0896 15.7962 22.2338 16.9292C22.6372 15.9573 22.8112 14.9053 22.7421 13.8551C22.6731 12.8049 22.3629 11.7848 21.8357 10.8743Z" fill="#FFFCF5"/>
</svg>
