<svg width="25" height="20" viewBox="0 0 25 20" fill="none" xmlns="http://www.w3.org/2000/svg">
<path d="M21.1424 8.07157H17.2674C16.9617 8.07157 16.7139 8.31941 16.7139 8.62514V13.0537C16.7139 13.3594 16.9617 13.6073 17.2674 13.6073H21.1424M21.1424 8.07157H22.8032C23.1089 8.07157 23.3567 8.31941 23.3567 8.62514V13.0537C23.3567 13.3594 23.1089 13.6073 22.8032 13.6073H21.1424M21.1424 8.07157V4.62871C21.1424 3.50861 21.1424 2.94855 20.9245 2.52073C20.7327 2.14441 20.4267 1.83844 20.0504 1.6467C19.6226 1.42871 19.0625 1.42871 17.9424 1.42871H4.41387C3.29376 1.42871 2.73371 1.42871 2.30589 1.6467C1.92956 1.83844 1.6236 2.14441 1.43185 2.52073C1.21387 2.94855 1.21387 3.50861 1.21387 4.62871V15.943C1.21387 17.0631 1.21387 17.6232 1.43185 18.051C1.6236 18.4273 1.92956 18.7333 2.30589 18.925C2.73371 19.143 3.29376 19.143 4.41387 19.143H17.9424C19.0625 19.143 19.6226 19.143 20.0504 18.925C20.4267 18.7333 20.7327 18.4273 20.9245 18.051C21.1424 17.6232 21.1424 17.0631 21.1424 15.943V13.6073" stroke="#FFFCF5" stroke-width="1.5"/>
</svg>
