<svg width="18" height="18" viewBox="0 0 18 18" fill="none" xmlns="http://www.w3.org/2000/svg">
<path d="M9.00013 1.6875C7.73765 1.68722 6.4966 2.01381 5.39778 2.63547C4.29896 3.25714 3.37981 4.15269 2.72978 5.23498C2.07976 6.31726 1.72102 7.5494 1.68847 8.81146C1.65592 10.0735 1.95067 11.3225 2.54404 12.4369L1.74599 14.831C1.67989 15.0292 1.67029 15.242 1.71829 15.4453C1.76628 15.6487 1.86996 15.8347 2.01771 15.9824C2.16547 16.1302 2.35145 16.2339 2.55481 16.2818C2.75818 16.3298 2.97089 16.3202 3.16912 16.2541L5.56326 15.4561C6.54395 15.9777 7.63059 16.269 8.7407 16.308C9.8508 16.347 10.9552 16.1325 11.97 15.6809C12.9849 15.2293 13.8835 14.5525 14.5977 13.7017C15.3119 12.851 15.8229 11.8487 16.0919 10.771C16.361 9.69326 16.3809 8.56842 16.1503 7.48184C15.9197 6.39525 15.4446 5.37549 14.761 4.49994C14.0774 3.6244 13.2034 2.91608 12.2052 2.42877C11.207 1.94146 10.1109 1.68796 9.00013 1.6875ZM11.2501 10.6875H6.75013C6.60095 10.6875 6.45787 10.6282 6.35238 10.5227C6.24689 10.4173 6.18763 10.2742 6.18763 10.125C6.18763 9.97582 6.24689 9.83274 6.35238 9.72725C6.45787 9.62176 6.60095 9.5625 6.75013 9.5625H11.2501C11.3993 9.5625 11.5424 9.62176 11.6479 9.72725C11.7534 9.83274 11.8126 9.97582 11.8126 10.125C11.8126 10.2742 11.7534 10.4173 11.6479 10.5227C11.5424 10.6282 11.3993 10.6875 11.2501 10.6875ZM11.2501 8.4375H6.75013C6.60095 8.4375 6.45787 8.37824 6.35238 8.27275C6.24689 8.16726 6.18763 8.02418 6.18763 7.875C6.18763 7.72582 6.24689 7.58274 6.35238 7.47725C6.45787 7.37176 6.60095 7.3125 6.75013 7.3125H11.2501C11.3993 7.3125 11.5424 7.37176 11.6479 7.47725C11.7534 7.58274 11.8126 7.72582 11.8126 7.875C11.8126 8.02418 11.7534 8.16726 11.6479 8.27275C11.5424 8.37824 11.3993 8.4375 11.2501 8.4375Z" fill="#343330"/>
</svg>
