<svg width="14" height="16" viewBox="0 0 14 16" fill="none" xmlns="http://www.w3.org/2000/svg">
<path fill-rule="evenodd" clip-rule="evenodd" d="M7.99998 1.141C7.38118 0.78373 6.61879 0.783731 5.99998 1.141L1.55981 3.70453C0.941013 4.06179 0.559814 4.72205 0.559814 5.43658V10.5636C0.559814 11.2782 0.941012 11.9384 1.55981 12.2957L5.99998 14.8592C6.61879 15.2165 7.38118 15.2165 7.99998 14.8592L12.4402 12.2957C13.059 11.9384 13.4402 11.2782 13.4402 10.5636V5.43658C13.4402 4.72205 13.059 4.06179 12.4402 3.70453L7.99998 1.141ZM9.47132 7.13823C9.73167 6.87788 9.73167 6.45577 9.47132 6.19542C9.21097 5.93508 8.78886 5.93508 8.52851 6.19542L6.30071 8.42322L5.43646 7.67443C5.15819 7.43333 4.73716 7.46347 4.49606 7.74174C4.25496 8.02002 4.2851 8.44105 4.56337 8.68215L5.8498 9.79671C6.14054 10.0486 6.57652 10.033 6.84854 9.76101L9.47132 7.13823Z" fill="#1E4A2F"/>
</svg>
