<svg width="19" height="18" viewBox="0 0 19 18" fill="none" xmlns="http://www.w3.org/2000/svg">
<path d="M12.9095 6.71555C12.9881 6.79393 13.0505 6.88708 13.0931 6.98964C13.1357 7.0922 13.1576 7.20215 13.1576 7.3132C13.1576 7.42425 13.1357 7.53421 13.0931 7.63677C13.0505 7.73933 12.9881 7.83247 12.9095 7.91086L8.97196 11.8484C8.89357 11.927 8.80042 11.9894 8.69787 12.032C8.59531 12.0746 8.48535 12.0965 8.3743 12.0965C8.26325 12.0965 8.15329 12.0746 8.05073 12.032C7.94818 11.9894 7.85503 11.927 7.77664 11.8484L6.08914 10.1609C6.01066 10.0824 5.9484 9.9892 5.90592 9.88665C5.86345 9.78411 5.84159 9.6742 5.84159 9.5632C5.84159 9.45221 5.86345 9.3423 5.90592 9.23975C5.9484 9.13721 6.01066 9.04403 6.08914 8.96555C6.16763 8.88706 6.2608 8.8248 6.36335 8.78233C6.4659 8.73985 6.5758 8.71799 6.6868 8.71799C6.79779 8.71799 6.9077 8.73985 7.01025 8.78233C7.1128 8.8248 7.20597 8.88706 7.28446 8.96555L8.375 10.0547L11.7155 6.71344C11.794 6.63513 11.8872 6.57306 11.9897 6.53078C12.0922 6.4885 12.2021 6.46684 12.3129 6.46703C12.4238 6.46723 12.5336 6.48928 12.6359 6.53192C12.7383 6.57456 12.8312 6.63696 12.9095 6.71555ZM17.0938 9C17.0938 10.5019 16.6484 11.9701 15.814 13.2189C14.9796 14.4676 13.7936 15.441 12.406 16.0157C11.0184 16.5905 9.49158 16.7408 8.01854 16.4478C6.54549 16.1548 5.19242 15.4316 4.13041 14.3696C3.06841 13.3076 2.34517 11.9545 2.05217 10.4815C1.75916 9.00842 1.90954 7.48157 2.48429 6.094C3.05905 4.70642 4.03236 3.52044 5.28114 2.68603C6.52993 1.85162 7.9981 1.40625 9.5 1.40625C11.5133 1.40848 13.4435 2.20925 14.8671 3.63287C16.2907 5.0565 17.0915 6.9867 17.0938 9ZM15.4063 9C15.4063 7.83185 15.0599 6.68994 14.4109 5.71866C13.7619 4.74739 12.8395 3.99037 11.7602 3.54334C10.681 3.09631 9.49345 2.97934 8.34775 3.20724C7.20205 3.43513 6.14966 3.99765 5.32365 4.82365C4.49765 5.64965 3.93513 6.70205 3.70724 7.84775C3.47935 8.99345 3.59631 10.181 4.04334 11.2602C4.49037 12.3394 5.24739 13.2619 6.21867 13.9109C7.18994 14.5599 8.33186 14.9062 9.5 14.9062C11.0659 14.9046 12.5672 14.2818 13.6745 13.1745C14.7818 12.0672 15.4046 10.5659 15.4063 9Z" fill="#FFFCF5"/>
</svg>
