<svg width="17" height="16" viewBox="0 0 17 16" fill="none" xmlns="http://www.w3.org/2000/svg">
<path d="M4.54999 4.25C4.54999 4.6366 4.86339 4.95 5.24999 4.95C5.63659 4.95 5.94999 4.6366 5.94999 4.25H4.54999ZM5.94999 11.75C5.94999 11.3634 5.63659 11.05 5.24999 11.05C4.86339 11.05 4.54999 11.3634 4.54999 11.75H5.94999ZM6.069 14.5865L6.3868 13.9628H6.3868L6.069 14.5865ZM5.41348 13.931L4.78978 14.2488L4.78978 14.2488L5.41348 13.931ZM15.5865 13.931L16.2102 14.2488L16.2102 14.2488L15.5865 13.931ZM14.931 14.5865L14.6132 13.9628L14.6132 13.9628L14.931 14.5865ZM14.931 1.41349L14.6132 2.03719L14.6132 2.03719L14.931 1.41349ZM15.5865 2.06901L14.9628 2.38681V2.38681L15.5865 2.06901ZM5.41348 2.06901L6.03718 2.38681V2.38681L5.41348 2.06901ZM6.069 1.41349L5.75121 0.789786V0.789786L6.069 1.41349ZM10.5 8.7C10.8866 8.7 11.2 8.3866 11.2 8C11.2 7.6134 10.8866 7.3 10.5 7.3V8.7ZM2.24999 7.3C1.86339 7.3 1.54999 7.6134 1.54999 8C1.54999 8.3866 1.86339 8.7 2.24999 8.7V7.3ZM3.58242 6.13829C3.79687 5.81662 3.70995 5.38201 3.38828 5.16756C3.06661 4.95312 2.632 5.04004 2.41755 5.36171L3.58242 6.13829ZM1.63866 7.79199L2.2211 8.18028L2.2211 8.18028L1.63866 7.79199ZM1.63866 8.20801L2.2211 7.81972L1.63866 8.20801ZM2.41755 10.6383C2.632 10.96 3.06661 11.0469 3.38828 10.8324C3.70995 10.618 3.79687 10.1834 3.58242 9.86171L2.41755 10.6383ZM5.24999 4.25H5.94999V3.65H5.24999H4.54999V4.25H5.24999ZM7.64999 1.25V1.95H13.35V1.25V0.55H7.64999V1.25ZM15.75 3.65H15.05V12.35H15.75H16.45V3.65H15.75ZM13.35 14.75V14.05H7.64999V14.75V15.45H13.35V14.75ZM5.24999 12.35H5.94999V11.75H5.24999H4.54999V12.35H5.24999ZM7.64999 14.75V14.05C7.2184 14.05 6.93681 14.0495 6.7218 14.0319C6.51496 14.015 6.4321 13.9859 6.3868 13.9628L6.069 14.5865L5.75121 15.2102C6.02677 15.3506 6.31437 15.4033 6.60779 15.4272C6.89303 15.4505 7.2415 15.45 7.64999 15.45V14.75ZM5.24999 12.35H4.54999C4.54999 12.7585 4.54945 13.107 4.57275 13.3922C4.59672 13.6856 4.64937 13.9732 4.78978 14.2488L5.41348 13.931L6.03718 13.6132C6.0141 13.5679 5.985 13.485 5.9681 13.2782C5.95053 13.0632 5.94999 12.7816 5.94999 12.35H5.24999ZM6.069 14.5865L6.3868 13.9628C6.23627 13.8861 6.11388 13.7637 6.03718 13.6132L5.41348 13.931L4.78978 14.2488C5.0007 14.6627 5.33725 14.9993 5.75121 15.2102L6.069 14.5865ZM15.75 12.35H15.05C15.05 12.7816 15.0494 13.0632 15.0319 13.2782C15.015 13.485 14.9859 13.5679 14.9628 13.6132L15.5865 13.931L16.2102 14.2488C16.3506 13.9732 16.4033 13.6856 16.4272 13.3922C16.4505 13.107 16.45 12.7585 16.45 12.35H15.75ZM13.35 14.75V15.45C13.7585 15.45 14.1069 15.4505 14.3922 15.4272C14.6856 15.4033 14.9732 15.3506 15.2488 15.2102L14.931 14.5865L14.6132 13.9628C14.5679 13.9859 14.485 14.015 14.2782 14.0319C14.0632 14.0495 13.7816 14.05 13.35 14.05V14.75ZM15.5865 13.931L14.9628 13.6132C14.8861 13.7637 14.7637 13.8861 14.6132 13.9628L14.931 14.5865L15.2488 15.2102C15.6627 14.9993 15.9993 14.6627 16.2102 14.2488L15.5865 13.931ZM13.35 1.25V1.95C13.7816 1.95 14.0632 1.95054 14.2782 1.96811C14.485 1.98501 14.5679 2.01411 14.6132 2.03719L14.931 1.41349L15.2488 0.789786C14.9732 0.64938 14.6856 0.596734 14.3922 0.572761C14.1069 0.549456 13.7585 0.55 13.35 0.55V1.25ZM15.75 3.65H16.45C16.45 3.24151 16.4505 2.89305 16.4272 2.6078C16.4033 2.31438 16.3506 2.02678 16.2102 1.75122L15.5865 2.06901L14.9628 2.38681C14.9859 2.43211 15.015 2.51497 15.0319 2.72181C15.0494 2.93682 15.05 3.21841 15.05 3.65H15.75ZM14.931 1.41349L14.6132 2.03719C14.7637 2.11389 14.8861 2.23628 14.9628 2.38681L15.5865 2.06901L16.2102 1.75122C15.9993 1.33727 15.6627 1.00071 15.2488 0.789785L14.931 1.41349ZM5.24999 3.65H5.94999C5.94999 3.21841 5.95053 2.93682 5.9681 2.72181C5.985 2.51497 6.0141 2.43211 6.03718 2.38681L5.41348 2.06901L4.78978 1.75122C4.64937 2.02678 4.59672 2.31438 4.57275 2.6078C4.54945 2.89305 4.54999 3.24151 4.54999 3.65H5.24999ZM7.64999 1.25V0.55C7.2415 0.55 6.89304 0.549456 6.60779 0.572761C6.31437 0.596734 6.02677 0.64938 5.75121 0.789786L6.069 1.41349L6.3868 2.03719C6.4321 2.01411 6.51496 1.98501 6.7218 1.96811C6.93681 1.95054 7.2184 1.95 7.64999 1.95V1.25ZM5.41348 2.06901L6.03718 2.38681C6.11388 2.23628 6.23627 2.11389 6.3868 2.03719L6.069 1.41349L5.75121 0.789786C5.33725 1.00071 5.0007 1.33726 4.78978 1.75122L5.41348 2.06901ZM10.5 8V7.3H2.24999V8V8.7H10.5V8ZM2.99999 5.75L2.41755 5.36171L1.05623 7.4037L1.63866 7.79199L2.2211 8.18028L3.58242 6.13829L2.99999 5.75ZM1.63866 8.20801L1.05623 8.5963L2.41755 10.6383L2.99999 10.25L3.58242 9.86171L2.2211 7.81972L1.63866 8.20801ZM1.63866 7.79199L1.05623 7.4037C0.815501 7.76479 0.815502 8.23521 1.05623 8.5963L1.63866 8.20801L2.2211 7.81972C2.29388 7.92889 2.29388 8.07111 2.2211 8.18028L1.63866 7.79199Z" fill="#68727D"/>
</svg>
