<svg width="14" height="18" viewBox="0 0 14 18" fill="none" xmlns="http://www.w3.org/2000/svg">
<path d="M12.1694 13.5268L12.8694 13.533V13.533L12.1694 13.5268ZM1 3.8C0.613401 3.8 0.3 4.1134 0.3 4.5C0.3 4.8866 0.613401 5.2 1 5.2V3.8ZM13 5.2C13.3866 5.2 13.7 4.8866 13.7 4.5C13.7 4.1134 13.3866 3.8 13 3.8V5.2ZM6.2 7.5C6.2 7.1134 5.8866 6.8 5.5 6.8C5.1134 6.8 4.8 7.1134 4.8 7.5H6.2ZM4.8 13.5C4.8 13.8866 5.1134 14.2 5.5 14.2C5.8866 14.2 6.2 13.8866 6.2 13.5H4.8ZM9.2 7.5C9.2 7.1134 8.8866 6.8 8.5 6.8C8.1134 6.8 7.8 7.1134 7.8 7.5H9.2ZM7.8 13.5C7.8 13.8866 8.1134 14.2 8.5 14.2C8.8866 14.2 9.2 13.8866 9.2 13.5H7.8ZM12.25 4.5L11.55 4.49375L11.4694 13.5205L12.1694 13.5268L12.8694 13.533L12.95 4.50625L12.25 4.5ZM9.16952 16.5V15.8H4.75V16.5V17.2H9.16952V16.5ZM1.75 4.5H1.05V13.5H1.75H2.45V4.5H1.75ZM1 4.5V5.2H1.75V4.5V3.8H1V4.5ZM1.75 4.5V5.2H4V4.5V3.8H1.75V4.5ZM4 4.5V5.2H10V4.5V3.8H4V4.5ZM10 4.5V5.2H12.25V4.5V3.8H10V4.5ZM12.25 4.5V5.2H13V4.5V3.8H12.25V4.5ZM4 4.16667H4.7C4.7 3.15574 5.64996 2.2 7 2.2V1.5V0.8C5.03633 0.8 3.3 2.23208 3.3 4.16667H4ZM7 1.5V2.2C8.35004 2.2 9.3 3.15574 9.3 4.16667H10H10.7C10.7 2.23208 8.96367 0.8 7 0.8V1.5ZM4 4.16667H3.3V4.5H4H4.7V4.16667H4ZM10 4.16667H9.3V4.5H10H10.7V4.16667H10ZM4.75 16.5V15.8C3.47974 15.8 2.45 14.7703 2.45 13.5H1.75H1.05C1.05 15.5435 2.70655 17.2 4.75 17.2V16.5ZM12.1694 13.5268L11.4694 13.5205C11.4582 14.7827 10.4318 15.8 9.16952 15.8V16.5V17.2C11.2001 17.2 12.8512 15.5635 12.8694 13.533L12.1694 13.5268ZM5.5 7.5H4.8V13.5H5.5H6.2V7.5H5.5ZM8.5 7.5H7.8V13.5H8.5H9.2V7.5H8.5Z" fill="#C8594B"/>
</svg>
