<svg width="40" height="40" viewBox="0 0 40 40" fill="none" xmlns="http://www.w3.org/2000/svg">
<g filter="url(#filter0_d_2028_5704)">
<path d="M2 19C2 9.05888 10.0589 1 20 1C29.9411 1 38 9.05888 38 19C38 28.9411 29.9411 37 20 37C10.0589 37 2 28.9411 2 19Z" fill="white"/>
<path d="M19.165 22.3329C19.165 22.794 19.5388 23.1679 20 23.1679C20.4612 23.1679 20.835 22.794 20.835 22.3329H19.165ZM20.835 13.1662C20.835 12.7051 20.4612 12.3312 20 12.3312C19.5388 12.3312 19.165 12.7051 19.165 13.1662L20.835 13.1662ZM22.7429 15.4233C23.069 15.7494 23.5977 15.7494 23.9238 15.4233C24.2499 15.0972 24.2499 14.5685 23.9238 14.2424L22.7429 15.4233ZM20.5893 12.0888L19.9988 12.6792L20.5893 12.0888ZM19.4107 12.0888L20.0012 12.6792L20.0012 12.6792L19.4107 12.0888ZM16.0762 14.2424C15.7501 14.5685 15.7501 15.0972 16.0762 15.4233C16.4023 15.7494 16.931 15.7494 17.2571 15.4233L16.0762 14.2424ZM13.335 22.3329C13.335 21.8717 12.9612 21.4979 12.5 21.4979C12.0388 21.4979 11.665 21.8717 11.665 22.3329H13.335ZM28.335 22.3329C28.335 21.8717 27.9612 21.4979 27.5 21.4979C27.0388 21.4979 26.665 21.8717 26.665 22.3329H28.335ZM26.135 26.2271L25.7559 25.4831H25.7559L26.135 26.2271ZM27.2275 25.1345L27.9715 25.5136V25.5136L27.2275 25.1345ZM12.7725 25.1345L12.0285 25.5136L12.7725 25.1345ZM13.865 26.2271L13.4859 26.9711H13.4859L13.865 26.2271ZM20 22.3329H20.835L20.835 13.1662L20 13.1662H19.165L19.165 22.3329H20ZM23.3333 14.8329L23.9238 14.2424L21.1797 11.4984L20.5893 12.0888L19.9988 12.6792L22.7429 15.4233L23.3333 14.8329ZM19.4107 12.0888L18.8203 11.4984L16.0762 14.2424L16.6667 14.8329L17.2571 15.4233L20.0012 12.6792L19.4107 12.0888ZM20.5893 12.0888L21.1797 11.4984C20.5282 10.8468 19.4718 10.8468 18.8203 11.4984L19.4107 12.0888L20.0012 12.6792C20.0021 12.6783 20.0016 12.679 20.0002 12.6795C19.9994 12.6799 19.9994 12.6797 20 12.6797C20.0006 12.6797 20.0006 12.6799 19.9998 12.6795C19.9984 12.679 19.9979 12.6783 19.9988 12.6792L20.5893 12.0888ZM12.5 22.3329H11.665V22.4995H12.5H13.335V22.3329H12.5ZM16.5 26.4995V27.3345H23.5V26.4995V25.6645H16.5V26.4995ZM27.5 22.4995H28.335V22.3329H27.5H26.665V22.4995H27.5ZM23.5 26.4995V27.3345C24.1863 27.3345 24.7512 27.3352 25.21 27.2977C25.6785 27.2594 26.1093 27.1773 26.5141 26.9711L26.135 26.2271L25.7559 25.4831C25.6258 25.5493 25.4392 25.6034 25.074 25.6333C24.699 25.6639 24.2138 25.6645 23.5 25.6645V26.4995ZM27.5 22.4995H26.665C26.665 23.2134 26.6644 23.6986 26.6337 24.0735C26.6039 24.4388 26.5498 24.6254 26.4835 24.7554L27.2275 25.1345L27.9715 25.5136C28.1777 25.1089 28.2599 24.6781 28.2982 24.2095C28.3356 23.7508 28.335 23.1858 28.335 22.4995H27.5ZM26.135 26.2271L26.5141 26.9711C27.1416 26.6513 27.6518 26.1411 27.9715 25.5136L27.2275 25.1345L26.4835 24.7554C26.3239 25.0687 26.0692 25.3234 25.7559 25.4831L26.135 26.2271ZM12.5 22.4995H11.665C11.665 23.1858 11.6644 23.7508 11.7018 24.2095C11.7401 24.6781 11.8223 25.1089 12.0285 25.5136L12.7725 25.1345L13.5165 24.7554C13.4502 24.6254 13.3961 24.4388 13.3663 24.0735C13.3356 23.6986 13.335 23.2134 13.335 22.4995H12.5ZM16.5 26.4995V25.6645C15.7862 25.6645 15.301 25.6639 14.926 25.6333C14.5608 25.6034 14.3742 25.5493 14.2441 25.4831L13.865 26.2271L13.4859 26.9711C13.8907 27.1773 14.3215 27.2594 14.79 27.2977C15.2488 27.3352 15.8137 27.3345 16.5 27.3345V26.4995ZM12.7725 25.1345L12.0285 25.5136C12.3482 26.1411 12.8584 26.6513 13.4859 26.9711L13.865 26.2271L14.2441 25.4831C13.9308 25.3234 13.6761 25.0687 13.5165 24.7554L12.7725 25.1345Z" fill="#267F53"/>
</g>
<defs>
<filter id="filter0_d_2028_5704" x="0" y="0" width="40" height="40" filterUnits="userSpaceOnUse" color-interpolation-filters="sRGB">
<feFlood flood-opacity="0" result="BackgroundImageFix"/>
<feColorMatrix in="SourceAlpha" type="matrix" values="0 0 0 0 0 0 0 0 0 0 0 0 0 0 0 0 0 0 127 0" result="hardAlpha"/>
<feOffset dy="1"/>
<feGaussianBlur stdDeviation="1"/>
<feComposite in2="hardAlpha" operator="out"/>
<feColorMatrix type="matrix" values="0 0 0 0 0.0627451 0 0 0 0 0.0941176 0 0 0 0 0.156863 0 0 0 0.04 0"/>
<feBlend mode="normal" in2="BackgroundImageFix" result="effect1_dropShadow_2028_5704"/>
<feBlend mode="normal" in="SourceGraphic" in2="effect1_dropShadow_2028_5704" result="shape"/>
</filter>
</defs>
</svg>
