<svg width="18" height="18" viewBox="0 0 18 18" fill="none" xmlns="http://www.w3.org/2000/svg">
<path d="M2.62983 13.4949L3.19904 13.6846L3.19904 13.6846L2.62983 13.4949ZM3.32402 11.4123L2.75481 11.2226L2.75481 11.2226L3.32402 11.4123ZM4.04032 10.2533L4.46458 10.6776L4.46458 10.6776L4.04032 10.2533ZM10.9581 3.33556L10.5338 2.9113L10.5338 2.9113L10.9581 3.33556ZM14.6644 7.04192L15.0887 7.46618L15.0887 7.46618L14.6644 7.04192ZM7.74667 13.9597L7.32241 13.5354L7.32241 13.5354L7.74667 13.9597ZM6.58768 14.676L6.77742 15.2452L6.77742 15.2452L6.58768 14.676ZM4.50512 15.3702L4.69485 15.9394L4.69485 15.9394L4.50512 15.3702ZM7.36673 14.3143L7.00539 13.8353L7.00538 13.8353L7.36673 14.3143ZM7.07479 14.4947L6.80797 13.9573L6.80797 13.9573L7.07479 14.4947ZM15.5573 4.3659L15.0197 4.63231L15.0197 4.63231L15.5573 4.3659ZM15.5573 6.01158L15.0197 5.74517L15.0197 5.74517L15.5573 6.01158ZM11.9884 2.4427L12.2548 2.98031L12.2548 2.98031L11.9884 2.4427ZM13.6341 2.4427L13.3677 2.98031L13.3677 2.98031L13.6341 2.4427ZM3.50526 10.9252L4.04266 11.192L4.04266 11.192L3.50526 10.9252ZM3.68569 10.6333L3.2067 10.2719L3.2067 10.2719L3.68569 10.6333ZM2.2845 15.154L1.71936 15.3555L2.2845 15.154ZM2.84604 15.7155L2.64451 16.2806L2.64451 16.2806L2.84604 15.7155ZM10.4557 3.83792C10.2214 3.60361 9.84154 3.60361 9.60722 3.83792C9.37291 4.07224 9.37291 4.45214 9.60722 4.68645L10.0315 4.26219L10.4557 3.83792ZM13.3136 8.3928C13.5479 8.62712 13.9278 8.62712 14.1621 8.3928C14.3964 8.15849 14.3964 7.77859 14.1621 7.54428L13.7378 7.96854L13.3136 8.3928ZM2.62983 13.4949L3.19904 13.6846L3.89323 11.6021L3.32402 11.4123L2.75481 11.2226L2.06062 13.3051L2.62983 13.4949ZM4.04032 10.2533L4.46458 10.6776L11.3823 3.75983L10.9581 3.33556L10.5338 2.9113L3.61605 9.82906L4.04032 10.2533ZM14.6644 7.04192L14.2402 6.61766L7.32241 13.5354L7.74667 13.9597L8.17094 14.3839L15.0887 7.46618L14.6644 7.04192ZM6.58768 14.676L6.39795 14.1068L4.31538 14.801L4.50512 15.3702L4.69485 15.9394L6.77742 15.2452L6.58768 14.676ZM7.74667 13.9597L7.32241 13.5354C7.12649 13.7313 7.06744 13.7885 7.00539 13.8353L7.36673 14.3143L7.72807 14.7933C7.87213 14.6846 7.99767 14.5572 8.17094 14.3839L7.74667 13.9597ZM6.58768 14.676L6.77742 15.2452C7.00988 15.1677 7.17999 15.1124 7.34161 15.0321L7.07479 14.4947L6.80797 13.9573C6.73834 13.9919 6.66079 14.0192 6.39795 14.1068L6.58768 14.676ZM7.36673 14.3143L7.00538 13.8353C6.9435 13.882 6.87741 13.9229 6.80797 13.9573L7.07479 14.4947L7.34161 15.0321C7.47754 14.9647 7.60692 14.8847 7.72808 14.7933L7.36673 14.3143ZM14.6644 3.33557L14.2402 3.75983C14.7796 4.29931 14.9394 4.47028 15.0197 4.63231L15.5573 4.3659L16.0949 4.09949C15.9051 3.71652 15.5597 3.38227 15.0887 2.9113L14.6644 3.33557ZM14.6644 7.04192L15.0887 7.46618C15.5597 6.99522 15.9051 6.66096 16.0949 6.27799L15.5573 6.01158L15.0197 5.74517C14.9394 5.90721 14.7796 6.07818 14.2402 6.61766L14.6644 7.04192ZM15.5573 4.3659L15.0197 4.63231C15.1934 4.98292 15.1934 5.39456 15.0197 5.74517L15.5573 6.01158L16.0949 6.27799C16.435 5.59165 16.435 4.78584 16.0949 4.09949L15.5573 4.3659ZM10.9581 3.33556L11.3823 3.75983C11.9218 3.22036 12.0928 3.0606 12.2548 2.98031L11.9884 2.4427L11.722 1.90508C11.339 2.09486 11.0048 2.44034 10.5338 2.9113L10.9581 3.33556ZM14.6644 3.33557L15.0887 2.9113C14.6177 2.44033 14.2835 2.09486 13.9005 1.90508L13.6341 2.4427L13.3677 2.98031C13.5297 3.0606 13.7007 3.22035 14.2402 3.75983L14.6644 3.33557ZM11.9884 2.4427L12.2548 2.98031C12.6054 2.80656 13.0171 2.80656 13.3677 2.98031L13.6341 2.4427L13.9005 1.90508C13.2142 1.56497 12.4083 1.56497 11.722 1.90508L11.9884 2.4427ZM3.32402 11.4123L3.89323 11.6021C3.98085 11.3392 4.00809 11.2617 4.04266 11.192L3.50526 10.9252L2.96785 10.6584C2.88761 10.82 2.8323 10.9901 2.75481 11.2226L3.32402 11.4123ZM4.04032 10.2533L3.61605 9.82906C3.44279 10.0023 3.31537 10.1279 3.2067 10.2719L3.68569 10.6333L4.16468 10.9946C4.21149 10.9326 4.26867 10.8735 4.46458 10.6776L4.04032 10.2533ZM3.50526 10.9252L4.04266 11.192C4.07714 11.1226 4.11799 11.0565 4.16468 10.9946L3.68569 10.6333L3.2067 10.2719C3.1153 10.3931 3.03534 10.5225 2.96785 10.6584L3.50526 10.9252ZM2.62983 13.4949L2.06062 13.3051C1.91351 13.7465 1.78944 14.1168 1.71965 14.4138C1.65196 14.7019 1.60482 15.0343 1.71936 15.3555L2.2845 15.154L2.84964 14.9524C2.85683 14.9726 2.83147 14.9282 2.88783 14.6883C2.9421 14.4573 3.04437 14.1486 3.19904 13.6846L2.62983 13.4949ZM4.50512 15.3702L4.31538 14.801C3.85135 14.9556 3.54266 15.0579 3.3117 15.1122C3.07184 15.1685 3.0274 15.1432 3.04756 15.1504L2.84604 15.7155L2.64451 16.2806C2.96571 16.3952 3.29812 16.348 3.5862 16.2803C3.88319 16.2106 4.25352 16.0865 4.69485 15.9394L4.50512 15.3702ZM2.2845 15.154L1.71936 15.3555C1.87326 15.7871 2.21291 16.1267 2.64451 16.2806L2.84604 15.7155L3.04756 15.1504C2.95523 15.1174 2.88257 15.0448 2.84964 14.9524L2.2845 15.154ZM10.0315 4.26219L9.60722 4.68645L13.3136 8.3928L13.7378 7.96854L14.1621 7.54428L10.4557 3.83792L10.0315 4.26219Z" fill="#FFFCF5"/>
</svg>
