<svg width="16" height="17" viewBox="0 0 16 17" fill="none" xmlns="http://www.w3.org/2000/svg">
<path d="M2.33763 12.4955L2.90684 12.6852L2.33763 12.4955ZM2.95469 10.6443L2.38548 10.4545H2.38548L2.95469 10.6443ZM3.59139 9.61407L4.01566 10.0383L4.01566 10.0383L3.59139 9.61407ZM9.74052 3.46495L9.31625 3.04068V3.04068L9.74052 3.46495ZM13.0351 6.75949L13.4593 7.18375H13.4593L13.0351 6.75949ZM6.88593 12.9086L6.46167 12.4843H6.46167L6.88593 12.9086ZM5.85572 13.5453L6.04545 14.1145H6.04546L5.85572 13.5453ZM4.00455 14.1624L4.19429 14.7316H4.19429L4.00455 14.1624ZM6.5482 13.2238L6.18686 12.7448L6.18686 12.7448L6.5482 13.2238ZM6.2887 13.3842L6.02188 12.8468L6.2887 13.3842ZM13.8287 4.3808L13.2911 4.64721L13.2911 4.64721L13.8287 4.3808ZM13.8287 5.84363L13.2911 5.57722L13.2911 5.57722L13.8287 5.84363ZM10.6564 2.67128L10.9228 3.2089V3.2089L10.6564 2.67128ZM12.1192 2.67128L11.8528 3.2089L11.8528 3.2089L12.1192 2.67128ZM3.11578 10.2113L3.65319 10.4781L3.65319 10.4781L3.11578 10.2113ZM3.27617 9.9518L2.79718 9.59045L2.79718 9.59045L3.27617 9.9518ZM2.03067 13.9702L1.46552 14.1717L2.03067 13.9702ZM2.52981 14.4693L2.32828 15.0345H2.32828L2.52981 14.4693ZM9.34114 3.86435C9.10683 3.63003 8.72693 3.63003 8.49261 3.86435C8.2583 4.09866 8.2583 4.47856 8.49261 4.71287L9.34114 3.86435ZM11.7871 8.00741C12.0215 8.24173 12.4014 8.24173 12.6357 8.00741C12.87 7.7731 12.87 7.3932 12.6357 7.15888L11.7871 8.00741ZM2.33763 12.4955L2.90684 12.6852L3.5239 10.834L2.95469 10.6443L2.38548 10.4545L1.76842 12.3057L2.33763 12.4955ZM3.59139 9.61407L4.01566 10.0383L10.1648 3.88921L9.74052 3.46495L9.31625 3.04068L3.16713 9.18981L3.59139 9.61407ZM13.0351 6.75949L12.6108 6.33522L6.46167 12.4843L6.88593 12.9086L7.31019 13.3329L13.4593 7.18375L13.0351 6.75949ZM5.85572 13.5453L5.66598 12.9761L3.81481 13.5932L4.00455 14.1624L4.19429 14.7316L6.04545 14.1145L5.85572 13.5453ZM6.88593 12.9086L6.46167 12.4843C6.28626 12.6597 6.23747 12.7067 6.18686 12.7448L6.5482 13.2238L6.90955 13.7028C7.04215 13.6028 7.15744 13.4856 7.31019 13.3329L6.88593 12.9086ZM5.85572 13.5453L6.04546 14.1145C6.2504 14.0462 6.40675 13.9955 6.55552 13.9216L6.2887 13.3842L6.02188 12.8468C5.9651 12.875 5.90131 12.8977 5.66598 12.9761L5.85572 13.5453ZM6.5482 13.2238L6.18686 12.7448C6.13514 12.7839 6.07991 12.818 6.02188 12.8468L6.2887 13.3842L6.55552 13.9216C6.68005 13.8598 6.79856 13.7865 6.90955 13.7028L6.5482 13.2238ZM13.0351 3.46495L12.6108 3.88921C13.0941 4.37255 13.2258 4.51546 13.2911 4.64721L13.8287 4.3808L14.3663 4.11439C14.1916 3.7617 13.8741 3.45551 13.4593 3.04068L13.0351 3.46495ZM13.0351 6.75949L13.4593 7.18375C13.8741 6.76892 14.1916 6.46273 14.3663 6.11004L13.8287 5.84363L13.2911 5.57722C13.2258 5.70898 13.0941 5.85188 12.6108 6.33522L13.0351 6.75949ZM13.8287 4.3808L13.2911 4.64721C13.4363 4.94021 13.4363 5.28422 13.2911 5.57722L13.8287 5.84363L14.3663 6.11004C14.6779 5.48131 14.6779 4.74313 14.3663 4.11439L13.8287 4.3808ZM9.74052 3.46495L10.1648 3.88921C10.6481 3.40587 10.791 3.27419 10.9228 3.2089L10.6564 2.67128L10.39 2.13367C10.0373 2.30845 9.73108 2.62586 9.31625 3.04068L9.74052 3.46495ZM13.0351 3.46495L13.4593 3.04068C13.0445 2.62585 12.7383 2.30845 12.3856 2.13367L12.1192 2.67128L11.8528 3.2089C11.9845 3.27419 12.1274 3.40587 12.6108 3.88921L13.0351 3.46495ZM10.6564 2.67128L10.9228 3.2089C11.2158 3.0637 11.5598 3.0637 11.8528 3.2089L12.1192 2.67128L12.3856 2.13367C11.7569 1.82211 11.0187 1.82211 10.39 2.13367L10.6564 2.67128ZM2.95469 10.6443L3.5239 10.834C3.60234 10.5987 3.625 10.5349 3.65319 10.4781L3.11578 10.2113L2.57838 9.94447C2.50451 10.0932 2.45379 10.2496 2.38548 10.4545L2.95469 10.6443ZM3.59139 9.61407L3.16713 9.1898C3.01437 9.34256 2.89721 9.45785 2.79718 9.59045L3.27617 9.9518L3.75515 10.3131C3.79333 10.2625 3.84026 10.2137 4.01566 10.0383L3.59139 9.61407ZM3.11578 10.2113L3.65319 10.4781C3.682 10.4201 3.71614 10.3649 3.75516 10.3131L3.27617 9.9518L2.79718 9.59045C2.71345 9.70144 2.6402 9.81995 2.57838 9.94448L3.11578 10.2113ZM2.33763 12.4955L1.76842 12.3057C1.63807 12.6968 1.52657 13.0294 1.46368 13.297C1.40288 13.5558 1.35695 13.8672 1.46552 14.1717L2.03067 13.9702L2.59581 13.7687C2.60896 13.8056 2.58239 13.782 2.63186 13.5715C2.67924 13.3699 2.76893 13.0989 2.90684 12.6852L2.33763 12.4955ZM4.00455 14.1624L3.81481 13.5932C3.40108 13.7311 3.13011 13.8208 2.92848 13.8681C2.71795 13.9176 2.69445 13.891 2.73134 13.9042L2.52981 14.4693L2.32828 15.0345C2.63276 15.1431 2.94424 15.0971 3.20299 15.0363C3.47064 14.9734 3.80325 14.8619 4.19429 14.7316L4.00455 14.1624ZM2.03067 13.9702L1.46552 14.1717C1.60905 14.5742 1.92579 14.8909 2.32828 15.0345L2.52981 14.4693L2.73134 13.9042C2.66811 13.8816 2.61836 13.8319 2.59581 13.7687L2.03067 13.9702ZM8.91688 4.28861L8.49261 4.71287L11.7871 8.00741L12.2114 7.58315L12.6357 7.15888L9.34114 3.86435L8.91688 4.28861Z" fill="#68727D"/>
</svg>
