<svg width="174" height="125" viewBox="0 0 174 125" fill="none" xmlns="http://www.w3.org/2000/svg">
<ellipse cx="104.579" cy="64.6421" rx="48.7438" ry="53.6674" transform="rotate(15 104.579 64.6421)" fill="#EDB53E"/>
<path fill-rule="evenodd" clip-rule="evenodd" d="M150.161 74.1347C155.76 42.4708 134.765 16.5268 107.848 11.7686C80.8313 6.99279 50.35 26.3953 46.9325 55.6356C45.1611 70.792 48.0664 83.457 54.6678 93.1624C61.2661 102.863 71.831 110.011 86.1278 113.639C114.373 120.807 144.634 105.392 150.161 74.1347ZM109.319 3.44726C140.646 8.98509 164.928 39.1628 158.484 75.6065C151.967 112.457 116.277 130.008 84.0492 121.83C68.1099 117.785 55.632 109.606 47.6796 97.9143C39.7303 86.2272 36.5772 71.434 38.5383 54.6542C42.5859 20.0223 78.0912 -2.07293 109.319 3.44726ZM126.2 71.0641C130.546 71.3016 134.644 70.176 136.949 69.1274L140.449 76.8192C137.092 78.3462 131.64 79.8243 125.739 79.5019C119.736 79.174 113.054 76.9512 107.908 70.8178L114.383 65.3873C117.692 69.3319 121.956 70.8323 126.2 71.0641ZM72.6864 69.601C67.0592 67.1066 63.0942 62.7795 61.0816 59.436L68.3224 55.0786C69.6066 57.2119 72.3446 60.2061 76.1112 61.8758C79.6811 63.4583 84.3894 63.9641 90.2523 60.982L94.0846 68.5138C85.8868 72.6837 78.5103 72.1826 72.6864 69.601ZM127.891 98.2452C110.723 96.5816 94.1016 100.754 88.1567 102.967L85.2065 95.0484C92.0478 92.5007 109.974 88.019 128.706 89.8342L127.891 98.2452Z" fill="#252525"/>
<path d="M31.6793 97.6961C28.1116 100.454 27.8928 100.171 24.3216 102.927C20.7538 105.684 20.7243 105.647 17.1565 108.405C15.2479 109.877 15.8561 112.777 18.2197 115.056C20.8407 117.585 20.959 117.459 23.58 119.987C25.9099 122.237 28.5739 122.823 30.0113 120.934C32.731 117.358 32.5647 117.23 35.281 113.652C37.9973 110.075 38.3966 110.377 41.1163 106.801C42.3868 105.126 41.9509 102.035 39.8867 100.045C38.9687 99.1564 38.6463 99.4878 37.7262 98.6027C35.6957 96.6426 33.3157 96.4255 31.6759 97.694L31.6793 97.6961Z" fill="#267F53"/>
<path d="M28.6098 76.2037C22.7952 75.9957 22.81 75.4656 16.9954 75.2576C11.1808 75.0496 11.1816 74.9823 5.36704 74.7743C2.25784 74.6596 0.57043 78.1217 1.06969 82.4585C1.61794 87.2714 1.87088 87.2406 2.41912 92.0535C2.91067 96.3313 4.96839 99.1785 7.94867 98.4626C13.5884 97.1112 13.5163 96.8074 19.156 95.4561C24.7957 94.1047 24.9638 94.8221 30.6035 93.4708C33.2419 92.8394 35.3934 89.2815 34.9591 85.4968C34.7647 83.8068 34.0861 83.8876 33.896 82.1934C33.4694 78.4678 31.2899 76.2968 28.614 76.1996L28.6098 76.2037Z" fill="#99B7F5"/>
<path d="M150.044 58.2269C126.542 58.2269 136.859 34.9107 147.024 20.0641C148.492 17.9203 151.597 17.9203 153.064 20.0641C163.229 34.9107 173.546 58.2269 150.044 58.2269Z" fill="#99B7F5"/>
<path d="M166.044 25.7307C153.404 25.7307 159.066 13.1036 164.531 5.17037C165.268 4.10013 166.819 4.10013 167.557 5.17037C173.022 13.1036 178.683 25.7307 166.044 25.7307Z" fill="#267F53"/>
<path fill-rule="evenodd" clip-rule="evenodd" d="M97.8651 71.5791C97.9101 71.46 97.9535 71.3452 97.9947 71.2354L102.144 72.7913C102.114 72.8696 102.085 72.9472 102.056 73.0242C101.567 74.3272 101.147 75.4461 101.015 76.3088C102.65 76.493 104.681 76.4087 106.021 76.2863C107.819 76.1221 109.539 77.8588 108.82 79.8687C108.321 81.2627 107.437 83.1004 106.127 84.7031C104.824 86.2957 102.929 87.8571 100.398 88.2367L99.741 83.8545C100.778 83.6989 101.778 83.0215 102.696 81.8979C102.969 81.5642 103.22 81.2087 103.448 80.8462C102.218 80.8555 100.888 80.7966 99.7054 80.5995C98.4795 80.3952 97.4467 79.7002 96.9167 78.5332C96.4695 77.5485 96.5128 76.5025 96.62 75.7416C96.8151 74.3561 97.4195 72.7576 97.8651 71.5791Z" fill="#252525"/>
</svg>
