<svg width="169" height="47" viewBox="0 0 169 47" fill="none" xmlns="http://www.w3.org/2000/svg">
<path d="M165.841 27.5906C165.567 26.3775 165.068 25.3272 164.339 24.4427C163.622 23.5459 162.711 22.8514 161.603 22.3548C160.496 21.8481 159.236 21.5963 157.823 21.5963C156.538 21.5963 155.357 21.8062 154.282 22.2289C153.217 22.6389 152.288 23.2249 151.497 23.9835C150.718 24.7446 150.106 25.6439 149.664 26.6891C149.231 27.7318 149.013 28.8758 149.013 30.1216C149.013 31.8388 149.389 33.3411 150.138 34.6289C150.887 35.9039 151.929 36.8999 153.269 37.6165C154.608 38.3233 156.162 38.6765 157.934 38.6765C158.735 38.6765 159.575 38.5875 160.45 38.4073C161.335 38.2394 162.167 38.007 162.948 37.7128C163.739 37.4062 164.382 37.0627 164.878 36.6849L163.247 33.1736C162.469 33.6901 161.651 34.0755 160.799 34.3274C159.944 34.5695 159.042 34.6908 158.093 34.6908C157.238 34.6908 156.492 34.5598 155.847 34.2956C155.205 34.0213 154.698 33.6481 154.33 33.1736C153.962 32.6992 153.771 32.1458 153.762 31.5132H165.875C166.126 30.0999 166.117 28.7927 165.842 27.5919L165.841 27.5906ZM154.074 28.0155C154.161 27.2052 154.529 26.5552 155.184 26.0709C155.846 25.5867 156.679 25.3446 157.682 25.3446C158.685 25.3446 159.459 25.5867 160.037 26.0709C160.618 26.5552 160.919 27.2052 160.939 28.0155H154.075H154.074ZM146.569 25.6431C145.875 24.3583 144.921 23.3623 143.708 22.6555C142.507 21.9486 141.136 21.5954 139.596 21.5954C138.363 21.5954 137.276 21.8053 136.34 22.228C135.411 22.6508 134.647 23.2139 134.047 23.9207V22.0699H129.569V44.8426H134.741V36.9207C135.373 37.4791 136.085 37.9116 136.876 38.2156C137.679 38.5222 138.553 38.6753 139.502 38.6753C140.693 38.6753 141.778 38.4603 142.759 38.0278C143.75 37.5953 144.61 36.9924 145.336 36.224C146.065 35.443 146.624 34.5364 147.014 33.5035C147.415 32.4609 147.615 31.3364 147.615 30.1356C147.615 28.428 147.266 26.9308 146.569 25.6431ZM142.032 32.3023C141.694 32.9124 141.229 33.3869 140.639 33.7257C140.048 34.0518 139.379 34.215 138.632 34.215C137.886 34.215 137.214 34.0518 136.623 33.7257C136.043 33.3873 135.585 32.9129 135.247 32.3023C134.911 31.6896 134.74 30.9679 134.74 30.1351C134.74 29.3024 134.911 28.5684 135.247 27.968C135.585 27.3578 136.047 26.888 136.638 26.5619C137.229 26.2236 137.893 26.0552 138.632 26.0552C139.371 26.0552 140.043 26.2231 140.624 26.5619C141.215 26.888 141.679 27.3574 142.015 27.968C142.364 28.5684 142.537 29.2926 142.537 30.1351C142.537 30.9777 142.369 31.6896 142.032 32.3023ZM125.998 25.6431C125.304 24.3583 124.35 23.3623 123.137 22.6555C121.936 21.9486 120.564 21.5954 119.025 21.5954C117.792 21.5954 116.705 21.8053 115.768 22.228C114.839 22.6508 114.076 23.2139 113.475 23.9207V22.0699H108.998V44.8426H114.169V36.9207C114.802 37.4791 115.514 37.9116 116.304 38.2156C117.107 38.5222 117.982 38.6753 118.931 38.6753C120.122 38.6753 121.207 38.4603 122.188 38.0278C123.179 37.5953 124.039 36.9924 124.765 36.224C125.494 35.443 126.052 34.5364 126.443 33.5035C126.843 32.4609 127.043 31.3364 127.043 30.1356C127.043 28.428 126.695 26.9308 125.998 25.6431ZM121.461 32.3023C121.123 32.9124 120.658 33.3869 120.067 33.7257C119.477 34.0518 118.807 34.215 118.061 34.215C117.315 34.215 116.643 34.0518 116.052 33.7257C115.472 33.3873 115.014 32.9129 114.676 32.3023C114.339 31.6896 114.169 30.9679 114.169 30.1351C114.169 29.3024 114.339 28.5684 114.676 27.968C115.014 27.3578 115.476 26.888 116.067 26.5619C116.658 26.2236 117.322 26.0552 118.061 26.0552C118.8 26.0552 119.472 26.2231 120.053 26.5619C120.643 26.888 121.108 27.3574 121.444 27.968C121.792 28.5684 121.965 29.2926 121.965 30.1351C121.965 30.9777 121.797 31.6896 121.461 32.3023ZM84.4233 22.0699L81.8461 32.2383L78.9526 22.0699H74.176L71.1714 32.2383L68.562 22.0699H63.5484L68.3721 38.2008H73.529L76.4695 28.4107L79.2693 38.2008H84.4237L89.2473 22.0699H84.4237H84.4233ZM61.2079 27.6521C60.1949 26.6514 58.5565 25.8186 56.288 25.1538L54.3583 24.5856C53.4835 24.321 52.789 24.0789 52.2725 23.8567C51.7658 23.6366 51.4029 23.4047 51.1803 23.1622C50.9704 22.9077 50.864 22.5961 50.864 22.228C50.864 21.776 51.0073 21.3855 51.2914 21.0569C51.5852 20.7207 51.9931 20.4616 52.5096 20.2835C53.026 20.1033 53.6315 20.0143 54.3282 20.0143C55.0248 20.0143 55.7342 20.1033 56.4309 20.2835C57.1254 20.4616 57.7704 20.7109 58.3606 21.0272C58.9512 21.3435 59.4452 21.7116 59.8455 22.1343L62.4078 18.339C61.5331 17.4939 60.3743 16.829 58.9288 16.3448C57.4956 15.8504 55.939 15.6011 54.2633 15.6011C53.0502 15.6011 51.9282 15.7766 50.8953 16.1247C49.8722 16.461 48.9805 16.9401 48.2219 17.563C47.4633 18.1732 46.8727 18.9025 46.4504 19.745C46.0301 20.5778 45.8177 21.4894 45.8177 22.4803C45.8177 24.0199 46.3193 25.3395 47.32 26.4339C48.3232 27.5308 49.9616 28.3958 52.2399 29.0284L54.1378 29.567C55.4773 29.9252 56.3889 30.2984 56.8731 30.6889C57.3697 31.0794 57.6169 31.5586 57.6169 32.1272C57.6169 32.8238 57.2734 33.3551 56.589 33.7257C55.9144 34.084 55.0325 34.2621 53.9474 34.2621C53.1791 34.2621 52.3807 34.1684 51.5606 33.978C50.7478 33.7779 49.9841 33.4984 49.2675 33.1401C48.5484 32.7819 47.9603 32.3544 47.496 31.86L45.0273 35.7814C46.1243 36.7201 47.4638 37.4367 49.0453 37.9311C50.6269 38.4277 52.2552 38.6749 53.933 38.6749C55.7342 38.6749 57.2912 38.3734 58.5985 37.773C59.9155 37.1726 60.9335 36.3398 61.6501 35.2747C62.3667 34.1998 62.725 32.9595 62.725 31.5581C62.725 29.9545 62.2183 28.6549 61.2079 27.6517V27.6521Z" fill="#FFFCF5"/>
<path d="M104.414 24.4104C103.762 23.3995 102.855 22.6511 101.694 22.1643C100.545 21.6801 99.2102 21.438 97.6931 21.438C96.544 21.438 95.3728 21.5961 94.1818 21.9125C92.9907 22.219 91.8739 22.6982 90.8286 23.3507L92.1579 26.9091C92.8126 26.4147 93.5491 26.0466 94.3722 25.802C95.1952 25.5501 96.0229 25.4238 96.8556 25.4238C97.6884 25.4238 98.4101 25.5497 98.9265 25.802C99.4527 26.0466 99.8382 26.3875 100.08 26.8298C100.308 27.2424 100.429 27.7118 100.444 28.2409C98.882 28.1345 97.4959 28.157 96.2849 28.3028C94.884 28.461 93.72 28.7697 92.791 29.2344C91.862 29.6991 91.1674 30.2894 90.7031 31.0059C90.2511 31.7225 90.0234 32.5456 90.0234 33.472C90.0234 34.5592 90.2706 35.4908 90.7672 36.2718C91.2616 37.0427 91.9357 37.6384 92.791 38.0582C93.6458 38.4708 94.6096 38.676 95.6845 38.676C96.8433 38.676 97.8788 38.4856 98.7858 38.1078C99.6927 37.7275 100.402 37.1886 100.921 36.4944V38.202H105.396V28.3033C105.396 26.7217 105.067 25.4246 104.415 24.4112L104.414 24.4104ZM100.446 32.0482C100.446 32.6711 100.293 33.1973 99.9862 33.6298C99.6923 34.0525 99.2895 34.3735 98.7853 34.5961C98.2888 34.8162 97.7304 34.9273 97.1075 34.9273C96.3909 34.9273 95.8151 34.7789 95.3851 34.485C94.9624 34.1912 94.7525 33.7633 94.7525 33.2049C94.7525 32.7724 94.903 32.4069 95.2096 32.1126C95.5162 31.8188 95.9482 31.6013 96.5071 31.4652C97.0753 31.3168 97.7622 31.2476 98.5632 31.2574C99.1441 31.2574 99.7716 31.3045 100.446 31.3956V32.0478L100.446 32.0482Z" fill="#FFFCF5"/>
<path d="M40.8269 28.8858C40.6768 29.7809 40.2096 30.587 39.7423 31.365C38.3948 33.6094 36.951 35.8422 34.9929 37.5794C33.0344 39.3162 30.4784 40.5247 27.866 40.3593C24.621 40.1541 21.853 37.7719 20.5152 34.778C17.5297 26.5482 25.9867 20.5017 25.9867 20.5017L27.5043 16.8611C28.1085 15.4122 28.9485 14.1113 30.2172 13.1865C30.9215 12.6731 31.7445 12.3652 32.3623 12.3682C33.7899 12.3745 34.4323 13.4995 34.0236 14.205C34.7762 12.9063 36.6126 12.2999 37.9046 13.2052C39.038 13.9994 39.2844 15.7603 38.5169 16.8844C39.133 16.4511 40.2605 16.8093 40.6171 17.5717C41.044 18.4846 40.729 19.5566 40.3864 20.5042C39.6062 22.6599 38.7052 24.7716 37.6884 26.8259C38.0789 26.0067 39.3107 25.8647 40.0285 26.4197C40.7468 26.9752 40.9775 27.9907 40.8269 28.8858Z" fill="#EDB53E"/>
<path d="M4.99671 13.1447C2.62814 17.1936 1.36923 22.1165 2.62687 26.6356C3.88451 31.1548 8.10221 34.985 12.7906 34.82C15.8079 34.714 18.6043 33.0375 20.6557 30.8224C22.7071 28.6073 24.111 25.8809 25.4034 23.1523C25.8516 22.2063 26.2968 21.2281 26.3681 20.1838C26.4393 19.1394 26.0594 17.9997 25.1723 17.4438C24.2853 16.8879 22.8877 17.1902 22.5324 18.1748C23.4669 15.7015 24.2624 13.176 24.9132 10.6137C25.1995 9.48751 25.4399 8.22097 24.8467 7.22198C24.2535 6.22257 22.459 6.01353 22.0592 7.10495C23.2074 5.75234 22.7847 3.38801 21.2387 2.51751C19.6533 1.62452 17.6142 2.52853 16.8972 4.1046C17.2864 3.24851 16.4219 2.02989 14.7826 2.18423C13.0335 2.34875 11.0453 4.95052 9.37808 7.00319C7.71084 9.05586 6.37985 10.7795 4.99628 13.1447H4.99671Z" fill="#9CAFE5"/>
<path d="M39.5879 25.2989L39.3356 26.0956C39.0523 26.0299 38.6317 26.149 38.3349 26.2987C37.6068 26.6638 37.0344 27.2494 36.5006 27.8943C35.7026 28.8852 35.0585 30.011 34.484 31.1575C34.6417 31.1961 34.796 31.2453 34.9449 31.3038C35.5826 31.5654 36.2296 32.0696 36.3395 32.8104L36.0439 32.871C35.7819 32.1171 34.9249 31.7325 34.2024 31.5964C33.4795 31.4717 32.5428 31.5345 32.0497 32.1548L31.791 31.9967C31.9021 31.7719 32.0815 31.5922 32.2778 31.4561C32.8316 31.0918 33.5083 31.0002 34.1566 31.0944L34.0947 31.0643C34.9334 29.1464 36.2229 26.5616 38.1157 25.5563C38.5431 25.3443 39.0371 25.1929 39.5209 25.2828L39.5484 25.2887L39.5628 25.2925L39.5879 25.2993V25.2989Z" fill="#C45B0C"/>
<path d="M24.8575 17.3081C24.5238 17.2835 24.0655 17.4204 23.7534 17.5692C22.9868 17.9331 22.4351 18.4584 21.9382 19.027C21.1834 19.9183 20.6352 20.9058 20.1713 21.9019L19.7422 21.8014C20.3685 20.1829 21.3933 17.9873 23.376 16.996C23.8268 16.784 24.3631 16.6144 24.9292 16.6385L24.9618 16.6411L24.9784 16.6423L25.0081 16.6457L24.8575 17.3081Z" fill="#2E2E68"/>
<path d="M35.3262 13.5689C35.3211 13.571 35.2978 13.5824 35.2919 13.585C35.2656 13.5943 35.2172 13.621 35.1918 13.6371C35.0849 13.6973 34.9645 13.7889 34.8678 13.8754C34.8267 13.9123 34.7436 13.9801 34.708 14.0196C34.5888 14.1425 34.4621 14.2685 34.3556 14.4042C34.2395 14.5356 34.0834 14.7417 33.9808 14.8875C33.9282 14.9605 33.8489 15.0639 33.8027 15.1403C32.8788 16.5332 32.1876 18.1211 31.583 19.6828C31.5164 19.8604 31.3108 20.4032 31.2446 20.58C31.206 20.6911 31.1077 20.9777 31.0046 21.2762C31.4163 21.7083 31.7539 22.3286 31.9264 22.678C31.9629 22.7514 31.8794 22.8256 31.8103 22.7811C31.212 22.3973 30.4347 22.0306 30.266 21.9525L30.2168 21.9373C30.2948 21.6841 30.6209 20.6118 30.69 20.3909C30.9961 19.4784 31.3163 18.5345 31.6843 17.6462C32.1452 16.5425 32.6422 15.432 33.3202 14.4283C33.5352 14.1035 33.7832 13.7715 34.0503 13.4874C34.1161 13.4086 34.2246 13.3072 34.3005 13.2373C34.3756 13.1609 34.4964 13.0664 34.5825 13.0011C34.6274 12.9625 34.6927 12.9239 34.7428 12.8917C34.8102 12.8468 34.8997 12.7993 34.9743 12.7658C35.0163 12.7446 35.0735 12.728 35.1176 12.7123C35.1418 12.7064 35.1672 12.7 35.1914 12.6958L35.3258 13.5667" fill="#C45B0C"/>
<path d="M39.1087 17.1494C39.0871 17.1553 39.043 17.1748 39.021 17.1862C38.9637 17.2091 38.8781 17.2655 38.8234 17.2973C37.4398 18.2573 36.1033 20.7124 35.3329 22.2376C35.195 22.5191 34.9618 22.9758 34.8351 23.2616L34.7358 23.4774C35.1391 23.9086 35.469 24.515 35.6386 24.8588C35.6746 24.9322 35.5915 25.006 35.5224 24.9619C35.0055 24.6303 34.3551 24.3114 34.0786 24.1804C34.0778 24.1804 34.0765 24.1796 34.0756 24.1787L33.8691 24.0922C33.9599 23.8747 34.3411 22.9503 34.4208 22.7604C34.7693 21.9764 35.1331 21.1657 35.5326 20.4071C36.1737 19.2033 36.8708 17.9724 37.8532 16.9988C38.1335 16.7317 38.4434 16.4718 38.8081 16.3268L38.8556 16.3085L38.8798 16.2996C38.9107 16.2907 38.9629 16.2771 38.9942 16.2699C39.0184 16.2661 39.0439 16.2619 39.0684 16.2598L39.1342 17.1438" fill="#C45B0C"/>
<path d="M22.8084 6.63415C22.8084 6.63415 22.8075 6.63415 22.8071 6.635C22.7995 6.63712 22.7897 6.63967 22.7813 6.64051C22.7757 6.64179 22.7503 6.65196 22.7435 6.65451C22.7138 6.66299 22.66 6.68631 22.632 6.70157C22.5124 6.75585 22.3767 6.84065 22.2673 6.92249C22.2207 6.95726 22.127 7.02001 22.0859 7.05817C21.9493 7.17478 21.8056 7.29308 21.6826 7.42368C21.5499 7.54834 21.3697 7.74635 21.251 7.8867C21.1899 7.95667 21.0983 8.05589 21.0445 8.12924C19.9692 9.47126 19.1377 11.021 18.4028 12.5488C18.3214 12.7226 18.0708 13.2539 17.9899 13.4269C17.8885 13.658 17.4543 14.6672 17.3487 14.911L17.0328 14.8046C16.6563 14.7206 16.0038 14.5862 15.4284 14.5226C15.3393 14.5128 15.3198 14.4026 15.4008 14.3687C15.7854 14.2101 16.4914 13.9493 17.1346 13.8764C17.2482 13.583 17.3559 13.3078 17.3954 13.2081C17.7736 12.3126 18.1688 11.3874 18.6132 10.519C19.1695 9.44115 19.7656 8.35821 20.5535 7.39187C20.8032 7.07895 21.0903 6.76051 21.3951 6.49084C21.471 6.41579 21.5944 6.32038 21.6805 6.25423C21.7662 6.18258 21.9023 6.09438 21.9989 6.03375C22.0498 5.99728 22.1228 5.96209 22.1796 5.93241C22.2546 5.8917 22.3551 5.84887 22.4378 5.81919C22.4849 5.80011 22.5476 5.78697 22.5972 5.7734C22.6235 5.76873 22.6515 5.76322 22.6786 5.76025L22.7821 6.63755C22.7919 6.6367 22.8008 6.63585 22.8097 6.63331L22.8084 6.63415Z" fill="#2E2E68"/>
<path d="M18.1935 3.50977L18.1918 3.51062C18.1829 3.51274 18.1782 3.51274 18.1646 3.5191L18.1413 3.52758C18.0985 3.53988 18.0251 3.5827 17.9768 3.6039C17.9416 3.62638 17.8339 3.6921 17.7962 3.71499L17.5566 3.89266C17.5087 3.93506 17.3094 4.10552 17.2674 4.14368C17.2343 4.17675 17.1372 4.27385 17.102 4.30862C17.0613 4.34975 16.9757 4.43413 16.9367 4.47356C16.9053 4.50876 16.7136 4.7267 16.6776 4.76741C16.5546 4.89928 16.3935 5.11383 16.2807 5.25545C16.2256 5.32584 16.1383 5.43312 16.0895 5.50562C15.8758 5.80159 15.5688 6.24341 15.3822 6.54913C14.3684 8.13623 13.5407 9.8764 12.7817 11.5682L12.6278 11.5203C12.6278 11.5203 12.6261 11.5203 12.6253 11.5199C12.3225 11.4398 11.4427 11.2146 10.6841 11.1018C10.5887 11.0878 10.5734 10.9771 10.6629 10.9475C11.0746 10.8118 11.8209 10.5943 12.5036 10.5442C12.6151 10.2673 12.7198 10.0091 12.7584 9.91541C13.0506 9.25224 13.3575 8.54371 13.6819 7.89327C14.142 6.9405 14.6758 5.98137 15.2737 5.0833C15.3754 4.92684 15.5501 4.69787 15.66 4.54268C15.7677 4.38537 15.9597 4.16615 16.0806 4.01393C16.2006 3.86637 16.3609 3.70694 16.4893 3.56489C16.5385 3.51401 16.7645 3.30879 16.8175 3.25706C16.9604 3.14003 17.1194 3.0107 17.2801 2.90978C17.4612 2.79021 17.663 2.68463 17.8886 2.62442C17.9166 2.61806 17.962 2.60746 17.9933 2.60449L18.1536 3.51571C18.1655 3.51443 18.1774 3.51316 18.1884 3.51019C18.1901 3.51019 18.1914 3.50935 18.1918 3.50935L18.1935 3.50977Z" fill="#2E2E68"/>
<path d="M24.8655 33.8028C26.3309 34.7229 28.2089 35.0943 29.8812 34.5948C30.8178 34.3209 31.6536 33.7752 32.3558 33.104L32.9583 33.7455C32.536 34.1284 32.0683 34.4799 31.5709 34.764C30.7309 35.2372 29.7811 35.5264 28.8169 35.5773C27.6636 35.6384 26.5255 35.3869 25.4837 34.915C25.1322 34.7539 24.8027 34.5787 24.4805 34.3544L24.8655 33.8032V33.8028Z" fill="#C45B0C"/>
<path d="M28.3033 29.9715L27.9586 30.6312L27.5244 30.7534C27.1882 30.5952 26.7883 30.4672 26.4241 30.465C26.1196 30.4612 25.858 30.5736 25.7529 30.8857C25.4645 31.5904 26.1955 31.9563 26.8125 31.997L26.7396 32.8976C26.472 32.8692 26.2214 32.8018 25.9789 32.6975C25.2954 32.413 24.7632 31.7727 24.9146 30.9887C24.9968 30.5566 25.2237 30.1428 25.6202 29.9257C26.2375 29.6005 26.9579 29.7824 27.5622 30.052L27.8005 29.6802L28.3033 29.9715Z" fill="#C45B0C"/>
<path d="M10.2585 20.3066C10.6883 20.3066 11.0366 19.9583 11.0366 19.5286C11.0366 19.0988 10.6883 18.7505 10.2585 18.7505C9.82882 18.7505 9.48047 19.0988 9.48047 19.5286C9.48047 19.9583 9.82882 20.3066 10.2585 20.3066Z" fill="#2E2E68"/>
<path d="M25.9871 28.7378C26.4168 28.7378 26.7651 28.3894 26.7651 27.9597C26.7651 27.53 26.4168 27.1816 25.9871 27.1816C25.5573 27.1816 25.209 27.53 25.209 27.9597C25.209 28.3894 25.5573 28.7378 25.9871 28.7378Z" fill="#C45B0C"/>
<path d="M16.1921 20.8389C16.6219 20.8389 16.9702 20.4905 16.9702 20.0608C16.9702 19.6311 16.6219 19.2827 16.1921 19.2827C15.7624 19.2827 15.4141 19.6311 15.4141 20.0608C15.4141 20.4905 15.7624 20.8389 16.1921 20.8389Z" fill="#2E2E68"/>
<path d="M30.4929 30.0098C30.9226 30.0098 31.271 29.6614 31.271 29.2317C31.271 28.802 30.9226 28.4536 30.4929 28.4536C30.0632 28.4536 29.7148 28.802 29.7148 29.2317C29.7148 29.6614 30.0632 30.0098 30.4929 30.0098Z" fill="#C45B0C"/>
<path d="M13.2899 19.6166C14.9309 20.8645 17.8774 23.6503 15.6971 25.6496C14.6985 26.5167 13.2916 26.6719 12.0264 26.6519C11.9064 26.6477 11.6197 26.6307 11.498 26.6256L11.5968 25.5597L11.9153 25.5881C13.016 25.6835 14.6498 25.6169 15.3778 24.6781C16.016 23.8479 15.2701 22.6869 14.7308 21.9742C14.2686 21.3784 13.7229 20.8289 13.1513 20.3315C13.0699 20.2611 12.9834 20.1886 12.9045 20.125L13.2895 19.6162L13.2899 19.6166Z" fill="#2E2E68"/>
<path d="M7.78906 24.8267C7.91457 25.8553 8.38735 26.8484 9.10182 27.5993C9.61361 28.1382 10.2556 28.5449 10.9527 28.8116C12.2421 29.3217 13.7541 29.4485 15.0262 28.8251C15.2051 28.7378 15.3764 28.6382 15.5333 28.5169C15.5367 28.5143 15.5422 28.5097 15.541 28.511L15.9993 29.0198L15.9743 29.0418L15.9535 29.0592C14.8765 29.914 13.4196 30.1591 12.0822 29.9747C10.9493 29.8068 9.84258 29.4065 8.9267 28.7035C7.94807 27.9512 7.23953 26.8747 6.89057 25.6938C6.81636 25.4419 6.75403 25.1824 6.72266 24.9199L7.78906 24.8271V24.8267Z" fill="#2E2E68"/>
</svg>
