<svg width="16" height="17" viewBox="0 0 16 17" fill="none" xmlns="http://www.w3.org/2000/svg">
<path d="M2 7.5V6.9H1.4V7.5H2ZM14 7.5H14.6V6.9H14V7.5ZM2.81901 15.5865L3.09141 15.0519L2.81901 15.5865ZM2.16349 14.931L2.69809 14.6586L2.16349 14.931ZM13.8365 14.931L13.3019 14.6586L13.8365 14.931ZM13.181 15.5865L12.9086 15.0519L13.181 15.5865ZM1.65951 7.41825L1.9319 6.88365L1.65951 7.41825ZM1.33175 7.09049L1.86635 6.8181L1.33175 7.09049ZM14.6683 7.09049L14.1337 6.8181L14.6683 7.09049ZM14.3405 7.41825L14.0681 6.88365L14.3405 7.41825ZM14.3405 4.58175L14.0681 5.11635L14.3405 4.58175ZM14.6683 4.90951L14.1337 5.1819L14.6683 4.90951ZM1.65951 4.58175L1.9319 5.11635L1.65951 4.58175ZM1.33175 4.90951L1.86635 5.1819L1.33175 4.90951ZM7.1 7.5C7.1 7.16863 6.83137 6.9 6.5 6.9C6.16863 6.9 5.9 7.16863 5.9 7.5H7.1ZM5.9 15.75C5.9 16.0814 6.16863 16.35 6.5 16.35C6.83137 16.35 7.1 16.0814 7.1 15.75H5.9ZM10.1 7.5C10.1 7.16863 9.83137 6.9 9.5 6.9C9.16863 6.9 8.9 7.16863 8.9 7.5H10.1ZM8.9 15.75C8.9 16.0814 9.16863 16.35 9.5 16.35C9.83137 16.35 10.1 16.0814 10.1 15.75H8.9ZM10.6672 4.00077C10.3915 4.18458 10.317 4.5571 10.5008 4.83282C10.6846 5.10854 11.0571 5.18304 11.3328 4.99923L10.6672 4.00077ZM4.66718 4.99923C4.9429 5.18304 5.31542 5.10854 5.49923 4.83282C5.68304 4.5571 5.60854 4.18458 5.33282 4.00077L4.66718 4.99923ZM2 7.5V8.1H14V7.5V6.9H2V7.5ZM14 7.5H13.4V13.35H14H14.6V7.5H14ZM11.6 15.75V15.15H4.4V15.75V16.35H11.6V15.75ZM2 13.35H2.6V7.5H2H1.4V13.35H2ZM4.4 15.75V15.15C3.97006 15.15 3.68369 15.1495 3.46366 15.1316C3.25064 15.1142 3.15316 15.0834 3.09141 15.0519L2.81901 15.5865L2.54662 16.1211C2.80573 16.2531 3.07871 16.3041 3.36594 16.3276C3.64617 16.3505 3.98986 16.35 4.4 16.35V15.75ZM2 13.35H1.4C1.4 13.7601 1.39953 14.1038 1.42243 14.3841C1.4459 14.6713 1.49686 14.9443 1.62889 15.2034L2.16349 14.931L2.69809 14.6586C2.66663 14.5968 2.63585 14.4994 2.61844 14.2863C2.60047 14.0663 2.6 13.7799 2.6 13.35H2ZM2.81901 15.5865L3.09141 15.0519C2.92206 14.9656 2.78438 14.8279 2.69809 14.6586L2.16349 14.931L1.62889 15.2034C1.83022 15.5985 2.15148 15.9198 2.54662 16.1211L2.81901 15.5865ZM14 13.35H13.4C13.4 13.7799 13.3995 14.0663 13.3816 14.2863C13.3642 14.4994 13.3334 14.5968 13.3019 14.6586L13.8365 14.931L14.3711 15.2034C14.5031 14.9443 14.5541 14.6713 14.5776 14.3841C14.6005 14.1038 14.6 13.7601 14.6 13.35H14ZM11.6 15.75V16.35C12.0101 16.35 12.3538 16.3505 12.6341 16.3276C12.9213 16.3041 13.1943 16.2531 13.4534 16.1211L13.181 15.5865L12.9086 15.0519C12.8468 15.0834 12.7494 15.1142 12.5363 15.1316C12.3163 15.1495 12.0299 15.15 11.6 15.15V15.75ZM13.8365 14.931L13.3019 14.6586C13.2156 14.8279 13.0779 14.9656 12.9086 15.0519L13.181 15.5865L13.4534 16.1211C13.8485 15.9198 14.1698 15.5985 14.3711 15.2034L13.8365 14.931ZM14.75 5.7H14.15V6.3H14.75H15.35V5.7H14.75ZM13.55 7.5V6.9H2.45V7.5V8.1H13.55V7.5ZM1.25 6.3H1.85V5.7H1.25H0.65V6.3H1.25ZM2.45 7.5V6.9C2.23008 6.9 2.10122 6.89953 2.00626 6.89177C1.9183 6.88459 1.91344 6.87424 1.9319 6.88365L1.65951 7.41825L1.38711 7.95286C1.56601 8.04401 1.74637 8.07454 1.90854 8.08779C2.06371 8.10047 2.24988 8.1 2.45 8.1V7.5ZM1.25 6.3H0.65C0.65 6.50012 0.649533 6.68629 0.662211 6.84146C0.675461 7.00363 0.705988 7.18399 0.797141 7.36289L1.33175 7.09049L1.86635 6.8181C1.87576 6.83656 1.86541 6.8317 1.85823 6.74374C1.85047 6.64878 1.85 6.51992 1.85 6.3H1.25ZM1.65951 7.41825L1.9319 6.88365C1.90368 6.86927 1.88073 6.84632 1.86635 6.8181L1.33175 7.09049L0.797141 7.36289C0.92657 7.61691 1.13309 7.82343 1.38711 7.95286L1.65951 7.41825ZM14.75 6.3H14.15C14.15 6.51992 14.1495 6.64878 14.1418 6.74374C14.1346 6.8317 14.1242 6.83656 14.1337 6.8181L14.6683 7.09049L15.2029 7.36289C15.294 7.18399 15.3245 7.00363 15.3378 6.84146C15.3505 6.68629 15.35 6.50012 15.35 6.3H14.75ZM13.55 7.5V8.1C13.7501 8.1 13.9363 8.10047 14.0915 8.08779C14.2536 8.07454 14.434 8.04401 14.6129 7.95286L14.3405 7.41825L14.0681 6.88365C14.0866 6.87424 14.0817 6.88459 13.9937 6.89177C13.8988 6.89953 13.7699 6.9 13.55 6.9V7.5ZM14.6683 7.09049L14.1337 6.8181C14.1193 6.84632 14.0963 6.86927 14.0681 6.88365L14.3405 7.41825L14.6129 7.95286C14.8669 7.82343 15.0734 7.61691 15.2029 7.36289L14.6683 7.09049ZM13.55 4.5V5.1C13.7699 5.1 13.8988 5.10047 13.9937 5.10823C14.0817 5.11541 14.0866 5.12576 14.0681 5.11635L14.3405 4.58175L14.6129 4.04714C14.434 3.95599 14.2536 3.92546 14.0915 3.91221C13.9363 3.89953 13.7501 3.9 13.55 3.9V4.5ZM14.75 5.7H15.35C15.35 5.49988 15.3505 5.31371 15.3378 5.15854C15.3245 4.99637 15.294 4.81601 15.2029 4.63711L14.6683 4.90951L14.1337 5.1819C14.1242 5.16344 14.1346 5.1683 14.1418 5.25626C14.1495 5.35122 14.15 5.48008 14.15 5.7H14.75ZM14.3405 4.58175L14.0681 5.11635C14.0963 5.13073 14.1193 5.15368 14.1337 5.1819L14.6683 4.90951L15.2029 4.63711C15.0734 4.3831 14.8669 4.17657 14.6129 4.04714L14.3405 4.58175ZM2.45 4.5V3.9C2.24988 3.9 2.06371 3.89953 1.90854 3.91221C1.74637 3.92546 1.56601 3.95599 1.38711 4.04714L1.65951 4.58175L1.9319 5.11635C1.91344 5.12576 1.9183 5.11541 2.00626 5.10823C2.10122 5.10047 2.23008 5.1 2.45 5.1V4.5ZM1.25 5.7H1.85C1.85 5.48008 1.85047 5.35122 1.85823 5.25626C1.86541 5.1683 1.87576 5.16344 1.86635 5.1819L1.33175 4.90951L0.797141 4.63711C0.705988 4.81601 0.675461 4.99637 0.662211 5.15854C0.649533 5.31371 0.65 5.49988 0.65 5.7H1.25ZM1.65951 4.58175L1.38711 4.04714C1.13309 4.17657 0.92657 4.38309 0.797141 4.63711L1.33175 4.90951L1.86635 5.1819C1.88073 5.15368 1.90368 5.13073 1.9319 5.11635L1.65951 4.58175ZM6.5 7.5H5.9V15.75H6.5H7.1V7.5H6.5ZM9.5 7.5H8.9V15.75H9.5H10.1V7.5H9.5ZM8 4.5L8.5618 4.71067C8.73162 4.25781 9.07667 3.5696 9.54095 3.00683C10.0199 2.42628 10.5227 2.1 11 2.1V1.5V0.9C9.97727 0.9 9.1676 1.57372 8.6153 2.24317C8.04833 2.9304 7.64338 3.74219 7.4382 4.28933L8 4.5ZM11 1.5V2.1C11.585 2.1 11.7873 2.3734 11.8144 2.53614C11.848 2.73757 11.7335 3.28987 10.6672 4.00077L11 4.5L11.3328 4.99923C12.5165 4.21013 13.152 3.26243 12.9981 2.33886C12.8377 1.3766 11.915 0.9 11 0.9V1.5ZM8 4.5L8.5618 4.28933C8.35662 3.74219 7.95167 2.9304 7.3847 2.24317C6.8324 1.57372 6.02273 0.9 5 0.9V1.5V2.1C5.47727 2.1 5.9801 2.42628 6.45905 3.00683C6.92333 3.5696 7.26838 4.25781 7.4382 4.71067L8 4.5ZM5 1.5V0.9C4.08497 0.9 3.16229 1.3766 3.00191 2.33886C2.84799 3.26243 3.48352 4.21013 4.66718 4.99923L5 4.5L5.33282 4.00077C4.26648 3.28987 4.15201 2.73757 4.18559 2.53614C4.21271 2.3734 4.41503 2.1 5 2.1V1.5ZM2.45 4.5V5.1H8V4.5V3.9H2.45V4.5ZM8 4.5V5.1H13.55V4.5V3.9H8V4.5Z" fill="#FFFCF5"/>
</svg>
