<svg width="189" height="175" viewBox="0 0 189 175" fill="none" xmlns="http://www.w3.org/2000/svg">
<ellipse cx="119.579" cy="85.6421" rx="48.7438" ry="53.6674" transform="rotate(15 119.579 85.6421)" fill="#EDB53E"/>
<path fill-rule="evenodd" clip-rule="evenodd" d="M165.161 95.1347C170.76 63.4708 149.765 37.5268 122.848 32.7686C95.8313 27.9928 65.35 47.3953 61.9325 76.6356C60.1611 91.792 63.0664 104.457 69.6678 114.162C76.266 123.863 86.831 131.011 101.128 134.639C129.373 141.807 159.634 126.392 165.161 95.1347ZM124.319 24.4473C155.646 29.9851 179.928 60.1628 173.484 96.6065C166.967 133.457 131.277 151.008 99.0492 142.83C83.1099 138.785 70.632 130.606 62.6796 118.914C54.7303 107.227 51.5772 92.434 53.5383 75.6542C57.5859 41.0223 93.0912 18.9271 124.319 24.4473ZM141.2 92.0641C145.546 92.3016 149.644 91.176 151.949 90.1274L155.449 97.8192C152.092 99.3462 146.64 100.824 140.739 100.502C134.736 100.174 128.054 97.9512 122.908 91.8178L129.383 86.3873C132.692 90.3319 136.956 91.8323 141.2 92.0641ZM87.6864 90.601C82.0592 88.1066 78.0942 83.7795 76.0816 80.436L83.3224 76.0786C84.6066 78.2119 87.3446 81.2061 91.1112 82.8758C94.6811 84.4583 99.3894 84.9641 105.252 81.982L109.085 89.5138C100.887 93.6837 93.5103 93.1826 87.6864 90.601ZM142.891 119.245C125.723 117.582 109.102 121.754 103.157 123.967L100.207 116.048C107.048 113.501 124.974 109.019 143.706 110.834L142.891 119.245Z" fill="#252525"/>
<path d="M46.6793 118.696C43.1116 121.454 42.8928 121.171 39.3216 123.927C35.7538 126.684 35.7243 126.647 32.1565 129.405C30.2479 130.877 30.8561 133.777 33.2197 136.056C35.8407 138.585 35.959 138.459 38.58 140.987C40.9099 143.237 43.5739 143.823 45.0113 141.934C47.731 138.358 47.5647 138.23 50.281 134.652C52.9973 131.075 53.3966 131.377 56.1163 127.801C57.3868 126.126 56.9509 123.035 54.8867 121.045C53.9687 120.156 53.6463 120.488 52.7262 119.603C50.6957 117.643 48.3157 117.425 46.6759 118.694L46.6793 118.696Z" fill="#267F53"/>
<path d="M43.6098 97.2037C37.7952 96.9957 37.81 96.4656 31.9954 96.2576C26.1808 96.0496 26.1816 95.9823 20.367 95.7743C17.2578 95.6596 15.5704 99.1217 16.0697 103.458C16.6179 108.271 16.8709 108.241 17.4191 113.054C17.9107 117.331 19.9684 120.179 22.9487 119.463C28.5884 118.111 28.5163 117.807 34.156 116.456C39.7957 115.105 39.9638 115.822 45.6035 114.471C48.2419 113.839 50.3934 110.281 49.9591 106.497C49.7647 104.807 49.0861 104.888 48.896 103.193C48.4694 99.4678 46.2899 97.2968 43.614 97.1996L43.6098 97.2037Z" fill="#99B7F5"/>
<path d="M165.044 79.2269C141.542 79.2269 151.859 55.9107 162.024 41.0641C163.492 38.9203 166.597 38.9203 168.064 41.0641C178.229 55.9107 188.546 79.2269 165.044 79.2269Z" fill="#99B7F5"/>
<path d="M181.044 46.7307C168.404 46.7307 174.066 34.1036 179.531 26.1704C180.268 25.1001 181.819 25.1001 182.557 26.1704C188.022 34.1036 193.683 46.7307 181.044 46.7307Z" fill="#267F53"/>
<path fill-rule="evenodd" clip-rule="evenodd" d="M112.865 92.5791C112.91 92.46 112.954 92.3452 112.995 92.2354L117.144 93.7913C117.114 93.8696 117.085 93.9472 117.056 94.0242C116.567 95.3272 116.147 96.4461 116.015 97.3088C117.65 97.493 119.681 97.4087 121.021 97.2863C122.819 97.1221 124.539 98.8588 123.82 100.869C123.321 102.263 122.437 104.1 121.127 105.703C119.824 107.296 117.929 108.857 115.398 109.237L114.741 104.855C115.778 104.699 116.778 104.022 117.696 102.898C117.969 102.564 118.22 102.209 118.448 101.846C117.218 101.855 115.888 101.797 114.705 101.599C113.48 101.395 112.447 100.7 111.917 99.5332C111.47 98.5485 111.513 97.5025 111.62 96.7416C111.815 95.3561 112.419 93.7576 112.865 92.5791Z" fill="#252525"/>
</svg>
