<svg width="21" height="20" viewBox="0 0 21 20" fill="none" xmlns="http://www.w3.org/2000/svg">
<path d="M13.5783 1.93555V0.645184C13.5783 0.47407 13.6462 0.309965 13.767 0.18897C13.8878 0.0679746 14.0517 0 14.2226 0C14.3934 0 14.5573 0.0679746 14.6781 0.18897C14.7989 0.309965 14.8668 0.47407 14.8668 0.645184V1.93555C14.8668 2.10667 14.7989 2.27077 14.6781 2.39177C14.5573 2.51276 14.3934 2.58074 14.2226 2.58074C14.0517 2.58074 13.8878 2.51276 13.767 2.39177C13.6462 2.27077 13.5783 2.10667 13.5783 1.93555ZM16.4638 3.30657C16.5651 3.3676 16.6814 3.39916 16.7996 3.3977C16.9101 3.39788 17.0189 3.36955 17.1154 3.31546C17.2118 3.26136 17.2928 3.18331 17.3504 3.08882L17.9947 2.03152C18.0395 1.95917 18.0696 1.87865 18.0832 1.7946C18.0968 1.71055 18.0937 1.62463 18.074 1.5418C18.0543 1.45897 18.0184 1.38086 17.9684 1.31199C17.9184 1.24311 17.8553 1.18483 17.7827 1.1405C17.7101 1.09616 17.6294 1.06666 17.5454 1.05369C17.4614 1.04071 17.3756 1.04453 17.2931 1.06491C17.2105 1.08529 17.1328 1.12183 17.0644 1.17243C16.996 1.22303 16.9383 1.28668 16.8946 1.35973L16.2504 2.41621C16.2057 2.48862 16.1758 2.56917 16.1623 2.6532C16.1489 2.73724 16.1522 2.82311 16.172 2.90587C16.1918 2.98863 16.2278 3.06664 16.2779 3.13541C16.328 3.20418 16.3911 3.26235 16.4638 3.30657ZM20.2842 4.32193C20.2582 4.24127 20.2167 4.16653 20.1619 4.10196C20.1071 4.03739 20.0401 3.98427 19.9648 3.94563C19.8895 3.90699 19.8073 3.88358 19.723 3.87674C19.6386 3.8699 19.5538 3.87977 19.4732 3.90578L18.2653 4.29692C18.1188 4.34382 17.9939 4.44161 17.9132 4.57265C17.8324 4.70369 17.8012 4.85932 17.825 5.01144C17.8488 5.16356 17.9262 5.30212 18.0431 5.40211C18.16 5.5021 18.3088 5.55691 18.4626 5.55665C18.5298 5.55639 18.5966 5.54578 18.6607 5.52519L19.8687 5.13405C19.9496 5.10808 20.0245 5.06634 20.0893 5.01123C20.154 4.95613 20.2072 4.88874 20.2458 4.81296C20.2844 4.73718 20.3077 4.65449 20.3143 4.56967C20.3209 4.48484 20.3107 4.39955 20.2842 4.3187V4.32193ZM17.8682 7.54301C18.5806 8.77 18.8674 10.1986 18.684 11.6059C18.5006 13.0133 17.8573 14.3203 16.8543 15.3231C16.5064 16.5409 15.8081 17.6292 14.8467 18.4523C13.8852 19.2754 12.7031 19.7968 11.4477 19.9516C10.1923 20.1064 8.91919 19.8877 7.78708 19.3228C6.65498 18.7579 5.71397 17.8717 5.0814 16.7748L2.26278 11.8851C2.09069 11.5862 1.99492 11.2493 1.98397 10.9044C1.97302 10.5596 2.04723 10.2173 2.20001 9.90802C2.35279 9.59874 2.57943 9.332 2.85982 9.13145C3.14021 8.93091 3.46569 8.80276 3.80738 8.75837L3.48525 8.19868C3.31583 7.90478 3.22017 7.5741 3.20647 7.23502C3.19278 6.89595 3.26147 6.55861 3.40665 6.25198C3.55183 5.94534 3.76915 5.67858 4.03995 5.47459C4.31076 5.27059 4.62696 5.13547 4.9614 5.08082C4.79366 4.61827 4.79371 4.11137 4.96155 3.64886C5.12938 3.18634 5.45432 2.79767 5.87947 2.5509C6.26931 2.32632 6.72091 2.23315 7.16764 2.28514C7.61438 2.33712 8.03261 2.5315 8.36065 2.83962C8.56157 2.54917 8.83253 2.31427 9.14835 2.15675C9.46418 1.99922 9.81463 1.92418 10.1672 1.93858C10.5197 1.95298 10.8629 2.05636 11.1648 2.23912C11.4668 2.42189 11.7178 2.6781 11.8944 2.98398L12.8608 4.66065C13.07 4.38627 13.3436 4.16788 13.6574 4.02485C13.9712 3.88183 14.3153 3.8186 14.6594 3.84078C15.0034 3.86296 15.3366 3.96987 15.6295 4.152C15.9223 4.33414 16.1658 4.58587 16.3381 4.88485L17.8682 7.54301ZM9.38421 4.43564L9.86176 5.26389C10.0212 5.40973 10.1571 5.57951 10.2644 5.76714L11.2308 7.44058C11.5484 7.02748 12.0074 6.74656 12.5193 6.65185L10.779 3.62916C10.6722 3.44393 10.4963 3.30878 10.29 3.25342C10.0837 3.19807 9.86392 3.22705 9.67896 3.33399C9.494 3.44094 9.35904 3.61709 9.30376 3.82368C9.24849 4.03028 9.27742 4.25041 9.38421 4.43564ZM6.22897 4.77033L6.70653 5.59939L6.7323 5.62278C6.88854 5.39623 7.08791 5.20282 7.31898 5.05362C7.55004 4.90443 7.80825 4.8024 8.07879 4.75339L7.62378 3.96385C7.54416 3.8257 7.42542 3.71429 7.28257 3.64373C7.13973 3.57316 6.97919 3.5466 6.82127 3.5674C6.66335 3.58821 6.51514 3.65544 6.39537 3.76061C6.27561 3.86577 6.18968 4.00414 6.14844 4.15821C6.12071 4.2605 6.11354 4.36728 6.12737 4.47236C6.14119 4.57744 6.17573 4.67873 6.22897 4.77033ZM15.6391 14.8852C15.816 14.2306 15.8615 13.5473 15.7731 12.875C15.6846 12.2026 15.4639 11.5545 15.1237 10.9681L13.5936 8.314C13.4895 8.13533 13.3209 8.00354 13.1226 7.94586C12.9242 7.88818 12.7113 7.90902 12.5279 8.00408C12.3444 8.09914 12.2045 8.26116 12.1369 8.45662C12.0694 8.6521 12.0794 8.86608 12.165 9.05435L13.0846 10.6455C13.1701 10.7939 13.1932 10.9701 13.1488 11.1355C13.1045 11.3009 12.9964 11.4419 12.8483 11.5274C12.7002 11.613 12.5242 11.6361 12.359 11.5917C12.1939 11.5473 12.0531 11.4391 11.9677 11.2907L9.14906 6.41393C9.03848 6.23858 8.86469 6.11263 8.6638 6.06224C8.46291 6.01186 8.25035 6.04092 8.0703 6.14337C7.89024 6.24584 7.75652 6.41382 7.69691 6.61244C7.63731 6.81106 7.6564 7.02504 7.75022 7.20993L9.73372 10.6455C9.7787 10.719 9.80853 10.8007 9.82146 10.8859C9.83439 10.9711 9.83015 11.058 9.809 11.1415C9.78784 11.225 9.7502 11.3034 9.69829 11.3721C9.64638 11.4408 9.58126 11.4984 9.50676 11.5415C9.43226 11.5846 9.3499 11.6123 9.26453 11.623C9.17917 11.6337 9.09253 11.6272 9.00972 11.6038C8.92691 11.5804 8.84962 11.5407 8.78241 11.4869C8.71519 11.4331 8.65941 11.3664 8.61835 11.2907L5.99543 6.74701C5.94294 6.65455 5.8727 6.5734 5.78877 6.50824C5.70483 6.44307 5.60885 6.39518 5.50636 6.36731C5.40386 6.33944 5.29687 6.33216 5.19155 6.34587C5.08623 6.35957 4.98466 6.39401 4.89269 6.44719C4.80071 6.50037 4.72015 6.57125 4.65563 6.65573C4.59112 6.74022 4.54393 6.83665 4.51679 6.93948C4.48964 7.04231 4.48307 7.14949 4.49746 7.25487C4.51185 7.36025 4.54691 7.46174 4.60062 7.55349L7.49977 12.5827C7.54207 12.6561 7.56952 12.7371 7.58056 12.8211C7.59159 12.9052 7.586 12.9905 7.56409 13.0724C7.54217 13.1542 7.50438 13.231 7.45286 13.2982C7.40134 13.3654 7.3371 13.4218 7.26381 13.4642C7.19052 13.5065 7.10962 13.534 7.02572 13.5451C6.94182 13.5561 6.85657 13.5505 6.77483 13.5286C6.6931 13.5067 6.61648 13.4688 6.54935 13.4172C6.48222 13.3656 6.4259 13.3013 6.38359 13.2279L4.77296 10.4342C4.66541 10.2505 4.48966 10.1169 4.28406 10.0624C4.07847 10.008 3.85972 10.0372 3.67556 10.1437C3.49139 10.2502 3.35676 10.4253 3.30104 10.6308C3.24532 10.8363 3.27304 11.0556 3.37815 11.2407L6.19676 16.1304C6.70642 17.0146 7.46648 17.7276 8.38081 18.1792C9.29514 18.6307 10.3227 18.8006 11.3334 18.6673C12.3441 18.534 13.2927 18.1036 14.0591 17.4303C14.8256 16.7571 15.3754 15.8714 15.6391 14.8852ZM16.7521 8.18496L15.222 5.53084C15.1144 5.34712 14.9387 5.21346 14.7331 5.15902C14.5275 5.10459 14.3087 5.1338 14.1246 5.24029C13.9404 5.34677 13.8058 5.52188 13.75 5.72741C13.6943 5.93293 13.722 6.15218 13.8272 6.33732L14.3031 7.16396C14.4625 7.31046 14.5983 7.48075 14.7058 7.66882L16.2359 10.3229C16.6658 11.0671 16.9431 11.8896 17.0516 12.7424C17.3553 12.0109 17.4862 11.2191 17.4343 10.4286C17.3823 9.63809 17.1489 8.87029 16.7521 8.18496Z" fill="#343330"/>
</svg>
