<svg width="21" height="20" viewBox="0 0 21 20" fill="none" xmlns="http://www.w3.org/2000/svg">
<path d="M13.4414 8.7496C13.4414 8.91536 13.3756 9.07433 13.2583 9.19154C13.1411 9.30875 12.9822 9.3746 12.8164 9.3746H7.81641C7.65065 9.3746 7.49167 9.30875 7.37446 9.19154C7.25725 9.07433 7.19141 8.91536 7.19141 8.7496C7.19141 8.58384 7.25725 8.42487 7.37446 8.30766C7.49167 8.19045 7.65065 8.1246 7.81641 8.1246H12.8164C12.9822 8.1246 13.1411 8.19045 13.2583 8.30766C13.3756 8.42487 13.4414 8.58384 13.4414 8.7496ZM12.8164 10.6246H7.81641C7.65065 10.6246 7.49167 10.6904 7.37446 10.8077C7.25725 10.9249 7.19141 11.0838 7.19141 11.2496C7.19141 11.4154 7.25725 11.5743 7.37446 11.6915C7.49167 11.8088 7.65065 11.8746 7.81641 11.8746H12.8164C12.9822 11.8746 13.1411 11.8088 13.2583 11.6915C13.3756 11.5743 13.4414 11.4154 13.4414 11.2496C13.4414 11.0838 13.3756 10.9249 13.2583 10.8077C13.1411 10.6904 12.9822 10.6246 12.8164 10.6246ZM18.4414 9.9996C18.4417 11.4024 18.0788 12.7813 17.3881 14.0022C16.6974 15.2231 15.7023 16.2444 14.4998 16.9667C13.2972 17.6889 11.9282 18.0875 10.5259 18.1237C9.1236 18.1598 7.73583 17.8323 6.49766 17.173L3.8375 18.0598C3.61725 18.1332 3.38091 18.1439 3.15494 18.0905C2.92898 18.0372 2.72233 17.922 2.55816 17.7578C2.394 17.5937 2.27879 17.387 2.22547 17.1611C2.17214 16.9351 2.1828 16.6987 2.25625 16.4785L3.14297 13.8183C2.5634 12.7287 2.23969 11.5213 2.1964 10.2879C2.15312 9.05441 2.39141 7.82731 2.89318 6.6997C3.39495 5.5721 4.14701 4.57362 5.09228 3.78006C6.03755 2.9865 7.15118 2.41872 8.34865 2.11981C9.54611 1.8209 10.7959 1.79873 12.0033 2.05496C13.2106 2.3112 14.3436 2.83911 15.3165 3.59864C16.2893 4.35816 17.0763 5.32933 17.6178 6.43842C18.1592 7.54752 18.4409 8.76539 18.4414 9.9996ZM17.1914 9.9996C17.1911 8.94501 16.9482 7.90462 16.4815 6.95893C16.0148 6.01324 15.3367 5.18759 14.4999 4.54587C13.663 3.90415 12.6897 3.46356 11.6553 3.25818C10.6209 3.0528 9.55311 3.08814 8.53456 3.36147C7.516 3.6348 6.57398 4.13878 5.78137 4.83443C4.98876 5.53009 4.36681 6.39876 3.96364 7.37324C3.56047 8.34772 3.38689 9.4019 3.45632 10.4542C3.52576 11.5065 3.83635 12.5287 4.36406 13.4418C4.40835 13.5184 4.43585 13.6036 4.44474 13.6917C4.45363 13.7798 4.44371 13.8688 4.41562 13.9527L3.44141 16.8746L6.36328 15.9004C6.42692 15.8787 6.4937 15.8676 6.56094 15.8676C6.67071 15.8678 6.77849 15.8969 6.87344 15.9519C7.91859 16.5566 9.10458 16.8754 10.3121 16.8762C11.5195 16.8769 12.7059 16.5597 13.7519 15.9563C14.7978 15.3529 15.6663 14.4847 16.2701 13.439C16.8739 12.3933 17.1917 11.2071 17.1914 9.9996Z" fill="#343330"/>
</svg>
