<svg width="21" height="20" viewBox="0 0 21 20" fill="none" xmlns="http://www.w3.org/2000/svg">
<g clip-path="url(#clip0_2004_9905)">
<path d="M4.63644 17.1367L4.95423 16.513L4.95423 16.513L4.63644 17.1367ZM3.17972 15.68L2.55601 15.9978L2.55601 15.9978L3.17972 15.68ZM15.9964 2.86331L16.3142 2.23961L16.3142 2.23961L15.9964 2.86331ZM17.4531 4.32003L16.8294 4.63782L16.8294 4.63783L17.4531 4.32003ZM4.63644 2.86331L4.95423 3.48702L4.95423 3.48702L4.63644 2.86331ZM3.17972 4.32003L3.80342 4.63782L3.80342 4.63782L3.17972 4.32003ZM17.1164 9.16667C17.1164 9.55327 17.4298 9.86667 17.8164 9.86667C18.203 9.86667 18.5164 9.55327 18.5164 9.16667H17.8164H17.1164ZM9.48307 18.2C9.86967 18.2 10.1831 17.8866 10.1831 17.5C10.1831 17.1134 9.86967 16.8 9.48307 16.8V17.5V18.2ZM6.98307 5.96667C6.59647 5.96667 6.28307 6.28007 6.28307 6.66667C6.28307 7.05327 6.59647 7.36667 6.98307 7.36667V6.66667V5.96667ZM13.6497 7.36667C14.0363 7.36667 14.3497 7.05327 14.3497 6.66667C14.3497 6.28007 14.0363 5.96667 13.6497 5.96667V6.66667V7.36667ZM6.98307 9.3C6.59647 9.3 6.28307 9.6134 6.28307 10C6.28307 10.3866 6.59647 10.7 6.98307 10.7V10V9.3ZM13.6497 10.7C14.0363 10.7 14.3497 10.3866 14.3497 10C14.3497 9.6134 14.0363 9.3 13.6497 9.3V10V10.7ZM6.98307 12.6333C6.59647 12.6333 6.28307 12.9467 6.28307 13.3333C6.28307 13.7199 6.59647 14.0333 6.98307 14.0333V13.3333V12.6333ZM10.3164 14.0333C10.703 14.0333 11.0164 13.7199 11.0164 13.3333C11.0164 12.9467 10.703 12.6333 10.3164 12.6333V13.3333V14.0333ZM12.1941 17.9138L12.8582 18.1352L12.8582 18.1352L12.1941 17.9138ZM12.5798 16.7568L11.9157 16.5355L11.9157 16.5355L12.5798 16.7568ZM12.9777 16.113L13.4727 16.6079L13.4727 16.6079L12.9777 16.113ZM16.8209 12.2698L16.3259 11.7748L16.3259 11.7748L16.8209 12.2698ZM18.88 14.3288L19.375 14.8238L19.375 14.8238L18.88 14.3288ZM15.0368 18.172L14.5418 17.6771L14.5418 17.6771L15.0368 18.172ZM14.3929 18.57L14.6143 19.2341L14.6143 19.2341L14.3929 18.57ZM13.2359 18.9556L13.4573 19.6197L13.4573 19.6197L13.2359 18.9556ZM14.8257 18.3691L15.2473 18.9279L15.2473 18.9279L14.8257 18.3691ZM14.6635 18.4693L14.3522 17.8423L14.3522 17.8423L14.6635 18.4693ZM18.88 12.2698L18.385 12.7647L18.385 12.7647L18.88 12.2698ZM19.376 12.8422L20.0032 12.5314L20.0032 12.5314L19.376 12.8422ZM19.376 13.7564L20.0032 14.0672L20.0032 14.0672L19.376 13.7564ZM17.3933 11.7737L17.7041 12.4009L17.7041 12.4009L17.3933 11.7737ZM18.3076 11.7737L17.9968 12.4009L17.9968 12.4009L18.3076 11.7737ZM12.6804 16.4862L13.3074 16.7975L13.3074 16.7975L12.6804 16.4862ZM12.7807 16.324L12.2219 15.9025L12.2219 15.9025L12.7807 16.324ZM12.0022 18.8355L12.6616 18.6004L12.6616 18.6004L12.0022 18.8355ZM12.3142 19.1475L12.0791 19.8068L12.0791 19.8068L12.3142 19.1475ZM8.14974 2.5V3.2H12.4831V2.5V1.8H8.14974V2.5ZM2.81641 12.1667H3.51641V7.83333H2.81641H2.11641V12.1667H2.81641ZM8.14974 17.5V16.8C7.20477 16.8 6.53814 16.7995 6.01741 16.7569C5.50486 16.715 5.19562 16.636 4.95423 16.513L4.63644 17.1367L4.31864 17.7604C4.79029 18.0007 5.30428 18.1033 5.90341 18.1523C6.49437 18.2005 7.22787 18.2 8.14974 18.2V17.5ZM2.81641 12.1667H2.11641C2.11641 13.0885 2.11586 13.822 2.16414 14.413C2.2131 15.0121 2.3157 15.5261 2.55601 15.9978L3.17972 15.68L3.80342 15.3622C3.68043 15.1208 3.60137 14.8115 3.5595 14.299C3.51695 13.7783 3.51641 13.1116 3.51641 12.1667H2.81641ZM4.63644 17.1367L4.95423 16.513C4.45874 16.2605 4.05589 15.8577 3.80342 15.3622L3.17972 15.68L2.55601 15.9978C2.9427 16.7567 3.55972 17.3737 4.31864 17.7604L4.63644 17.1367ZM12.4831 2.5V3.2C13.428 3.2 14.0947 3.20054 14.6154 3.24309C15.1279 3.28497 15.4372 3.36402 15.6786 3.48702L15.9964 2.86331L16.3142 2.23961C15.8425 1.99929 15.3285 1.89669 14.7294 1.84774C14.1384 1.79946 13.4049 1.8 12.4831 1.8V2.5ZM17.8164 7.83333H18.5164C18.5164 6.91146 18.517 6.17796 18.4687 5.587C18.4197 4.98788 18.3171 4.47389 18.0768 4.00224L17.4531 4.32003L16.8294 4.63783C16.9524 4.87922 17.0314 5.18846 17.0733 5.70101C17.1159 6.22173 17.1164 6.88836 17.1164 7.83333H17.8164ZM15.9964 2.86331L15.6786 3.48702C16.1741 3.73948 16.5769 4.14233 16.8294 4.63782L17.4531 4.32003L18.0768 4.00224C17.6901 3.24332 17.0731 2.6263 16.3142 2.23961L15.9964 2.86331ZM8.14974 2.5V1.8C7.22787 1.8 6.49437 1.79946 5.90341 1.84774C5.30428 1.89669 4.79029 1.99929 4.31864 2.23961L4.63644 2.86331L4.95423 3.48702C5.19562 3.36402 5.50486 3.28497 6.01741 3.24309C6.53814 3.20054 7.20477 3.2 8.14974 3.2V2.5ZM2.81641 7.83333H3.51641C3.51641 6.88836 3.51695 6.22173 3.5595 5.70101C3.60137 5.18846 3.68043 4.87922 3.80342 4.63782L3.17972 4.32003L2.55601 4.00224C2.3157 4.47389 2.2131 4.98788 2.16414 5.587C2.11586 6.17796 2.11641 6.91146 2.11641 7.83333H2.81641ZM4.63644 2.86331L4.31864 2.23961C3.55972 2.6263 2.9427 3.24332 2.55601 4.00224L3.17972 4.32003L3.80342 4.63782C4.05589 4.14233 4.45874 3.73948 4.95423 3.48702L4.63644 2.86331ZM17.8164 7.83333H17.1164V9.16667H17.8164H18.5164V7.83333H17.8164ZM8.14974 17.5V18.2H9.48307V17.5V16.8H8.14974V17.5ZM6.98307 6.66667V7.36667H13.6497V6.66667V5.96667H6.98307V6.66667ZM6.98307 10V10.7H13.6497V10V9.3H6.98307V10ZM6.98307 13.3333V14.0333H10.3164V13.3333V12.6333H6.98307V13.3333ZM12.1941 17.9138L12.8582 18.1352L13.2438 16.9782L12.5798 16.7568L11.9157 16.5355L11.53 17.6925L12.1941 17.9138ZM12.9777 16.113L13.4727 16.6079L17.3159 12.7647L16.8209 12.2698L16.3259 11.7748L12.4827 15.618L12.9777 16.113ZM18.88 14.3288L18.385 13.8339L14.5418 17.6771L15.0368 18.172L15.5318 18.667L19.375 14.8238L18.88 14.3288ZM14.3929 18.57L14.1715 17.9059L13.0146 18.2916L13.2359 18.9556L13.4573 19.6197L14.6143 19.2341L14.3929 18.57ZM15.0368 18.172L14.5418 17.6771C14.426 17.7928 14.4136 17.8031 14.4041 17.8102L14.8257 18.3691L15.2473 18.9279C15.3524 18.8486 15.4424 18.7564 15.5318 18.667L15.0368 18.172ZM14.3929 18.57L14.6143 19.2341C14.7341 19.1941 14.8569 19.1548 14.9748 19.0963L14.6635 18.4693L14.3522 17.8423C14.3416 17.8476 14.3268 17.8541 14.1715 17.9059L14.3929 18.57ZM14.8257 18.3691L14.4041 17.8102C14.3879 17.8225 14.3705 17.8333 14.3522 17.8423L14.6635 18.4693L14.9748 19.0963C15.0706 19.0487 15.1619 18.9923 15.2473 18.9279L14.8257 18.3691ZM18.88 12.2698L18.385 12.7647C18.5309 12.9107 18.6197 12.9998 18.683 13.0707C18.743 13.1379 18.7509 13.1572 18.7488 13.153L19.376 12.8422L20.0032 12.5314C19.8643 12.2511 19.6157 12.0155 19.375 11.7748L18.88 12.2698ZM18.88 14.3288L19.375 14.8238C19.6157 14.5831 19.8643 14.3475 20.0032 14.0672L19.376 13.7564L18.7488 13.4456C18.7509 13.4414 18.743 13.4607 18.683 13.5279C18.6197 13.5988 18.5309 13.6879 18.385 13.8339L18.88 14.3288ZM19.376 12.8422L18.7488 13.153C18.7945 13.2452 18.7945 13.3534 18.7488 13.4456L19.376 13.7564L20.0032 14.0672C20.243 13.5834 20.243 13.0152 20.0032 12.5314L19.376 12.8422ZM16.8209 12.2698L17.3159 12.7647C17.4618 12.6188 17.5509 12.5301 17.6218 12.4668C17.689 12.4068 17.7084 12.3988 17.7041 12.4009L17.3933 11.7737L17.0825 11.1465C16.8022 11.2854 16.5666 11.5341 16.3259 11.7748L16.8209 12.2698ZM18.88 12.2698L19.375 11.7748C19.1342 11.5341 18.8987 11.2854 18.6184 11.1465L18.3076 11.7737L17.9968 12.4009C17.9925 12.3988 18.0119 12.4068 18.0791 12.4668C18.15 12.5301 18.2391 12.6188 18.385 12.7647L18.88 12.2698ZM17.3933 11.7737L17.7041 12.4009C17.7963 12.3552 17.9046 12.3552 17.9968 12.4009L18.3076 11.7737L18.6184 11.1465C18.1345 10.9067 17.5664 10.9067 17.0825 11.1465L17.3933 11.7737ZM12.5798 16.7568L13.2438 16.9782C13.2956 16.8229 13.3022 16.8081 13.3074 16.7975L12.6804 16.4862L12.0535 16.1749C11.9949 16.2928 11.9556 16.4156 11.9157 16.5355L12.5798 16.7568ZM12.9777 16.113L12.4827 15.618C12.3934 15.7073 12.3011 15.7974 12.2219 15.9025L12.7807 16.324L13.3395 16.7456C13.3466 16.7362 13.3569 16.7237 13.4727 16.6079L12.9777 16.113ZM12.6804 16.4862L13.3074 16.7975C13.3165 16.7793 13.3272 16.7619 13.3395 16.7456L12.7807 16.324L12.2219 15.9025C12.1574 15.9879 12.101 16.0791 12.0535 16.1749L12.6804 16.4862ZM12.1941 17.9138L11.53 17.6925C11.4506 17.9307 11.375 18.1553 11.3315 18.3405C11.2904 18.5152 11.2421 18.7879 11.3429 19.0707L12.0022 18.8355L12.6616 18.6004C12.7028 18.7159 12.6665 18.7792 12.6944 18.6607C12.7198 18.5526 12.7699 18.3999 12.8582 18.1352L12.1941 17.9138ZM13.2359 18.9556L13.0146 18.2916C12.7498 18.3798 12.5972 18.43 12.489 18.4554C12.3705 18.4832 12.4338 18.447 12.5493 18.4882L12.3142 19.1475L12.0791 19.8068C12.3618 19.9077 12.6345 19.8593 12.8093 19.8182C12.9945 19.7747 13.219 19.6991 13.4573 19.6197L13.2359 18.9556ZM12.0022 18.8355L11.3429 19.0707C11.4654 19.4141 11.7356 19.6844 12.0791 19.8068L12.3142 19.1475L12.5493 18.4882C12.6017 18.5068 12.6429 18.5481 12.6616 18.6004L12.0022 18.8355Z" fill="#343330"/>
</g>
<defs>
<clipPath id="clip0_2004_9905">
<rect width="20" height="20" fill="white" transform="translate(0.316406)"/>
</clipPath>
</defs>
</svg>
