<svg width="16" height="16" viewBox="0 0 16 16" fill="none" xmlns="http://www.w3.org/2000/svg">
<path d="M11.318 13.0006C12.4894 12.2249 13.3515 11.0626 13.7539 9.71644C14.1563 8.37028 14.0735 6.92559 13.5199 5.63421C12.9664 4.34283 11.9772 3.28666 10.7248 2.64981C9.47243 2.01296 8.03625 1.83582 6.66665 2.14927M11.318 13.0006V10.6673M11.318 13.0006H13.6666M4.66665 3.01127C3.49925 3.78987 2.64167 4.95302 2.24305 6.29843C1.84442 7.64384 1.92996 9.08642 2.48479 10.3753C3.03963 11.6642 4.02865 12.7178 5.27988 13.353C6.53111 13.9882 7.9654 14.1647 9.33331 13.8519M4.66665 3.01127V5.33394M4.66665 3.01127H2.33331" stroke="#FFFCF5" stroke-width="1.5" stroke-linecap="round" stroke-linejoin="round"/>
</svg>
