<svg width="185" height="35" viewBox="0 0 185 35" fill="none" xmlns="http://www.w3.org/2000/svg">
<path d="M183.967 21.1916L175.984 6.41267C173.388 1.60338 166.768 -0.476558 161.2 1.76573C160.622 1.9983 160.079 2.27036 159.571 2.57313C158.696 3.09531 157.65 3.11286 156.779 2.59069C153.635 0.703827 149.445 0.26941 145.723 1.77012C145.145 2.00269 144.603 2.27475 144.095 2.57752C143.22 3.0997 142.174 3.11725 141.303 2.59507C138.159 0.708215 133.969 0.273798 130.247 1.77451C129.669 2.00708 129.126 2.27914 128.619 2.58191C127.744 3.10409 126.697 3.12164 125.827 2.59946C122.683 0.712603 118.493 0.278186 114.771 1.7789C114.193 2.01146 113.65 2.28352 113.143 2.5863C112.268 3.10848 111.221 3.12603 110.35 2.60385C107.207 0.716991 103.017 0.282574 99.295 1.78329C98.717 2.01585 98.1742 2.28791 97.6665 2.59069C96.7918 3.11286 95.7452 3.13042 94.8743 2.60824C91.7307 0.721379 87.5405 0.286962 83.8188 1.78767C83.2409 2.02024 82.6981 2.2923 82.1904 2.59507C81.3156 3.11725 80.2691 3.1348 79.3982 2.61263C76.2545 0.725767 72.0643 0.29135 68.3427 1.79206C67.7647 2.02463 67.2219 2.29669 66.7142 2.59946C65.8395 3.12164 64.7929 3.13919 63.9221 2.61701C60.7784 0.730155 56.5882 0.295738 52.8666 1.79645C52.2886 2.02902 51.7458 2.30108 51.2381 2.60385C50.3633 3.12603 49.3168 3.14358 48.4459 2.6214C45.3023 0.734543 41.112 0.300126 37.3904 1.80084C36.8124 2.0334 36.2696 2.30546 35.762 2.60824C34.8872 3.13042 33.8406 3.14797 32.9698 2.62579C29.8261 0.738931 25.6359 0.304515 21.9143 1.80523C21.3363 2.03779 20.7935 2.30985 20.2858 2.61263C19.4111 3.1348 18.3645 3.15236 17.4936 2.63018C14.3344 0.703827 10.148 0.26941 6.42641 1.77012C0.857652 4.01241 -1.55183 9.72565 1.0451 14.5349L9.02724 29.3139C11.6242 34.1232 18.2434 36.2031 23.8122 33.9608C24.3901 33.7283 24.933 33.4562 25.4406 33.1534C26.3154 32.6313 27.362 32.6137 28.2328 33.1359C31.3765 35.0227 35.5667 35.4572 39.2883 33.9564C39.8663 33.7239 40.4091 33.4518 40.9168 33.149C41.7915 32.6269 42.8381 32.6093 43.709 33.1315C46.8526 35.0183 51.0428 35.4528 54.7645 33.9521C55.3424 33.7195 55.8852 33.4474 56.3929 33.1446C57.2677 32.6225 58.3142 32.6049 59.1851 33.1271C62.3287 35.014 66.519 35.4484 70.2406 33.9477C70.8186 33.7151 71.3614 33.443 71.869 33.1403C72.7438 32.6181 73.7904 32.6005 74.6612 33.1227C77.8049 35.0096 81.9951 35.444 85.7167 33.9433C86.2947 33.7107 86.8375 33.4387 87.3452 33.1359C88.2199 32.6137 89.2665 32.5961 90.1374 33.1183C93.281 35.0052 97.4713 35.4396 101.193 33.9389C101.771 33.7063 102.314 33.4343 102.821 33.1315C103.696 32.6093 104.743 32.5918 105.614 33.1139C108.757 35.0008 112.947 35.4352 116.669 33.9345C117.247 33.7019 117.79 33.4299 118.297 33.1271C119.172 32.6049 120.219 32.5874 121.09 33.1096C124.233 34.9964 128.424 35.4308 132.145 33.9301C132.723 33.6975 133.266 33.4255 133.774 33.1227C134.648 32.6005 135.695 32.583 136.566 33.1052C139.709 34.992 143.9 35.4264 147.621 33.9257C148.199 33.6932 148.742 33.4211 149.25 33.1183C150.125 32.5961 151.171 32.5786 152.042 33.1008C155.186 34.9876 159.376 35.4221 163.097 33.9213C163.675 33.6888 164.218 33.4167 164.726 33.1139C165.601 32.5918 166.647 32.5742 167.518 33.0964C170.662 34.9832 174.852 35.4177 178.574 33.9169C184.142 31.6747 186.552 25.9614 183.955 21.1521L183.967 21.1916Z" fill="#B4A089"/>
</svg>
