<svg width="90" height="34" viewBox="0 0 90 34" fill="none" xmlns="http://www.w3.org/2000/svg">
<path d="M88.7716 20.3299L79.4241 5.54877C76.383 0.739869 68.6316 -1.33859 62.1103 0.90177C61.2506 1.19932 60.4548 1.55375 59.7277 1.96069C59.0006 2.36763 58.0677 2.38513 57.3223 1.96944C53.5952 -0.122146 48.455 -0.660358 43.9139 0.90177C43.0541 1.19932 42.2584 1.55375 41.5313 1.96069C40.8042 2.36763 39.8712 2.38513 39.1258 1.96944C35.3987 -0.122146 30.2586 -0.660358 25.7175 0.90177C24.8577 1.19932 24.062 1.55375 23.3349 1.96069C22.6077 2.36763 21.6748 2.38513 20.9294 1.96944C17.2023 -0.122146 12.0667 -0.660358 7.52561 0.90177C1.00435 3.14651 -1.81726 8.86118 1.22386 13.6701L10.5713 28.4512C13.6124 33.2601 21.3639 35.3386 27.8851 33.0982C28.7449 32.8007 29.5406 32.4463 30.2677 32.0393C30.9948 31.6324 31.9277 31.6149 32.6732 32.0306C36.4003 34.1221 41.5404 34.6604 46.0815 33.0982C46.9413 32.8007 47.737 32.4463 48.4641 32.0393C49.1913 31.6324 50.1242 31.6149 50.8696 32.0306C54.5967 34.1221 59.7369 34.6604 64.278 33.0982C65.1377 32.8007 65.9334 32.4463 66.6606 32.0393C67.3877 31.6324 68.3206 31.6149 69.066 32.0306C72.7931 34.1221 77.9333 34.6604 82.4744 33.0982C88.9956 30.8579 91.8173 25.1388 88.7761 20.3343L88.7716 20.3299Z" fill="#EDB53E"/>
</svg>
