<svg width="133" height="35" viewBox="0 0 133 35" fill="none" xmlns="http://www.w3.org/2000/svg">
<path d="M131.181 21.3089L122.603 6.52687C119.812 1.71705 112.698 -0.360485 106.713 1.88074C106.062 2.12417 105.449 2.40957 104.878 2.73274C104.001 3.22799 102.918 3.24478 102.041 2.74953C98.65 0.823082 94.1088 0.369801 90.0754 1.88074C89.4249 2.12417 88.8121 2.40957 88.2413 2.73274C87.3642 3.22799 86.2813 3.24478 85.4041 2.74953C82.0129 0.823082 77.4717 0.369801 73.4383 1.88074C72.7878 2.12417 72.175 2.40957 71.6042 2.73274C70.7271 3.22799 69.6442 3.24478 68.767 2.74953C65.3758 0.823082 60.8346 0.369801 56.8013 1.88074C56.1507 2.12417 55.5379 2.40957 54.9671 2.73274C54.09 3.22799 53.0071 3.24478 52.1299 2.74953C48.7387 0.823082 44.1975 0.369801 40.1642 1.88074C39.5136 2.12417 38.9008 2.40957 38.33 2.73274C37.4529 3.22799 36.37 3.24478 35.4928 2.74953C32.1016 0.823082 27.5604 0.369801 23.5271 1.88074C22.8765 2.12417 22.2637 2.40957 21.6929 2.73274C20.8158 3.22799 19.7329 3.24478 18.8557 2.74953C15.4813 0.823082 10.9359 0.369801 6.90675 1.88074C0.921757 4.12196 -1.66782 9.83834 1.12322 14.6482L9.70198 29.4302C12.493 34.24 19.607 36.3175 25.592 34.0763C26.2425 33.8329 26.8553 33.5475 27.4261 33.2243C28.3033 32.729 29.3861 32.7122 30.2633 33.2075C33.6545 35.1339 38.1957 35.5872 42.2291 34.0763C42.8796 33.8329 43.4924 33.5475 44.0632 33.2243C44.9404 32.729 46.0232 32.7122 46.9004 33.2075C50.2916 35.1339 54.8328 35.5872 58.8662 34.0763C59.5167 33.8329 60.1295 33.5475 60.7003 33.2243C61.5775 32.729 62.6603 32.7122 63.5375 33.2075C66.9287 35.1339 71.4699 35.5872 75.5033 34.0763C76.1538 33.8329 76.7666 33.5475 77.3374 33.2243C78.2146 32.729 79.2974 32.7122 80.1746 33.2075C83.5658 35.1339 88.107 35.5872 92.1404 34.0763C92.7909 33.8329 93.4037 33.5475 93.9745 33.2243C94.8517 32.729 95.9345 32.7122 96.8117 33.2075C100.203 35.1339 104.744 35.5872 108.777 34.0763C109.428 33.8329 110.041 33.5475 110.612 33.2243C111.489 32.729 112.572 32.7122 113.449 33.2075C116.84 35.1339 121.381 35.5872 125.415 34.0763C131.4 31.8351 133.989 26.1187 131.198 21.3089H131.181Z" fill="#99B7F5"/>
</svg>
