<svg width="208" height="35" viewBox="0 0 208 35" fill="none" xmlns="http://www.w3.org/2000/svg">
<path d="M206.715 21.2395L197.746 6.46053C194.828 1.65123 187.39 -0.428706 181.133 1.81359C180.483 2.04615 179.873 2.31821 179.303 2.62099C178.32 3.14316 177.144 3.16072 176.165 2.63854C172.633 0.751678 167.924 0.317262 163.743 1.81797C163.093 2.05054 162.483 2.3226 161.913 2.62537C160.93 3.14755 159.754 3.1651 158.775 2.64293C155.243 0.756066 150.535 0.32165 146.353 1.82236C145.703 2.05493 145.093 2.32699 144.523 2.62976C143.54 3.15194 142.364 3.16949 141.386 2.64731C137.853 0.760454 133.145 0.326038 128.963 1.82675C128.314 2.05932 127.704 2.33138 127.133 2.63415C126.15 3.15633 124.974 3.17388 123.996 2.6517C120.463 0.764842 115.755 0.330426 111.573 1.83114C110.924 2.0637 110.314 2.33576 109.743 2.63854C108.76 3.16072 107.584 3.17827 106.606 2.65609C103.074 0.76923 98.3652 0.334814 94.1834 1.83553C93.5339 2.06809 92.924 2.34015 92.3535 2.64293C91.3706 3.1651 90.1946 3.18266 89.2161 2.66048C85.6837 0.773618 80.9753 0.339202 76.7935 1.83991C76.1441 2.07248 75.5342 2.34454 74.9637 2.64731C73.9808 3.16949 72.8048 3.18704 71.8263 2.66487C68.2939 0.778006 63.5855 0.34359 59.4037 1.8443C58.7543 2.07687 58.1443 2.34893 57.5739 2.6517C56.591 3.17388 55.415 3.19143 54.4364 2.66925C50.9041 0.782395 46.1957 0.347978 42.0139 1.84869C41.3644 2.08126 40.7545 2.35332 40.1841 2.65609C39.2011 3.17827 38.0251 3.19582 37.0466 2.67364C33.5142 0.786783 28.8059 0.352366 24.6241 1.85308C23.9746 2.08564 23.3647 2.3577 22.7942 2.66048C21.8113 3.18266 20.6353 3.20021 19.6568 2.67803C16.1069 0.751678 11.4029 0.317262 7.22106 1.81797C0.963704 4.06027 -1.74372 9.7735 1.17433 14.5828L10.1435 29.3617C13.0615 34.171 20.4993 36.251 26.7566 34.0087C27.4061 33.7761 28.016 33.5041 28.5865 33.2013C29.5694 32.6791 30.7454 32.6616 31.7239 33.1837C35.2563 35.0706 39.9647 35.505 44.1465 34.0043C44.7959 33.7717 45.4058 33.4997 45.9763 33.1969C46.9592 32.6747 48.1352 32.6572 49.1137 33.1793C52.6461 35.0662 57.3545 35.5006 61.5363 33.9999C62.1857 33.7673 62.7957 33.4953 63.3661 33.1925C64.349 32.6703 65.525 32.6528 66.5036 33.1749C70.0359 35.0618 74.7443 35.4962 78.9261 33.9955C79.5755 33.763 80.1855 33.4909 80.7559 33.1881C81.7389 32.6659 82.9149 32.6484 83.8934 33.1706C87.4258 35.0574 92.1341 35.4918 96.3159 33.9911C96.9654 33.7586 97.5753 33.4865 98.1458 33.1837C99.1287 32.6616 100.305 32.644 101.283 33.1662C104.816 35.053 109.524 35.4875 113.706 33.9867C114.355 33.7542 114.965 33.4821 115.536 33.1793C116.519 32.6572 117.695 32.6396 118.673 33.1618C122.205 35.0486 126.914 35.4831 131.096 33.9824C131.745 33.7498 132.355 33.4777 132.925 33.1749C133.908 32.6528 135.084 32.6352 136.063 33.1574C139.595 35.0443 144.304 35.4787 148.485 33.978C149.135 33.7454 149.745 33.4733 150.315 33.1706C151.298 32.6484 152.474 32.6308 153.453 33.153C156.985 35.0399 161.693 35.4743 165.875 33.9736C166.525 33.741 167.135 33.469 167.705 33.1662C168.688 32.644 169.864 32.6264 170.843 33.1486C174.375 35.0355 179.083 35.4699 183.265 33.9692C183.915 33.7366 184.524 33.4646 185.095 33.1618C186.078 32.6396 187.254 32.6221 188.232 33.1442C191.765 35.0311 196.473 35.4655 200.655 33.9648C206.912 31.7225 209.62 26.0093 206.702 21.2L206.715 21.2395Z" fill="#267F53"/>
</svg>
