<svg width="18" height="18" viewBox="0 0 18 18" fill="none" xmlns="http://www.w3.org/2000/svg">
<path d="M9.00002 0.875C10.2339 0.875603 11.4517 1.15698 12.5606 1.69824C13.6696 2.23969 14.6409 3.02724 15.4004 4C16.1599 4.9728 16.6881 6.10621 16.9444 7.31348C17.2005 8.52066 17.1778 9.77045 16.8789 10.9678C16.58 12.1651 16.0123 13.2794 15.2188 14.2246C14.4254 15.1695 13.427 15.9212 12.2998 16.4229C11.1723 16.9246 9.94433 17.1634 8.71096 17.1201C7.47772 17.0768 6.27018 16.7533 5.18068 16.1738L2.52053 17.0605C2.30043 17.1339 2.06371 17.1441 1.83791 17.0908C1.61209 17.0375 1.40532 16.9219 1.24123 16.7578C1.07722 16.5937 0.961522 16.3869 0.908221 16.1611C0.855006 15.9353 0.866066 15.6986 0.939471 15.4785L1.82619 12.8184C1.167 11.5803 0.839831 10.1922 0.875995 8.79004C0.912242 7.38792 1.31008 6.0188 2.03224 4.81641C2.75447 3.61396 3.77627 2.61942 4.99709 1.92871C6.21796 1.23804 7.59732 0.874694 9.00002 0.875ZM9.00002 4.83301C8.53978 4.83301 8.16701 5.20675 8.16701 5.66699V8.16699H5.66701C5.20677 8.16699 4.83303 8.53976 4.83303 9C4.83303 9.46024 5.20677 9.83301 5.66701 9.83301H8.16701V12.333C8.16701 12.7932 8.53978 13.167 9.00002 13.167C9.46009 13.1668 9.83303 12.7931 9.83303 12.333V9.83301H12.333C12.7931 9.83282 13.167 9.46012 13.167 9C13.167 8.53988 12.7931 8.16718 12.333 8.16699H9.83303V5.66699C9.83303 5.20687 9.46009 4.8332 9.00002 4.83301Z" fill="#FFFCF5"/>
</svg>
