<svg width="19" height="18" viewBox="0 0 19 18" fill="none" xmlns="http://www.w3.org/2000/svg">
<path fill-rule="evenodd" clip-rule="evenodd" d="M8.91486 0.472937C9.29815 0.369698 9.70193 0.369698 10.0852 0.472937C10.5239 0.591105 10.9022 0.884238 11.3336 1.21861C11.364 1.24221 11.3948 1.26602 11.4258 1.29L12.0318 1.75819C12.2421 1.92059 12.2845 1.95064 12.325 1.97267C12.3716 1.99805 12.4207 2.01842 12.4716 2.03342C12.5158 2.04644 12.5671 2.05521 12.8305 2.08902L13.5902 2.18651C13.6291 2.1915 13.6676 2.19639 13.7058 2.20123C14.2473 2.26986 14.7221 2.33002 15.1158 2.55668C15.4599 2.75471 15.7454 3.04023 15.9434 3.38425C16.1701 3.77803 16.2302 4.25274 16.2989 4.79423C16.3037 4.83246 16.3086 4.87103 16.3136 4.90992L16.4111 5.66954C16.4449 5.93303 16.4536 5.98429 16.4667 6.02846C16.4817 6.07936 16.502 6.12852 16.5274 6.17512C16.5494 6.21557 16.5795 6.25802 16.7419 6.46824L17.2101 7.0743C17.2341 7.10533 17.2579 7.13605 17.2815 7.16651C17.6158 7.59793 17.909 7.97614 18.0271 8.41486C18.1304 8.79815 18.1304 9.20193 18.0271 9.58522C17.909 10.0239 17.6158 10.4022 17.2815 10.8336C17.2579 10.864 17.2341 10.8948 17.2101 10.9258L16.7419 11.5318C16.5795 11.7421 16.5494 11.7845 16.5274 11.825C16.502 11.8716 16.4817 11.9207 16.4667 11.9716C16.4536 12.0158 16.4449 12.0671 16.4111 12.3305L16.3136 13.0902C16.3086 13.1291 16.3037 13.1676 16.2989 13.2059C16.2302 13.7473 16.1701 14.2221 15.9434 14.6158C15.7454 14.9599 15.4599 15.2454 15.1158 15.4434C14.7221 15.6701 14.2473 15.7302 13.7059 15.7989C13.6676 15.8037 13.6291 15.8086 13.5902 15.8136L12.8305 15.9111C12.5671 15.9449 12.5158 15.9536 12.4716 15.9667C12.4207 15.9817 12.3716 16.002 12.325 16.0274C12.2845 16.0494 12.2421 16.0795 12.0318 16.2419L11.4258 16.7101C11.3948 16.7341 11.364 16.7579 11.3336 16.7815C10.9021 17.1159 10.5239 17.409 10.0852 17.5271C9.70193 17.6304 9.29815 17.6304 8.91486 17.5271C8.47614 17.409 8.09793 17.1158 7.66651 16.7815C7.63605 16.7579 7.60533 16.7341 7.5743 16.7101L6.96824 16.2419C6.75802 16.0795 6.71557 16.0494 6.67512 16.0274C6.62852 16.002 6.57936 15.9817 6.52846 15.9667C6.48429 15.9536 6.43303 15.9449 6.16954 15.9111L5.40992 15.8136C5.37103 15.8086 5.33246 15.8037 5.29423 15.7989C4.75274 15.7302 4.27803 15.6701 3.88425 15.4434C3.54023 15.2454 3.25471 14.9599 3.05668 14.6158C2.83002 14.2221 2.76986 13.7473 2.70123 13.2058C2.69639 13.1676 2.6915 13.1291 2.68651 13.0902L2.58902 12.3305C2.55521 12.0671 2.54644 12.0158 2.53342 11.9716C2.51842 11.9207 2.49805 11.8716 2.47267 11.825C2.45064 11.7845 2.42059 11.7421 2.25819 11.5318L1.79 10.9258C1.76602 10.8948 1.74221 10.864 1.7186 10.8336C1.38424 10.4022 1.0911 10.0239 0.972937 9.58522C0.869698 9.20193 0.869698 8.79815 0.972937 8.41486C1.0911 7.97614 1.38424 7.59793 1.7186 7.16651C1.74221 7.13605 1.76602 7.10533 1.79 7.0743L2.25819 6.46824C2.42059 6.25802 2.45064 6.21557 2.47267 6.17512C2.49805 6.12852 2.51842 6.07936 2.53342 6.02846C2.54644 5.98428 2.55521 5.93302 2.58902 5.66954L2.68651 4.90992C2.6915 4.87103 2.69639 4.83247 2.70123 4.79423C2.76986 4.25274 2.83002 3.77803 3.05668 3.38425C3.25471 3.04023 3.54023 2.75471 3.88425 2.55668C4.27803 2.33002 4.75274 2.26986 5.29423 2.20123C5.33247 2.19639 5.37103 2.1915 5.40992 2.18651L6.16954 2.08902C6.43302 2.05521 6.48428 2.04644 6.52846 2.03342C6.57936 2.01842 6.62852 1.99805 6.67512 1.97267C6.71557 1.95064 6.75802 1.92059 6.96824 1.75819L7.5743 1.29C7.60533 1.26602 7.63605 1.24221 7.66651 1.2186C8.09793 0.884235 8.47614 0.591105 8.91486 0.472937ZM11.2197 6.96971C11.5126 6.67682 11.9875 6.67682 12.2804 6.96971C12.5733 7.26261 12.5733 7.73748 12.2804 8.03037L9.32974 10.981C9.02373 11.287 8.53325 11.3046 8.20616 11.0212L6.75893 9.76728C6.44587 9.49604 6.41197 9.02238 6.6832 8.70932C6.95444 8.39627 7.4281 8.36236 7.74116 8.6336L8.71344 9.47599L11.2197 6.96971Z" fill="#F9F2EA"/>
</svg>
