<svg width="24" height="24" viewBox="0 0 24 24" fill="none" xmlns="http://www.w3.org/2000/svg">
<path d="M0 1.71919C0 0.77025 0.794438 0 1.77375 0H22.2262C23.2059 0 24 0.77025 24 1.71919V22.2811C24 23.2303 23.2059 24 22.2262 24H1.77375C0.794531 24 0 23.2304 0 22.2814V1.71891V1.71919Z" fill="#323539"/>
<path d="M7.2933 20.0847V9.27985H3.70192V20.0847H7.29367H7.2933ZM5.49836 7.80488C6.75048 7.80488 7.53002 6.97519 7.53002 5.93832C7.50658 4.87782 6.75048 4.07129 5.52217 4.07129C4.29302 4.07129 3.49023 4.87782 3.49023 5.93823C3.49023 6.9751 4.26948 7.80479 5.47483 7.80479H5.49808L5.49836 7.80488ZM9.28117 20.0847H12.8723V14.0514C12.8723 13.7289 12.8957 13.4056 12.9906 13.1753C13.2501 12.5298 13.841 11.8616 14.8333 11.8616C16.1325 11.8616 16.6525 12.8524 16.6525 14.305V20.0847H20.2435V13.8895C20.2435 10.5709 18.472 9.02654 16.1093 9.02654C14.1721 9.02654 13.3213 10.1093 12.8486 10.8467H12.8725V9.28023H9.28136C9.32823 10.2939 9.28108 20.0851 9.28108 20.0851L9.28117 20.0847Z" fill="white"/>
</svg>
