<svg width="24" height="24" viewBox="0 0 24 24" fill="none" xmlns="http://www.w3.org/2000/svg">
<path d="M12 0C8.8174 0 5.76516 1.26428 3.51472 3.51472C1.26428 5.76516 0 8.8174 0 12C0 15.1826 1.26428 18.2348 3.51472 20.4853C5.76516 22.7357 8.8174 24 12 24C15.1826 24 18.2348 22.7357 20.4853 20.4853C22.7357 18.2348 24 15.1826 24 12C24 8.8174 22.7357 5.76516 20.4853 3.51472C18.2348 1.26428 15.1826 0 12 0ZM21.9265 8.4292C21.9757 8.56578 21.9788 8.71524 21.9295 8.85182C21.7455 9.36219 21.4706 9.83575 21.1176 10.2493C20.4959 10.9775 19.4415 10.5009 18.9773 9.66341C18.7215 9.20181 18.4169 8.76692 18.0678 8.36657C17.4621 7.67196 16.7352 7.09609 15.9245 6.66596C15.5804 6.48338 15.3799 6.08151 15.5804 5.74755C15.8614 5.2795 15.8281 4.53745 15.2842 4.58495C15.0169 4.60829 14.7671 4.73408 14.5733 5.01333C13.8755 5.92178 14.5558 7.12923 14.8426 7.66007C14.8498 7.67347 14.8533 7.68797 14.8533 7.7032C14.8533 7.77494 14.7751 7.81875 14.7153 7.77912C14.2317 7.45872 13.8234 7.04029 13.5156 6.55314C13.2929 6.20063 12.9319 5.93071 12.5159 5.95847C11.957 5.99575 11.4057 6.10057 10.8738 6.26992C10.1937 6.48648 9.41188 6.09509 9.53274 5.39162C9.61149 4.9332 10.0632 4.67607 10.5214 4.59587C10.7351 4.55846 10.9449 4.49742 11.1467 4.41333C11.5931 4.22731 11.9869 3.93424 12.2933 3.56C12.7929 2.99527 12.3637 2.3067 11.8558 1.78249C11.7403 1.66325 11.8206 1.45333 11.9867 1.45333C13.8019 1.44109 15.5891 1.90053 17.1733 2.78667C18.0688 3.44847 18.8052 4.30183 19.3288 5.28449C19.7584 6.0907 20.0359 6.96726 20.1493 7.87035C20.191 8.20261 20.3485 8.47047 20.6021 8.25179C20.9804 7.92557 21.7069 7.84064 21.8821 8.30847C21.8971 8.34862 21.9119 8.38886 21.9265 8.4292ZM14.2775 21.178C12.9869 22.107 10.9904 21.7517 10.8283 20.1698C10.6478 18.408 11.8497 16.8769 10.6667 15.4667C9.71858 14.5907 8.41207 14.8617 7.36275 14.4328C6.72652 14.1728 6.42056 13.4717 6.42303 12.7844C6.42528 12.1591 6.53531 11.5363 6.7509 10.9438C7.08657 10.0213 7.66563 9.20678 8.42667 8.58667C9.12 8 13.76 7.25333 15.6533 8.88C16.6066 9.70104 17.3165 10.7625 17.7127 11.9487C17.8276 12.2924 18.1283 12.5631 18.4882 12.5201C19.0707 12.4504 19.7147 12.7795 19.652 13.3628C19.3453 16.2165 16.8301 19.3406 14.2775 21.178ZM7.6715 3.27903C7.34312 3.07814 7.40567 2.61839 7.79054 2.62621C8.01526 2.63078 8.23975 2.66623 8.45757 2.73279C8.68046 2.80089 8.89094 2.89991 9.0834 3.02577C9.52675 3.31571 9.457 3.94908 8.99163 4.20216C8.81266 4.29949 8.62623 4.3827 8.43395 4.45099C8.09186 4.57249 7.76992 4.27813 7.85893 3.92618C7.86572 3.89933 7.87279 3.87254 7.88014 3.84582C7.93936 3.63058 7.86192 3.39553 7.6715 3.27903Z" fill="#343330"/>
</svg>
