<svg width="158" height="163" viewBox="0 0 158 163" fill="none" xmlns="http://www.w3.org/2000/svg">
<g filter="url(#filter0_d_3593_1888)">
<path d="M67.1894 11.7027C73.4003 5.29834 83.6769 5.29834 89.8878 11.7027C93.7535 15.6888 99.427 17.3547 104.834 16.0913C113.521 14.0615 122.167 19.6175 123.929 28.363C125.026 33.8063 128.898 38.275 134.13 40.1355C142.536 43.1247 146.805 52.4726 143.559 60.7827C141.539 65.9549 142.381 71.8078 145.776 76.2014C151.231 83.2605 149.769 93.4325 142.546 98.6688C138.05 101.928 135.594 107.307 136.075 112.838C136.848 121.726 130.118 129.493 121.211 129.993C115.667 130.304 110.692 133.501 108.106 138.414C103.951 146.309 94.0908 149.204 86.3272 144.809C81.4951 142.074 75.5821 142.074 70.75 144.809C62.9863 149.204 53.126 146.309 48.971 138.414C46.3849 133.501 41.4105 130.304 35.8666 129.993C26.9592 129.493 20.2295 121.726 21.0023 112.838C21.4832 107.307 19.0269 101.928 14.5312 98.6688C7.30817 93.4325 5.84566 83.2605 11.3009 76.2014C14.6963 71.8078 15.5378 65.9549 13.5178 60.7827C10.2723 52.4726 14.5414 43.1247 22.947 40.1355C28.1788 38.275 32.051 33.8063 33.148 28.363C34.9105 19.6175 43.5557 14.0615 52.2431 16.0913C57.6502 17.3547 63.3237 15.6888 67.1894 11.7027Z" fill="#FFFCF5"/>
<path fill-rule="evenodd" clip-rule="evenodd" d="M66.5439 99.8827C65.0487 105.708 68.5198 111.664 74.343 113.225C80.1661 114.785 86.1506 111.362 87.7682 105.57L66.5439 99.8827Z" fill="#D2971A"/>
<path fill-rule="evenodd" clip-rule="evenodd" d="M88.2253 54.5674C77.133 51.5952 65.7316 58.1779 62.7594 69.2701L59.2929 82.2074C58.5602 84.9419 56.4023 86.98 53.9446 88.385C52.7639 89.0599 51.7298 89.835 50.8667 90.7043C48.9098 92.6751 50.4868 95.5803 53.1695 96.2992L100.913 109.092C103.596 109.811 106.414 108.083 105.705 105.398C105.392 104.214 104.884 103.026 104.199 101.851C102.773 99.4057 101.924 96.5619 102.656 93.8275L106.123 80.8894C109.095 69.7972 102.513 58.3957 91.4205 55.4236L88.2253 54.5674Z" fill="#EDB53E"/>
<ellipse cx="96.6369" cy="72.1004" rx="4.32643" ry="6.30938" transform="rotate(-9.8395 96.6369 72.1004)" fill="#F9F2EA"/>
<path fill-rule="evenodd" clip-rule="evenodd" d="M87.7974 56.165C77.5875 53.4293 67.093 59.4883 64.3573 69.6982L61.162 68.8421C64.3706 56.8675 76.679 49.7612 88.6536 52.9698L91.8488 53.826L90.9927 57.0212L87.7974 56.165Z" fill="black"/>
<path d="M108.439 56.654C109.354 55.3369 109.208 55.2352 110.123 53.9181C111.037 52.6009 111.019 52.5877 111.931 51.2709C112.846 49.9518 112.966 50.0352 113.88 48.7161C114.795 47.397 114.865 47.4462 115.779 46.127C116.758 44.7169 116.113 42.517 114.606 41.6965C112.936 40.7873 112.985 40.6946 111.313 39.7858C109.828 38.9778 107.899 39.8127 107.22 41.3623C106.577 42.8273 106.692 42.8793 106.05 44.3443C105.408 45.8093 105.197 45.7182 104.555 47.1831C103.912 48.6481 104.025 48.6985 103.381 50.1658C102.737 51.6331 102.793 51.6563 102.149 53.1216C101.548 54.4932 101.876 56.2559 103.19 56.9703C103.777 57.2894 103.792 57.2607 104.378 57.5798C105.673 58.2853 107.596 57.8668 108.437 56.6563L108.439 56.654Z" fill="#EDB53E"/>
<path d="M111.529 65.0254C113.459 64.7599 113.435 64.5851 115.365 64.3195C117.295 64.054 117.293 64.0333 119.223 63.7677C120.255 63.6264 120.978 62.1709 120.564 60.7678C120.104 59.2138 120.186 59.1889 119.726 57.635C119.317 56.2529 117.843 55.3972 116.901 55.803C115.12 56.5736 115.077 56.4762 113.296 57.2468C111.515 58.0173 111.614 58.2431 109.831 59.0132C108.997 59.3728 108.778 60.5109 109.14 61.734C109.302 62.2799 109.083 62.3435 109.244 62.8894C109.6 64.093 110.641 65.1457 111.529 65.0254Z" fill="#1E4A2F"/>
<path d="M43.1092 97.2265C41.314 97.4511 41.3317 97.5934 39.5361 97.8196C37.7409 98.0442 37.7429 98.063 35.9477 98.2876C34.9881 98.4085 34.3408 97.4114 34.3687 96.0943C34.3992 94.6334 34.4685 94.6358 34.499 93.1749C34.5257 91.8759 35.1179 90.9555 36.0612 91.0864C37.8464 91.3344 37.8355 91.418 39.6204 91.6676C41.4053 91.9172 41.4334 91.7182 43.2187 91.9662C44.054 92.0834 44.8045 93.0864 44.7801 94.2365C44.7702 94.749 44.5847 94.7459 44.5733 95.258C44.55 96.3901 43.9342 97.1251 43.1088 97.2281L43.1092 97.2265Z" fill="#267F53"/>
<path d="M49.642 103.242C48.2925 104.683 48.4229 104.807 47.0734 106.248C45.7239 107.689 45.7402 107.705 44.3906 109.146C43.6698 109.918 42.4355 109.488 41.518 108.325C40.4985 107.036 40.5668 106.983 39.5472 105.693C38.642 104.546 38.456 103.369 39.3445 102.828C41.025 101.804 41.0804 101.894 42.7609 100.87C44.4414 99.8463 44.3102 99.6334 45.9907 98.6093C46.7767 98.13 48.1457 98.4715 48.9467 99.4862C49.3042 99.9394 49.1216 100.082 49.4811 100.535C50.2698 101.534 50.2647 102.578 49.644 103.242L49.642 103.242Z" fill="#EDB53E"/>
</g>
<defs>
<filter id="filter0_d_3593_1888" x="0" y="6.89941" width="157.077" height="156.062" filterUnits="userSpaceOnUse" color-interpolation-filters="sRGB">
<feFlood flood-opacity="0" result="BackgroundImageFix"/>
<feColorMatrix in="SourceAlpha" type="matrix" values="0 0 0 0 0 0 0 0 0 0 0 0 0 0 0 0 0 0 127 0" result="hardAlpha"/>
<feMorphology radius="8" operator="erode" in="SourceAlpha" result="effect1_dropShadow_3593_1888"/>
<feOffset dy="8.09758"/>
<feGaussianBlur stdDeviation="8"/>
<feComposite in2="hardAlpha" operator="out"/>
<feColorMatrix type="matrix" values="0 0 0 0 0.0470588 0 0 0 0 0.0470588 0 0 0 0 0.0509804 0 0 0 0.1 0"/>
<feBlend mode="normal" in2="BackgroundImageFix" result="effect1_dropShadow_3593_1888"/>
<feBlend mode="normal" in="SourceGraphic" in2="effect1_dropShadow_3593_1888" result="shape"/>
</filter>
</defs>
</svg>
