<svg width="171" height="170" viewBox="0 0 171 170" fill="none" xmlns="http://www.w3.org/2000/svg">
<g filter="url(#filter0_d_3593_21886)">
<path d="M74.0893 18.7033C80.3002 12.299 90.5768 12.299 96.7877 18.7033C100.653 22.6894 106.327 24.3553 111.734 23.0919C120.421 21.0621 129.067 26.6181 130.829 35.3636C131.926 40.8069 135.798 45.2756 141.03 47.1361C149.436 50.1253 153.705 59.4732 150.459 67.7833C148.439 72.9556 149.281 78.8084 152.676 83.202C158.131 90.2611 156.669 100.433 149.446 105.669C144.95 108.928 142.494 114.307 142.975 119.839C143.748 128.727 137.018 136.493 128.11 136.993C122.567 137.304 117.592 140.501 115.006 145.415C110.851 153.31 100.991 156.205 93.2271 151.81C88.395 149.074 82.482 149.074 77.6499 151.81C69.8862 156.205 60.0259 153.31 55.8709 145.415C53.2848 140.501 48.3104 137.304 42.7665 136.993C33.8591 136.493 27.1294 128.727 27.9022 119.839C28.3832 114.307 25.9268 108.928 21.4311 105.669C14.2081 100.433 12.7456 90.2611 18.2008 83.202C21.5962 78.8084 22.4377 72.9556 20.4177 67.7833C17.1722 59.4732 21.4413 50.1253 29.8469 47.1361C35.0787 45.2756 38.9509 40.8069 40.0479 35.3636C41.8104 26.6181 50.4556 21.0621 59.143 23.0919C64.5501 24.3553 70.2236 22.6894 74.0893 18.7033Z" fill="#FFFCF5"/>
<g clip-path="url(#clip0_3593_21886)">
<path d="M85.0672 117.097C86.8761 117.603 88.8424 117.909 90.9364 117.889C98.8695 117.813 105.805 112.609 108.375 105.111C109.161 102.818 110.198 100.547 111.427 99.5833C113.49 97.9655 117.534 94.2611 119.678 92.2749C121.022 91.0309 121.781 89.255 121.654 87.4272C121.545 85.8513 120.805 84.2412 118.406 83.7619C116.84 83.4487 115.211 83.795 113.864 84.6503L108.084 88.3208L114.99 68.2397C115.573 66.5457 115.392 64.6591 114.413 63.1572C113.375 61.5662 111.473 60.4639 108.05 62.7947C108.05 62.7947 110.579 55.4212 101.501 57.2647C101.501 57.2647 95.8968 54.7418 93.3655 59.2079C93.3655 59.2079 89.1374 57.5511 86.964 61.3089C86.964 61.3089 76.514 80.3847 73.4695 98.6408C72.102 106.844 77.0533 114.852 85.0687 117.097L85.0672 117.097Z" fill="#99B7F5"/>
<path d="M80.6434 108.713C77.1477 113.643 70.9143 115.838 65.1154 114.121C52.7041 110.446 51.1335 101.694 51.6462 95.7813C51.6462 95.7813 51.6474 95.7768 51.648 95.7689C51.6668 95.6546 51.8145 94.7427 52.0118 93.3084C52.6926 88.381 53.9732 77.2972 52.6723 71.373C52.3503 69.911 52.5593 68.3701 53.3413 67.0947C54.087 65.8803 55.3221 64.9001 57.3191 65.591C59.0062 66.1751 60.2151 67.6682 60.5266 69.4245C60.5838 69.7488 60.647 70.1038 60.7121 70.4869C63.6737 61.9799 66.0164 54.1073 66.717 51.2541C67.9806 46.1136 73.6519 48.978 73.6519 48.978C78.7674 43.9365 82.4206 49.7071 82.4206 49.7071C91.9884 48.7197 90.1485 57.1048 90.1485 57.1048C94.6514 58.3533 96.1869 60.394 90.9011 84.1219C88.2736 95.919 84.1383 103.786 80.6434 108.713Z" fill="#267F53"/>
<path d="M60.4346 70.4098C59.6013 73.4151 59.9555 73.5134 59.1218 76.5202C58.2882 79.5271 58.5017 79.5847 57.668 82.5915" fill="#1E4A2F"/>
<path d="M57.4795 83.266C57.1058 83.1624 56.8876 82.7773 56.9912 82.4039C57.4012 80.9252 57.5493 80.1927 57.7065 79.4159C57.8619 78.6515 58.0217 77.8593 58.445 76.3326C58.8683 74.8059 58.9639 74.1347 59.084 73.3574C59.2059 72.574 59.3299 71.7653 59.7577 70.2222C59.8612 69.8487 60.2465 69.631 60.6203 69.7346C60.994 69.8382 61.2121 70.2233 61.1086 70.5967C60.7028 72.0604 60.5897 72.7945 60.4696 73.5719C60.3477 74.3553 60.2237 75.164 59.7959 76.7071C59.368 78.2503 59.2373 78.9198 59.0806 79.6951C58.9252 80.4595 58.7653 81.2518 58.3421 82.7784C58.2385 83.1518 57.8533 83.3696 57.4795 83.266Z" fill="#1E4A2F"/>
<path d="M74.1671 77.3003C73.8069 77.2004 73.5857 76.8322 73.6728 76.4656C73.9727 75.1857 74.14 74.6523 74.319 74.0882C74.4986 73.5163 74.6855 72.9237 75.0457 71.4555C75.2089 70.7853 75.3513 70.056 75.5008 69.2836C75.6841 68.3428 75.8712 67.3708 76.1254 66.3722C76.3512 65.4819 76.6526 64.5933 76.9445 63.7327C77.2038 62.9664 77.4732 62.1755 77.6782 61.4071C78.1536 59.6284 78.6426 57.952 79.1019 56.4062C79.4085 55.3705 79.6347 54.3915 79.8155 53.6051C80.0857 52.4268 80.266 51.6483 80.5687 51.1977C81.8875 49.2394 82.2266 49.1009 84.2786 48.9285L84.4078 48.9175C84.7937 48.884 85.1329 49.1703 85.1666 49.5559C85.2003 49.9415 84.914 50.2804 84.5285 50.3124L84.3994 50.3235C83.5337 50.3967 83.1382 50.4357 82.8712 50.5942C82.5831 50.7646 82.275 51.1766 81.7339 51.9794C81.5749 52.2147 81.3766 53.0819 81.1831 53.9197C80.9987 54.7245 80.7678 55.7263 80.4481 56.8037C79.9928 58.3409 79.5056 60.0049 79.0343 61.7686C78.8169 62.582 78.5413 63.3954 78.2727 64.1833C77.9897 65.0173 77.697 65.8809 77.4846 66.7167C77.2412 67.6763 77.0561 68.6295 76.8782 69.5508C76.7256 70.3402 76.5802 71.0864 76.4083 71.788C76.0386 73.3021 75.8364 73.9437 75.6566 74.5108C75.4799 75.0722 75.3259 75.5576 75.0387 76.7861C74.9505 77.1622 74.5735 77.3968 74.1971 77.3086C74.1881 77.3061 74.1791 77.3036 74.1686 77.3007L74.1671 77.3003Z" fill="#1E4A2F"/>
<path d="M66.5693 75.6299C66.2001 75.5276 65.9807 75.147 66.0789 74.7753C66.3947 73.5838 66.5127 73.0594 66.6389 72.5049C66.7796 71.8866 66.9247 71.2469 67.3521 69.6471C67.5402 68.9451 67.7104 68.1799 67.891 67.3709C68.0982 66.4432 68.3121 65.4851 68.5761 64.5037C68.8354 63.5452 69.1094 62.5569 69.3766 61.5991C69.5803 60.8642 69.7856 60.1298 69.9841 59.408C70.2592 58.4039 70.5761 57.4534 70.8832 56.5324C71.1391 55.7668 71.3804 55.0423 71.5726 54.3608C72.0023 52.8343 72.2908 51.5432 72.5001 50.6016C72.7213 49.6115 72.7963 49.2884 72.9153 49.0807C73.5387 47.981 73.8438 47.7781 74.8057 47.247C74.9241 47.1813 75.056 47.1081 75.2032 47.0262C75.5405 46.8355 75.9683 46.9541 76.1578 47.2908C76.3488 47.628 76.2303 48.0554 75.8933 48.2446C75.7419 48.3302 75.6062 48.4057 75.484 48.4735C74.6827 48.9151 74.5926 48.966 74.1473 49.7501C74.0953 49.8908 73.9795 50.4077 73.8682 50.9082C73.6662 51.8115 73.3615 53.1789 72.9218 54.7414C72.7205 55.4559 72.4735 56.1949 72.213 56.977C71.9114 57.8785 71.601 58.8115 71.3362 59.7781C71.1384 60.5033 70.9327 61.2392 70.7266 61.9766C70.4622 62.9304 70.1871 63.9168 69.9295 64.8692C69.6718 65.8217 69.4621 66.7648 69.2591 67.6775C69.0758 68.502 68.9023 69.2792 68.7063 70.0097C68.2859 71.584 68.1431 72.2098 68.0058 72.816C67.8828 73.3585 67.7549 73.919 67.434 75.1349C67.3349 75.5095 66.9518 75.7311 66.5768 75.632C66.5738 75.6312 66.5708 75.6304 66.5693 75.6299ZM74.1359 49.768C74.1359 49.768 74.135 49.771 74.1346 49.7725C74.1346 49.7725 74.1354 49.7695 74.1359 49.768Z" fill="#1E4A2F"/>
<path d="M80.7586 79.5574C80.4058 79.4596 80.1858 79.1046 80.2608 78.7411C80.3952 78.0871 80.5241 77.4591 80.6474 76.857C80.8703 75.7673 81.0772 74.7588 81.2712 73.8259C81.478 72.8351 81.5894 71.9261 81.697 71.0483C81.7928 70.2658 81.8833 69.5254 82.033 68.8514C82.3845 67.2629 82.7779 66.0364 83.0949 65.0503C83.2191 64.6665 83.3356 64.3047 83.4284 63.9816C84.1023 61.662 84.4637 60.6964 85.411 59.1745C86.9034 56.7766 87.6433 56.6733 89.9801 56.6865C90.1448 56.687 90.3175 56.688 90.5034 56.6879C90.8896 56.6884 91.2036 57.0015 91.2048 57.3878C91.206 57.7742 90.8908 58.0889 90.5047 58.0884C90.3173 58.0881 90.1412 58.0878 89.9749 58.0869C87.9169 58.0767 87.7492 58.0754 86.6038 59.9154C85.7376 61.308 85.4201 62.1615 84.7762 64.3731C84.6765 64.7153 84.5575 65.086 84.4304 65.4804C84.1228 66.4383 83.739 67.6303 83.4019 69.1551C83.2667 69.7652 83.1804 70.4728 83.0878 71.2207C82.9824 72.0846 82.8609 73.0651 82.6432 74.1126C82.4496 75.044 82.2435 76.0496 82.021 77.1377C81.8973 77.7413 81.7684 78.3694 81.634 79.0233C81.5564 79.4023 81.1848 79.6465 80.8059 79.5673C80.7909 79.5631 80.774 79.56 80.759 79.5559L80.7586 79.5574Z" fill="#1E4A2F"/>
<path d="M99.387 84.0521C99.387 84.0521 99.378 84.0496 99.3735 84.0484C99.0033 83.9377 98.7914 83.5478 98.9024 83.1765C99.0466 82.6916 99.2464 82.2157 99.4402 81.7559C99.5986 81.3767 99.7643 80.9833 99.8959 80.5902L100.014 80.2402C100.261 79.5061 100.516 78.745 100.792 77.9818C100.973 77.4798 101.177 76.9824 101.376 76.4997C101.521 76.1458 101.671 75.7804 101.809 75.42C101.956 75.036 102.067 74.6321 102.182 74.2054C102.308 73.7367 102.44 73.2514 102.628 72.782C102.827 72.2849 103.076 71.8322 103.317 71.3951C103.523 71.0194 103.717 70.6664 103.866 70.3119C104.038 69.901 104.177 69.4711 104.31 69.0542C104.453 68.6063 104.603 68.1438 104.792 67.7118C105.038 67.1503 105.334 66.6492 105.593 66.2058C105.786 65.8766 105.969 65.5656 106.104 65.2768C106.28 64.9027 106.437 64.5601 106.576 64.2548C106.912 63.5211 107.133 63.0347 107.338 62.7315C107.828 62.0033 108.512 61.513 109.372 61.2734C109.677 61.1884 109.883 61.1083 110.066 61.0379C110.562 60.846 110.909 60.7322 111.756 60.8283C112.142 60.8722 112.418 61.2184 112.374 61.6035C112.33 61.9887 111.982 62.2637 111.598 62.2202C111.052 62.1575 110.941 62.2011 110.575 62.3435C110.372 62.4213 110.122 62.5199 109.751 62.6236C109.215 62.7722 108.807 63.0645 108.505 63.5152C108.364 63.7234 108.129 64.2395 107.855 64.837C107.714 65.1468 107.555 65.495 107.377 65.8752C107.214 66.221 107.016 66.5584 106.805 66.9166C106.553 67.3459 106.293 67.7904 106.079 68.2769C105.918 68.6424 105.787 69.0503 105.647 69.4847C105.504 69.9296 105.356 70.3891 105.16 70.8549C104.984 71.2759 104.762 71.6795 104.547 72.069C104.316 72.4878 104.1 72.8848 103.932 73.3034C103.775 73.6958 103.66 74.121 103.539 74.5703C103.419 75.012 103.296 75.4702 103.122 75.9212C102.978 76.2962 102.825 76.6706 102.677 77.0315C102.484 77.4997 102.285 77.9839 102.113 78.4579C101.843 79.205 101.589 79.9567 101.346 80.6838L101.227 81.0353C101.079 81.477 100.904 81.8935 100.735 82.2974C100.548 82.743 100.371 83.1655 100.248 83.577C100.138 83.9423 99.7567 84.153 99.3889 84.051L99.387 84.0521Z" fill="#267F53"/>
<path d="M93.4318 81.1091C93.4318 81.1091 93.4168 81.105 93.4108 81.1033C93.0419 80.9881 92.8353 80.5965 92.9493 80.226C93.1537 79.5705 93.2603 79.2851 93.3644 79.0088C93.4771 78.7073 93.5938 78.3973 93.8555 77.5525C93.9587 77.221 94.031 76.826 94.1096 76.4086C94.2015 75.914 94.3048 75.3548 94.4793 74.7895C94.6015 74.3954 94.7285 73.9898 94.858 73.5751C95.0097 73.0923 95.1662 72.5979 95.3202 72.0947C95.4734 71.5946 95.7072 71.1362 95.9349 70.6938C96.1468 70.2794 96.3475 69.8877 96.4667 69.4928C96.5953 69.0698 96.6685 68.625 96.7458 68.1538C96.8235 67.6812 96.9028 67.1912 97.0451 66.7187C97.1891 66.2403 97.3394 65.7797 97.4841 65.3337C97.6321 64.8757 97.773 64.4432 97.8957 64.0299C98.0721 63.4344 98.2792 62.8975 98.4634 62.4254C98.6206 62.0216 98.7564 61.6717 98.8392 61.3732C99.2196 60.001 99.7592 58.9588 100.537 58.0941C100.698 57.9158 100.837 57.7574 100.958 57.6182C102.018 56.4148 102.206 56.3313 103.824 56.3472L103.952 56.3486C104.339 56.351 104.65 56.6682 104.646 57.0548C104.643 57.4414 104.327 57.7527 103.94 57.7488L103.813 57.7474C103.247 57.7423 102.905 57.7395 102.752 57.807C102.601 57.8733 102.379 58.1267 102.011 58.5446C101.886 58.6875 101.744 58.8485 101.579 59.0304C100.95 59.7283 100.509 60.5911 100.189 61.7474C100.087 62.1148 99.9331 62.5114 99.7694 62.9328C99.5952 63.3803 99.3984 63.8861 99.2388 64.4265C99.1108 64.8593 98.9678 65.2993 98.8169 65.7678C98.6743 66.2063 98.5275 66.6598 98.3873 67.1248C98.2706 67.5107 98.2017 67.9341 98.1291 68.3823C98.0482 68.8783 97.9646 69.3897 97.808 69.9018C97.6507 70.4169 97.4133 70.8825 97.1816 71.3334C96.9733 71.7407 96.7761 72.1253 96.6592 72.5063C96.5043 73.0125 96.3466 73.5114 96.1941 73.9972C96.0639 74.4085 95.9373 74.8126 95.8174 75.2041C95.6676 75.6923 95.5757 76.1868 95.4865 76.666C95.4012 77.1252 95.3195 77.5596 95.1932 77.9687C94.9207 78.8524 94.7952 79.1826 94.6756 79.5031C94.5747 79.7739 94.4783 80.0282 94.2862 80.6451C94.1728 81.0077 93.7928 81.2124 93.4295 81.1117L93.4318 81.1091Z" fill="#267F53"/>
<path d="M99.5593 95.8247C99.4527 95.7951 99.3517 95.7397 99.2657 95.6593C98.9837 95.3938 98.9727 94.9498 99.2378 94.6697C99.3244 94.579 99.4145 94.4813 99.5108 94.3788C99.9754 93.881 100.553 93.2611 101.274 92.6324C101.9 92.0874 102.632 91.4685 103.448 90.795C103.89 90.43 104.339 90.1005 104.773 89.7832C105.108 89.5369 105.424 89.3049 105.709 89.077C106.301 88.6017 106.489 88.3664 106.689 88.1166C106.909 87.8418 107.137 87.5561 107.749 87.0798C108.054 86.843 108.495 86.8974 108.733 87.204C108.97 87.5088 108.916 87.9492 108.609 88.1871C108.128 88.5606 107.977 88.7497 107.785 88.9906C107.558 89.2763 107.3 89.5989 106.585 90.1711C106.277 90.4184 105.949 90.6584 105.602 90.9127C105.184 91.2184 104.752 91.5362 104.341 91.876C103.534 92.5421 102.812 93.1511 102.195 93.6888C101.528 94.2694 100.978 94.8598 100.536 95.3332C100.437 95.4398 100.343 95.5397 100.256 95.6334C100.07 95.8291 99.8001 95.8947 99.5585 95.8277L99.5593 95.8247Z" fill="#267F53"/>
<path d="M55.0624 60.2463C54.466 59.1443 54.5879 59.0779 53.9915 57.9759C53.3951 56.8739 53.4105 56.8652 52.8156 55.7636C52.2196 54.66 52.1189 54.7145 51.5229 53.6109C50.9269 52.5074 50.8679 52.5395 50.272 51.436C49.6341 50.2562 50.3251 48.6035 51.5664 48.0966C52.9424 47.535 52.9119 47.4587 54.2894 46.8975C55.5124 46.3984 56.9383 47.2136 57.3318 48.4758C57.7041 49.6691 57.61 49.6996 57.9823 50.8929C58.3545 52.0862 58.5259 52.0336 58.8981 53.2269C59.2704 54.4202 59.1782 54.4496 59.5516 55.6448C59.9249 56.84 59.8792 56.8532 60.253 58.0469C60.6011 59.1641 60.1938 60.5047 59.1114 60.9458C58.6284 61.143 58.6188 61.1193 58.1358 61.3164C57.0694 61.7523 55.6119 61.261 55.0635 60.2482L55.0624 60.2463Z" fill="#EDB53E"/>
<path d="M48.7762 63.7198C47.5165 62.8651 47.5934 62.7507 46.3337 61.896C45.0739 61.0412 45.0826 61.0275 43.8228 60.1727C43.1493 59.7163 43.1474 58.4464 43.9232 57.6069C44.7837 56.6779 44.735 56.6321 45.5955 55.703C46.3612 54.8769 47.6901 54.7883 48.2094 55.399C49.1898 56.5559 49.2531 56.5024 50.2335 57.6592C51.214 58.816 51.0665 58.9399 52.0484 60.0971C52.5078 60.6379 52.2674 61.5112 51.5895 62.2421C51.2872 62.5685 51.4187 62.689 51.1165 63.0154C50.4498 63.7349 49.3562 64.1116 48.7762 63.7198Z" fill="#267F53"/>
<path d="M111.851 107.87C113.253 108.912 113.17 109.024 114.572 110.068C115.973 111.11 115.963 111.125 117.364 112.168C118.113 112.726 119.131 112.196 119.734 111.076C120.403 109.834 120.344 109.803 121.013 108.561C121.609 107.457 121.549 106.402 120.694 106.063C119.076 105.422 119.045 105.498 117.427 104.858C115.808 104.219 115.88 104.038 114.261 103.398C113.504 103.099 112.396 103.584 111.869 104.562C111.634 104.998 111.791 105.083 111.557 105.519C111.038 106.482 111.206 107.392 111.851 107.871L111.851 107.87Z" fill="#267F53"/>
<path d="M108.412 113.716C109.129 115.059 109.007 115.125 109.725 116.467C110.442 117.81 110.427 117.818 111.144 119.16C111.527 119.879 112.531 119.805 113.446 119.122C114.463 118.366 114.423 118.312 115.439 117.556C116.342 116.882 116.715 116.043 116.161 115.463C115.115 114.365 115.055 114.421 114.008 113.324C112.961 112.226 113.102 112.094 112.055 110.996C111.565 110.482 110.478 110.463 109.679 111.059C109.322 111.325 109.43 111.468 109.072 111.734C108.285 112.32 108.081 113.098 108.41 113.716L108.412 113.716Z" fill="#EDB53E"/>
</g>
</g>
<defs>
<filter id="filter0_d_3593_21886" x="-9.72748e-05" y="2.47955e-05" width="170.877" height="169.765" filterUnits="userSpaceOnUse" color-interpolation-filters="sRGB">
<feFlood flood-opacity="0" result="BackgroundImageFix"/>
<feColorMatrix in="SourceAlpha" type="matrix" values="0 0 0 0 0 0 0 0 0 0 0 0 0 0 0 0 0 0 127 0" result="hardAlpha"/>
<feOffset dy="1"/>
<feGaussianBlur stdDeviation="7.45"/>
<feComposite in2="hardAlpha" operator="out"/>
<feColorMatrix type="matrix" values="0 0 0 0 0.356087 0 0 0 0 0.338137 0 0 0 0 0.296253 0 0 0 0.2 0"/>
<feBlend mode="normal" in2="BackgroundImageFix" result="effect1_dropShadow_3593_21886"/>
<feBlend mode="normal" in="SourceGraphic" in2="effect1_dropShadow_3593_21886" result="shape"/>
</filter>
<clipPath id="clip0_3593_21886">
<rect width="88.6916" height="68.5344" fill="white" transform="translate(48.7495 38.4706) rotate(15.4966)"/>
</clipPath>
</defs>
</svg>
