<svg width="158" height="163" viewBox="0 0 158 163" fill="none" xmlns="http://www.w3.org/2000/svg">
<g filter="url(#filter0_dd_3593_30398)">
<path d="M67.1894 11.7027C73.4003 5.29834 83.6769 5.29834 89.8878 11.7027C93.7535 15.6888 99.427 17.3547 104.834 16.0913C113.521 14.0615 122.167 19.6175 123.929 28.363C125.026 33.8063 128.898 38.275 134.13 40.1355C142.536 43.1247 146.805 52.4726 143.559 60.7827C141.539 65.9549 142.381 71.8078 145.776 76.2014C151.231 83.2605 149.769 93.4325 142.546 98.6688C138.05 101.928 135.594 107.307 136.075 112.838C136.848 121.726 130.118 129.493 121.211 129.993C115.667 130.304 110.692 133.501 108.106 138.414C103.951 146.309 94.0908 149.204 86.3272 144.809C81.4951 142.074 75.5821 142.074 70.75 144.809C62.9863 149.204 53.126 146.309 48.971 138.414C46.3849 133.501 41.4105 130.304 35.8666 129.993C26.9592 129.493 20.2295 121.726 21.0023 112.838C21.4832 107.307 19.0269 101.928 14.5312 98.6688C7.30817 93.4325 5.84566 83.2605 11.3009 76.2014C14.6963 71.8078 15.5378 65.9549 13.5178 60.7827C10.2723 52.4726 14.5414 43.1247 22.947 40.1355C28.1788 38.275 32.051 33.8063 33.148 28.363C34.9105 19.6175 43.5557 14.0615 52.2431 16.0913C57.6502 17.3547 63.3237 15.6888 67.1894 11.7027Z" fill="#FFFCF5"/>
<path d="M62.1785 40.0311L85.6648 52.2259L85.9336 51.223C87.5643 45.1371 95.902 44.3345 98.7017 49.9932L99.3627 51.3269L105.44 63.6059C106.957 66.6773 105.963 70.3876 103.114 72.2848L91.7119 79.8804L90.4725 80.7049C85.2186 84.2056 78.3992 79.3417 80.0299 73.2558L80.3895 71.9135L53.9662 71.0784C49.1736 70.9263 45.569 66.7235 46.6786 62.5824L51.7128 43.7946C52.8122 39.6916 57.9566 37.8413 62.1785 40.0311Z" fill="#EDB53E"/>
<path d="M93.3908 90.7643L75.1461 89.9504L75.331 89.2602C76.456 85.0618 71.7502 81.7043 68.1254 84.1212L67.271 84.6892L59.4022 89.9333C57.4367 91.2458 56.7511 93.8044 57.797 95.9238L61.9896 104.4L62.4455 105.319C64.3763 109.224 70.1303 108.67 71.2553 104.471L71.5035 103.545L87.5837 112.161C90.4997 113.723 94.1035 112.457 94.8699 109.597L98.3448 96.6283C99.104 93.7951 96.6685 90.9151 93.3898 90.7681L93.3908 90.7643Z" fill="#1E4A2F"/>
<path d="M45.7006 82.2649L46.1749 84.832C46.2341 85.1626 46.391 85.4661 46.6198 85.7155L48.6885 87.9414C49.5749 88.8941 49.16 90.4422 47.9151 90.828L45.0106 91.7213C44.6887 91.819 44.4039 92.0083 44.1835 92.264L42.4892 94.2499C41.5201 95.3839 39.6657 94.887 39.3934 93.4204L38.9191 90.8534C38.8599 90.5228 38.703 90.2192 38.4742 89.9699L36.4055 87.744C35.5191 86.7913 35.934 85.2431 37.1789 84.8574L40.0834 83.964C40.4053 83.8664 40.6901 83.677 40.9105 83.4214L42.6048 81.4354C43.5739 80.3014 45.4283 80.7983 45.7006 82.2649Z" fill="#267F53"/>
<path d="M112.61 78.0741L113.332 81.9828C113.424 82.4854 113.661 82.9495 114.008 83.3245L117.154 86.7096C118.506 88.163 117.875 90.5158 115.978 91.0986L111.561 92.4572C111.073 92.6084 110.635 92.8917 110.305 93.2814L107.725 96.3052C106.253 98.0279 103.425 97.2702 103.012 95.0424L102.29 91.1337C102.198 90.6311 101.961 90.1671 101.614 89.792L98.4682 86.4069C97.1165 84.9535 97.7469 82.6008 99.6442 82.0179L104.061 80.6594C104.549 80.5082 104.987 80.2248 105.317 79.8351L107.897 76.8114C109.369 75.0887 112.197 75.8463 112.61 78.0741Z" fill="#267F53"/>
<path d="M55.1987 83.968C56.7434 84.3819 58.3296 83.4712 58.7416 81.9338C59.1535 80.3964 58.2352 78.8146 56.6905 78.4007C55.1458 77.9868 53.5596 78.8976 53.1477 80.4349C52.7357 81.9723 53.654 83.5541 55.1987 83.968Z" fill="#99B7F5"/>
<path d="M114.619 103.756C116.621 104.292 118.676 103.112 119.21 101.119C119.744 99.1272 118.554 97.0774 116.552 96.541C114.55 96.0046 112.495 97.1849 111.961 99.1771C111.427 101.169 112.617 103.219 114.619 103.756Z" fill="#EDB53E"/>
</g>
<defs>
<filter id="filter0_dd_3593_30398" x="0" y="6.89943" width="157.077" height="156.062" filterUnits="userSpaceOnUse" color-interpolation-filters="sRGB">
<feFlood flood-opacity="0" result="BackgroundImageFix"/>
<feColorMatrix in="SourceAlpha" type="matrix" values="0 0 0 0 0 0 0 0 0 0 0 0 0 0 0 0 0 0 127 0" result="hardAlpha"/>
<feMorphology radius="4" operator="erode" in="SourceAlpha" result="effect1_dropShadow_3593_30398"/>
<feOffset dy="4"/>
<feGaussianBlur stdDeviation="2"/>
<feComposite in2="hardAlpha" operator="out"/>
<feColorMatrix type="matrix" values="0 0 0 0 0.0470588 0 0 0 0 0.0470588 0 0 0 0 0.0509804 0 0 0 0.05 0"/>
<feBlend mode="normal" in2="BackgroundImageFix" result="effect1_dropShadow_3593_30398"/>
<feColorMatrix in="SourceAlpha" type="matrix" values="0 0 0 0 0 0 0 0 0 0 0 0 0 0 0 0 0 0 127 0" result="hardAlpha"/>
<feMorphology radius="8" operator="erode" in="SourceAlpha" result="effect2_dropShadow_3593_30398"/>
<feOffset dy="8.09758"/>
<feGaussianBlur stdDeviation="8"/>
<feComposite in2="hardAlpha" operator="out"/>
<feColorMatrix type="matrix" values="0 0 0 0 0.0470588 0 0 0 0 0.0470588 0 0 0 0 0.0509804 0 0 0 0.1 0"/>
<feBlend mode="normal" in2="effect1_dropShadow_3593_30398" result="effect2_dropShadow_3593_30398"/>
<feBlend mode="normal" in="SourceGraphic" in2="effect2_dropShadow_3593_30398" result="shape"/>
</filter>
</defs>
</svg>
