<svg width="158" height="163" viewBox="0 0 158 163" fill="none" xmlns="http://www.w3.org/2000/svg">
<g filter="url(#filter0_dd_1653_19355)">
<path d="M67.1894 11.7027C73.4003 5.29834 83.6769 5.29834 89.8878 11.7027C93.7535 15.6888 99.427 17.3547 104.834 16.0913C113.521 14.0615 122.167 19.6175 123.929 28.363C125.026 33.8063 128.898 38.275 134.13 40.1355C142.536 43.1247 146.805 52.4726 143.559 60.7827C141.539 65.9549 142.381 71.8078 145.776 76.2014C151.231 83.2605 149.769 93.4325 142.546 98.6688C138.05 101.928 135.594 107.307 136.075 112.838C136.848 121.726 130.118 129.493 121.211 129.993C115.667 130.304 110.692 133.501 108.106 138.414C103.951 146.309 94.0908 149.204 86.3272 144.809C81.4951 142.074 75.5821 142.074 70.75 144.809C62.9863 149.204 53.126 146.309 48.971 138.414C46.3849 133.501 41.4105 130.304 35.8666 129.993C26.9592 129.493 20.2295 121.726 21.0023 112.838C21.4832 107.307 19.0269 101.928 14.5312 98.6688C7.30817 93.4325 5.84566 83.2605 11.3009 76.2014C14.6963 71.8078 15.5378 65.9549 13.5178 60.7827C10.2723 52.4726 14.5414 43.1247 22.947 40.1355C28.1788 38.275 32.051 33.8063 33.148 28.363C34.9105 19.6175 43.5557 14.0615 52.2431 16.0913C57.6502 17.3547 63.3237 15.6888 67.1894 11.7027Z" fill="#FFFCF5"/>
<path d="M55.3482 52.2779C55.3346 50.934 55.4834 50.9321 55.4698 49.5882C55.4561 48.2444 55.475 48.2438 55.4626 46.9011C55.4501 45.556 55.3273 45.5572 55.3148 44.2121C55.3023 42.867 55.2303 42.8679 55.2178 41.5228C55.2038 40.0844 56.6869 38.8631 58.118 39.0041C59.7044 39.1607 59.7136 39.073 61.3012 39.2307C62.711 39.37 63.655 40.8573 63.396 42.2515C63.1514 43.5697 63.0469 43.5514 62.8022 44.8696C62.5576 46.1878 62.7465 46.2237 62.5018 47.5419C62.2572 48.8601 62.1551 48.8418 61.9105 50.1623C61.6659 51.4828 61.616 51.4725 61.3725 52.7918C61.1431 54.0257 60.0855 55.0931 58.8379 54.9693C58.2811 54.9144 58.2839 54.8871 57.727 54.8322C56.4973 54.7114 55.3611 53.5154 55.3483 52.2802L55.3482 52.2779Z" fill="#99B7F5"/>
<path d="M49.2646 56.626C48.0517 55.5329 48.1503 55.4228 46.9374 54.3296C45.7245 53.2365 45.7357 53.2231 44.5229 52.13C43.8743 51.5461 44.0588 50.1967 45.0064 49.4188C46.057 48.5581 46.012 48.5023 47.0626 47.6416C47.9975 46.8764 49.4224 46.9775 49.8844 47.7025C50.7561 49.0756 50.8312 49.028 51.703 50.4011C52.5747 51.7741 52.3998 51.884 53.2731 53.2577C53.6818 53.8998 53.298 54.7922 52.4705 55.4692C52.1014 55.7716 52.2234 55.9189 51.8544 56.2213C51.0405 56.8878 49.8232 57.1274 49.2646 56.626Z" fill="#BBB8B0"/>
<path d="M116.74 60.6091C118.716 63.8637 118.105 68.7777 114.812 70.6042C114.812 70.6042 81.5538 94.937 82.052 95.0284C82.052 95.0284 75.2201 99.6748 72.7488 101.695C70.0272 103.921 66.302 104.031 63.7257 101.791C63.3792 101.491 63.0698 101.163 62.8104 100.822C62.8104 100.822 56.618 90.4804 56.2071 89.9476C56.2071 89.9476 47.4366 77.1594 46.9353 74.9836C46.872 74.7088 46.795 74.4387 46.6723 74.1922C45.0792 71.0332 46.0793 67.2456 48.8828 64.7001C48.8828 64.7001 52.1476 62.7632 53.2147 61.6757C53.7246 61.1577 54.2911 60.6988 54.9322 60.4148C57.8742 59.1132 61.5423 59.781 62.6207 63.0145C62.6207 63.0145 69.3597 73.1006 70.1052 75.1051C70.2635 75.5301 70.4774 75.9298 70.7799 76.2432C71.753 77.2476 73.1144 77.5895 74.5259 76.2887C74.5259 76.2887 104.228 53.4409 104.638 53.8364C107.68 51.5685 111.691 52.9926 113.719 55.6204C113.719 55.6204 116.689 61.0849 116.742 60.6023L116.74 60.6091Z" fill="#99B7F5"/>
<path d="M79.6361 86.1205C80.6547 87.7985 80.3397 90.332 78.6418 91.2738C78.6418 91.2738 61.4945 103.819 61.7514 103.866C61.7514 103.866 58.229 106.262 56.9548 107.304C55.5517 108.452 53.631 108.508 52.3027 107.353C52.1241 107.199 51.9645 107.029 51.8308 106.853C51.8308 106.853 48.6381 101.522 48.4263 101.247C48.4263 101.247 43.9044 94.6535 43.6459 93.5317C43.6132 93.39 43.5735 93.2508 43.5103 93.1237C42.6889 91.4949 43.2046 89.5421 44.65 88.2297C44.65 88.2297 46.3332 87.2311 46.8834 86.6704C47.1463 86.4033 47.4384 86.1667 47.769 86.0203C49.2858 85.3492 51.177 85.6935 51.733 87.3606C51.733 87.3606 55.2075 92.5608 55.5919 93.5943C55.6735 93.8135 55.7837 94.0195 55.9397 94.1811C56.4414 94.699 57.1433 94.8753 57.8711 94.2046C57.8711 94.2046 73.1851 82.4247 73.3962 82.6286C74.9646 81.4593 77.0325 82.1935 78.0784 83.5484C78.0784 83.5484 79.6093 86.3658 79.6367 86.117L79.6361 86.1205Z" fill="#BBB8B0"/>
<path d="M56.9555 107.305C55.5523 108.452 53.6316 108.509 52.3033 107.354C52.1247 107.199 51.9651 107.03 51.8314 106.854C51.8314 106.854 48.6387 101.522 48.4269 101.248C48.4269 101.248 43.905 94.6542 43.6465 93.5324C43.6139 93.3908 43.5742 93.2515 43.5109 93.1244C42.6895 91.4957 43.2052 89.5429 44.6506 88.2305C44.6506 88.2305 46.3339 87.2318 46.8841 86.6712C47.1469 86.4041 47.439 86.1675 47.7696 86.021C49.2864 85.35 51.1776 85.6943 51.7336 87.3614C51.7336 87.3614 55.2081 92.5616 55.5925 93.5951C55.6741 93.8142 55.7844 94.0203 55.9404 94.1819C56.442 94.6997 57.144 94.876 57.8717 94.2053C57.8717 94.2053 73.1857 82.4254 73.3968 82.6293" stroke="#858C95" stroke-width="1.80257" stroke-linecap="round"/>
<path d="M100.859 93.9327C103.119 94.8517 103.046 95.0308 105.306 95.952C107.565 96.871 107.556 96.8947 109.816 97.8137C111.023 98.3061 112.214 97.2333 112.637 95.5084C113.107 93.5952 113.016 93.574 113.486 91.6608C113.905 89.9597 113.455 88.5545 112.181 88.3958C109.769 88.0957 109.754 88.2085 107.343 87.9107C104.931 87.6128 104.964 87.3439 102.552 87.0439C101.424 86.905 100.096 87.9494 99.7265 89.4557C99.5606 90.1266 99.8032 90.1873 99.6394 90.8582C99.2746 92.3407 99.8201 93.5128 100.859 93.9349L100.859 93.9327Z" fill="#BBB8B0"/>
<path d="M90.2509 99.4867C91.5055 101.834 91.2924 101.951 92.547 104.298C93.8016 106.646 93.7748 106.661 95.0294 109.009C95.6989 110.265 97.4564 110.137 99.057 108.942C100.835 107.619 100.764 107.526 102.542 106.202C104.121 105.024 104.774 103.556 103.806 102.542C101.975 100.621 101.871 100.72 100.04 98.7997C98.2087 96.8796 98.4538 96.6481 96.6226 94.728C95.7662 93.8295 93.8642 93.7965 92.467 94.8385C91.8432 95.3039 92.0312 95.5538 91.4047 96.0185C90.0291 97.0439 89.6715 98.4051 90.2483 99.4859L90.2509 99.4867Z" fill="#99B7F5"/>
</g>
<defs>
<filter id="filter0_dd_1653_19355" x="0" y="6.89941" width="157.077" height="156.062" filterUnits="userSpaceOnUse" color-interpolation-filters="sRGB">
<feFlood flood-opacity="0" result="BackgroundImageFix"/>
<feColorMatrix in="SourceAlpha" type="matrix" values="0 0 0 0 0 0 0 0 0 0 0 0 0 0 0 0 0 0 127 0" result="hardAlpha"/>
<feMorphology radius="4" operator="erode" in="SourceAlpha" result="effect1_dropShadow_1653_19355"/>
<feOffset dy="4"/>
<feGaussianBlur stdDeviation="2"/>
<feComposite in2="hardAlpha" operator="out"/>
<feColorMatrix type="matrix" values="0 0 0 0 0.0470588 0 0 0 0 0.0470588 0 0 0 0 0.0509804 0 0 0 0.05 0"/>
<feBlend mode="normal" in2="BackgroundImageFix" result="effect1_dropShadow_1653_19355"/>
<feColorMatrix in="SourceAlpha" type="matrix" values="0 0 0 0 0 0 0 0 0 0 0 0 0 0 0 0 0 0 127 0" result="hardAlpha"/>
<feMorphology radius="8" operator="erode" in="SourceAlpha" result="effect2_dropShadow_1653_19355"/>
<feOffset dy="8.09758"/>
<feGaussianBlur stdDeviation="8"/>
<feComposite in2="hardAlpha" operator="out"/>
<feColorMatrix type="matrix" values="0 0 0 0 0.0470588 0 0 0 0 0.0470588 0 0 0 0 0.0509804 0 0 0 0.1 0"/>
<feBlend mode="normal" in2="effect1_dropShadow_1653_19355" result="effect2_dropShadow_1653_19355"/>
<feBlend mode="normal" in="SourceGraphic" in2="effect2_dropShadow_1653_19355" result="shape"/>
</filter>
</defs>
</svg>
