<svg width="158" height="163" viewBox="0 0 158 163" fill="none" xmlns="http://www.w3.org/2000/svg">
<g filter="url(#filter0_dd_3593_30177)">
<path d="M67.1894 11.7027C73.4003 5.29834 83.6769 5.29834 89.8878 11.7027C93.7535 15.6888 99.427 17.3547 104.834 16.0913C113.521 14.0615 122.167 19.6175 123.929 28.363C125.026 33.8063 128.898 38.275 134.13 40.1355C142.536 43.1247 146.805 52.4726 143.559 60.7827C141.539 65.9549 142.381 71.8078 145.776 76.2014C151.231 83.2605 149.769 93.4325 142.546 98.6688C138.05 101.928 135.594 107.307 136.075 112.838C136.848 121.726 130.118 129.493 121.211 129.993C115.667 130.304 110.692 133.501 108.106 138.414C103.951 146.309 94.0908 149.204 86.3272 144.809C81.4951 142.074 75.5821 142.074 70.75 144.809C62.9863 149.204 53.126 146.309 48.971 138.414C46.3849 133.501 41.4105 130.304 35.8666 129.993C26.9592 129.493 20.2295 121.726 21.0023 112.838C21.4832 107.307 19.0269 101.928 14.5312 98.6688C7.30817 93.4325 5.84566 83.2605 11.3009 76.2014C14.6963 71.8078 15.5378 65.9549 13.5178 60.7827C10.2723 52.4726 14.5414 43.1247 22.947 40.1355C28.1788 38.275 32.051 33.8063 33.148 28.363C34.9105 19.6175 43.5557 14.0615 52.2431 16.0913C57.6502 17.3547 63.3237 15.6888 67.1894 11.7027Z" fill="#FFFCF5"/>
<path fill-rule="evenodd" clip-rule="evenodd" d="M68.5907 47.4418C69.1555 46.4623 70.312 45.8936 70.9731 45.5132C71.6311 45.1346 73.1595 44.7879 74.0715 44.7846C75.795 44.7784 78.2404 45.9017 79.6281 46.2735C81.02 46.6465 83.6254 46.8993 85.2956 47.3468C86.9621 47.7933 89.3515 48.8789 90.7405 49.2511C92.1294 49.6233 94.7415 49.8778 96.408 50.3243C98.0758 50.7712 100.464 51.8564 101.853 52.2288C103.269 52.6082 106.107 52.4609 107.627 53.3459C108.477 53.8409 109.582 55.0372 109.993 55.7457C110.374 56.4036 110.464 58.0782 110.463 58.9893C110.462 60.7629 109.315 63.2754 108.932 64.7028C108.549 66.1342 108.279 68.8101 107.818 70.5278C107.359 72.2418 106.253 74.701 105.871 76.1296C105.488 77.5581 105.216 80.2406 104.756 81.9546C104.297 83.6687 103.192 86.1278 102.809 87.5564C102.426 88.9849 102.154 91.6674 101.695 93.3814C101.235 95.0955 100.13 97.5546 99.747 98.9832C99.357 100.439 99.4934 103.345 98.59 104.912C98.0993 105.763 96.6885 106.806 95.9782 107.214C95.3192 107.594 93.8489 107.732 92.9355 107.735C91.212 107.741 88.767 106.618 87.3793 106.246C85.9874 105.873 83.3816 105.621 81.7114 105.173C80.0449 104.727 77.655 103.641 76.2665 103.269C74.878 102.897 72.2655 102.642 70.599 102.195C68.9325 101.749 66.5426 100.663 65.1541 100.291C63.7385 99.9119 60.9 100.059 59.3805 99.1739C58.5305 98.679 57.4806 97.2749 57.0701 96.5664C56.689 95.9084 56.5434 94.4416 56.5436 93.5305C56.5445 91.7569 57.6921 89.2444 58.0745 87.8171C58.4581 86.3856 58.7285 83.7098 59.1887 81.992C59.648 80.278 60.7537 77.8184 61.1364 76.3903C61.519 74.9621 61.7913 72.2792 62.2505 70.5652C62.7098 68.8512 63.8155 66.3916 64.1982 64.9635C64.5808 63.5353 64.8531 60.8524 65.3123 59.1384C65.7719 57.4231 66.877 54.966 67.26 53.5366C67.663 52.0325 67.6571 49.0608 68.5907 47.4418Z" fill="#1E4A2F"/>
<path fill-rule="evenodd" clip-rule="evenodd" d="M58.4876 51.3537C59.3393 50.2661 60.3238 49.6977 61.0289 49.2906C61.7307 48.8854 63.3604 48.5137 64.3327 48.5096C66.1701 48.5015 68.7763 49.7002 70.2555 50.0966C71.7391 50.4941 74.5165 50.7622 76.2968 51.2393C78.0731 51.7152 80.6197 52.8736 82.1001 53.2703C83.5806 53.667 86.3652 53.9371 88.1415 54.413C89.9191 54.8893 92.4639 56.0473 93.9452 56.4442C95.4546 56.8486 98.48 56.689 100.099 57.6338C101.005 58.1621 102.183 59.4398 102.62 60.1968C103.026 60.8997 103.12 62.6894 103.119 63.6631C103.117 65.5587 101.892 68.2449 101.483 69.7707C101.073 71.3009 100.782 74.161 100.29 75.9973C99.7994 77.8295 98.6189 80.4587 98.2097 81.9858C97.8005 83.5129 97.5083 86.3801 97.0174 88.2124C96.5264 90.0446 95.3458 92.6738 94.9367 94.2009C94.5275 95.728 94.2353 98.5952 93.7443 100.427C93.2534 102.26 92.0728 104.889 91.6636 106.416C91.2467 107.972 91.3899 111.078 90.4255 112.753C89.9018 113.663 88.3968 114.779 87.6393 115.216C86.9365 115.622 85.3688 115.771 84.3951 115.775C82.5576 115.783 79.9519 114.585 78.4727 114.188C76.9892 113.791 74.2113 113.523 72.431 113.046C70.6547 112.57 68.1077 111.411 66.6276 111.014C65.1476 110.618 62.3626 110.348 60.5863 109.872C58.81 109.396 56.263 108.237 54.783 107.841C53.2741 107.436 50.2478 107.596 48.6286 106.651C47.7228 106.123 46.6045 104.623 46.1675 103.866C45.7617 103.163 45.6076 101.595 45.6086 100.622C45.6109 98.726 46.8362 96.0399 47.2451 94.5141C47.6551 92.9839 47.9454 90.1238 48.4374 88.2875C48.9284 86.4552 50.109 83.8256 50.5181 82.299C50.9272 80.7723 51.2195 77.9047 51.7104 76.0724C52.2014 74.2401 53.3821 71.6105 53.7911 70.0839C54.2002 68.5572 54.4925 65.6896 54.9835 63.8573C55.4748 62.0237 56.6547 59.3968 57.0642 57.8688C57.495 56.2608 57.491 53.0848 58.4876 51.3537Z" fill="#EDB53E"/>
<path d="M71.5719 112.696C69.7956 112.22 67.2486 111.061 65.7686 110.664C64.2886 110.268 61.5036 109.998 59.7273 109.522C57.951 109.046 55.404 107.887 53.9239 107.491C52.4151 107.086 49.3888 107.246 47.7695 106.301C46.8637 105.773 45.7455 104.273 45.3084 103.516C44.9026 102.813 44.7485 101.245 44.7495 100.272C44.7518 98.3761 45.9772 95.6899 46.386 94.1641C46.7961 92.6339 47.0863 89.7738 47.5784 87.9375C48.0693 86.1053 49.25 83.4757 49.6591 81.949C50.0681 80.4223 50.3604 77.5547 50.8514 75.7224C51.3423 73.8902 52.523 71.2606 52.9321 69.7339C53.3412 68.2072 53.6335 65.3396 54.1244 63.5073C54.6157 61.6737 55.7957 59.0468 56.2051 57.5188" stroke="#267F53" stroke-width="2.29927" stroke-linecap="round"/>
<path fill-rule="evenodd" clip-rule="evenodd" d="M61.4911 62.7629C61.6774 62.4803 61.9423 62.5025 62.0544 62.4378C62.1664 62.3731 62.4901 62.0889 62.6176 62.1126C63.717 62.3182 66.8926 63.4404 67.9728 63.7299C69.0247 64.0117 72.2262 64.6872 73.278 64.9691C73.7888 65.1059 75.2022 65.9607 75.7131 66.0976C76.2239 66.2345 77.8753 66.2009 78.3861 66.3378C78.897 66.4747 80.3932 67.0203 80.904 67.1572C81.4148 67.2941 82.9835 67.5696 83.4943 67.7065C84.547 67.9886 87.6658 68.9904 88.7186 69.2725C89.797 69.5615 93.1015 70.1922 94.1547 70.563C94.2769 70.6062 94.6171 71.0495 94.6818 71.1616C94.7465 71.2737 94.7974 71.5597 94.8051 71.6894C94.8159 71.8727 94.6146 72.4001 94.567 72.5778C94.5194 72.7554 94.4301 73.3128 94.329 73.4661C94.2575 73.5746 94.1898 73.8862 93.9082 74.0488C93.7961 74.1135 93.33 74.1401 93.2026 74.1165C92.052 73.901 88.8853 72.097 87.7544 71.794C86.7532 71.5257 83.5433 71.5283 82.5421 71.26C82.0313 71.1231 80.5199 70.6339 80.0091 70.497C79.4983 70.3601 77.9448 70.0281 77.434 69.8913C76.9232 69.7544 75.4671 69.0586 74.9563 68.9217C74.4455 68.7849 72.8367 68.6594 72.3259 68.5226C71.3104 68.2505 68.4353 66.8136 67.4199 66.5415C66.3032 66.2423 63.0174 65.8635 61.9268 65.4794C61.8046 65.4362 61.4049 65.215 61.3402 65.1029C61.2755 64.9908 61.0227 64.6693 61.0151 64.5397C61.0042 64.3563 61.2055 63.829 61.2531 63.6513C61.3007 63.4736 61.3901 62.9163 61.4911 62.7629Z" fill="#267F53"/>
<path fill-rule="evenodd" clip-rule="evenodd" d="M59.2306 71.2042C59.1948 71.3289 59.6817 70.9437 59.7938 70.879C59.9058 70.8143 60.2295 70.5302 60.357 70.5539C61.4536 70.7591 64.6293 71.8438 65.7069 72.1326C66.7614 72.4151 69.9629 73.1278 71.0174 73.4103C71.5282 73.5472 73.0381 74.0422 73.5489 74.1791C74.0597 74.3159 75.6147 74.6422 76.1256 74.779C76.6364 74.9159 78.0479 75.7778 78.5587 75.9147C79.0695 76.0516 80.7229 76.0109 81.2337 76.1478C82.2793 76.4279 85.3464 77.5197 86.392 77.7999C87.4785 78.091 90.8331 78.6304 91.8941 79.0042C92.0163 79.0474 92.1546 79.4553 92.2193 79.5674C92.284 79.6795 92.5368 80.001 92.5445 80.1306C92.5553 80.314 92.354 80.8413 92.3064 81.019C92.2588 81.1967 92.1695 81.754 92.0684 81.9074C91.997 82.0158 91.6173 82.1678 91.5052 82.2325C91.3931 82.2972 91.0694 82.5814 90.942 82.5577C89.8118 82.3463 86.6426 80.8234 85.5321 80.5259C84.5105 80.2521 81.3032 79.975 80.2815 79.7012C79.7707 79.5644 78.2955 78.9401 77.7847 78.8032C77.2739 78.6664 75.6842 78.4694 75.1734 78.3325C74.6626 78.1956 73.3166 77.089 72.8058 76.9521C72.295 76.8152 70.5761 77.1007 70.0653 76.9638C69.0205 76.6839 65.9576 75.5837 64.9128 75.3038C63.8255 75.0124 60.4667 74.4814 59.4048 74.1073C59.2826 74.0641 59.1444 73.6562 59.0796 73.5441C59.0149 73.4321 58.7621 73.1106 58.7545 72.9809C58.7436 72.7976 58.9449 72.2702 58.9925 72.0926C59.0401 71.9149 59.1295 71.3575 59.2306 71.2042Z" fill="#267F53"/>
<path fill-rule="evenodd" clip-rule="evenodd" d="M56.9625 79.6336C56.9277 79.7573 57.2061 79.3052 57.2896 79.2337C57.3731 79.1622 57.7143 78.9017 57.8016 78.9147C58.5531 79.0283 60.6911 79.8328 61.4228 80.0289C62.1388 80.2207 64.324 80.6623 65.0399 80.8542C65.3868 80.9471 66.4049 81.3096 66.7517 81.4025C67.0985 81.4954 68.1615 81.6906 68.5083 81.7835C68.8551 81.8765 69.8287 82.4049 70.1756 82.4978C70.5224 82.5907 71.6298 82.6199 71.9766 82.7129C72.6866 82.9031 74.7481 83.723 75.458 83.9132C76.1957 84.1109 78.5015 84.3725 79.2149 84.6524C79.2971 84.6848 79.5218 84.8589 79.5584 84.9626C79.5949 85.0663 79.587 85.5693 79.5822 85.6945C79.5755 85.8715 79.3935 86.3989 79.3463 86.575C79.2991 86.7511 79.1931 87.2988 79.1103 87.4555C79.0519 87.5663 78.8219 87.9511 78.7385 88.0226C78.655 88.0941 78.3586 88.1874 78.2712 88.1744C77.4967 88.0574 75.2595 87.1432 74.5055 86.9412C73.8118 86.7553 71.7266 86.4207 71.0329 86.2349C70.6861 86.1419 69.6456 85.8631 69.2987 85.7702C68.9519 85.6773 67.9114 85.3985 67.5646 85.3055C67.2177 85.2126 66.1772 84.9338 65.8304 84.8409C65.4836 84.7479 64.4431 84.4691 64.0962 84.3762C63.3869 84.1861 61.329 83.3577 60.6196 83.1677C59.8813 82.9698 57.5719 82.7167 56.8579 82.4367C56.7758 82.4043 56.5196 82.163 56.483 82.0593C56.4465 81.9556 56.4859 81.5198 56.4907 81.3946C56.4974 81.2175 56.6794 80.6902 56.7266 80.5141C56.7738 80.338 56.8798 79.7902 56.9625 79.6336Z" fill="#267F53"/>
<path d="M56.2665 39.4183L56.6551 41.5211C56.7036 41.7919 56.8321 42.0406 57.0195 42.2448L58.7141 44.0681C59.4402 44.8486 59.1003 46.1167 58.0805 46.4327L55.7013 47.1645C55.4377 47.2445 55.2044 47.3996 55.0238 47.609L53.636 49.2358C52.8421 50.1647 51.3231 49.7577 51.1001 48.5563L50.7115 46.4535C50.663 46.1827 50.5345 45.934 50.347 45.7298L48.6525 43.9065C47.9264 43.126 48.2663 41.8579 49.2861 41.5419L51.6653 40.8101C51.9289 40.7301 52.1622 40.575 52.3428 40.3656L53.7306 38.7388C54.5245 37.8099 56.0435 38.2169 56.2665 39.4183Z" fill="#267F53"/>
<path d="M108.778 90.046L109.37 93.2478C109.445 93.6595 109.639 94.0396 109.923 94.3468L112.5 97.1197C113.607 98.3103 113.091 100.238 111.537 100.715L107.919 101.828C107.519 101.952 107.16 102.184 106.89 102.503L104.776 104.98C103.571 106.391 101.255 105.77 100.916 103.945L100.324 100.744C100.249 100.332 100.055 99.9519 99.771 99.6447L97.1939 96.8718C96.0866 95.6812 96.603 93.754 98.1572 93.2765L101.776 92.1637C102.175 92.0398 102.534 91.8077 102.804 91.4885L104.918 89.0116C106.123 87.6004 108.439 88.2211 108.778 90.046Z" fill="#267F53"/>
<path d="M65.0848 43.8396C66.3501 44.1787 67.6494 43.4326 67.9868 42.1733C68.3243 40.914 67.5721 39.6182 66.3067 39.2792C65.0414 38.9401 63.7421 39.6862 63.4046 40.9455C63.0672 42.2048 63.8194 43.5006 65.0848 43.8396Z" fill="#99B7F5"/>
<path d="M107.326 112.352C108.966 112.791 110.649 111.824 111.087 110.192C111.524 108.56 110.549 106.881 108.909 106.442C107.27 106.002 105.586 106.969 105.149 108.601C104.711 110.233 105.686 111.912 107.326 112.352Z" fill="#EDB53E"/>
</g>
<defs>
<filter id="filter0_dd_3593_30177" x="0" y="6.89941" width="157.077" height="156.062" filterUnits="userSpaceOnUse" color-interpolation-filters="sRGB">
<feFlood flood-opacity="0" result="BackgroundImageFix"/>
<feColorMatrix in="SourceAlpha" type="matrix" values="0 0 0 0 0 0 0 0 0 0 0 0 0 0 0 0 0 0 127 0" result="hardAlpha"/>
<feMorphology radius="4" operator="erode" in="SourceAlpha" result="effect1_dropShadow_3593_30177"/>
<feOffset dy="4"/>
<feGaussianBlur stdDeviation="2"/>
<feComposite in2="hardAlpha" operator="out"/>
<feColorMatrix type="matrix" values="0 0 0 0 0.0470588 0 0 0 0 0.0470588 0 0 0 0 0.0509804 0 0 0 0.05 0"/>
<feBlend mode="normal" in2="BackgroundImageFix" result="effect1_dropShadow_3593_30177"/>
<feColorMatrix in="SourceAlpha" type="matrix" values="0 0 0 0 0 0 0 0 0 0 0 0 0 0 0 0 0 0 127 0" result="hardAlpha"/>
<feMorphology radius="8" operator="erode" in="SourceAlpha" result="effect2_dropShadow_3593_30177"/>
<feOffset dy="8.09758"/>
<feGaussianBlur stdDeviation="8"/>
<feComposite in2="hardAlpha" operator="out"/>
<feColorMatrix type="matrix" values="0 0 0 0 0.0470588 0 0 0 0 0.0470588 0 0 0 0 0.0509804 0 0 0 0.1 0"/>
<feBlend mode="normal" in2="effect1_dropShadow_3593_30177" result="effect2_dropShadow_3593_30177"/>
<feBlend mode="normal" in="SourceGraphic" in2="effect2_dropShadow_3593_30177" result="shape"/>
</filter>
</defs>
</svg>
