<svg width="18" height="18" viewBox="0 0 18 18" fill="none" xmlns="http://www.w3.org/2000/svg">
<path fill-rule="evenodd" clip-rule="evenodd" d="M8.41486 0.472937C8.79815 0.369698 9.20193 0.369698 9.58522 0.472937C10.0239 0.591105 10.4022 0.884238 10.8336 1.21861C10.864 1.24221 10.8948 1.26602 10.9258 1.29L11.5318 1.75819C11.7421 1.92059 11.7845 1.95064 11.825 1.97267C11.8716 1.99805 11.9207 2.01842 11.9716 2.03342C12.0158 2.04644 12.0671 2.05521 12.3305 2.08902L13.0902 2.18651C13.1291 2.1915 13.1676 2.19639 13.2058 2.20123C13.7473 2.26986 14.2221 2.33002 14.6158 2.55668C14.9599 2.75471 15.2454 3.04023 15.4434 3.38425C15.6701 3.77803 15.7302 4.25274 15.7989 4.79423C15.8037 4.83246 15.8086 4.87103 15.8136 4.90992L15.9111 5.66954C15.9449 5.93303 15.9536 5.98429 15.9667 6.02846C15.9817 6.07936 16.002 6.12852 16.0274 6.17512C16.0494 6.21557 16.0795 6.25802 16.2419 6.46824L16.7101 7.0743C16.7341 7.10533 16.7579 7.13605 16.7815 7.16651C17.1158 7.59793 17.409 7.97614 17.5271 8.41486C17.6304 8.79815 17.6304 9.20193 17.5271 9.58522C17.409 10.0239 17.1158 10.4022 16.7815 10.8336C16.7579 10.864 16.7341 10.8948 16.7101 10.9258L16.2419 11.5318C16.0795 11.7421 16.0494 11.7845 16.0274 11.825C16.002 11.8716 15.9817 11.9207 15.9667 11.9716C15.9536 12.0158 15.9449 12.0671 15.9111 12.3305L15.8136 13.0902C15.8086 13.1291 15.8037 13.1676 15.7989 13.2059C15.7302 13.7473 15.6701 14.2221 15.4434 14.6158C15.2454 14.9599 14.9599 15.2454 14.6158 15.4434C14.2221 15.6701 13.7473 15.7302 13.2059 15.7989C13.1676 15.8037 13.1291 15.8086 13.0902 15.8136L12.3305 15.9111C12.0671 15.9449 12.0158 15.9536 11.9716 15.9667C11.9207 15.9817 11.8716 16.002 11.825 16.0274C11.7845 16.0494 11.7421 16.0795 11.5318 16.2419L10.9258 16.7101C10.8948 16.7341 10.864 16.7579 10.8336 16.7815C10.4021 17.1159 10.0239 17.409 9.58522 17.5271C9.20193 17.6304 8.79815 17.6304 8.41486 17.5271C7.97614 17.409 7.59793 17.1158 7.16651 16.7815C7.13605 16.7579 7.10533 16.7341 7.0743 16.7101L6.46824 16.2419C6.25802 16.0795 6.21557 16.0494 6.17512 16.0274C6.12852 16.002 6.07936 15.9817 6.02846 15.9667C5.98429 15.9536 5.93303 15.9449 5.66954 15.9111L4.90992 15.8136C4.87103 15.8086 4.83246 15.8037 4.79423 15.7989C4.25274 15.7302 3.77803 15.6701 3.38425 15.4434C3.04023 15.2454 2.75471 14.9599 2.55668 14.6158C2.33002 14.2221 2.26986 13.7473 2.20123 13.2058C2.19639 13.1676 2.1915 13.1291 2.18651 13.0902L2.08902 12.3305C2.05521 12.0671 2.04644 12.0158 2.03342 11.9716C2.01842 11.9207 1.99805 11.8716 1.97267 11.825C1.95064 11.7845 1.92059 11.7421 1.75819 11.5318L1.29 10.9258C1.26602 10.8948 1.24221 10.864 1.2186 10.8336C0.884236 10.4022 0.591105 10.0239 0.472937 9.58522C0.369698 9.20193 0.369698 8.79815 0.472937 8.41486C0.591105 7.97614 0.884236 7.59793 1.2186 7.16651C1.24221 7.13605 1.26602 7.10533 1.29 7.0743L1.75819 6.46824C1.92059 6.25802 1.95064 6.21557 1.97267 6.17512C1.99805 6.12852 2.01842 6.07936 2.03342 6.02846C2.04644 5.98428 2.05521 5.93302 2.08902 5.66954L2.18651 4.90992C2.1915 4.87103 2.19639 4.83247 2.20123 4.79423C2.26986 4.25274 2.33002 3.77803 2.55668 3.38425C2.75471 3.04023 3.04023 2.75471 3.38425 2.55668C3.77803 2.33002 4.25274 2.26986 4.79423 2.20123C4.83247 2.19639 4.87103 2.1915 4.90992 2.18651L5.66954 2.08902C5.93302 2.05521 5.98428 2.04644 6.02846 2.03342C6.07936 2.01842 6.12852 1.99805 6.17512 1.97267C6.21557 1.95064 6.25802 1.92059 6.46824 1.75819L7.0743 1.29C7.10533 1.26602 7.13605 1.24221 7.16651 1.2186C7.59793 0.884235 7.97614 0.591105 8.41486 0.472937ZM10.7197 6.96971C11.0126 6.67682 11.4875 6.67682 11.7804 6.96971C12.0733 7.26261 12.0733 7.73748 11.7804 8.03037L8.82974 10.981C8.52373 11.287 8.03325 11.3046 7.70616 11.0212L6.25893 9.76728C5.94587 9.49604 5.91197 9.02238 6.1832 8.70932C6.45444 8.39627 6.9281 8.36236 7.24116 8.6336L8.21344 9.47599L10.7197 6.96971Z" fill="#267F53"/>
</svg>
