<svg width="18" height="18" viewBox="0 0 18 18" fill="none" xmlns="http://www.w3.org/2000/svg">
<path d="M9.00014 0.875C10.2341 0.875535 11.4518 1.15698 12.5607 1.69824C13.6697 2.23967 14.641 3.02724 15.4005 4C16.1601 4.97283 16.6882 6.10616 16.9445 7.31348C17.2006 8.52069 17.1789 9.77042 16.88 10.9678C16.5811 12.1652 16.0134 13.2793 15.2199 14.2246C14.4264 15.1698 13.4274 15.9211 12.2999 16.4229C11.1724 16.9246 9.94538 17.1633 8.71205 17.1201C7.47861 17.0768 6.27047 16.7534 5.1808 16.1738L2.52065 17.0605C2.30054 17.1339 2.06383 17.1441 1.83803 17.0908C1.61225 17.0374 1.40541 16.9219 1.24135 16.7578C1.07739 16.5937 0.962602 16.3869 0.909319 16.1611C0.856059 15.9352 0.86617 15.6987 0.939593 15.4785L1.82631 12.8184C1.16715 11.5803 0.839953 10.1922 0.876116 8.79004C0.912362 7.38791 1.31118 6.01881 2.03334 4.81641C2.75552 3.61412 3.77654 2.61937 4.99721 1.92871C6.21812 1.23798 7.59738 0.874694 9.00014 0.875ZM9.00014 4.83301C8.5399 4.83301 8.16713 5.20675 8.16713 5.66699V8.16699H5.66713C5.20689 8.16699 4.83315 8.53976 4.83315 9C4.83315 9.46024 5.20689 9.83301 5.66713 9.83301H8.16713V12.333C8.16713 12.7932 8.5399 13.167 9.00014 13.167C9.46032 13.1669 9.83315 12.7932 9.83315 12.333V9.83301H12.3331C12.7933 9.83294 13.1671 9.46019 13.1671 9C13.1671 8.53981 12.7933 8.16706 12.3331 8.16699H9.83315V5.66699C9.83315 5.2068 9.46032 4.83308 9.00014 4.83301Z" fill="#343330"/>
</svg>
