<svg width="158" height="46" viewBox="0 0 158 46" fill="none" xmlns="http://www.w3.org/2000/svg">
<g clip-path="url(#clip0_3_11133)">
<circle cx="61.4068" cy="21.8502" r="18.4" fill="#EDB53E"/>
<path d="M52.7817 23.958C54.0595 28.6858 58.9151 39.8663 68.3067 24.9163L70.0317 27.2163" stroke="#000027" stroke-width="1.725" stroke-linecap="square"/>
<path d="M64.8566 15.9082C64.6649 17.9526 64.8949 20.9682 67.3482 16.6749" stroke="#000027" stroke-width="1.725" stroke-linecap="square"/>
<path d="M53.409 15.333C53.2174 17.3775 53.4474 20.393 55.9007 16.0997" stroke="#000027" stroke-width="1.725" stroke-linecap="square"/>
<path d="M61.0234 14.9502C61.3428 16.6752 61.1 20.2785 57.5734 20.8919C54.0467 21.5052 58.4039 22.553 61.0234 23.0002" stroke="#000027" stroke-width="1.725" stroke-linecap="square"/>
<path d="M43.1467 14.1357C43.639 14.6033 44.1386 15.0438 44.6874 15.4507C45.5417 16.0842 46.0181 16.3748 47.1433 16.3366C48.8337 16.2793 49.7719 15.5076 50.7286 14.2402C52.0536 12.485 52.5005 10.5212 52.976 8.41868C53.2349 7.27355 53.4055 6.18365 53.393 5.0182C53.3813 3.92851 52.458 2.9982 51.2499 3.43351C50.4087 3.73662 49.8669 4.9184 49.7034 5.695C49.5225 6.55443 49.4452 7.95892 49.854 8.75983C50.4058 9.84089 51.9322 10.3005 53.1034 10.4216C54.6402 10.6893 58.1008 10.6042 59.6485 8.12155C60.0574 7.47878 60.6493 6.6406 61.1671 5.80819C61.8661 4.68434 62.3398 3.05712 61.3234 2.20945C60.811 1.78209 60.156 1.9143 59.6134 2.27588C58.773 2.83586 58.5996 3.9776 58.9494 4.92494C59.4286 6.22283 60.4137 7.44814 61.3977 8.41868C62.419 9.42594 63.1636 9.95215 64.595 9.89882C65.244 9.87465 65.8298 9.68885 66.4253 9.45313C67.8106 8.9048 68.9748 8.07487 69.9121 6.96605C70.8394 5.86912 71.955 4.65716 72.3448 3.26844C72.4188 3.00503 72.8705 1.65425 72.4143 1.49667C71.7579 1.26991 70.5333 1.65895 70.0396 2.00839C69.4803 2.40429 68.9846 3.13155 68.6842 3.71964C68.304 4.46405 68.1887 5.3347 68.0644 6.14069C67.9543 6.85497 67.7577 7.74279 67.9312 8.47371C68.1193 9.26586 69.2141 9.98999 69.9932 10.2015C70.9468 10.4603 72.0161 10.4399 72.9935 10.5976C74.0074 10.7612 74.8065 10.7959 75.8085 10.6196C77.7438 10.2792 79.1764 9.44807 79.6082 7.45576C79.6507 7.25961 79.7216 7.04308 79.4344 7.04308C78.6104 7.04308 77.6553 7.12695 76.8743 7.38974C75.742 7.77068 75.0428 9.1589 74.5632 10.0969C73.9629 11.271 73.7234 12.4647 73.7234 13.767C73.7234 15.1167 74.0653 16.132 74.7502 17.25C75.3188 18.1782 75.8984 19.0202 76.8743 19.55C77.9442 20.1308 79.3063 20.376 80.5001 20.7" stroke="#000027" stroke-width="1.725" stroke-linecap="square"/>
<circle cx="23.0001" cy="21.8502" r="18.4" fill="#9C9EE8"/>
<path d="M13.8 23C17.4417 26.45 27.025 31.395 36.225 23.575" stroke="#000027" stroke-width="1.725" stroke-linecap="square"/>
<path d="M25.8751 14.375C25.8751 17.25 29.3251 21.85 24.7251 20.125" stroke="#000027" stroke-width="1.725" stroke-linecap="square"/>
<circle cx="19.5499" cy="14.9498" r="1.15" fill="#000027"/>
<path d="M19.55 1.1499L14.95 8.0499" stroke="#000027" stroke-width="1.725" stroke-linecap="square"/>
<path d="M25.3001 1.1499L21.8501 8.0499" stroke="#000027" stroke-width="1.725" stroke-linecap="square"/>
<path d="M32.2001 1.1499L27.6001 6.8999" stroke="#000027" stroke-width="1.725" stroke-linecap="square"/>
<circle cx="33.35" cy="14.9498" r="1.15" fill="#000027"/>
<path d="M29.8999 32.2002L39.0999 29.6911M42.5499 28.7502L39.0999 29.6911M39.0999 29.6911L40.8249 26.4502M39.0999 29.6911L42.5499 28.1752" stroke="#000027" stroke-width="1.725" stroke-linecap="round"/>
<path d="M49.45 28.1752L46.575 31.6252L42.55 29.6911M39.1 28.7502L42.55 29.6911M42.55 29.6911L40.825 26.4502M42.55 29.6911L39.1 28.1752" stroke="#000027" stroke-width="1.725" stroke-linecap="round"/>
</g>
<path d="M95.5995 31.845C93.9358 31.845 92.4677 31.5038 91.195 30.8215C89.9223 30.1392 88.9295 29.1732 88.2165 27.9235C87.5035 26.6738 87.147 25.198 87.147 23.496C87.147 22.254 87.354 21.1193 87.768 20.092C88.1897 19.057 88.78 18.1638 89.539 17.4125C90.3057 16.6612 91.2065 16.0823 92.2415 15.676C93.2842 15.262 94.4227 15.055 95.657 15.055C96.9987 15.055 98.1257 15.2237 99.038 15.561C99.9503 15.8983 100.775 16.3775 101.511 16.9985L99.6015 20.138C99.1568 19.678 98.6202 19.3368 97.9915 19.1145C97.3628 18.8845 96.669 18.7695 95.91 18.7695C95.1587 18.7695 94.4878 18.8807 93.8975 19.103C93.3148 19.3177 92.8165 19.6282 92.4025 20.0345C91.9962 20.4408 91.6857 20.9315 91.471 21.5065C91.2563 22.0815 91.149 22.7255 91.149 23.4385C91.149 24.4198 91.3407 25.2593 91.724 25.957C92.115 26.6547 92.6708 27.1913 93.3915 27.567C94.1122 27.935 94.9747 28.119 95.979 28.119C96.6997 28.119 97.4127 28.0117 98.118 27.797C98.831 27.5747 99.5057 27.2182 100.142 26.7275L101.89 29.936C101.146 30.511 100.257 30.9748 99.222 31.3275C98.187 31.6725 96.9795 31.845 95.5995 31.845ZM102.874 31.5V19.77H109.038C110.433 19.77 111.522 20.0192 112.304 20.5175C113.093 21.0158 113.488 21.771 113.488 22.783C113.488 23.335 113.346 23.8027 113.063 24.186C112.779 24.5617 112.396 24.8645 111.913 25.0945C111.437 25.3168 110.908 25.4702 110.326 25.5545L110.268 24.715C111.41 24.8147 112.315 25.1443 112.982 25.704C113.657 26.256 113.994 26.9882 113.994 27.9005C113.994 28.6518 113.806 29.2958 113.431 29.8325C113.063 30.3692 112.518 30.7832 111.798 31.0745C111.077 31.3582 110.199 31.5 109.164 31.5H102.874ZM106.473 28.9585H108.67C109.206 28.9585 109.613 28.8627 109.889 28.671C110.172 28.4793 110.314 28.2072 110.314 27.8545C110.314 27.5172 110.176 27.2565 109.9 27.0725C109.632 26.8808 109.222 26.785 108.67 26.785H106.128V24.3815H108.382C108.888 24.3815 109.279 24.301 109.555 24.14C109.831 23.9713 109.969 23.7107 109.969 23.358C109.969 23.013 109.827 22.7523 109.544 22.576C109.268 22.3997 108.88 22.3115 108.382 22.3115H106.473V28.9585ZM121.018 31.845C119.738 31.845 118.607 31.5652 117.626 31.0055C116.644 30.4382 115.874 29.683 115.314 28.74C114.762 27.797 114.486 26.762 114.486 25.635C114.486 24.8147 114.643 24.0327 114.958 23.289C115.28 22.5377 115.732 21.8745 116.315 21.2995C116.897 20.7168 117.587 20.2607 118.385 19.931C119.182 19.5937 120.06 19.425 121.018 19.425C122.298 19.425 123.429 19.7087 124.411 20.276C125.392 20.8357 126.159 21.587 126.711 22.53C127.263 23.473 127.539 24.508 127.539 25.635C127.539 26.4553 127.381 27.2412 127.067 27.9925C126.753 28.7362 126.304 29.3955 125.722 29.9705C125.139 30.5455 124.449 31.0017 123.652 31.339C122.854 31.6763 121.976 31.845 121.018 31.845ZM121.018 28.602C121.555 28.602 122.038 28.4832 122.467 28.2455C122.896 28.0002 123.234 27.6552 123.479 27.2105C123.724 26.7658 123.847 26.2407 123.847 25.635C123.847 25.0217 123.724 24.4965 123.479 24.0595C123.241 23.6148 122.908 23.2737 122.479 23.036C122.049 22.7907 121.562 22.668 121.018 22.668C120.474 22.668 119.987 22.7907 119.558 23.036C119.128 23.2737 118.791 23.6148 118.546 24.0595C118.3 24.4965 118.178 25.0217 118.178 25.635C118.178 26.2407 118.3 26.7658 118.546 27.2105C118.799 27.6552 119.14 28.0002 119.569 28.2455C119.998 28.4832 120.481 28.602 121.018 28.602ZM128.748 31.5V19.77H140.777V31.5H137.005V22.76H132.52V31.5H128.748ZM142.909 31.5V19.77H146.508V26.21L151.568 19.77H154.949V31.5H151.35V24.968L146.278 31.5H142.909Z" fill="#252525"/>
<defs>
<clipPath id="clip0_3_11133">
<rect width="83.95" height="46" fill="white"/>
</clipPath>
</defs>
</svg>
