<svg width="16" height="16" viewBox="0 0 16 16" fill="none" xmlns="http://www.w3.org/2000/svg">
<path fill-rule="evenodd" clip-rule="evenodd" d="M8 0C3.58172 0 0 3.58172 0 8C0 12.4183 3.58172 16 8 16C12.4183 16 16 12.4183 16 8C16 3.58172 12.4183 0 8 0ZM7.96422 5.59833C8.45395 5.57121 8.87506 5.93701 8.9198 6.42214C8.91063 6.59694 8.78913 6.77814 8.35555 7.13066C8.32339 7.15681 8.28789 7.18517 8.25008 7.21539C8.07889 7.35218 7.86036 7.5268 7.69099 7.70379C7.4774 7.92699 7.2003 8.29282 7.2003 8.80002C7.2003 9.24169 7.55834 9.59973 8 9.59973C8.41936 9.59973 8.76333 9.27693 8.797 8.86625C8.80689 8.85338 8.82257 8.83463 8.84654 8.80959C8.93529 8.71684 9.04426 8.62936 9.20408 8.50106C9.25256 8.46214 9.30583 8.41937 9.36452 8.37165C9.77259 8.03987 10.5198 7.42115 10.5198 6.39993C10.5198 6.38335 10.5193 6.36678 10.5182 6.35023C10.4334 4.98707 9.27446 3.94485 7.91448 3.99953C6.70826 3.96762 5.64298 4.78882 5.36945 5.9677C5.26963 6.39794 5.53748 6.82763 5.96771 6.92746C6.39795 7.02728 6.82764 6.75943 6.92747 6.3292C7.03011 5.88679 7.43306 5.58004 7.88684 5.59887C7.91263 5.59994 7.93845 5.59976 7.96422 5.59833ZM8.00004 10.1004C7.50316 10.1004 7.10034 10.5032 7.10034 11.0001C7.10034 11.497 7.50315 11.8998 8.00004 11.8998C8.49693 11.8998 8.89974 11.497 8.89974 11.0001C8.89974 10.5029 8.49691 10.1004 8.00004 10.1004Z" fill="#68727D"/>
</svg>
