<svg width="172" height="171" viewBox="0 0 172 171" fill="none" xmlns="http://www.w3.org/2000/svg">
<g filter="url(#filter0_d_2022_15019)">
<path d="M74.6508 19.3218C80.8617 12.9175 91.1383 12.9175 97.3492 19.3218C101.215 23.3079 106.888 24.9738 112.295 23.7104C120.983 21.6806 129.628 27.2366 131.391 35.9821C132.488 41.4254 136.36 45.8942 141.592 47.7546C149.997 50.7438 154.266 60.0917 151.021 68.4018C149.001 73.5741 149.842 79.4269 153.238 83.8205C158.693 90.8797 157.23 101.052 150.007 106.288C145.512 109.547 143.055 114.926 143.536 120.457C144.309 129.345 137.579 137.112 128.672 137.612C123.128 137.923 118.154 141.12 115.568 146.034C111.413 153.928 101.552 156.824 93.7886 152.428C88.9565 149.693 83.0435 149.693 78.2114 152.428C70.4477 156.824 60.5874 153.928 56.4324 146.034C53.8463 141.12 48.872 137.923 43.328 137.612C34.4206 137.112 27.6909 129.345 28.4637 120.457C28.9447 114.926 26.4883 109.547 21.9927 106.288C14.7696 101.052 13.3071 90.8797 18.7623 83.8205C22.1577 79.4269 22.9992 73.5741 20.9792 68.4018C17.7337 60.0918 22.0028 50.7438 30.4085 47.7546C35.6402 45.8942 39.5124 41.4254 40.6094 35.9821C42.3719 27.2366 51.0171 21.6806 59.7045 23.7104C65.1116 24.9738 70.7851 23.3079 74.6508 19.3218Z" fill="#FFFCF5"/>
<g clip-path="url(#clip0_2022_15019)">
<path d="M85.6287 117.715C87.4377 118.221 89.4039 118.527 91.4979 118.507C99.431 118.431 106.366 113.227 108.937 105.729C109.723 103.436 110.76 101.165 111.989 100.201C114.052 98.5834 118.095 94.879 120.24 92.8928C121.583 91.6488 122.342 89.8729 122.216 88.0451C122.106 86.4693 121.366 84.8591 118.968 84.3798C117.401 84.0666 115.773 84.4129 114.425 85.2682L108.646 88.9387L115.552 68.8576C116.135 67.1636 115.953 65.2771 114.975 63.7752C113.937 62.1841 112.034 61.0818 108.611 63.4127C108.611 63.4127 111.141 56.0391 102.063 57.8826C102.063 57.8826 96.4583 55.3597 93.927 59.8258C93.927 59.8258 89.6989 58.169 87.5256 61.9268C87.5256 61.9268 77.0755 81.0026 74.0311 99.2587C72.6635 107.461 77.6148 115.47 85.6302 117.715L85.6287 117.715Z" fill="#99B7F5"/>
<path d="M81.2049 109.331C77.7092 114.261 71.4758 116.456 65.6769 114.74C53.2656 111.064 51.695 102.312 52.2077 96.3996C52.2077 96.3996 52.209 96.3951 52.2095 96.3872C52.2283 96.2729 52.3761 95.3611 52.5733 93.9267C53.2542 88.9993 54.5347 77.9156 53.2339 71.9913C52.9119 70.5293 53.1209 68.9885 53.9028 67.7131C54.6485 66.4986 55.8836 65.5184 57.8806 66.2094C59.5678 66.7935 60.7766 68.2866 61.0882 70.0428C61.1453 70.3671 61.2085 70.7222 61.2736 71.1052C64.2352 62.5983 66.578 54.7257 67.2785 51.8725C68.5422 46.732 74.2134 49.5964 74.2134 49.5964C79.3289 44.5548 82.9821 50.3254 82.9821 50.3254C92.5499 49.3381 90.71 57.7231 90.71 57.7231C95.2129 58.9716 96.7484 61.0123 91.4627 84.7402C88.8351 96.5374 84.6998 104.404 81.2049 109.331Z" fill="#267F53"/>
<path d="M60.9961 71.0283C60.1628 74.0337 60.5171 74.1319 59.6834 77.1387C58.8497 80.1456 59.0632 80.2032 58.2296 83.21" fill="#1E4A2F"/>
<path d="M58.041 83.8847C57.6673 83.7811 57.4492 83.396 57.5527 83.0226C57.9627 81.5439 58.1108 80.8114 58.268 80.0346C58.4234 79.2702 58.5832 78.478 59.0065 76.9513C59.4298 75.4246 59.5254 74.7535 59.6456 73.9761C59.7674 73.1927 59.8914 72.384 60.3192 70.8409C60.4228 70.4675 60.808 70.2497 61.1818 70.3533C61.5555 70.4569 61.7737 70.842 61.6701 71.2154C61.2643 72.6791 61.1513 73.4133 61.0311 74.1906C60.9092 74.974 60.7853 75.7827 60.3574 77.3258C59.9295 78.869 59.7989 79.5385 59.6421 80.3138C59.4867 81.0782 59.3269 81.8705 58.9036 83.3971C58.8 83.7706 58.4148 83.9883 58.041 83.8847Z" fill="#1E4A2F"/>
<path d="M74.7286 77.9186C74.3684 77.8187 74.1472 77.4505 74.2343 77.0838C74.5342 75.804 74.7015 75.2706 74.8805 74.7065C75.0601 74.1346 75.2471 73.542 75.6073 72.0738C75.7705 71.4036 75.9128 70.6743 76.0624 69.9018C76.2456 68.9611 76.4327 67.9891 76.6869 66.9904C76.9128 66.1002 77.2141 65.2116 77.506 64.351C77.7654 63.5847 78.0348 62.7938 78.2397 62.0254C78.7151 60.2467 79.2042 58.5703 79.6635 57.0245C79.97 55.9887 80.1962 55.0098 80.3771 54.2234C80.6472 53.0451 80.8275 52.2666 81.1302 51.816C82.449 49.8577 82.7881 49.7191 84.8401 49.5468L84.9693 49.5358C85.3552 49.5023 85.6945 49.7885 85.7282 50.1742C85.7619 50.5598 85.4756 50.8987 85.0901 50.9307L84.9609 50.9417C84.0953 51.015 83.6998 51.0539 83.4328 51.2125C83.1447 51.3829 82.8365 51.7949 82.2955 52.5977C82.1365 52.833 81.9381 53.7001 81.7446 54.538C81.5602 55.3428 81.3293 56.3446 81.0096 57.422C80.5543 58.9592 80.0671 60.6231 79.5959 62.3868C79.3784 63.2002 79.1028 64.0137 78.8342 64.8016C78.5513 65.6356 78.2585 66.4992 78.0461 67.335C77.8027 68.2946 77.6176 69.2478 77.4398 70.1691C77.2872 70.9585 77.1417 71.7046 76.9698 72.4063C76.6001 73.9204 76.398 74.562 76.2181 75.1291C76.0414 75.6905 75.8874 76.1759 75.6002 77.4044C75.5121 77.7805 75.1351 78.0151 74.7587 77.9269C74.7497 77.9244 74.7407 77.9219 74.7301 77.919L74.7286 77.9186Z" fill="#1E4A2F"/>
<path d="M67.1308 76.2482C66.7616 76.1458 66.5422 75.7652 66.6404 75.3935C66.9562 74.202 67.0742 73.6776 67.2004 73.1231C67.3411 72.5048 67.4862 71.8652 67.9136 70.2653C68.1018 69.5633 68.2719 68.7982 68.4526 67.9891C68.6597 67.0614 68.8736 66.1033 69.1376 65.1219C69.3969 64.1635 69.6709 63.1752 69.9381 62.2173C70.1418 61.4824 70.3471 60.748 70.5456 60.0263C70.8208 59.0221 71.1377 58.0716 71.4447 57.1506C71.7006 56.385 71.9419 55.6606 72.1341 54.979C72.5638 53.4525 72.8523 52.1614 73.0616 51.2198C73.2828 50.2298 73.3578 49.9066 73.4768 49.699C74.1002 48.5992 74.4053 48.3963 75.3672 47.8652C75.4857 47.7996 75.6175 47.7263 75.7647 47.6444C76.102 47.4537 76.5298 47.5723 76.7193 47.9091C76.9103 48.2462 76.7918 48.6737 76.4549 48.8629C76.3034 48.9484 76.1678 49.0239 76.0455 49.0917C75.2442 49.5333 75.1541 49.5842 74.7088 50.3684C74.6569 50.509 74.541 51.026 74.4297 51.5264C74.2278 52.4297 73.923 53.7971 73.4833 55.3596C73.282 56.0741 73.0351 56.8131 72.7746 57.5952C72.4729 58.4967 72.1625 59.4297 71.8977 60.3963C71.6999 61.1215 71.4942 61.8574 71.2881 62.5948C71.0237 63.5486 70.7486 64.535 70.491 65.4875C70.2334 66.4399 70.0236 67.383 69.8207 68.2957C69.6373 69.1202 69.4639 69.8974 69.2678 70.6279C68.8475 72.2022 68.7047 72.828 68.5673 73.4343C68.4444 73.9767 68.3164 74.5372 67.9955 75.7531C67.8964 76.1278 67.5133 76.3494 67.1384 76.2502C67.1354 76.2494 67.1324 76.2486 67.1308 76.2482ZM74.6974 50.3862C74.6974 50.3862 74.6965 50.3892 74.6961 50.3907C74.6961 50.3907 74.697 50.3877 74.6974 50.3862Z" fill="#1E4A2F"/>
<path d="M81.3201 80.176C80.9674 80.0782 80.7473 79.7232 80.8223 79.3596C80.9567 78.7057 81.0856 78.0777 81.2089 77.4756C81.4318 76.3859 81.6387 75.3774 81.8327 74.4445C82.0395 73.4537 82.1509 72.5447 82.2585 71.6669C82.3543 70.8843 82.4448 70.1439 82.5945 69.47C82.946 67.8815 83.3394 66.655 83.6565 65.6689C83.7807 65.2851 83.8971 64.9233 83.9899 64.6002C84.6638 62.2806 85.0253 61.315 85.9725 59.7931C87.465 57.3952 88.2048 57.2919 90.5416 57.3051C90.7064 57.3056 90.879 57.3066 91.065 57.3065C91.4511 57.307 91.7652 57.6201 91.7663 58.0064C91.7675 58.3927 91.4524 58.7075 91.0662 58.707C90.8788 58.7067 90.7027 58.7063 90.5364 58.7055C88.4784 58.6953 88.3107 58.694 87.1653 60.534C86.2991 61.9266 85.9817 62.7801 85.3377 64.9917C85.238 65.3339 85.1191 65.7046 84.9919 66.0989C84.6843 67.0569 84.3005 68.2489 83.9634 69.7737C83.8282 70.3838 83.7419 71.0914 83.6493 71.8393C83.5439 72.7032 83.4224 73.6837 83.2047 74.7312C83.0111 75.6626 82.805 76.6682 82.5825 77.7563C82.4588 78.3599 82.33 78.9879 82.1955 79.6419C82.1179 80.0209 81.7463 80.2651 81.3675 80.1859C81.3524 80.1817 81.3355 80.1786 81.3205 80.1745L81.3201 80.176Z" fill="#1E4A2F"/>
<path d="M99.9485 84.6701C99.9485 84.6701 99.9395 84.6676 99.935 84.6664C99.5649 84.5557 99.3529 84.1658 99.4639 83.7945C99.6081 83.3096 99.8079 82.8337 100.002 82.3738C100.16 81.9947 100.326 81.6013 100.457 81.2082L100.575 80.8582C100.823 80.1241 101.077 79.363 101.354 78.5998C101.535 78.0977 101.739 77.6004 101.937 77.1177C102.082 76.7638 102.232 76.3984 102.371 76.0379C102.518 75.6539 102.628 75.2501 102.743 74.8234C102.87 74.3546 103.001 73.8694 103.19 73.4C103.389 72.9029 103.637 72.4502 103.878 72.013C104.084 71.6374 104.279 71.2844 104.427 70.9299C104.599 70.519 104.738 70.089 104.871 69.6722C105.015 69.2243 105.164 68.7618 105.354 68.3298C105.6 67.7682 105.895 67.2672 106.154 66.8238C106.347 66.4946 106.53 66.1836 106.665 65.8948C106.842 65.5206 106.998 65.178 107.138 64.8728C107.474 64.139 107.694 63.6527 107.9 63.3495C108.389 62.6212 109.073 62.131 109.933 61.8914C110.238 61.8063 110.445 61.7263 110.627 61.6559C111.123 61.464 111.47 61.3501 112.318 61.4463C112.703 61.4902 112.979 61.8364 112.935 62.2215C112.892 62.6067 112.544 62.8817 112.16 62.8382C111.613 62.7755 111.503 62.819 111.137 62.9614C110.934 63.0393 110.684 63.1378 110.312 63.2416C109.776 63.3902 109.369 63.6825 109.066 64.1331C108.926 64.3414 108.691 64.8575 108.417 65.455C108.276 65.7648 108.116 66.113 107.938 66.4932C107.776 66.839 107.577 67.1764 107.367 67.5346C107.115 67.9639 106.854 68.4084 106.64 68.8949C106.479 69.2604 106.348 69.6683 106.208 70.1027C106.066 70.5476 105.917 71.0071 105.722 71.4729C105.545 71.8939 105.323 72.2975 105.109 72.687C104.878 73.1058 104.661 73.5028 104.493 73.9213C104.336 74.3138 104.221 74.739 104.1 75.1882C103.981 75.63 103.857 76.0882 103.684 76.5391C103.539 76.9142 103.387 77.2886 103.238 77.6495C103.045 78.1177 102.846 78.6019 102.675 79.0759C102.404 79.823 102.151 80.5747 101.907 81.3017L101.789 81.6532C101.64 82.095 101.465 82.5115 101.297 82.9153C101.11 83.361 100.933 83.7835 100.809 84.1949C100.7 84.5603 100.318 84.771 99.9504 84.669L99.9485 84.6701Z" fill="#267F53"/>
<path d="M93.9934 81.7278C93.9934 81.7278 93.9784 81.7236 93.9724 81.722C93.6034 81.6068 93.3968 81.2152 93.5109 80.8447C93.7152 80.1891 93.8218 79.9038 93.9259 79.6274C94.0386 79.326 94.1553 79.0159 94.417 78.1712C94.5202 77.8397 94.5925 77.4447 94.6711 77.0272C94.763 76.5327 94.8663 75.9735 95.0408 75.4082C95.163 75.0141 95.29 74.6084 95.4196 74.1937C95.5712 73.7109 95.7277 73.2165 95.8817 72.7134C96.0349 72.2132 96.2687 71.7548 96.4964 71.3125C96.7083 70.898 96.9091 70.5063 97.0283 70.1114C97.1568 69.6884 97.2301 69.2436 97.3074 68.7725C97.3851 68.2998 97.4643 67.8099 97.6067 67.3374C97.7506 66.8589 97.901 66.3983 98.0456 65.9523C98.1936 65.4943 98.3346 65.0619 98.4572 64.6485C98.6336 64.0531 98.8407 63.5162 99.0249 63.044C99.1822 62.6402 99.318 62.2903 99.4007 61.9919C99.7812 60.6197 100.321 59.5774 101.099 58.7127C101.26 58.5345 101.399 58.3761 101.52 58.2368C102.579 57.0335 102.767 56.95 104.386 56.9659L104.513 56.9672C104.9 56.9696 105.212 57.2869 105.208 57.6734C105.204 58.06 104.888 58.3713 104.501 58.3674L104.374 58.3661C103.808 58.3609 103.466 58.3582 103.313 58.4256C103.163 58.492 102.94 58.7453 102.572 59.1633C102.447 59.3062 102.305 59.4672 102.14 59.6491C101.512 60.347 101.071 61.2098 100.75 62.366C100.648 62.7334 100.495 63.1301 100.331 63.5514C100.157 63.9989 99.9599 64.5048 99.8004 65.0451C99.6723 65.478 99.5293 65.918 99.3784 66.3865C99.2358 66.825 99.089 67.2784 98.9488 67.7434C98.8321 68.1293 98.7632 68.5527 98.6906 69.001C98.6097 69.4969 98.5261 70.0083 98.3696 70.5204C98.2122 71.0356 97.9748 71.5011 97.7431 71.952C97.5348 72.3594 97.3377 72.744 97.2207 73.125C97.0658 73.6311 96.9081 74.13 96.7556 74.6159C96.6254 75.0271 96.4988 75.4313 96.379 75.8228C96.2291 76.3109 96.1372 76.8055 96.048 77.2846C95.9627 77.7438 95.8811 78.1782 95.7547 78.5873C95.4822 79.471 95.3567 79.8012 95.2371 80.1218C95.1362 80.3925 95.0398 80.6468 94.8478 81.2638C94.7343 81.6264 94.3543 81.8311 93.991 81.7304L93.9934 81.7278Z" fill="#267F53"/>
<path d="M100.121 96.4431C100.014 96.4135 99.9132 96.3581 99.8272 96.2777C99.5453 96.0122 99.5342 95.5682 99.7994 95.2881C99.8859 95.1974 99.9761 95.0997 100.072 94.9972C100.537 94.4994 101.114 93.8795 101.835 93.2508C102.461 92.7058 103.194 92.0869 104.009 91.4135C104.452 91.0484 104.9 90.7189 105.334 90.4016C105.669 90.1553 105.986 89.9233 106.27 89.6954C106.863 89.2201 107.051 88.9848 107.251 88.7351C107.471 88.4602 107.699 88.1745 108.311 87.6982C108.616 87.4614 109.057 87.5158 109.295 87.8225C109.532 88.1272 109.478 88.5676 109.171 88.8055C108.689 89.1791 108.538 89.3681 108.347 89.609C108.119 89.8947 107.861 90.2173 107.147 90.7895C106.839 91.0368 106.511 91.2768 106.164 91.5311C105.746 91.8368 105.314 92.1546 104.903 92.4944C104.096 93.1605 103.374 93.7695 102.756 94.3072C102.089 94.8878 101.539 95.4782 101.098 95.9517C100.999 96.0582 100.905 96.1581 100.817 96.2518C100.632 96.4475 100.362 96.5131 100.12 96.4461L100.121 96.4431Z" fill="#267F53"/>
<path d="M55.6239 60.8648C55.0276 59.7627 55.1494 59.6964 54.553 58.5944C53.9566 57.4923 53.972 57.4837 53.3771 56.382C52.7811 55.2785 52.6804 55.3329 52.0844 54.2294C51.4884 53.1259 51.4294 53.158 50.8335 52.0544C50.1956 50.8747 50.8866 49.222 52.1279 48.715C53.504 48.1534 53.4734 48.0771 54.851 47.5159C56.0739 47.0169 57.4998 47.8321 57.8934 49.0943C58.2656 50.2876 58.1715 50.318 58.5438 51.5114C58.916 52.7047 59.0874 52.6521 59.4597 53.8454C59.8319 55.0387 59.7397 55.068 60.1131 56.2633C60.4864 57.4585 60.4407 57.4717 60.8145 58.6654C61.1626 59.7826 60.7554 61.1231 59.6729 61.5643C59.1899 61.7614 59.1803 61.7378 58.6973 61.9349C57.6309 62.3708 56.1734 61.8795 55.625 60.8667L55.6239 60.8648Z" fill="#EDB53E"/>
<path d="M49.3378 64.3386C48.078 63.4838 48.1549 63.3695 46.8952 62.5148C45.6354 61.66 45.6441 61.6462 44.3843 60.7915C43.7108 60.335 43.7089 59.0651 44.4847 58.2257C45.3452 57.2966 45.2965 57.2508 46.157 56.3218C46.9227 55.4957 48.2516 55.4071 48.7709 56.0178C49.7513 57.1746 49.8146 57.1211 50.7951 58.278C51.7755 59.4348 51.628 59.5586 52.6099 60.7159C53.0694 61.2567 52.8289 62.1299 52.151 62.8609C51.8488 63.1873 51.9802 63.3077 51.678 63.6341C51.0114 64.3537 49.9177 64.7303 49.3378 64.3386Z" fill="#267F53"/>
<path d="M112.413 108.488C113.814 109.531 113.732 109.642 115.133 110.686C116.535 111.729 116.524 111.744 117.926 112.787C118.675 113.345 119.693 112.815 120.296 111.695C120.965 110.453 120.906 110.422 121.575 109.18C122.17 108.075 122.111 107.02 121.256 106.682C119.638 106.041 119.607 106.116 117.989 105.477C116.37 104.838 116.441 104.657 114.823 104.016C114.065 103.717 112.958 104.203 112.431 105.181C112.196 105.616 112.353 105.702 112.119 106.138C111.6 107.1 111.768 108.011 112.412 108.49L112.413 108.488Z" fill="#267F53"/>
<path d="M108.973 114.335C109.691 115.677 109.569 115.743 110.286 117.086C111.003 118.428 110.988 118.436 111.705 119.779C112.088 120.497 113.093 120.423 114.008 119.74C115.024 118.984 114.984 118.931 116 118.174C116.903 117.501 117.277 116.661 116.723 116.081C115.676 114.983 115.617 115.04 114.57 113.942C113.523 112.844 113.663 112.712 112.616 111.614C112.127 111.1 111.039 111.082 110.24 111.677C109.884 111.943 109.991 112.086 109.633 112.352C108.847 112.938 108.642 113.716 108.972 114.334L108.973 114.335Z" fill="#EDB53E"/>
</g>
</g>
<defs>
<filter id="filter0_d_2022_15019" x="0.561426" y="0.618555" width="170.877" height="169.765" filterUnits="userSpaceOnUse" color-interpolation-filters="sRGB">
<feFlood flood-opacity="0" result="BackgroundImageFix"/>
<feColorMatrix in="SourceAlpha" type="matrix" values="0 0 0 0 0 0 0 0 0 0 0 0 0 0 0 0 0 0 127 0" result="hardAlpha"/>
<feOffset dy="1"/>
<feGaussianBlur stdDeviation="7.45"/>
<feComposite in2="hardAlpha" operator="out"/>
<feColorMatrix type="matrix" values="0 0 0 0 0.356087 0 0 0 0 0.338137 0 0 0 0 0.296253 0 0 0 0.2 0"/>
<feBlend mode="normal" in2="BackgroundImageFix" result="effect1_dropShadow_2022_15019"/>
<feBlend mode="normal" in="SourceGraphic" in2="effect1_dropShadow_2022_15019" result="shape"/>
</filter>
<clipPath id="clip0_2022_15019">
<rect width="88.6916" height="68.5344" fill="white" transform="translate(49.311 39.0889) rotate(15.4966)"/>
</clipPath>
</defs>
</svg>
