<svg width="158" height="163" viewBox="0 0 158 163" fill="none" xmlns="http://www.w3.org/2000/svg">
<g filter="url(#filter0_d_2022_15902)">
<path d="M67.6508 11.7027C73.8617 5.29834 84.1383 5.29834 90.3492 11.7027C94.2149 15.6888 99.8884 17.3547 105.295 16.0913C113.983 14.0615 122.628 19.6175 124.391 28.363C125.488 33.8063 129.36 38.275 134.592 40.1355C142.997 43.1247 147.266 52.4726 144.021 60.7827C142.001 65.9549 142.842 71.8078 146.238 76.2014C151.693 83.2605 150.23 93.4325 143.007 98.6688C138.512 101.928 136.055 107.307 136.536 112.838C137.309 121.726 130.579 129.493 121.672 129.993C116.128 130.304 111.154 133.501 108.568 138.414C104.413 146.309 94.5523 149.204 86.7886 144.809C81.9565 142.074 76.0435 142.074 71.2114 144.809C63.4477 149.204 53.5874 146.309 49.4324 138.414C46.8463 133.501 41.872 130.304 36.328 129.993C27.4206 129.493 20.6909 121.726 21.4637 112.838C21.9447 107.307 19.4883 101.928 14.9927 98.6688C7.7696 93.4325 6.30708 83.2605 11.7623 76.2014C15.1577 71.8078 15.9992 65.9549 13.9792 60.7827C10.7337 52.4726 15.0028 43.1247 23.4085 40.1355C28.6402 38.275 32.5124 33.8063 33.6094 28.363C35.3719 19.6175 44.0171 14.0615 52.7045 16.0913C58.1116 17.3547 63.7851 15.6888 67.6508 11.7027Z" fill="#FFFCF5"/>
<path d="M88.2275 105.569C86.6099 111.361 80.6274 114.785 74.8043 113.225C68.9813 111.664 65.5121 105.708 67.0073 99.8828L88.2275 105.569Z" fill="#D2971A"/>
<path fill-rule="evenodd" clip-rule="evenodd" d="M88.6867 54.5674C77.5944 51.5952 66.193 58.1779 63.2208 69.2701L59.7543 82.2074C59.0216 84.9419 56.8637 86.98 54.406 88.385C53.2253 89.0599 52.1912 89.835 51.3281 90.7043C49.3712 92.6751 50.9482 95.5803 53.6309 96.2992L101.374 109.092C104.057 109.811 106.875 108.083 106.166 105.398C105.853 104.214 105.345 103.026 104.661 101.851C103.235 99.4057 102.385 96.5619 103.118 93.8275L106.585 80.8894C109.557 69.7972 102.974 58.3957 91.8819 55.4236L88.6867 54.5674Z" fill="#EDB53E"/>
<ellipse cx="97.0983" cy="72.1003" rx="4.32643" ry="6.30938" transform="rotate(-9.8395 97.0983 72.1003)" fill="#F9F2EA"/>
<path fill-rule="evenodd" clip-rule="evenodd" d="M88.2589 56.165C78.0489 53.4293 67.5544 59.4883 64.8187 69.6982L61.6235 68.8421C64.832 56.8675 77.1404 49.7612 89.115 52.9698L92.3102 53.826L91.4541 57.0212L88.2589 56.165Z" fill="black"/>
<path d="M108.9 56.654C109.815 55.3369 109.669 55.2352 110.584 53.9181C111.499 52.6009 111.48 52.5877 112.393 51.2709C113.307 49.9518 113.428 50.0352 114.342 48.7161C115.256 47.397 115.327 47.4462 116.241 46.127C117.219 44.7169 116.575 42.517 115.068 41.6965C113.397 40.7873 113.447 40.6946 111.774 39.7858C110.289 38.9778 108.36 39.8127 107.681 41.3623C107.039 42.8273 107.154 42.8793 106.511 44.3443C105.869 45.8093 105.658 45.7182 105.016 47.1831C104.374 48.6481 104.487 48.6985 103.843 50.1658C103.198 51.6331 103.255 51.6563 102.61 53.1216C102.009 54.4932 102.337 56.2559 103.652 56.9703C104.238 57.2894 104.254 57.2607 104.84 57.5798C106.134 58.2853 108.058 57.8668 108.899 56.6563L108.9 56.654Z" fill="#EDB53E"/>
<path d="M111.99 65.0256C113.92 64.76 113.897 64.5852 115.827 64.3197C117.757 64.0541 117.755 64.0334 119.685 63.7679C120.716 63.6265 121.439 62.171 121.025 60.7679C120.566 59.214 120.648 59.1891 120.188 57.6351C119.778 56.253 118.304 55.3973 117.362 55.8031C115.581 56.5737 115.539 56.4764 113.758 57.2469C111.977 58.0175 112.076 58.2432 110.293 59.0134C109.459 59.373 109.239 60.5111 109.602 61.7342C109.763 62.2801 109.544 62.3436 109.706 62.8895C110.062 64.0931 111.103 65.1458 111.99 65.0256Z" fill="#1E4A2F"/>
<path d="M43.5706 97.227C41.7754 97.4516 41.7931 97.5939 39.9975 97.8201C38.2023 98.0447 38.2043 98.0635 36.4091 98.2881C35.4495 98.409 34.8023 97.4118 34.8301 96.0948C34.8606 94.6339 34.9299 94.6363 34.9604 93.1754C34.9871 91.8763 35.5793 90.956 36.5226 91.0869C38.3079 91.3349 38.297 91.4185 40.0819 91.6681C41.8667 91.9177 41.8948 91.7187 43.6801 91.9667C44.5154 92.0839 45.2659 93.0869 45.2415 94.237C45.2316 94.7495 45.0462 94.7464 45.0347 95.2585C45.0114 96.3906 44.3957 97.1256 43.5702 97.2285L43.5706 97.227Z" fill="#267F53"/>
<path d="M50.1035 103.241C48.7539 104.683 48.8843 104.807 47.5348 106.248C46.1853 107.689 46.2016 107.705 44.8521 109.146C44.1313 109.918 42.8969 109.488 41.9795 108.325C40.9599 107.036 41.0282 106.983 40.0086 105.693C39.1035 104.546 38.9175 103.369 39.806 102.828C41.4865 101.804 41.5418 101.894 43.2223 100.87C44.9028 99.846 44.7716 99.6331 46.4521 98.609C47.2381 98.1298 48.6071 98.4712 49.4081 99.4859C49.7656 99.9391 49.583 100.082 49.9426 100.535C50.7313 101.534 50.7262 102.578 50.1055 103.241L50.1035 103.241Z" fill="#EDB53E"/>
</g>
<defs>
<filter id="filter0_d_2022_15902" x="0.461426" y="6.89941" width="157.077" height="156.062" filterUnits="userSpaceOnUse" color-interpolation-filters="sRGB">
<feFlood flood-opacity="0" result="BackgroundImageFix"/>
<feColorMatrix in="SourceAlpha" type="matrix" values="0 0 0 0 0 0 0 0 0 0 0 0 0 0 0 0 0 0 127 0" result="hardAlpha"/>
<feMorphology radius="8" operator="erode" in="SourceAlpha" result="effect1_dropShadow_2022_15902"/>
<feOffset dy="8.09758"/>
<feGaussianBlur stdDeviation="8"/>
<feComposite in2="hardAlpha" operator="out"/>
<feColorMatrix type="matrix" values="0 0 0 0 0.0470588 0 0 0 0 0.0470588 0 0 0 0 0.0509804 0 0 0 0.1 0"/>
<feBlend mode="normal" in2="BackgroundImageFix" result="effect1_dropShadow_2022_15902"/>
<feBlend mode="normal" in="SourceGraphic" in2="effect1_dropShadow_2022_15902" result="shape"/>
</filter>
</defs>
</svg>
