<svg width="158" height="164" viewBox="0 0 158 164" fill="none" xmlns="http://www.w3.org/2000/svg">
<g filter="url(#filter0_dd_3_12150)">
<path d="M67.6508 12.2544C73.8617 5.8501 84.1383 5.8501 90.3492 12.2544C94.2149 16.2405 99.8884 17.9064 105.295 16.6431C113.983 14.6133 122.628 20.1692 124.391 28.9148C125.488 34.358 129.36 38.8268 134.592 40.6873C142.997 43.6764 147.266 53.0244 144.021 61.3345C142.001 66.5067 142.842 72.3595 146.238 76.7532C151.693 83.8123 150.23 93.9843 143.007 99.2205C138.512 102.48 136.055 107.858 136.536 113.39C137.309 122.278 130.579 130.044 121.672 130.544C116.128 130.856 111.154 134.052 108.568 138.966C104.413 146.861 94.5523 149.756 86.7886 145.361C81.9565 142.625 76.0435 142.625 71.2114 145.361C63.4477 149.756 53.5874 146.861 49.4324 138.966C46.8463 134.052 41.872 130.856 36.328 130.544C27.4206 130.044 20.6909 122.278 21.4637 113.39C21.9447 107.858 19.4883 102.48 14.9927 99.2205C7.7696 93.9843 6.30708 83.8123 11.7623 76.7532C15.1577 72.3595 15.9992 66.5067 13.9792 61.3345C10.7337 53.0244 15.0028 43.6764 23.4085 40.6872C28.6402 38.8268 32.5124 34.358 33.6094 28.9148C35.3719 20.1692 44.0171 14.6133 52.7045 16.6431C58.1116 17.9064 63.7851 16.2405 67.6508 12.2544Z" fill="#FFFCF5"/>
<path d="M54.0243 52.6746C54.0104 51.3003 54.1626 51.2984 54.1486 49.9241C54.1347 48.5497 54.154 48.5492 54.1413 47.176C54.1285 45.8005 54.0029 45.8017 53.9902 44.4261C53.9774 43.0505 53.9038 43.0514 53.891 41.6759C53.8766 40.2049 55.3933 38.9559 56.8569 39.1001C58.4792 39.2602 58.4886 39.1706 60.1122 39.3319C61.5539 39.4743 62.5193 40.9953 62.2545 42.4211C62.0043 43.7691 61.8974 43.7505 61.6473 45.0985C61.3971 46.4466 61.5902 46.4833 61.34 47.8314C61.0898 49.1794 60.9854 49.1607 60.7353 50.5111C60.4852 51.8616 60.4341 51.851 60.1852 53.2002C59.9505 54.4621 58.8689 55.5536 57.5931 55.4271C57.0237 55.3709 57.0265 55.343 56.457 55.2868C55.1994 55.1633 54.0375 53.9403 54.0244 52.677L54.0243 52.6746Z" fill="#99B7F5"/>
<path d="M47.8017 57.1215C46.5613 56.0036 46.6621 55.891 45.4218 54.7731C44.1814 53.6551 44.1929 53.6415 42.9525 52.5236C42.2893 51.9265 42.478 50.5465 43.447 49.7509C44.5215 48.8708 44.4754 48.8137 45.5499 47.9335C46.5058 47.1509 47.9631 47.2543 48.4355 47.9958C49.327 49.4 49.4038 49.3514 50.2953 50.7555C51.1868 52.1597 51.008 52.2721 51.901 53.6769C52.319 54.3335 51.9265 55.2461 51.0802 55.9385C50.7028 56.2477 50.8276 56.3983 50.4502 56.7076C49.6178 57.3893 48.373 57.6343 47.8017 57.1215Z" fill="#EDB53E"/>
<path d="M116.807 61.1947C118.827 64.523 118.203 69.5483 114.835 71.4162C114.835 71.4162 80.8229 96.3004 81.3325 96.3939C81.3325 96.3939 74.3457 101.146 71.8184 103.212C69.0352 105.488 65.2255 105.6 62.5908 103.31C62.2365 103.003 61.9201 102.667 61.6548 102.318C61.6548 102.318 55.3221 91.7429 54.9019 91.198C54.9019 91.198 45.9327 78.12 45.4201 75.8949C45.3552 75.6139 45.2765 75.3377 45.1511 75.0855C43.5219 71.855 44.5447 67.9815 47.4116 65.3784C47.4116 65.3784 50.7504 63.3976 51.8417 62.2855C52.3631 61.7557 52.9425 61.2864 53.5982 60.9959C56.6067 59.6649 60.358 60.3479 61.4608 63.6545C61.4608 63.6545 68.3525 73.9692 69.115 76.0191C69.2768 76.4538 69.4955 76.8625 69.805 77.183C70.8 78.2102 72.1923 78.5599 73.6357 77.2295C73.6357 77.2295 104.011 53.864 104.43 54.2685C107.541 51.9492 111.643 53.4056 113.717 56.093C113.717 56.093 116.754 61.6812 116.808 61.1877L116.807 61.1947Z" fill="#99B7F5"/>
<path d="M78.8613 87.2845C79.903 89.0005 79.5809 91.5915 77.8444 92.5545C77.8444 92.5545 60.3086 105.384 60.5714 105.433C60.5714 105.433 56.9691 107.882 55.6661 108.948C54.2311 110.122 52.2669 110.179 50.9085 108.998C50.7258 108.84 50.5627 108.667 50.4259 108.487C50.4259 108.487 47.1609 103.035 46.9443 102.754C46.9443 102.754 42.3199 96.0109 42.0556 94.8636C42.0222 94.7188 41.9816 94.5764 41.9169 94.4464C41.0769 92.7807 41.6043 90.7837 43.0824 89.4415C43.0824 89.4415 44.8038 88.4203 45.3665 87.8469C45.6353 87.5737 45.934 87.3318 46.2721 87.182C47.8232 86.4957 49.7573 86.8479 50.3259 88.5527C50.3259 88.5527 53.8791 93.8708 54.2722 94.9277C54.3557 95.1518 54.4685 95.3625 54.628 95.5278C55.141 96.0574 55.8589 96.2377 56.6031 95.5518C56.6031 95.5518 72.2641 83.5049 72.48 83.7135C74.0839 82.5177 76.1987 83.2686 77.2683 84.6541C77.2683 84.6541 78.8339 87.5354 78.8619 87.2809L78.8613 87.2845Z" fill="#267F53"/>
<path d="M55.666 108.948C54.231 110.122 52.2668 110.179 50.9084 108.998C50.7257 108.84 50.5626 108.667 50.4258 108.487C50.4258 108.487 47.1608 103.035 46.9441 102.754C46.9441 102.754 42.3198 96.011 42.0555 94.8637C42.0221 94.7189 41.9815 94.5765 41.9168 94.4465C41.0768 92.7808 41.6041 90.7838 43.0823 89.4417C43.0823 89.4417 44.8037 88.4204 45.3664 87.847C45.6352 87.5738 45.9339 87.3319 46.2719 87.1821C47.8231 86.4959 49.7572 86.848 50.3258 88.5529C50.3258 88.5529 53.879 93.8709 54.2721 94.9278C54.3556 95.1519 54.4683 95.3626 54.6279 95.5279C55.1409 96.0575 55.8587 96.2378 56.6029 95.5519C56.6029 95.5519 72.2639 83.5051 72.4799 83.7136" stroke="#1C4B34" stroke-width="1.84341" stroke-linecap="round"/>
<path d="M100.565 95.2729C102.876 96.2127 102.801 96.3959 105.112 97.3379C107.423 98.2777 107.413 98.302 109.724 99.2418C110.959 99.7453 112.177 98.6483 112.61 96.8842C113.09 94.9277 112.997 94.9061 113.478 92.9495C113.906 91.2099 113.446 89.7729 112.143 89.6105C109.677 89.3037 109.661 89.419 107.195 89.1144C104.729 88.8098 104.762 88.5348 102.296 88.228C101.142 88.0859 99.7844 89.154 99.4065 90.6944C99.2368 91.3805 99.4849 91.4426 99.3174 92.1287C98.9443 93.6448 99.5021 94.8435 100.565 95.2751L100.565 95.2729Z" fill="#267F53"/>
<path d="M89.7179 100.953C91.0009 103.355 90.783 103.473 92.066 105.874C93.349 108.275 93.3216 108.291 94.6047 110.692C95.2893 111.976 97.0866 111.845 98.7235 110.623C100.542 109.27 100.47 109.175 102.288 107.821C103.902 106.617 104.57 105.115 103.58 104.078C101.707 102.114 101.601 102.215 99.7287 100.251C97.856 98.2873 98.1066 98.0506 96.2339 96.087C95.3582 95.1682 93.413 95.1344 91.9842 96.2C91.3462 96.676 91.5385 96.9315 90.8979 97.4068C89.4911 98.4553 89.1253 99.8475 89.7152 100.953L89.7179 100.953Z" fill="#EDB53E"/>
</g>
<defs>
<filter id="filter0_dd_3_12150" x="0.461426" y="7.45117" width="157.077" height="156.062" filterUnits="userSpaceOnUse" color-interpolation-filters="sRGB">
<feFlood flood-opacity="0" result="BackgroundImageFix"/>
<feColorMatrix in="SourceAlpha" type="matrix" values="0 0 0 0 0 0 0 0 0 0 0 0 0 0 0 0 0 0 127 0" result="hardAlpha"/>
<feMorphology radius="4" operator="erode" in="SourceAlpha" result="effect1_dropShadow_3_12150"/>
<feOffset dy="4"/>
<feGaussianBlur stdDeviation="2"/>
<feComposite in2="hardAlpha" operator="out"/>
<feColorMatrix type="matrix" values="0 0 0 0 0.0470588 0 0 0 0 0.0470588 0 0 0 0 0.0509804 0 0 0 0.05 0"/>
<feBlend mode="normal" in2="BackgroundImageFix" result="effect1_dropShadow_3_12150"/>
<feColorMatrix in="SourceAlpha" type="matrix" values="0 0 0 0 0 0 0 0 0 0 0 0 0 0 0 0 0 0 127 0" result="hardAlpha"/>
<feMorphology radius="8" operator="erode" in="SourceAlpha" result="effect2_dropShadow_3_12150"/>
<feOffset dy="8.09758"/>
<feGaussianBlur stdDeviation="8"/>
<feComposite in2="hardAlpha" operator="out"/>
<feColorMatrix type="matrix" values="0 0 0 0 0.0470588 0 0 0 0 0.0470588 0 0 0 0 0.0509804 0 0 0 0.1 0"/>
<feBlend mode="normal" in2="effect1_dropShadow_3_12150" result="effect2_dropShadow_3_12150"/>
<feBlend mode="normal" in="SourceGraphic" in2="effect2_dropShadow_3_12150" result="shape"/>
</filter>
</defs>
</svg>
