<svg width="158" height="163" viewBox="0 0 158 163" fill="none" xmlns="http://www.w3.org/2000/svg">
<g filter="url(#filter0_dd_2022_9301)">
<path d="M67.6508 11.7027C73.8617 5.29834 84.1383 5.29834 90.3492 11.7027C94.2149 15.6888 99.8884 17.3547 105.295 16.0913C113.983 14.0615 122.628 19.6175 124.391 28.363C125.488 33.8063 129.36 38.275 134.592 40.1355C142.997 43.1247 147.266 52.4726 144.021 60.7827C142.001 65.9549 142.842 71.8078 146.238 76.2014C151.693 83.2605 150.23 93.4325 143.007 98.6688C138.512 101.928 136.055 107.307 136.536 112.838C137.309 121.726 130.579 129.493 121.672 129.993C116.128 130.304 111.154 133.501 108.568 138.414C104.413 146.309 94.5523 149.204 86.7886 144.809C81.9565 142.074 76.0435 142.074 71.2114 144.809C63.4477 149.204 53.5874 146.309 49.4324 138.414C46.8463 133.501 41.872 130.304 36.328 129.993C27.4206 129.493 20.6909 121.726 21.4637 112.838C21.9447 107.307 19.4883 101.928 14.9927 98.6688C7.7696 93.4325 6.30708 83.2605 11.7623 76.2014C15.1577 71.8078 15.9992 65.9549 13.9792 60.7827C10.7337 52.4726 15.0028 43.1247 23.4085 40.1355C28.6402 38.275 32.5124 33.8063 33.6094 28.363C35.3719 19.6175 44.0171 14.0615 52.7045 16.0913C58.1116 17.3547 63.7851 15.6888 67.6508 11.7027Z" fill="#FFFCF5"/>
<path fill-rule="evenodd" clip-rule="evenodd" d="M69.0521 47.4415C69.6169 46.4621 70.7734 45.8933 71.4345 45.5129C72.0925 45.1343 73.6209 44.7876 74.5329 44.7844C76.2564 44.7781 78.7018 45.9014 80.0895 46.2733C81.4814 46.6462 84.0868 46.899 85.7571 47.3465C87.4235 47.793 89.813 48.8786 91.2019 49.2508C92.5909 49.623 95.203 49.8775 96.8694 50.3241C98.5372 50.7709 100.925 51.8561 102.315 52.2285C103.731 52.6079 106.568 52.4606 108.088 53.3456C108.938 53.8406 110.044 55.0369 110.454 55.7454C110.835 56.4034 110.925 58.078 110.925 58.9891C110.924 60.7627 109.776 63.2752 109.394 64.7025C109.01 66.1339 108.74 68.8098 108.28 70.5275C107.82 72.2416 106.715 74.7007 106.332 76.1293C105.949 77.5579 105.677 80.2403 105.218 81.9544C104.759 83.6684 103.653 86.1275 103.27 87.5561C102.887 88.9847 102.615 91.6672 102.156 93.3812C101.697 95.0952 100.591 97.5544 100.208 98.9829C99.8184 100.438 99.9548 103.345 99.0514 104.911C98.5607 105.762 97.1499 106.805 96.4396 107.214C95.7806 107.593 94.3103 107.732 93.3969 107.735C91.6734 107.741 89.2284 106.618 87.8407 106.246C86.4489 105.873 83.843 105.62 82.1728 105.173C80.5063 104.726 78.1165 103.641 76.7279 103.268C75.3394 102.896 72.7269 102.642 71.0604 102.195C69.3939 101.749 67.0041 100.663 65.6155 100.291C64.1999 99.9116 61.3614 100.059 59.8419 99.1737C58.9919 98.6787 57.942 97.2746 57.5315 96.5661C57.1504 95.9082 57.0048 94.4413 57.0051 93.5302C57.006 91.7566 58.1535 89.2441 58.536 87.8168C58.9195 86.3853 59.1899 83.7095 59.6502 81.9917C60.1094 80.2777 61.2151 77.8181 61.5978 76.39C61.9804 74.9619 62.2527 72.279 62.712 70.5649C63.1712 68.8509 64.2769 66.3913 64.6596 64.9632C65.0423 63.535 65.3145 60.8521 65.7738 59.1381C66.2334 57.4228 67.3384 54.9658 67.7214 53.5364C68.1244 52.0322 68.1185 49.0605 69.0521 47.4415Z" fill="#1E4A2F"/>
<path fill-rule="evenodd" clip-rule="evenodd" d="M58.949 51.3538C59.8008 50.2662 60.7852 49.6978 61.4904 49.2907C62.1921 48.8855 63.8218 48.5138 64.7941 48.5097C66.6316 48.5016 69.2378 49.7003 70.7169 50.0967C72.2005 50.4942 74.978 50.7623 76.7583 51.2394C78.5346 51.7153 81.0811 52.8737 82.5616 53.2704C84.042 53.6671 86.8266 53.9372 88.6029 54.4131C90.3805 54.8894 92.9253 56.0474 94.4067 56.4443C95.916 56.8487 98.9414 56.6891 100.561 57.6338C101.466 58.1622 102.644 59.4399 103.081 60.1969C103.487 60.8998 103.582 62.6894 103.581 63.6632C103.578 65.5588 102.353 68.245 101.944 69.7708C101.534 71.301 101.244 74.1611 100.752 75.9974C100.261 77.8296 99.0803 80.4588 98.6711 81.9859C98.2619 83.513 97.9697 86.3802 97.4788 88.2125C96.9878 90.0447 95.8073 92.6739 95.3981 94.201C94.9889 95.7281 94.6967 98.5953 94.2058 100.428C93.7148 102.26 92.5342 104.889 92.1251 106.416C91.7081 107.972 91.8513 111.078 90.8869 112.753C90.3632 113.663 88.8583 114.779 88.1008 115.216C87.3979 115.622 85.8303 115.771 84.8565 115.775C83.0191 115.783 80.4133 114.585 78.9342 114.188C77.4506 113.791 74.6727 113.523 72.8924 113.046C71.1161 112.57 68.5691 111.411 67.0891 111.015C65.609 110.618 62.824 110.348 61.0477 109.872C59.2714 109.396 56.7244 108.237 55.2444 107.841C53.7355 107.436 50.7093 107.596 49.09 106.651C48.1842 106.123 47.0659 104.623 46.6289 103.866C46.2231 103.163 46.069 101.596 46.07 100.622C46.0723 98.7261 47.2977 96.04 47.7065 94.5142C48.1165 92.984 48.4068 90.1239 48.8988 88.2876C49.3898 86.4553 50.5705 83.8257 50.9795 82.2991C51.3886 80.7724 51.6809 77.9048 52.1719 76.0725C52.6628 74.2402 53.8435 71.6106 54.2526 70.084C54.6616 68.5573 54.9539 65.6897 55.4449 63.8574C55.9362 62.0238 57.1162 59.3969 57.5256 57.8689C57.9564 56.2609 57.9524 53.0849 58.949 51.3538Z" fill="#EDB53E"/>
<path d="M72.0333 112.695C70.257 112.219 67.7101 111.061 66.23 110.664C64.75 110.268 61.965 109.997 60.1887 109.522C58.4124 109.046 55.8654 107.887 54.3854 107.49C52.8765 107.086 49.8502 107.246 48.2309 106.301C47.3251 105.772 46.2069 104.273 45.7699 103.516C45.3641 102.813 45.21 101.245 45.2109 100.271C45.2133 98.3758 46.4386 95.6896 46.8475 94.1639C47.2575 92.6336 47.5478 89.7736 48.0398 87.9373C48.5307 86.105 49.7114 83.4754 50.1205 81.9488C50.5296 80.4221 50.8219 77.5545 51.3128 75.7222C51.8038 73.8899 52.9844 71.2603 53.3935 69.7337C53.8026 68.207 54.0949 65.3394 54.5858 63.5071C55.0771 61.6735 56.2571 59.0466 56.6665 57.5186" stroke="#267F53" stroke-width="2.29927" stroke-linecap="round"/>
<path fill-rule="evenodd" clip-rule="evenodd" d="M61.9526 62.7631C62.1388 62.4805 62.4037 62.5026 62.5158 62.4379C62.6279 62.3732 62.9515 62.0891 63.079 62.1127C64.1784 62.3183 67.354 63.4406 68.4342 63.73C69.4861 64.0118 72.6876 64.6874 73.7394 64.9692C74.2502 65.1061 75.6637 65.9609 76.1745 66.0977C76.6853 66.2346 78.3368 66.201 78.8476 66.3379C79.3584 66.4748 80.8546 67.0204 81.3654 67.1573C81.8763 67.2942 83.4449 67.5698 83.9557 67.7066C85.0084 67.9887 88.1273 68.9906 89.18 69.2726C90.2585 69.5616 93.5629 70.1923 94.6161 70.5631C94.7383 70.6063 95.0785 71.0496 95.1432 71.1617C95.2079 71.2738 95.2588 71.5599 95.2665 71.6895C95.2773 71.8728 95.0761 72.4002 95.0284 72.5779C94.9808 72.7555 94.8915 73.3129 94.7904 73.4662C94.719 73.5747 94.6512 73.8863 94.3696 74.0489C94.2575 74.1136 93.7914 74.1402 93.664 74.1166C92.5134 73.9011 89.3467 72.0971 88.2158 71.7941C87.2147 71.5258 84.0047 71.5284 83.0035 71.2601C82.4927 71.1232 80.9814 70.634 80.4705 70.4971C79.9597 70.3603 78.4062 70.0283 77.8954 69.8914C77.3846 69.7545 75.9286 69.0587 75.4178 68.9219C74.9069 68.785 73.2981 68.6596 72.7873 68.5227C71.7719 68.2506 68.8967 66.8137 67.8813 66.5416C66.7646 66.2424 63.4788 65.8636 62.3882 65.4795C62.266 65.4363 61.8664 65.2151 61.8017 65.103C61.737 64.9909 61.4841 64.6694 61.4765 64.5398C61.4656 64.3565 61.6669 63.8291 61.7145 63.6514C61.7621 63.4738 61.8515 62.9164 61.9526 62.7631Z" fill="#267F53"/>
<path fill-rule="evenodd" clip-rule="evenodd" d="M59.692 71.2038C59.6562 71.3284 60.1431 70.9433 60.2552 70.8786C60.3673 70.8139 60.691 70.5298 60.8184 70.5534C61.915 70.7587 65.0907 71.8434 66.1683 72.1321C67.2228 72.4147 70.4243 73.1273 71.4788 73.4099C71.9897 73.5468 73.4995 74.0418 74.0103 74.1786C74.5211 74.3155 76.0762 74.6417 76.587 74.7786C77.0978 74.9155 78.5093 75.7774 79.0201 75.9143C79.5309 76.0511 81.1843 76.0105 81.6951 76.1473C82.7407 76.4275 85.8079 77.5193 86.8535 77.7994C87.9399 78.0906 91.2946 78.63 92.3556 79.0038C92.4778 79.047 92.616 79.4549 92.6807 79.567C92.7454 79.6791 92.9983 80.0006 93.0059 80.1302C93.0168 80.3135 92.8155 80.8409 92.7679 81.0186C92.7202 81.1962 92.6309 81.7536 92.5298 81.9069C92.4584 82.0154 92.0787 82.1674 91.9666 82.2321C91.8545 82.2968 91.5308 82.5809 91.4034 82.5573C90.2732 82.3458 87.104 80.823 85.9935 80.5255C84.9719 80.2517 81.7646 79.9746 80.743 79.7008C80.2321 79.5639 78.757 78.9397 78.2461 78.8028C77.7353 78.6659 76.1456 78.469 75.6348 78.3321C75.124 78.1952 73.7781 77.0886 73.2673 76.9517C72.7564 76.8148 71.0375 77.1002 70.5267 76.9634C69.482 76.6834 66.419 75.5833 65.3743 75.3033C64.2869 75.012 60.9281 74.4809 59.8662 74.1069C59.744 74.0637 59.6058 73.6558 59.5411 73.5437C59.4764 73.4316 59.2235 73.1101 59.2159 72.9805C59.205 72.7972 59.4063 72.2698 59.4539 72.0921C59.5016 71.9145 59.5909 71.3571 59.692 71.2038Z" fill="#267F53"/>
<path fill-rule="evenodd" clip-rule="evenodd" d="M57.4239 79.633C57.3892 79.7568 57.6675 79.3047 57.751 79.2332C57.8345 79.1617 58.1757 78.9011 58.2631 78.9142C59.0146 79.0278 61.1526 79.8323 61.8842 80.0284C62.6002 80.2202 64.7854 80.6618 65.5014 80.8537C65.8482 80.9466 66.8663 81.309 67.2131 81.402C67.56 81.4949 68.6229 81.6901 68.9697 81.783C69.3166 81.8759 70.2902 82.4044 70.637 82.4973C70.9838 82.5902 72.0912 82.6194 72.4381 82.7123C73.148 82.9026 75.2095 83.7225 75.9195 83.9127C76.6572 84.1104 78.963 84.372 79.6764 84.6518C79.7585 84.6842 79.9833 84.8584 80.0198 84.9621C80.0563 85.0657 80.0484 85.5688 80.0436 85.694C80.0369 85.871 79.8549 86.3984 79.8077 86.5745C79.7605 86.7506 79.6545 87.2983 79.5718 87.455C79.5133 87.5658 79.2834 87.9505 79.1999 88.0221C79.1164 88.0936 78.82 88.1869 78.7326 88.1739C77.9581 88.0569 75.7209 87.1427 74.9669 86.9407C74.2732 86.7548 72.188 86.4202 71.4943 86.2344C71.1475 86.1414 70.107 85.8626 69.7602 85.7697C69.4133 85.6768 68.3728 85.398 68.026 85.305C67.6792 85.2121 66.6387 84.9333 66.2918 84.8403C65.945 84.7474 64.9045 84.4686 64.5576 84.3757C63.8483 84.1856 61.7904 83.3572 61.081 83.1671C60.3427 82.9693 58.0334 82.7162 57.3193 82.4362C57.2372 82.4038 56.981 82.1624 56.9445 82.0588C56.9079 81.9551 56.9473 81.5192 56.9521 81.3941C56.9588 81.217 57.1408 80.6896 57.188 80.5135C57.2352 80.3374 57.3412 79.7897 57.4239 79.633Z" fill="#267F53"/>
<path d="M56.728 39.4179L57.1165 41.5207C57.165 41.7915 57.2935 42.0401 57.481 42.2444L59.1755 44.0677C59.9016 44.8481 59.5618 46.1163 58.542 46.4323L56.1628 47.164C55.8991 47.244 55.6658 47.3992 55.4853 47.6086L54.0974 49.2353C53.3035 50.1643 51.7845 49.7572 51.5615 48.5559L51.173 46.4531C51.1244 46.1823 50.9959 45.9336 50.8085 45.7294L49.1139 43.906C48.3879 43.1256 48.7277 41.8574 49.7475 41.5415L52.1267 40.8097C52.3903 40.7297 52.6236 40.5746 52.8042 40.3652L54.1921 38.7384C54.9859 37.8095 56.5049 38.2165 56.728 39.4179Z" fill="#267F53"/>
<path d="M109.239 90.0457L109.831 93.2475C109.906 93.6592 110.1 94.0393 110.384 94.3465L112.962 97.1194C114.069 98.31 113.552 100.237 111.998 100.715L108.38 101.828C107.98 101.951 107.622 102.184 107.351 102.503L105.238 104.98C104.032 106.391 101.716 105.77 101.377 103.945L100.786 100.743C100.711 100.332 100.517 99.9516 100.232 99.6444L97.6553 96.8715C96.548 95.6809 97.0644 93.7537 98.6186 93.2762L102.237 92.1634C102.637 92.0395 102.995 91.8074 103.266 91.4882L105.379 89.0113C106.585 87.6002 108.901 88.2208 109.239 90.0457Z" fill="#267F53"/>
<path d="M65.5462 43.8394C66.8115 44.1784 68.1108 43.4324 68.4483 42.1731C68.7857 40.9137 68.0335 39.618 66.7682 39.2789C65.5028 38.9399 64.2035 39.6859 63.8661 40.9453C63.5286 42.2046 64.2808 43.5003 65.5462 43.8394Z" fill="#99B7F5"/>
<path d="M107.787 112.352C109.427 112.791 111.111 111.824 111.548 110.192C111.985 108.561 111.011 106.881 109.371 106.442C107.731 106.003 106.047 106.969 105.61 108.601C105.173 110.233 106.148 111.913 107.787 112.352Z" fill="#EDB53E"/>
</g>
<defs>
<filter id="filter0_dd_2022_9301" x="0.461426" y="6.89941" width="157.077" height="156.062" filterUnits="userSpaceOnUse" color-interpolation-filters="sRGB">
<feFlood flood-opacity="0" result="BackgroundImageFix"/>
<feColorMatrix in="SourceAlpha" type="matrix" values="0 0 0 0 0 0 0 0 0 0 0 0 0 0 0 0 0 0 127 0" result="hardAlpha"/>
<feMorphology radius="4" operator="erode" in="SourceAlpha" result="effect1_dropShadow_2022_9301"/>
<feOffset dy="4"/>
<feGaussianBlur stdDeviation="2"/>
<feComposite in2="hardAlpha" operator="out"/>
<feColorMatrix type="matrix" values="0 0 0 0 0.0470588 0 0 0 0 0.0470588 0 0 0 0 0.0509804 0 0 0 0.05 0"/>
<feBlend mode="normal" in2="BackgroundImageFix" result="effect1_dropShadow_2022_9301"/>
<feColorMatrix in="SourceAlpha" type="matrix" values="0 0 0 0 0 0 0 0 0 0 0 0 0 0 0 0 0 0 127 0" result="hardAlpha"/>
<feMorphology radius="8" operator="erode" in="SourceAlpha" result="effect2_dropShadow_2022_9301"/>
<feOffset dy="8.09758"/>
<feGaussianBlur stdDeviation="8"/>
<feComposite in2="hardAlpha" operator="out"/>
<feColorMatrix type="matrix" values="0 0 0 0 0.0470588 0 0 0 0 0.0470588 0 0 0 0 0.0509804 0 0 0 0.1 0"/>
<feBlend mode="normal" in2="effect1_dropShadow_2022_9301" result="effect2_dropShadow_2022_9301"/>
<feBlend mode="normal" in="SourceGraphic" in2="effect2_dropShadow_2022_9301" result="shape"/>
</filter>
</defs>
</svg>
