<svg width="20" height="20" viewBox="0 0 20 20" fill="none" xmlns="http://www.w3.org/2000/svg">
<path d="M15.7437 15.0291L16.4937 15.0358L16.4937 15.0358L15.7437 15.0291ZM3.33325 4.24935C2.91904 4.24935 2.58325 4.58514 2.58325 4.99935C2.58325 5.41356 2.91904 5.74935 3.33325 5.74935V4.99935V4.24935ZM16.6666 5.74935C17.0808 5.74935 17.4166 5.41356 17.4166 4.99935C17.4166 4.58514 17.0808 4.24935 16.6666 4.24935V4.99935V5.74935ZM9.08325 8.33268C9.08325 7.91847 8.74747 7.58268 8.33325 7.58268C7.91904 7.58268 7.58325 7.91847 7.58325 8.33268H8.33325H9.08325ZM7.58325 14.9993C7.58325 15.4136 7.91904 15.7493 8.33325 15.7493C8.74747 15.7493 9.08325 15.4136 9.08325 14.9993H8.33325H7.58325ZM12.4166 8.33268C12.4166 7.91847 12.0808 7.58268 11.6666 7.58268C11.2524 7.58268 10.9166 7.91847 10.9166 8.33268H11.6666H12.4166ZM10.9166 14.9993C10.9166 15.4136 11.2524 15.7493 11.6666 15.7493C12.0808 15.7493 12.4166 15.4136 12.4166 14.9993H11.6666H10.9166ZM15.8333 4.99935L15.0833 4.99265L14.9937 15.0224L15.7437 15.0291L16.4937 15.0358L16.5832 5.00605L15.8333 4.99935ZM12.4105 18.3327V17.5827H7.49992V18.3327V19.0827H12.4105V18.3327ZM4.16659 4.99935H3.41659V14.9993H4.16659H4.91659V4.99935H4.16659ZM3.33325 4.99935V5.74935H4.16659V4.99935V4.24935H3.33325V4.99935ZM4.16659 4.99935V5.74935H6.66659V4.99935V4.24935H4.16659V4.99935ZM6.66659 4.99935V5.74935H13.3333V4.99935V4.24935H6.66659V4.99935ZM13.3333 4.99935V5.74935H15.8333V4.99935V4.24935H13.3333V4.99935ZM15.8333 4.99935V5.74935H16.6666V4.99935V4.24935H15.8333V4.99935ZM6.66659 4.62898H7.41659C7.41659 3.4874 8.4877 2.41602 9.99992 2.41602V1.66602V0.916016C7.83024 0.916016 5.91659 2.49776 5.91659 4.62898H6.66659ZM9.99992 1.66602V2.41602C11.5121 2.41602 12.5833 3.4874 12.5833 4.62898H13.3333H14.0833C14.0833 2.49776 12.1696 0.916016 9.99992 0.916016V1.66602ZM6.66659 4.62898H5.91659V4.99935H6.66659H7.41659V4.62898H6.66659ZM13.3333 4.62898H12.5833V4.99935H13.3333H14.0833V4.62898H13.3333ZM7.49992 18.3327V17.5827C6.07318 17.5827 4.91659 16.4261 4.91659 14.9993H4.16659H3.41659C3.41659 17.2545 5.24475 19.0827 7.49992 19.0827V18.3327ZM15.7437 15.0291L14.9937 15.0224C14.9811 16.4401 13.8282 17.5827 12.4105 17.5827V18.3327V19.0827C14.6514 19.0827 16.4737 17.2767 16.4937 15.0358L15.7437 15.0291ZM8.33325 8.33268H7.58325V14.9993H8.33325H9.08325V8.33268H8.33325ZM11.6666 8.33268H10.9166V14.9993H11.6666H12.4166V8.33268H11.6666Z" fill="#979AA0"/>
</svg>
