<svg width="235" height="52" viewBox="0 0 235 52" fill="none" xmlns="http://www.w3.org/2000/svg">
<path d="M234.187 12.3907C234.226 11.8399 233.812 11.3614 233.261 11.322L224.284 10.6803C223.733 10.6409 223.254 11.0556 223.215 11.6065C223.176 12.1574 223.59 12.6359 224.141 12.6752L232.121 13.2456L231.551 21.2252C231.511 21.7761 231.926 22.2546 232.477 22.294C233.028 22.3334 233.506 21.9187 233.545 21.3678L234.187 12.3907ZM4.77765 48.3713C5.11625 47.935 5.03705 47.3068 4.60074 46.9682C4.16443 46.6296 3.53624 46.7088 3.19763 47.1451L3.98764 47.7582L4.77765 48.3713ZM8.22602 40.8241C7.87672 41.2519 7.94036 41.8819 8.36816 42.2312C8.79596 42.5805 9.42592 42.5169 9.77521 42.0891L9.00062 41.4566L8.22602 40.8241ZM14.9649 35.9168C15.3268 35.4996 15.2819 34.868 14.8647 34.5061C14.4475 34.1443 13.8159 34.1891 13.454 34.6063L14.2094 35.2616L14.9649 35.9168ZM18.7832 28.6709C18.4068 29.075 18.4292 29.7078 18.8333 30.0843C19.2374 30.4607 19.8702 30.4383 20.2466 30.0342L19.5149 29.3526L18.7832 28.6709ZM25.9325 24.1926C26.327 23.8061 26.3335 23.1729 25.9469 22.7785C25.5604 22.384 24.9273 22.3776 24.5328 22.7641L25.2327 23.4783L25.9325 24.1926ZM30.4474 17.2759C30.0317 17.6394 29.9893 18.2711 30.3528 18.6869C30.7163 19.1027 31.3481 19.1451 31.7639 18.7815L31.1057 18.0287L30.4474 17.2759ZM37.8743 13.8058C38.3157 13.4737 38.4043 12.8468 38.0723 12.4055C37.7403 11.9641 37.1133 11.8755 36.672 12.2075L37.2732 13.0066L37.8743 13.8058ZM43.4235 7.61309C42.9512 7.89944 42.8005 8.51441 43.0869 8.98666C43.3732 9.45891 43.9882 9.60961 44.4605 9.32325L43.942 8.46817L43.4235 7.61309ZM51.4826 5.6619C51.9893 5.44227 52.2221 4.85344 52.0024 4.3467C51.7828 3.83996 51.194 3.60721 50.6872 3.82684L51.0849 4.74437L51.4826 5.6619ZM58.5226 1.21911C57.9843 1.34261 57.6481 1.8791 57.7716 2.4174C57.8951 2.9557 58.4315 3.29197 58.9699 3.16847L58.7462 2.19379L58.5226 1.21911ZM66.758 2.26706C67.3103 2.2672 67.7581 1.81959 67.7582 1.26731C67.7584 0.715025 67.3108 0.267199 66.7585 0.267064L66.7582 1.26706L66.758 2.26706ZM74.9618 1.23359C74.4242 1.10708 73.8858 1.44033 73.7593 1.97793C73.6328 2.51553 73.9661 3.0539 74.5037 3.18041L74.7327 2.207L74.9618 1.23359ZM81.9314 5.73665C82.4351 5.96301 83.027 5.73813 83.2534 5.23437C83.4798 4.73061 83.2549 4.13872 82.7511 3.91236L82.3413 4.8245L81.9314 5.73665ZM89.9594 7.79071C89.4902 7.49942 88.8736 7.64367 88.5824 8.11289C88.2911 8.58211 88.4353 9.19862 88.9045 9.48991L89.432 8.64031L89.9594 7.79071ZM95.5019 14.007C95.9458 14.3357 96.572 14.2424 96.9007 13.7986C97.2294 13.3548 97.1361 12.7285 96.6922 12.3998L96.0971 13.2034L95.5019 14.007ZM103.1 17.3848C102.671 17.038 102.041 17.1053 101.694 17.5351C101.347 17.965 101.415 18.5945 101.845 18.9413L102.472 18.1631L103.1 17.3848ZM108.077 24.043C108.503 24.3938 109.133 24.3324 109.484 23.9058C109.835 23.4793 109.773 22.8491 109.347 22.4983L108.712 23.2707L108.077 24.043ZM115.602 27.5695C115.169 27.2266 114.54 27.2996 114.197 27.7326C113.854 28.1655 113.927 28.7945 114.36 29.1373L114.981 28.3534L115.602 27.5695ZM120.823 34.047C121.271 34.3702 121.896 34.2692 122.22 33.8214C122.543 33.3735 122.442 32.7485 121.994 32.4253L121.409 33.2361L120.823 34.047ZM128.631 36.887C128.162 36.5964 127.545 36.7416 127.255 37.2113C126.964 37.681 127.109 38.2973 127.579 38.5878L128.105 37.7374L128.631 36.887ZM134.716 42.5542C135.212 42.7974 135.811 42.5927 136.054 42.0969C136.297 41.6011 136.093 41.0019 135.597 40.7586L135.156 41.6564L134.716 42.5542ZM142.914 43.8249C142.393 43.644 141.823 43.9204 141.642 44.4422C141.461 44.964 141.738 45.5337 142.259 45.7146L142.587 44.7698L142.914 43.8249ZM150.161 47.8564C150.703 47.9627 151.228 47.6095 151.335 47.0676C151.441 46.5256 151.088 46.0001 150.546 45.8938L150.353 46.8751L150.161 47.8564ZM158.385 46.8439C157.833 46.8176 157.365 47.2434 157.338 47.7951C157.312 48.3467 157.738 48.8153 158.289 48.8416L158.337 47.8428L158.385 46.8439ZM166.468 48.6544C167.018 48.604 167.423 48.1172 167.373 47.5673C167.323 47.0173 166.836 46.6123 166.286 46.6628L166.377 47.6586L166.468 48.6544ZM174.114 45.4409C173.574 45.5588 173.232 46.0918 173.35 46.6314C173.468 47.1709 174.001 47.5127 174.541 47.3948L174.327 46.4179L174.114 45.4409ZM182.418 45.22C182.942 45.046 183.226 44.4801 183.052 43.9559C182.878 43.4317 182.312 43.1479 181.788 43.3218L182.103 44.2709L182.418 45.22ZM189.297 40.4443C188.79 40.6638 188.557 41.2525 188.776 41.7593C188.996 42.2662 189.584 42.4991 190.091 42.2797L189.694 41.362L189.297 40.4443ZM197.385 38.7961C197.875 38.5409 198.065 37.937 197.81 37.4472C197.554 36.9574 196.95 36.7672 196.461 37.0224L196.923 37.9092L197.385 38.7961ZM203.376 33.1462C202.902 33.43 202.748 34.0441 203.032 34.5179C203.315 34.9917 203.93 35.1457 204.403 34.8619L203.889 34.004L203.376 33.1462ZM211.345 30.4534C211.804 30.1459 211.927 29.5248 211.619 29.066C211.312 28.6072 210.691 28.4845 210.232 28.792L210.788 29.6227L211.345 30.4534ZM216.721 24.2385C216.275 24.5649 216.179 25.1906 216.505 25.6361C216.831 26.0817 217.457 26.1783 217.903 25.8519L217.312 25.0452L216.721 24.2385ZM224.365 20.9316C224.798 20.5894 224.872 19.9605 224.53 19.5271C224.188 19.0937 223.559 19.0197 223.125 19.362L223.745 20.1468L224.365 20.9316ZM229.343 14.2897C228.92 14.6453 228.866 15.2761 229.221 15.6987C229.577 16.1213 230.208 16.1757 230.63 15.8201L229.987 15.0549L229.343 14.2897ZM1.41401 51.1145L2.21098 51.7185C3.07421 50.5795 3.92972 49.4639 4.77765 48.3713L3.98764 47.7582L3.19763 47.1451C2.34491 48.2439 1.48475 49.3656 0.617037 50.5105L1.41401 51.1145ZM9.00062 41.4566L9.77521 42.0891C11.5387 39.9292 13.2682 37.873 14.9649 35.9168L14.2094 35.2616L13.454 34.6063C11.7436 36.5784 10.0014 38.6498 8.22602 40.8241L9.00062 41.4566ZM19.5149 29.3526L20.2466 30.0342C22.1858 27.9526 24.0804 26.0075 25.9325 24.1926L25.2327 23.4783L24.5328 22.7641C22.6574 24.6017 20.7417 26.5687 18.7832 28.6709L19.5149 29.3526ZM31.1057 18.0287L31.7639 18.7815C33.8563 16.9521 35.8918 15.2971 37.8743 13.8058L37.2732 13.0066L36.672 12.2075C34.6472 13.7307 32.5736 15.4169 30.4474 17.2759L31.1057 18.0287ZM43.942 8.46817L44.4605 9.32325C46.8817 7.85508 49.2196 6.64268 51.4826 5.6619L51.0849 4.74437L50.6872 3.82684C48.3337 4.84688 45.9153 6.10216 43.4235 7.61309L43.942 8.46817ZM58.7462 2.19379L58.9699 3.16847C61.6615 2.55095 64.2512 2.26645 66.758 2.26706L66.7582 1.26706L66.7585 0.267064C64.098 0.266412 61.3581 0.568597 58.5226 1.21911L58.7462 2.19379ZM74.7327 2.207L74.5037 3.18041C77.0337 3.77581 79.5021 4.64507 81.9314 5.73665L82.3413 4.8245L82.7511 3.91236C80.222 2.7759 77.6325 1.86208 74.9618 1.23359L74.7327 2.207ZM89.432 8.64031L88.9045 9.48991C91.1167 10.8632 93.3095 12.3833 95.5019 14.007L96.0971 13.2034L96.6922 12.3998C94.4681 10.7526 92.2292 9.19977 89.9594 7.79071L89.432 8.64031ZM102.472 18.1631L101.845 18.9413C103.907 20.6052 105.976 22.316 108.077 24.043L108.712 23.2707L109.347 22.4983C107.252 20.7758 105.172 19.0563 103.1 17.3848L102.472 18.1631ZM114.981 28.3534L114.36 29.1373C116.472 30.8093 118.622 32.4581 120.823 34.047L121.409 33.2361L121.994 32.4253C119.823 30.8586 117.697 29.2288 115.602 27.5695L114.981 28.3534ZM128.105 37.7374L127.579 38.5878C129.888 40.0163 132.263 41.3505 134.716 42.5542L135.156 41.6564L135.597 40.7586C133.21 39.5875 130.893 38.286 128.631 36.887L128.105 37.7374ZM142.587 44.7698L142.259 45.7146C144.804 46.5967 147.434 47.3216 150.161 47.8564L150.353 46.8751L150.546 45.8938C147.916 45.378 145.376 44.6783 142.914 43.8249L142.587 44.7698ZM158.337 47.8428L158.289 48.8416C160.927 48.9675 163.651 48.9129 166.468 48.6544L166.377 47.6586L166.286 46.6628C163.56 46.9128 160.929 46.9653 158.385 46.8439L158.337 47.8428ZM174.327 46.4179L174.541 47.3948C177.092 46.8372 179.716 46.1169 182.418 45.22L182.103 44.2709L181.788 43.3218C179.15 44.1976 176.593 44.899 174.114 45.4409L174.327 46.4179ZM189.694 41.362L190.091 42.2797C192.464 41.2524 194.894 40.0938 197.385 38.7961L196.923 37.9092L196.461 37.0224C194.01 38.2992 191.623 39.437 189.297 40.4443L189.694 41.362ZM203.889 34.004L204.403 34.8619C206.668 33.5051 208.982 32.0374 211.345 30.4534L210.788 29.6227L210.232 28.792C207.895 30.3581 205.61 31.8076 203.376 33.1462L203.889 34.004ZM217.312 25.0452L217.903 25.8519C220.017 24.3028 222.171 22.6639 224.365 20.9316L223.745 20.1468L223.125 19.362C220.95 21.08 218.815 22.7043 216.721 24.2385L217.312 25.0452ZM229.987 15.0549L230.63 15.8201C231.693 14.9264 232.764 14.0115 233.845 13.0752L233.19 12.3194L232.535 11.5637C231.461 12.4939 230.397 13.4024 229.343 14.2897L229.987 15.0549ZM234.187 12.3907C234.226 11.8399 233.812 11.3614 233.261 11.322L224.284 10.6803C223.733 10.6409 223.254 11.0556 223.215 11.6065C223.176 12.1574 223.59 12.6359 224.141 12.6752L232.121 13.2456L231.551 21.2252C231.511 21.7761 231.926 22.2546 232.477 22.294C233.028 22.3334 233.506 21.9187 233.545 21.3678L234.187 12.3907ZM4.77765 48.3713C5.11625 47.935 5.03705 47.3068 4.60074 46.9682C4.16443 46.6296 3.53624 46.7088 3.19763 47.1451L3.98764 47.7582L4.77765 48.3713ZM8.22602 40.8241C7.87672 41.2519 7.94036 41.8819 8.36816 42.2312C8.79596 42.5805 9.42592 42.5169 9.77521 42.0891L9.00062 41.4566L8.22602 40.8241ZM14.9649 35.9168C15.3268 35.4996 15.2819 34.868 14.8647 34.5061C14.4475 34.1443 13.8159 34.1891 13.454 34.6063L14.2094 35.2616L14.9649 35.9168ZM18.7832 28.6709C18.4068 29.075 18.4292 29.7078 18.8333 30.0843C19.2374 30.4607 19.8702 30.4383 20.2466 30.0342L19.5149 29.3526L18.7832 28.6709ZM25.9325 24.1926C26.327 23.8061 26.3335 23.1729 25.9469 22.7785C25.5604 22.384 24.9273 22.3776 24.5328 22.7641L25.2327 23.4783L25.9325 24.1926ZM30.4474 17.2759C30.0317 17.6394 29.9893 18.2711 30.3528 18.6869C30.7163 19.1027 31.3481 19.1451 31.7639 18.7815L31.1057 18.0287L30.4474 17.2759ZM37.8743 13.8058C38.3157 13.4737 38.4043 12.8468 38.0723 12.4055C37.7403 11.9641 37.1133 11.8755 36.672 12.2075L37.2732 13.0066L37.8743 13.8058ZM43.4235 7.61309C42.9512 7.89944 42.8005 8.51441 43.0869 8.98666C43.3732 9.45891 43.9882 9.60961 44.4605 9.32325L43.942 8.46817L43.4235 7.61309ZM51.4826 5.6619C51.9893 5.44227 52.2221 4.85344 52.0024 4.3467C51.7828 3.83996 51.194 3.60721 50.6872 3.82684L51.0849 4.74437L51.4826 5.6619ZM58.5226 1.21911C57.9843 1.34261 57.6481 1.8791 57.7716 2.4174C57.8951 2.9557 58.4315 3.29197 58.9699 3.16847L58.7462 2.19379L58.5226 1.21911ZM66.758 2.26706C67.3103 2.2672 67.7581 1.81959 67.7582 1.26731C67.7584 0.715025 67.3108 0.267199 66.7585 0.267064L66.7582 1.26706L66.758 2.26706ZM74.9618 1.23359C74.4242 1.10708 73.8858 1.44033 73.7593 1.97793C73.6328 2.51553 73.9661 3.0539 74.5037 3.18041L74.7327 2.207L74.9618 1.23359ZM81.9314 5.73665C82.4351 5.96301 83.027 5.73813 83.2534 5.23437C83.4798 4.73061 83.2549 4.13872 82.7511 3.91236L82.3413 4.8245L81.9314 5.73665ZM89.9594 7.79071C89.4902 7.49942 88.8736 7.64367 88.5824 8.11289C88.2911 8.58211 88.4353 9.19862 88.9045 9.48991L89.432 8.64031L89.9594 7.79071ZM95.5019 14.007C95.9458 14.3357 96.572 14.2424 96.9007 13.7986C97.2294 13.3548 97.1361 12.7285 96.6922 12.3998L96.0971 13.2034L95.5019 14.007ZM103.1 17.3848C102.671 17.038 102.041 17.1053 101.694 17.5351C101.347 17.965 101.415 18.5945 101.845 18.9413L102.472 18.1631L103.1 17.3848ZM108.077 24.043C108.503 24.3938 109.133 24.3324 109.484 23.9058C109.835 23.4793 109.773 22.8491 109.347 22.4983L108.712 23.2707L108.077 24.043ZM115.602 27.5695C115.169 27.2266 114.54 27.2996 114.197 27.7326C113.854 28.1655 113.927 28.7945 114.36 29.1373L114.981 28.3534L115.602 27.5695ZM120.823 34.047C121.271 34.3702 121.896 34.2692 122.22 33.8214C122.543 33.3735 122.442 32.7485 121.994 32.4253L121.409 33.2361L120.823 34.047ZM128.631 36.887C128.162 36.5964 127.545 36.7416 127.255 37.2113C126.964 37.681 127.109 38.2973 127.579 38.5878L128.105 37.7374L128.631 36.887ZM134.716 42.5542C135.212 42.7974 135.811 42.5927 136.054 42.0969C136.297 41.6011 136.093 41.0019 135.597 40.7586L135.156 41.6564L134.716 42.5542ZM142.914 43.8249C142.393 43.644 141.823 43.9204 141.642 44.4422C141.461 44.964 141.738 45.5337 142.259 45.7146L142.587 44.7698L142.914 43.8249ZM150.161 47.8564C150.703 47.9627 151.228 47.6095 151.335 47.0676C151.441 46.5256 151.088 46.0001 150.546 45.8938L150.353 46.8751L150.161 47.8564ZM158.385 46.8439C157.833 46.8176 157.365 47.2434 157.338 47.7951C157.312 48.3467 157.738 48.8153 158.289 48.8416L158.337 47.8428L158.385 46.8439ZM166.468 48.6544C167.018 48.604 167.423 48.1172 167.373 47.5673C167.323 47.0173 166.836 46.6123 166.286 46.6628L166.377 47.6586L166.468 48.6544ZM174.114 45.4409C173.574 45.5588 173.232 46.0918 173.35 46.6314C173.468 47.1709 174.001 47.5127 174.541 47.3948L174.327 46.4179L174.114 45.4409ZM182.418 45.22C182.942 45.046 183.226 44.4801 183.052 43.9559C182.878 43.4317 182.312 43.1479 181.788 43.3218L182.103 44.2709L182.418 45.22ZM189.297 40.4443C188.79 40.6638 188.557 41.2525 188.776 41.7593C188.996 42.2662 189.584 42.4991 190.091 42.2797L189.694 41.362L189.297 40.4443ZM197.385 38.7961C197.875 38.5409 198.065 37.937 197.81 37.4472C197.554 36.9574 196.95 36.7672 196.461 37.0224L196.923 37.9092L197.385 38.7961ZM203.376 33.1462C202.902 33.43 202.748 34.0441 203.032 34.5179C203.315 34.9917 203.93 35.1457 204.403 34.8619L203.889 34.004L203.376 33.1462ZM211.345 30.4534C211.804 30.1459 211.927 29.5248 211.619 29.066C211.312 28.6072 210.691 28.4845 210.232 28.792L210.788 29.6227L211.345 30.4534ZM216.721 24.2385C216.275 24.5649 216.179 25.1906 216.505 25.6361C216.831 26.0817 217.457 26.1783 217.903 25.8519L217.312 25.0452L216.721 24.2385ZM224.365 20.9316C224.798 20.5894 224.872 19.9605 224.53 19.5271C224.188 19.0937 223.559 19.0197 223.125 19.362L223.745 20.1468L224.365 20.9316ZM229.343 14.2897C228.92 14.6453 228.866 15.2761 229.221 15.6987C229.577 16.1213 230.208 16.1757 230.63 15.8201L229.987 15.0549L229.343 14.2897ZM1.41401 51.1145L2.21098 51.7185C3.07421 50.5795 3.92972 49.4639 4.77765 48.3713L3.98764 47.7582L3.19763 47.1451C2.34491 48.2439 1.48475 49.3656 0.617037 50.5105L1.41401 51.1145ZM9.00062 41.4566L9.77521 42.0891C11.5387 39.9292 13.2682 37.873 14.9649 35.9168L14.2094 35.2616L13.454 34.6063C11.7436 36.5784 10.0014 38.6498 8.22602 40.8241L9.00062 41.4566ZM19.5149 29.3526L20.2466 30.0342C22.1858 27.9526 24.0804 26.0075 25.9325 24.1926L25.2327 23.4783L24.5328 22.7641C22.6574 24.6017 20.7417 26.5687 18.7832 28.6709L19.5149 29.3526ZM31.1057 18.0287L31.7639 18.7815C33.8563 16.9521 35.8918 15.2971 37.8743 13.8058L37.2732 13.0066L36.672 12.2075C34.6472 13.7307 32.5736 15.4169 30.4474 17.2759L31.1057 18.0287ZM43.942 8.46817L44.4605 9.32325C46.8817 7.85508 49.2196 6.64268 51.4826 5.6619L51.0849 4.74437L50.6872 3.82684C48.3337 4.84688 45.9153 6.10216 43.4235 7.61309L43.942 8.46817ZM58.7462 2.19379L58.9699 3.16847C61.6615 2.55095 64.2512 2.26645 66.758 2.26706L66.7582 1.26706L66.7585 0.267064C64.098 0.266412 61.3581 0.568597 58.5226 1.21911L58.7462 2.19379ZM74.7327 2.207L74.5037 3.18041C77.0337 3.77581 79.5021 4.64507 81.9314 5.73665L82.3413 4.8245L82.7511 3.91236C80.222 2.7759 77.6325 1.86208 74.9618 1.23359L74.7327 2.207ZM89.432 8.64031L88.9045 9.48991C91.1167 10.8632 93.3095 12.3833 95.5019 14.007L96.0971 13.2034L96.6922 12.3998C94.4681 10.7526 92.2292 9.19977 89.9594 7.79071L89.432 8.64031ZM102.472 18.1631L101.845 18.9413C103.907 20.6052 105.976 22.316 108.077 24.043L108.712 23.2707L109.347 22.4983C107.252 20.7758 105.172 19.0563 103.1 17.3848L102.472 18.1631ZM114.981 28.3534L114.36 29.1373C116.472 30.8093 118.622 32.4581 120.823 34.047L121.409 33.2361L121.994 32.4253C119.823 30.8586 117.697 29.2288 115.602 27.5695L114.981 28.3534ZM128.105 37.7374L127.579 38.5878C129.888 40.0163 132.263 41.3505 134.716 42.5542L135.156 41.6564L135.597 40.7586C133.21 39.5875 130.893 38.286 128.631 36.887L128.105 37.7374ZM142.587 44.7698L142.259 45.7146C144.804 46.5967 147.434 47.3216 150.161 47.8564L150.353 46.8751L150.546 45.8938C147.916 45.378 145.376 44.6783 142.914 43.8249L142.587 44.7698ZM158.337 47.8428L158.289 48.8416C160.927 48.9675 163.651 48.9129 166.468 48.6544L166.377 47.6586L166.286 46.6628C163.56 46.9128 160.929 46.9653 158.385 46.8439L158.337 47.8428ZM174.327 46.4179L174.541 47.3948C177.092 46.8372 179.716 46.1169 182.418 45.22L182.103 44.2709L181.788 43.3218C179.15 44.1976 176.593 44.899 174.114 45.4409L174.327 46.4179ZM189.694 41.362L190.091 42.2797C192.464 41.2524 194.894 40.0938 197.385 38.7961L196.923 37.9092L196.461 37.0224C194.01 38.2992 191.623 39.437 189.297 40.4443L189.694 41.362ZM203.889 34.004L204.403 34.8619C206.668 33.5051 208.982 32.0374 211.345 30.4534L210.788 29.6227L210.232 28.792C207.895 30.3581 205.61 31.8076 203.376 33.1462L203.889 34.004ZM217.312 25.0452L217.903 25.8519C220.017 24.3028 222.171 22.6639 224.365 20.9316L223.745 20.1468L223.125 19.362C220.95 21.08 218.815 22.7043 216.721 24.2385L217.312 25.0452ZM229.987 15.0549L230.63 15.8201C231.693 14.9264 232.764 14.0115 233.845 13.0752L233.19 12.3194L232.535 11.5637C231.461 12.4939 230.397 13.4024 229.343 14.2897L229.987 15.0549Z" fill="white"/>
</svg>
