<svg width="211" height="49" viewBox="0 0 211 49" fill="none" xmlns="http://www.w3.org/2000/svg">
<path d="M205.649 48.9377C206.166 49.1314 206.743 48.8691 206.936 48.3519L210.093 39.9237C210.287 39.4065 210.025 38.8302 209.507 38.6365C208.99 38.4428 208.414 38.705 208.22 39.2222L205.414 46.714L197.922 43.9079C197.405 43.7142 196.829 43.9764 196.635 44.4936C196.442 45.0108 196.704 45.5871 197.221 45.7809L205.649 48.9377ZM5.45643 31.3422C5.95967 31.1147 6.18316 30.5223 5.95563 30.019C5.72809 29.5158 5.13568 29.2923 4.63245 29.5198L5.04444 30.431L5.45643 31.3422ZM12.1318 26.2539C11.6227 26.468 11.3837 27.0544 11.5979 27.5634C11.8121 28.0725 12.3984 28.3115 12.9074 28.0973L12.5196 27.1756L12.1318 26.2539ZM20.3695 25.0539C20.8831 24.8508 21.1348 24.2698 20.9317 23.7562C20.7286 23.2426 20.1476 22.9909 19.634 23.194L20.0017 24.124L20.3695 25.0539ZM27.2885 20.259C26.7708 20.4514 26.5071 21.027 26.6995 21.5447C26.8918 22.0624 27.4675 22.3261 27.9852 22.1337L27.6368 21.1964L27.2885 20.259ZM35.5783 19.4001C36.0998 19.2183 36.3753 18.6482 36.1936 18.1267C36.0118 17.6052 35.4417 17.3297 34.9202 17.5115L35.2492 18.4558L35.5783 19.4001ZM42.635 14.9131C42.1097 15.0839 41.8224 15.6481 41.9931 16.1733C42.1639 16.6985 42.7281 16.9859 43.2533 16.8152L42.9441 15.8641L42.635 14.9131ZM50.9885 14.393C51.5174 14.2337 51.817 13.676 51.6578 13.1471C51.4985 12.6183 50.9408 12.3187 50.4119 12.4779L50.7002 13.4354L50.9885 14.393ZM58.244 10.2168C57.7116 10.3638 57.3993 10.9146 57.5463 11.4469C57.6933 11.9793 58.244 12.2917 58.7764 12.1447L58.5102 11.1808L58.244 10.2168ZM66.614 10.0823C67.1498 9.94836 67.4755 9.40545 67.3416 8.86965C67.2077 8.33385 66.6648 8.00805 66.129 8.14197L66.3715 9.11212L66.614 10.0823ZM74.0658 6.26751C73.5266 6.38728 73.1867 6.92143 73.3064 7.46057C73.4262 7.99972 73.9604 8.33968 74.4995 8.21991L74.2826 7.24371L74.0658 6.26751ZM82.4308 6.57454C82.9731 6.47018 83.3281 5.94592 83.2238 5.40359C83.1194 4.86126 82.5952 4.50621 82.0528 4.61057L82.2418 5.59256L82.4308 6.57454ZM90.0876 3.19159C89.5423 3.27905 89.1711 3.79201 89.2586 4.33733C89.346 4.88265 89.859 5.25381 90.4043 5.16635L90.2459 4.17897L90.0876 3.19159ZM98.4152 4.01915C98.9632 3.95035 99.3517 3.45036 99.2829 2.90237C99.2141 2.35439 98.7141 1.96593 98.1661 2.03473L98.2907 3.02694L98.4152 4.01915ZM106.283 1.16842C105.732 1.21647 105.325 1.70144 105.373 2.25163C105.422 2.80182 105.906 3.20889 106.457 3.16083L106.37 2.16462L106.283 1.16842ZM114.519 2.62399C115.071 2.59911 115.498 2.13168 115.473 1.57995C115.448 1.02823 114.981 0.601139 114.429 0.626022L114.474 1.62501L114.519 2.62399ZM122.595 0.446609C122.043 0.445481 121.594 0.892281 121.593 1.44456C121.592 1.99685 122.039 2.44548 122.591 2.44661L122.593 1.44661L122.595 0.446609ZM130.657 2.6729C131.208 2.70333 131.68 2.28097 131.711 1.72952C131.741 1.17808 131.319 0.706371 130.767 0.675936L130.712 1.67441L130.657 2.6729ZM138.923 1.36716C138.374 1.30367 137.878 1.69695 137.814 2.24557C137.751 2.79419 138.144 3.29041 138.693 3.3539L138.808 2.36053L138.923 1.36716ZM146.66 4.54621C147.203 4.6469 147.725 4.2883 147.825 3.74527C147.926 3.20224 147.567 2.68041 147.024 2.57973L146.842 3.56297L146.66 4.54621ZM155.024 4.37798C154.491 4.23576 153.943 4.55308 153.8 5.08674C153.658 5.6204 153.976 6.16831 154.509 6.31053L154.767 5.34426L155.024 4.37798ZM162.177 8.70794C162.696 8.8959 163.27 8.62728 163.458 8.10797C163.646 7.58865 163.377 7.01529 162.858 6.82733L162.517 7.76764L162.177 8.70794ZM170.442 9.98707C169.943 9.74991 169.346 9.96199 169.109 10.4608C168.872 10.9595 169.084 11.5561 169.583 11.7933L170.012 10.8902L170.442 9.98707ZM176.63 15.6054C177.101 15.8937 177.717 15.7456 178.005 15.2745C178.293 14.8034 178.145 14.1878 177.674 13.8996L177.152 14.7525L176.63 15.6054ZM184.443 18.5773C184.007 18.2382 183.379 18.3168 183.04 18.7528C182.701 19.1887 182.779 19.817 183.215 20.156L183.829 19.3667L184.443 18.5773ZM189.238 25.4201C189.633 25.8068 190.266 25.8007 190.653 25.4064C191.039 25.0121 191.033 24.3789 190.639 23.9922L189.939 24.7062L189.238 25.4201ZM196.172 30.0742C195.824 29.6454 195.195 29.5799 194.766 29.928C194.337 30.2761 194.272 30.9059 194.62 31.3347L195.396 30.7044L196.172 30.0742ZM199.313 37.8077C199.613 38.2715 200.232 38.4044 200.696 38.1045C201.159 37.8046 201.292 37.1855 200.992 36.7218L200.153 37.2647L199.313 37.8077ZM205.09 43.824C204.838 43.3326 204.235 43.1388 203.744 43.391C203.253 43.6432 203.059 44.2459 203.311 44.7373L204.201 44.2806L205.09 43.824ZM1.41392 32.1164C1.85141 33.0156 1.8514 33.0157 1.85138 33.0157C1.85139 33.0157 1.85138 33.0157 1.85138 33.0157C1.85139 33.0157 1.85142 33.0156 1.85147 33.0156C1.85156 33.0156 1.85174 33.0155 1.85199 33.0154C1.85249 33.0151 1.8533 33.0147 1.85442 33.0142C1.85667 33.0131 1.86015 33.0114 1.86487 33.0091C1.8743 33.0045 1.88866 32.9976 1.90791 32.9883C1.94641 32.9697 2.00444 32.9418 2.08162 32.9049C2.236 32.831 2.46698 32.7211 2.7715 32.578C3.38054 32.2917 4.2837 31.8725 5.45643 31.3422L5.04444 30.431L4.63245 29.5198C3.45034 30.0543 2.53824 30.4777 1.92073 30.768C1.61198 30.9131 1.37686 31.0249 1.21845 31.1007C1.13925 31.1386 1.07922 31.1675 1.03875 31.187C1.01852 31.1968 1.00318 31.2042 0.992773 31.2093C0.98757 31.2118 0.983602 31.2137 0.980875 31.215C0.979511 31.2157 0.978458 31.2162 0.977715 31.2166C0.977344 31.2168 0.97705 31.2169 0.976834 31.217C0.976726 31.2171 0.976638 31.2171 0.976569 31.2171C0.976535 31.2171 0.976497 31.2172 0.97648 31.2172C0.976448 31.2172 0.97642 31.2172 1.41392 32.1164ZM12.5196 27.1756L12.9074 28.0973C15.1142 27.1689 17.6132 26.1439 20.3695 25.0539L20.0017 24.124L19.634 23.194C16.8635 24.2897 14.351 25.3201 12.1318 26.2539L12.5196 27.1756ZM27.6368 21.1964L27.9852 22.1337C30.3906 21.2399 32.9267 20.3241 35.5783 19.4001L35.2492 18.4558L34.9202 17.5115C32.2551 18.4402 29.7061 19.3606 27.2885 20.259L27.6368 21.1964ZM42.9441 15.8641L43.2533 16.8152C45.7572 16.0011 48.3391 15.1907 50.9885 14.393L50.7002 13.4354L50.4119 12.4779C47.7479 13.28 45.1521 14.0948 42.635 14.9131L42.9441 15.8641ZM58.5102 11.1808L58.7764 12.1447C61.3422 11.4361 63.9575 10.7462 66.614 10.0823L66.3715 9.11212L66.129 8.14197C63.4559 8.81006 60.8249 9.50416 58.244 10.2168L58.5102 11.1808ZM74.2826 7.24371L74.4995 8.21991C77.1153 7.63881 79.7615 7.0882 82.4308 6.57454L82.2418 5.59256L82.0528 4.61057C79.364 5.12799 76.6992 5.68249 74.0658 6.26751L74.2826 7.24371ZM90.2459 4.17897L90.4043 5.16635C93.0617 4.74015 95.7343 4.35572 98.4152 4.01915L98.2907 3.02694L98.1661 2.03473C95.4614 2.37427 92.7663 2.76197 90.0876 3.19159L90.2459 4.17897ZM106.37 2.16462L106.457 3.16083C109.145 2.92602 111.835 2.74506 114.519 2.62399L114.474 1.62501L114.429 0.626022C111.715 0.748416 108.998 0.931294 106.283 1.16842L106.37 2.16462ZM122.593 1.44661L122.591 2.44661C125.295 2.45213 127.986 2.52548 130.657 2.6729L130.712 1.67441L130.767 0.675936C128.059 0.526459 125.332 0.452201 122.595 0.446609L122.593 1.44661ZM138.808 2.36053L138.693 3.3539C141.38 3.66486 144.038 4.06008 146.66 4.54621L146.842 3.56297L147.024 2.57973C144.355 2.08486 141.652 1.68304 138.923 1.36716L138.808 2.36053ZM154.767 5.34426L154.509 6.31053C157.114 7.00475 159.673 7.80152 162.177 8.70794L162.517 7.76764L162.858 6.82733C160.296 5.90021 157.682 5.08633 155.024 4.37798L154.767 5.34426ZM170.012 10.8902L169.583 11.7933C171.998 12.9418 174.35 14.2101 176.63 15.6054L177.152 14.7525L177.674 13.8996C175.332 12.4662 172.918 11.1646 170.442 9.98707L170.012 10.8902ZM183.829 19.3667L183.215 20.156C185.302 21.7787 187.312 23.531 189.238 25.4201L189.939 24.7062L190.639 23.9922C188.657 22.0488 186.589 20.2462 184.443 18.5773L183.829 19.3667ZM195.396 30.7044L194.62 31.3347C196.266 33.3629 197.833 35.5186 199.313 37.8077L200.153 37.2647L200.992 36.7218C199.474 34.3729 197.865 32.1589 196.172 30.0742L195.396 30.7044ZM204.201 44.2806L203.311 44.7373C203.925 45.9324 204.518 47.1582 205.09 48.4153L206 48.0012L206.91 47.587C206.325 46.3016 205.718 45.0474 205.09 43.824L204.201 44.2806ZM205.649 48.9377C206.166 49.1314 206.743 48.8691 206.936 48.3519L210.093 39.9237C210.287 39.4065 210.025 38.8302 209.507 38.6365C208.99 38.4428 208.414 38.705 208.22 39.2222L205.414 46.714L197.922 43.9079C197.405 43.7142 196.829 43.9764 196.635 44.4936C196.442 45.0108 196.704 45.5871 197.221 45.7809L205.649 48.9377ZM5.45643 31.3422C5.95967 31.1147 6.18316 30.5223 5.95563 30.019C5.72809 29.5158 5.13568 29.2923 4.63245 29.5198L5.04444 30.431L5.45643 31.3422ZM12.1318 26.2539C11.6227 26.468 11.3837 27.0544 11.5979 27.5634C11.8121 28.0725 12.3984 28.3115 12.9074 28.0973L12.5196 27.1756L12.1318 26.2539ZM20.3695 25.0539C20.8831 24.8508 21.1348 24.2698 20.9317 23.7562C20.7286 23.2426 20.1476 22.9909 19.634 23.194L20.0017 24.124L20.3695 25.0539ZM27.2885 20.259C26.7708 20.4514 26.5071 21.027 26.6995 21.5447C26.8918 22.0624 27.4675 22.3261 27.9852 22.1337L27.6368 21.1964L27.2885 20.259ZM35.5783 19.4001C36.0998 19.2183 36.3753 18.6482 36.1936 18.1267C36.0118 17.6052 35.4417 17.3297 34.9202 17.5115L35.2492 18.4558L35.5783 19.4001ZM42.635 14.9131C42.1097 15.0839 41.8224 15.6481 41.9931 16.1733C42.1639 16.6985 42.7281 16.9859 43.2533 16.8152L42.9441 15.8641L42.635 14.9131ZM50.9885 14.393C51.5174 14.2337 51.817 13.676 51.6578 13.1471C51.4985 12.6183 50.9408 12.3187 50.4119 12.4779L50.7002 13.4354L50.9885 14.393ZM58.244 10.2168C57.7116 10.3638 57.3993 10.9146 57.5463 11.4469C57.6933 11.9793 58.244 12.2917 58.7764 12.1447L58.5102 11.1808L58.244 10.2168ZM66.614 10.0823C67.1498 9.94836 67.4755 9.40545 67.3416 8.86965C67.2077 8.33385 66.6648 8.00805 66.129 8.14197L66.3715 9.11212L66.614 10.0823ZM74.0658 6.26751C73.5266 6.38728 73.1867 6.92143 73.3064 7.46057C73.4262 7.99972 73.9604 8.33968 74.4995 8.21991L74.2826 7.24371L74.0658 6.26751ZM82.4308 6.57454C82.9731 6.47018 83.3281 5.94592 83.2238 5.40359C83.1194 4.86126 82.5952 4.50621 82.0528 4.61057L82.2418 5.59256L82.4308 6.57454ZM90.0876 3.19159C89.5423 3.27905 89.1711 3.79201 89.2586 4.33733C89.346 4.88265 89.859 5.25381 90.4043 5.16635L90.2459 4.17897L90.0876 3.19159ZM98.4152 4.01915C98.9632 3.95035 99.3517 3.45036 99.2829 2.90237C99.2141 2.35439 98.7141 1.96593 98.1661 2.03473L98.2907 3.02694L98.4152 4.01915ZM106.283 1.16842C105.732 1.21647 105.325 1.70144 105.373 2.25163C105.422 2.80182 105.906 3.20889 106.457 3.16083L106.37 2.16462L106.283 1.16842ZM114.519 2.62399C115.071 2.59911 115.498 2.13168 115.473 1.57995C115.448 1.02823 114.981 0.601139 114.429 0.626022L114.474 1.62501L114.519 2.62399ZM122.595 0.446609C122.043 0.445481 121.594 0.892281 121.593 1.44456C121.592 1.99685 122.039 2.44548 122.591 2.44661L122.593 1.44661L122.595 0.446609ZM130.657 2.6729C131.208 2.70333 131.68 2.28097 131.711 1.72952C131.741 1.17808 131.319 0.706371 130.767 0.675936L130.712 1.67441L130.657 2.6729ZM138.923 1.36716C138.374 1.30367 137.878 1.69695 137.814 2.24557C137.751 2.79419 138.144 3.29041 138.693 3.3539L138.808 2.36053L138.923 1.36716ZM146.66 4.54621C147.203 4.6469 147.725 4.2883 147.825 3.74527C147.926 3.20224 147.567 2.68041 147.024 2.57973L146.842 3.56297L146.66 4.54621ZM155.024 4.37798C154.491 4.23576 153.943 4.55308 153.8 5.08674C153.658 5.6204 153.976 6.16831 154.509 6.31053L154.767 5.34426L155.024 4.37798ZM162.177 8.70794C162.696 8.8959 163.27 8.62728 163.458 8.10797C163.646 7.58865 163.377 7.01529 162.858 6.82733L162.517 7.76764L162.177 8.70794ZM170.442 9.98707C169.943 9.74991 169.346 9.96199 169.109 10.4608C168.872 10.9595 169.084 11.5561 169.583 11.7933L170.012 10.8902L170.442 9.98707ZM176.63 15.6054C177.101 15.8937 177.717 15.7456 178.005 15.2745C178.293 14.8034 178.145 14.1878 177.674 13.8996L177.152 14.7525L176.63 15.6054ZM184.443 18.5773C184.007 18.2382 183.379 18.3168 183.04 18.7528C182.701 19.1887 182.779 19.817 183.215 20.156L183.829 19.3667L184.443 18.5773ZM189.238 25.4201C189.633 25.8068 190.266 25.8007 190.653 25.4064C191.039 25.0121 191.033 24.3789 190.639 23.9922L189.939 24.7062L189.238 25.4201ZM196.172 30.0742C195.824 29.6454 195.195 29.5799 194.766 29.928C194.337 30.2761 194.272 30.9059 194.62 31.3347L195.396 30.7044L196.172 30.0742ZM199.313 37.8077C199.613 38.2715 200.232 38.4044 200.696 38.1045C201.159 37.8046 201.292 37.1855 200.992 36.7218L200.153 37.2647L199.313 37.8077ZM205.09 43.824C204.838 43.3326 204.235 43.1388 203.744 43.391C203.253 43.6432 203.059 44.2459 203.311 44.7373L204.201 44.2806L205.09 43.824ZM1.41392 32.1164C1.85141 33.0156 1.8514 33.0157 1.85138 33.0157C1.85139 33.0157 1.85138 33.0157 1.85138 33.0157C1.85139 33.0157 1.85142 33.0156 1.85147 33.0156C1.85156 33.0156 1.85174 33.0155 1.85199 33.0154C1.85249 33.0151 1.8533 33.0147 1.85442 33.0142C1.85667 33.0131 1.86015 33.0114 1.86487 33.0091C1.8743 33.0045 1.88866 32.9976 1.90791 32.9883C1.94641 32.9697 2.00444 32.9418 2.08162 32.9049C2.236 32.831 2.46698 32.7211 2.7715 32.578C3.38054 32.2917 4.2837 31.8725 5.45643 31.3422L5.04444 30.431L4.63245 29.5198C3.45034 30.0543 2.53824 30.4777 1.92073 30.768C1.61198 30.9131 1.37686 31.0249 1.21845 31.1007C1.13925 31.1386 1.07922 31.1675 1.03875 31.187C1.01852 31.1968 1.00318 31.2042 0.992773 31.2093C0.98757 31.2118 0.983602 31.2137 0.980875 31.215C0.979511 31.2157 0.978458 31.2162 0.977715 31.2166C0.977344 31.2168 0.97705 31.2169 0.976834 31.217C0.976726 31.2171 0.976638 31.2171 0.976569 31.2171C0.976535 31.2171 0.976497 31.2172 0.97648 31.2172C0.976448 31.2172 0.97642 31.2172 1.41392 32.1164ZM12.5196 27.1756L12.9074 28.0973C15.1142 27.1689 17.6132 26.1439 20.3695 25.0539L20.0017 24.124L19.634 23.194C16.8635 24.2897 14.351 25.3201 12.1318 26.2539L12.5196 27.1756ZM27.6368 21.1964L27.9852 22.1337C30.3906 21.2399 32.9267 20.3241 35.5783 19.4001L35.2492 18.4558L34.9202 17.5115C32.2551 18.4402 29.7061 19.3606 27.2885 20.259L27.6368 21.1964ZM42.9441 15.8641L43.2533 16.8152C45.7572 16.0011 48.3391 15.1907 50.9885 14.393L50.7002 13.4354L50.4119 12.4779C47.7479 13.28 45.1521 14.0948 42.635 14.9131L42.9441 15.8641ZM58.5102 11.1808L58.7764 12.1447C61.3422 11.4361 63.9575 10.7462 66.614 10.0823L66.3715 9.11212L66.129 8.14197C63.4559 8.81006 60.8249 9.50416 58.244 10.2168L58.5102 11.1808ZM74.2826 7.24371L74.4995 8.21991C77.1153 7.63881 79.7615 7.0882 82.4308 6.57454L82.2418 5.59256L82.0528 4.61057C79.364 5.12799 76.6992 5.68249 74.0658 6.26751L74.2826 7.24371ZM90.2459 4.17897L90.4043 5.16635C93.0617 4.74015 95.7343 4.35572 98.4152 4.01915L98.2907 3.02694L98.1661 2.03473C95.4614 2.37427 92.7663 2.76197 90.0876 3.19159L90.2459 4.17897ZM106.37 2.16462L106.457 3.16083C109.145 2.92602 111.835 2.74506 114.519 2.62399L114.474 1.62501L114.429 0.626022C111.715 0.748416 108.998 0.931294 106.283 1.16842L106.37 2.16462ZM122.593 1.44661L122.591 2.44661C125.295 2.45213 127.986 2.52548 130.657 2.6729L130.712 1.67441L130.767 0.675936C128.059 0.526459 125.332 0.452201 122.595 0.446609L122.593 1.44661ZM138.808 2.36053L138.693 3.3539C141.38 3.66486 144.038 4.06008 146.66 4.54621L146.842 3.56297L147.024 2.57973C144.355 2.08486 141.652 1.68304 138.923 1.36716L138.808 2.36053ZM154.767 5.34426L154.509 6.31053C157.114 7.00475 159.673 7.80152 162.177 8.70794L162.517 7.76764L162.858 6.82733C160.296 5.90021 157.682 5.08633 155.024 4.37798L154.767 5.34426ZM170.012 10.8902L169.583 11.7933C171.998 12.9418 174.35 14.2101 176.63 15.6054L177.152 14.7525L177.674 13.8996C175.332 12.4662 172.918 11.1646 170.442 9.98707L170.012 10.8902ZM183.829 19.3667L183.215 20.156C185.302 21.7787 187.312 23.531 189.238 25.4201L189.939 24.7062L190.639 23.9922C188.657 22.0488 186.589 20.2462 184.443 18.5773L183.829 19.3667ZM195.396 30.7044L194.62 31.3347C196.266 33.3629 197.833 35.5186 199.313 37.8077L200.153 37.2647L200.992 36.7218C199.474 34.3729 197.865 32.1589 196.172 30.0742L195.396 30.7044ZM204.201 44.2806L203.311 44.7373C203.925 45.9324 204.518 47.1582 205.09 48.4153L206 48.0012L206.91 47.587C206.325 46.3016 205.718 45.0474 205.09 43.824L204.201 44.2806Z" fill="white"/>
</svg>
