<svg width="204" height="46" viewBox="0 0 204 46" fill="none" xmlns="http://www.w3.org/2000/svg">
<path d="M203.978 27.7089C204.093 27.1688 203.749 26.6374 203.209 26.5221L194.407 24.6423C193.867 24.5269 193.336 24.8713 193.221 25.4114C193.105 25.9515 193.45 26.4828 193.99 26.5982L201.813 28.2691L200.142 36.0926C200.027 36.6327 200.371 37.1641 200.911 37.2795C201.451 37.3948 201.983 37.0505 202.098 36.5104L203.978 27.7089ZM4.01456 37.536C4.34237 37.0915 4.2478 36.4655 3.80332 36.1377C3.35884 35.8098 2.73278 35.9044 2.40497 36.3489L3.20977 36.9425L4.01456 37.536ZM7.04343 30.2935C6.6991 30.7253 6.77001 31.3545 7.20181 31.6988C7.63362 32.0432 8.2628 31.9723 8.60713 31.5405L7.82528 30.917L7.04343 30.2935ZM13.6144 25.5542C13.9794 25.1397 13.9393 24.5078 13.5248 24.1428C13.1103 23.7778 12.4784 23.818 12.1134 24.2325L12.8639 24.8933L13.6144 25.5542ZM17.4439 18.5275C17.0541 18.9187 17.0552 19.5519 17.4463 19.9417C17.8375 20.3316 18.4707 20.3305 18.8606 19.9393L18.1522 19.2334L17.4439 18.5275ZM24.4489 14.747C24.869 14.3885 24.919 13.7574 24.5605 13.3372C24.2021 12.9171 23.5709 12.8671 23.1507 13.2256L23.7998 13.9863L24.4489 14.747ZM29.3545 8.46254C28.898 8.77336 28.7798 9.39541 29.0907 9.85193C29.4015 10.3084 30.0235 10.4266 30.4801 10.1157L29.9173 9.28914L29.3545 8.46254ZM37.0162 6.3051C37.5134 6.06466 37.7215 5.46669 37.4811 4.96949C37.2406 4.47229 36.6427 4.26414 36.1455 4.50458L36.5808 5.40484L37.0162 6.3051ZM43.5214 1.74661C42.9874 1.88747 42.6687 2.43456 42.8095 2.96858C42.9504 3.5026 43.4975 3.82133 44.0315 3.68047L43.7765 2.71354L43.5214 1.74661ZM51.4242 2.59271C51.9762 2.57541 52.4096 2.1139 52.3923 1.56188C52.3751 1.00987 51.9135 0.576393 51.3615 0.593687L51.3928 1.5932L51.4242 2.59271ZM59.2665 1.23756C58.724 1.13383 58.2002 1.48949 58.0965 2.03195C57.9927 2.5744 58.3484 3.09824 58.8909 3.20197L59.0787 2.21976L59.2665 1.23756ZM66.1412 5.29697C66.6572 5.49373 67.2351 5.2349 67.4319 4.71885C67.6286 4.20281 67.3698 3.62496 66.8537 3.4282L66.4975 4.36259L66.1412 5.29697ZM73.981 6.68758C73.4925 6.43002 72.8876 6.61728 72.6301 7.10583C72.3725 7.59438 72.5598 8.19922 73.0483 8.45678L73.5147 7.57218L73.981 6.68758ZM79.6808 12.3103C80.1485 12.604 80.7658 12.463 81.0595 11.9953C81.3532 11.5276 81.2122 10.9103 80.7445 10.6166L80.2127 11.4634L79.6808 12.3103ZM87.2323 14.9011C86.7769 14.5885 86.1545 14.7043 85.8419 15.1597C85.5294 15.615 85.6452 16.2375 86.1005 16.55L86.6664 15.7256L87.2323 14.9011ZM92.4225 20.9723C92.8735 21.291 93.4975 21.1838 93.8163 20.7328C94.1351 20.2818 94.0279 19.6578 93.5769 19.339L92.9997 20.1557L92.4225 20.9723ZM99.8997 23.784C99.446 23.4691 98.8229 23.5816 98.508 24.0353C98.193 24.489 98.3056 25.1121 98.7593 25.427L99.3295 24.6055L99.8997 23.784ZM105.196 29.7751C105.658 30.077 106.278 29.9468 106.58 29.4843C106.882 29.0218 106.752 28.4022 106.289 28.1003L105.742 28.9377L105.196 29.7751ZM112.821 32.1601C112.344 31.8805 111.731 32.0399 111.452 32.5162C111.172 32.9925 111.332 33.6052 111.808 33.8848L112.314 33.0225L112.821 32.1601ZM118.653 37.6187C119.147 37.8663 119.747 37.6668 119.995 37.1731C120.243 36.6794 120.043 36.0785 119.549 35.8309L119.101 36.7248L118.653 37.6187ZM126.516 38.9782C126.003 38.7729 125.421 39.0221 125.216 39.5348C125.01 40.0475 125.259 40.6295 125.772 40.8349L126.144 39.9065L126.516 38.9782ZM133.169 43.3863C133.7 43.5395 134.254 43.2335 134.408 42.7028C134.561 42.1722 134.255 41.6179 133.724 41.4647L133.447 42.4255L133.169 43.3863ZM141.142 43.169C140.598 43.0761 140.081 43.4421 139.988 43.9865C139.895 44.5309 140.261 45.0475 140.806 45.1405L140.974 44.1548L141.142 43.169ZM148.598 46.0051C149.15 46.0336 149.62 45.6095 149.649 45.058C149.677 44.5064 149.253 44.0362 148.701 44.0078L148.65 45.0065L148.598 46.0051ZM156.307 43.9545C155.756 43.9902 155.338 44.466 155.374 45.0171C155.41 45.5682 155.886 45.986 156.437 45.9503L156.372 44.9524L156.307 43.9545ZM164.207 45.0137C164.75 44.9183 165.114 44.4 165.019 43.856C164.923 43.312 164.405 42.9484 163.861 43.0438L164.034 44.0287L164.207 45.0137ZM171.285 41.3558C170.753 41.5039 170.441 42.0553 170.59 42.5874C170.738 43.1194 171.289 43.4307 171.821 43.2825L171.553 42.3192L171.285 41.3558ZM179.238 40.8623C179.755 40.6691 180.018 40.0931 179.825 39.5757C179.632 39.0583 179.056 38.7955 178.538 38.9886L178.888 39.9255L179.238 40.8623ZM185.622 36.0316C185.12 36.2627 184.901 36.8567 185.132 37.3583C185.363 37.8599 185.957 38.0792 186.459 37.8481L186.04 36.9399L185.622 36.0316ZM193.501 34.318C193.986 34.0551 194.167 33.4483 193.904 32.9626C193.641 32.4769 193.035 32.2962 192.549 32.559L193.025 33.4385L193.501 34.318ZM199.098 28.778C198.627 29.0666 198.48 29.6823 198.768 30.1532C199.057 30.6241 199.672 30.7719 200.143 30.4833L199.621 29.6307L199.098 28.778ZM0.846792 40.2055L1.66164 40.7852C2.45239 39.6737 3.23664 38.5908 4.01456 37.536L3.20977 36.9425L2.40497 36.3489C1.62006 37.4132 0.829104 38.5053 0.0319449 39.6259L0.846792 40.2055ZM7.82528 30.917L8.60713 31.5405C10.3066 29.4093 11.9751 27.416 13.6144 25.5542L12.8639 24.8933L12.1134 24.2325C10.451 26.1205 8.76164 28.1388 7.04343 30.2935L7.82528 30.917ZM18.1522 19.2334L18.8606 19.9393C20.7625 18.0308 22.6243 16.3038 24.4489 14.747L23.7998 13.9863L23.1507 13.2256C21.2817 14.8203 19.3806 16.5842 17.4439 18.5275L18.1522 19.2334ZM29.9173 9.28914L30.4801 10.1157C32.7128 8.59557 34.8893 7.33362 37.0162 6.3051L36.5808 5.40484L36.1455 4.50458C33.9227 5.57946 31.6614 6.8919 29.3545 8.46254L29.9173 9.28914ZM43.7765 2.71354L44.0315 3.68047C46.5495 3.01631 49.009 2.66837 51.4242 2.59271L51.3928 1.5932L51.3615 0.593687C48.7949 0.674096 46.1854 1.04395 43.5214 1.74661L43.7765 2.71354ZM59.0787 2.21976L58.8909 3.20197C61.3259 3.66758 63.7375 4.38046 66.1412 5.29697L66.4975 4.36259L66.8537 3.4282C64.3568 2.47617 61.8321 1.72816 59.2665 1.23756L59.0787 2.21976ZM73.5147 7.57218L73.0483 8.45678C75.2533 9.6192 77.4599 10.9155 79.6808 12.3103L80.2127 11.4634L80.7445 10.6166C78.4919 9.20183 76.2407 7.87884 73.981 6.68758L73.5147 7.57218ZM86.6664 15.7256L86.1005 16.55C88.1865 17.9817 90.2895 19.4647 92.4225 20.9723L92.9997 20.1557L93.5769 19.339C91.4442 17.8317 89.3309 16.3415 87.2323 14.9011L86.6664 15.7256ZM99.3295 24.6055L98.7593 25.427C100.868 26.8909 103.012 28.3495 105.196 29.7751L105.742 28.9377L106.289 28.1003C104.126 26.6883 101.999 25.2411 99.8997 23.784L99.3295 24.6055ZM112.314 33.0225L111.808 33.8848C114.039 35.1948 116.319 36.448 118.653 37.6187L119.101 36.7248L119.549 35.8309C117.26 34.6827 115.02 33.451 112.821 32.1601L112.314 33.0225ZM126.144 39.9065L125.772 40.8349C128.175 41.7973 130.639 42.6559 133.169 43.3863L133.447 42.4255L133.724 41.4647C131.263 40.7543 128.862 39.9179 126.516 38.9782L126.144 39.9065ZM140.974 44.1548L140.806 45.1405C143.336 45.5726 145.932 45.8676 148.598 46.0051L148.65 45.0065L148.701 44.0078C146.115 43.8744 143.598 43.5883 141.142 43.169L140.974 44.1548ZM156.372 44.9524L156.437 45.9503C158.965 45.7864 161.553 45.4791 164.207 45.0137L164.034 44.0287L163.861 43.0438C161.278 43.4967 158.762 43.7954 156.307 43.9545L156.372 44.9524ZM171.553 42.3192L171.821 43.2825C174.241 42.6089 176.712 41.8053 179.238 40.8623L178.888 39.9255L178.538 38.9886C176.064 39.9123 173.647 40.698 171.285 41.3558L171.553 42.3192ZM186.04 36.9399L186.459 37.8481C188.762 36.7872 191.108 35.6125 193.501 34.318L193.025 33.4385L192.549 32.559C190.193 33.834 187.884 34.9893 185.622 36.0316L186.04 36.9399ZM199.621 29.6307L200.143 30.4833C201.267 29.7947 202.4 29.0802 203.544 28.3392L203 27.5L202.456 26.6608C201.327 27.3928 200.207 28.0984 199.098 28.778L199.621 29.6307ZM203.978 27.7089C204.093 27.1688 203.749 26.6374 203.209 26.5221L194.407 24.6423C193.867 24.5269 193.336 24.8713 193.221 25.4114C193.105 25.9515 193.45 26.4828 193.99 26.5982L201.813 28.2691L200.142 36.0926C200.027 36.6327 200.371 37.1641 200.911 37.2795C201.451 37.3948 201.983 37.0505 202.098 36.5104L203.978 27.7089ZM4.01456 37.536C4.34237 37.0915 4.2478 36.4655 3.80332 36.1377C3.35884 35.8098 2.73278 35.9044 2.40497 36.3489L3.20977 36.9425L4.01456 37.536ZM7.04343 30.2935C6.6991 30.7253 6.77001 31.3545 7.20181 31.6988C7.63362 32.0432 8.2628 31.9723 8.60713 31.5405L7.82528 30.917L7.04343 30.2935ZM13.6144 25.5542C13.9794 25.1397 13.9393 24.5078 13.5248 24.1428C13.1103 23.7778 12.4784 23.818 12.1134 24.2325L12.8639 24.8933L13.6144 25.5542ZM17.4439 18.5275C17.0541 18.9187 17.0552 19.5519 17.4463 19.9417C17.8375 20.3316 18.4707 20.3305 18.8606 19.9393L18.1522 19.2334L17.4439 18.5275ZM24.4489 14.747C24.869 14.3885 24.919 13.7574 24.5605 13.3372C24.2021 12.9171 23.5709 12.8671 23.1507 13.2256L23.7998 13.9863L24.4489 14.747ZM29.3545 8.46254C28.898 8.77336 28.7798 9.39541 29.0907 9.85193C29.4015 10.3084 30.0235 10.4266 30.4801 10.1157L29.9173 9.28914L29.3545 8.46254ZM37.0162 6.3051C37.5134 6.06466 37.7215 5.46669 37.4811 4.96949C37.2406 4.47229 36.6427 4.26414 36.1455 4.50458L36.5808 5.40484L37.0162 6.3051ZM43.5214 1.74661C42.9874 1.88747 42.6687 2.43456 42.8095 2.96858C42.9504 3.5026 43.4975 3.82133 44.0315 3.68047L43.7765 2.71354L43.5214 1.74661ZM51.4242 2.59271C51.9762 2.57541 52.4096 2.1139 52.3923 1.56188C52.3751 1.00987 51.9135 0.576393 51.3615 0.593687L51.3928 1.5932L51.4242 2.59271ZM59.2665 1.23756C58.724 1.13383 58.2002 1.48949 58.0965 2.03195C57.9927 2.5744 58.3484 3.09824 58.8909 3.20197L59.0787 2.21976L59.2665 1.23756ZM66.1412 5.29697C66.6572 5.49373 67.2351 5.2349 67.4319 4.71885C67.6286 4.20281 67.3698 3.62496 66.8537 3.4282L66.4975 4.36259L66.1412 5.29697ZM73.981 6.68758C73.4925 6.43002 72.8876 6.61728 72.6301 7.10583C72.3725 7.59438 72.5598 8.19922 73.0483 8.45678L73.5147 7.57218L73.981 6.68758ZM79.6808 12.3103C80.1485 12.604 80.7658 12.463 81.0595 11.9953C81.3532 11.5276 81.2122 10.9103 80.7445 10.6166L80.2127 11.4634L79.6808 12.3103ZM87.2323 14.9011C86.7769 14.5885 86.1545 14.7043 85.8419 15.1597C85.5294 15.615 85.6452 16.2375 86.1005 16.55L86.6664 15.7256L87.2323 14.9011ZM92.4225 20.9723C92.8735 21.291 93.4975 21.1838 93.8163 20.7328C94.1351 20.2818 94.0279 19.6578 93.5769 19.339L92.9997 20.1557L92.4225 20.9723ZM99.8997 23.784C99.446 23.4691 98.8229 23.5816 98.508 24.0353C98.193 24.489 98.3056 25.1121 98.7593 25.427L99.3295 24.6055L99.8997 23.784ZM105.196 29.7751C105.658 30.077 106.278 29.9468 106.58 29.4843C106.882 29.0218 106.752 28.4022 106.289 28.1003L105.742 28.9377L105.196 29.7751ZM112.821 32.1601C112.344 31.8805 111.731 32.0399 111.452 32.5162C111.172 32.9925 111.332 33.6052 111.808 33.8848L112.314 33.0225L112.821 32.1601ZM118.653 37.6187C119.147 37.8663 119.747 37.6668 119.995 37.1731C120.243 36.6794 120.043 36.0785 119.549 35.8309L119.101 36.7248L118.653 37.6187ZM126.516 38.9782C126.003 38.7729 125.421 39.0221 125.216 39.5348C125.01 40.0475 125.259 40.6295 125.772 40.8349L126.144 39.9065L126.516 38.9782ZM133.169 43.3863C133.7 43.5395 134.254 43.2335 134.408 42.7028C134.561 42.1722 134.255 41.6179 133.724 41.4647L133.447 42.4255L133.169 43.3863ZM141.142 43.169C140.598 43.0761 140.081 43.4421 139.988 43.9865C139.895 44.5309 140.261 45.0475 140.806 45.1405L140.974 44.1548L141.142 43.169ZM148.598 46.0051C149.15 46.0336 149.62 45.6095 149.649 45.058C149.677 44.5064 149.253 44.0362 148.701 44.0078L148.65 45.0065L148.598 46.0051ZM156.307 43.9545C155.756 43.9902 155.338 44.466 155.374 45.0171C155.41 45.5682 155.886 45.986 156.437 45.9503L156.372 44.9524L156.307 43.9545ZM164.207 45.0137C164.75 44.9183 165.114 44.4 165.019 43.856C164.923 43.312 164.405 42.9484 163.861 43.0438L164.034 44.0287L164.207 45.0137ZM171.285 41.3558C170.753 41.5039 170.441 42.0553 170.59 42.5874C170.738 43.1194 171.289 43.4307 171.821 43.2825L171.553 42.3192L171.285 41.3558ZM179.238 40.8623C179.755 40.6691 180.018 40.0931 179.825 39.5757C179.632 39.0583 179.056 38.7955 178.538 38.9886L178.888 39.9255L179.238 40.8623ZM185.622 36.0316C185.12 36.2627 184.901 36.8567 185.132 37.3583C185.363 37.8599 185.957 38.0792 186.459 37.8481L186.04 36.9399L185.622 36.0316ZM193.501 34.318C193.986 34.0551 194.167 33.4483 193.904 32.9626C193.641 32.4769 193.035 32.2962 192.549 32.559L193.025 33.4385L193.501 34.318ZM199.098 28.778C198.627 29.0666 198.48 29.6823 198.768 30.1532C199.057 30.6241 199.672 30.7719 200.143 30.4833L199.621 29.6307L199.098 28.778ZM0.846792 40.2055L1.66164 40.7852C2.45239 39.6737 3.23664 38.5908 4.01456 37.536L3.20977 36.9425L2.40497 36.3489C1.62006 37.4132 0.829104 38.5053 0.0319449 39.6259L0.846792 40.2055ZM7.82528 30.917L8.60713 31.5405C10.3066 29.4093 11.9751 27.416 13.6144 25.5542L12.8639 24.8933L12.1134 24.2325C10.451 26.1205 8.76164 28.1388 7.04343 30.2935L7.82528 30.917ZM18.1522 19.2334L18.8606 19.9393C20.7625 18.0308 22.6243 16.3038 24.4489 14.747L23.7998 13.9863L23.1507 13.2256C21.2817 14.8203 19.3806 16.5842 17.4439 18.5275L18.1522 19.2334ZM29.9173 9.28914L30.4801 10.1157C32.7128 8.59557 34.8893 7.33362 37.0162 6.3051L36.5808 5.40484L36.1455 4.50458C33.9227 5.57946 31.6614 6.8919 29.3545 8.46254L29.9173 9.28914ZM43.7765 2.71354L44.0315 3.68047C46.5495 3.01631 49.009 2.66837 51.4242 2.59271L51.3928 1.5932L51.3615 0.593687C48.7949 0.674096 46.1854 1.04395 43.5214 1.74661L43.7765 2.71354ZM59.0787 2.21976L58.8909 3.20197C61.3259 3.66758 63.7375 4.38046 66.1412 5.29697L66.4975 4.36259L66.8537 3.4282C64.3568 2.47617 61.8321 1.72816 59.2665 1.23756L59.0787 2.21976ZM73.5147 7.57218L73.0483 8.45678C75.2533 9.6192 77.4599 10.9155 79.6808 12.3103L80.2127 11.4634L80.7445 10.6166C78.4919 9.20183 76.2407 7.87884 73.981 6.68758L73.5147 7.57218ZM86.6664 15.7256L86.1005 16.55C88.1865 17.9817 90.2895 19.4647 92.4225 20.9723L92.9997 20.1557L93.5769 19.339C91.4442 17.8317 89.3309 16.3415 87.2323 14.9011L86.6664 15.7256ZM99.3295 24.6055L98.7593 25.427C100.868 26.8909 103.012 28.3495 105.196 29.7751L105.742 28.9377L106.289 28.1003C104.126 26.6883 101.999 25.2411 99.8997 23.784L99.3295 24.6055ZM112.314 33.0225L111.808 33.8848C114.039 35.1948 116.319 36.448 118.653 37.6187L119.101 36.7248L119.549 35.8309C117.26 34.6827 115.02 33.451 112.821 32.1601L112.314 33.0225ZM126.144 39.9065L125.772 40.8349C128.175 41.7973 130.639 42.6559 133.169 43.3863L133.447 42.4255L133.724 41.4647C131.263 40.7543 128.862 39.9179 126.516 38.9782L126.144 39.9065ZM140.974 44.1548L140.806 45.1405C143.336 45.5726 145.932 45.8676 148.598 46.0051L148.65 45.0065L148.701 44.0078C146.115 43.8744 143.598 43.5883 141.142 43.169L140.974 44.1548ZM156.372 44.9524L156.437 45.9503C158.965 45.7864 161.553 45.4791 164.207 45.0137L164.034 44.0287L163.861 43.0438C161.278 43.4967 158.762 43.7954 156.307 43.9545L156.372 44.9524ZM171.553 42.3192L171.821 43.2825C174.241 42.6089 176.712 41.8053 179.238 40.8623L178.888 39.9255L178.538 38.9886C176.064 39.9123 173.647 40.698 171.285 41.3558L171.553 42.3192ZM186.04 36.9399L186.459 37.8481C188.762 36.7872 191.108 35.6125 193.501 34.318L193.025 33.4385L192.549 32.559C190.193 33.834 187.884 34.9893 185.622 36.0316L186.04 36.9399ZM199.621 29.6307L200.143 30.4833C201.267 29.7947 202.4 29.0802 203.544 28.3392L203 27.5L202.456 26.6608C201.327 27.3928 200.207 28.0984 199.098 28.778L199.621 29.6307Z" fill="white"/>
</svg>
