<svg width="27" height="27" viewBox="0 0 27 27" fill="none" xmlns="http://www.w3.org/2000/svg">
<path d="M17.6202 2.57152V0.857173C17.6202 0.629836 17.7103 0.411811 17.8709 0.25106C18.0314 0.090309 18.2491 0 18.4761 0C18.7031 0 18.9208 0.090309 19.0813 0.25106C19.2419 0.411811 19.332 0.629836 19.332 0.857173V2.57152C19.332 2.79886 19.2419 3.01688 19.0813 3.17763C18.9208 3.33838 18.7031 3.42869 18.4761 3.42869C18.2491 3.42869 18.0314 3.33838 17.8709 3.17763C17.7103 3.01688 17.6202 2.79886 17.6202 2.57152ZM21.4537 4.39301C21.5883 4.4741 21.7428 4.51603 21.8999 4.51409C22.0467 4.51432 22.1912 4.47669 22.3194 4.40482C22.4476 4.33295 22.5551 4.22926 22.6317 4.10372L23.4876 2.69902C23.5472 2.6029 23.5872 2.49592 23.6052 2.38425C23.6233 2.27258 23.6191 2.15843 23.593 2.04839C23.5668 1.93834 23.5191 1.83457 23.4527 1.74307C23.3863 1.65156 23.3024 1.57413 23.206 1.51523C23.1095 1.45633 23.0024 1.41713 22.8907 1.3999C22.7791 1.38266 22.6651 1.38773 22.5555 1.4148C22.4458 1.44188 22.3425 1.49043 22.2517 1.55766C22.1608 1.62488 22.0842 1.70945 22.0261 1.80649L21.1702 3.21011C21.1108 3.30631 21.0711 3.41332 21.0532 3.52497C21.0353 3.63662 21.0397 3.75071 21.0661 3.86066C21.0924 3.97061 21.1402 4.07426 21.2068 4.16562C21.2733 4.25699 21.3572 4.33427 21.4537 4.39301ZM26.5294 5.74199C26.4949 5.63483 26.4397 5.53553 26.3669 5.44975C26.2941 5.36397 26.2051 5.29339 26.1051 5.24205C26.005 5.19071 25.8958 5.15961 25.7838 5.15053C25.6717 5.14144 25.559 5.15455 25.452 5.18911L23.8471 5.70877C23.6525 5.77107 23.4866 5.901 23.3794 6.07509C23.2721 6.24918 23.2305 6.45596 23.2622 6.65805C23.2938 6.86015 23.3966 7.04425 23.552 7.17709C23.7073 7.30993 23.905 7.38275 24.1092 7.3824C24.1986 7.38206 24.2874 7.36797 24.3724 7.34061L25.9773 6.82095C26.0848 6.78645 26.1844 6.73099 26.2704 6.65778C26.3564 6.58457 26.4271 6.49504 26.4784 6.39436C26.5297 6.29368 26.5607 6.18383 26.5694 6.07113C26.5782 5.95843 26.5646 5.84512 26.5294 5.7377V5.74199ZM23.3196 10.0214C24.266 11.6516 24.6471 13.5495 24.4034 15.4193C24.1598 17.2891 23.305 19.0255 21.9726 20.3579C21.5103 21.9758 20.5826 23.4217 19.3053 24.5152C18.0279 25.6087 16.4574 26.3015 14.7895 26.5072C13.1216 26.7128 11.4302 26.4223 9.9261 25.6717C8.42202 24.9212 7.17182 23.7438 6.3314 22.2865L2.58667 15.7902C2.35803 15.393 2.2308 14.9455 2.21625 14.4873C2.2017 14.0291 2.30029 13.5744 2.50328 13.1635C2.70626 12.7526 3.00736 12.3982 3.37988 12.1318C3.7524 11.8654 4.18482 11.6951 4.63878 11.6361L4.21081 10.8925C3.98572 10.5021 3.85863 10.0627 3.84044 9.61224C3.82225 9.16176 3.91351 8.71358 4.10638 8.3062C4.29926 7.89881 4.58799 7.5444 4.94777 7.27338C5.30756 7.00236 5.72765 6.82284 6.17198 6.75024C5.94912 6.13571 5.94919 5.46225 6.17217 4.84777C6.39516 4.23328 6.82686 3.71691 7.3917 3.38905C7.90963 3.09068 8.50961 2.9669 9.10313 3.03596C9.69666 3.10503 10.2523 3.36328 10.6881 3.77263C10.9551 3.38675 11.315 3.07467 11.7346 2.86539C12.1542 2.65611 12.6198 2.5564 13.0882 2.57554C13.5566 2.59467 14.0125 2.73202 14.4137 2.97484C14.8149 3.21765 15.1483 3.55805 15.3829 3.96442L16.6669 6.192C16.9448 5.82748 17.3084 5.53732 17.7253 5.34731C18.1421 5.15729 18.5994 5.07329 19.0564 5.10276C19.5135 5.13222 19.9562 5.27425 20.3453 5.51623C20.7344 5.75821 21.0578 6.09266 21.2868 6.48987L23.3196 10.0214ZM12.048 5.89306L12.6825 6.99346C12.8943 7.18721 13.0748 7.41277 13.2174 7.66205L14.5013 9.88535C14.9233 9.3365 15.533 8.96328 16.2132 8.83745L13.9011 4.8216C13.7592 4.57551 13.5255 4.39595 13.2514 4.3224C12.9774 4.24886 12.6853 4.28736 12.4396 4.42944C12.1939 4.57153 12.0146 4.80556 11.9411 5.08004C11.8677 5.35452 11.9061 5.64697 12.048 5.89306ZM7.85604 6.33772L8.49051 7.43919L8.52474 7.47026C8.73232 7.16928 8.9972 6.91231 9.30419 6.7141C9.61118 6.51589 9.95423 6.38034 10.3137 6.31522L9.70915 5.26626C9.60336 5.08271 9.44561 4.93471 9.25582 4.84095C9.06604 4.7472 8.85276 4.71191 8.64295 4.73955C8.43314 4.76719 8.23623 4.85652 8.07712 4.99624C7.918 5.13595 7.80383 5.31978 7.74905 5.52448C7.7122 5.66037 7.70269 5.80225 7.72105 5.94185C7.73942 6.08146 7.78531 6.21602 7.85604 6.33772ZM20.3581 19.7761C20.5931 18.9063 20.6536 17.9986 20.5361 17.1053C20.4185 16.2121 20.1253 15.351 19.6733 14.5719L17.6405 11.0457C17.5022 10.8084 17.2782 10.6333 17.0147 10.5566C16.7511 10.48 16.4683 10.5077 16.2246 10.634C15.9809 10.7603 15.7949 10.9755 15.7052 11.2352C15.6155 11.4949 15.6288 11.7792 15.7424 12.0294L16.9643 14.1434C17.0778 14.3404 17.1085 14.5746 17.0496 14.7943C16.9907 15.014 16.8471 15.2013 16.6503 15.315C16.4535 15.4287 16.2197 15.4594 16.0003 15.4004C15.7808 15.3414 15.5938 15.1976 15.4803 15.0005L11.7356 8.52137C11.5887 8.2884 11.3578 8.12106 11.0909 8.05412C10.824 7.98718 10.5416 8.02579 10.3024 8.16191C10.0632 8.29804 9.8855 8.52122 9.8063 8.7851C9.72711 9.04898 9.75248 9.33327 9.87713 9.57891L12.5123 14.1434C12.5721 14.2409 12.6117 14.3495 12.6289 14.4627C12.6461 14.5758 12.6405 14.6913 12.6124 14.8022C12.5843 14.9132 12.5342 15.0174 12.4653 15.1087C12.3963 15.2 12.3098 15.2765 12.2108 15.3337C12.1118 15.391 12.0024 15.4278 11.889 15.442C11.7756 15.4562 11.6605 15.4476 11.5505 15.4165C11.4405 15.3854 11.3378 15.3326 11.2485 15.2612C11.1592 15.1897 11.085 15.1011 11.0305 15.0005L7.54576 8.96389C7.47602 8.84105 7.38271 8.73324 7.27119 8.64666C7.15968 8.56008 7.03216 8.49645 6.89599 8.45943C6.75982 8.42241 6.61768 8.41272 6.47776 8.43094C6.33783 8.44915 6.20289 8.4949 6.08069 8.56555C5.95849 8.63621 5.85146 8.73037 5.76575 8.84262C5.68004 8.95487 5.61735 9.08298 5.58128 9.21959C5.54521 9.35621 5.53649 9.49861 5.5556 9.63861C5.57472 9.77862 5.6213 9.91345 5.69266 10.0354L9.54438 16.717C9.60058 16.8145 9.63706 16.9222 9.65172 17.0338C9.66638 17.1454 9.65894 17.2588 9.62983 17.3676C9.60072 17.4763 9.55051 17.5783 9.48206 17.6676C9.41361 17.7569 9.32826 17.8318 9.23089 17.8881C9.13352 17.9444 9.02604 17.9809 8.91457 17.9956C8.80311 18.0103 8.68985 18.0029 8.58126 17.9737C8.47266 17.9445 8.37087 17.8943 8.28168 17.8257C8.1925 17.7572 8.11767 17.6717 8.06147 17.5742L5.92162 13.8626C5.77873 13.6185 5.54524 13.441 5.27209 13.3686C4.99894 13.2963 4.70832 13.3351 4.46364 13.4766C4.21897 13.6181 4.0401 13.8507 3.96607 14.1238C3.89205 14.3968 3.92887 14.6881 4.06852 14.9341L7.81325 21.4304C8.49037 22.6051 9.50016 23.5524 10.7149 24.1523C11.9297 24.7523 13.2948 24.978 14.6376 24.8009C15.9805 24.6238 17.2407 24.0519 18.259 23.1575C19.2772 22.263 20.0077 21.0863 20.3581 19.7761ZM21.8367 10.8743L19.8039 7.34811C19.661 7.10403 19.4275 6.92645 19.1543 6.85413C18.8812 6.78181 18.5906 6.82062 18.3459 6.96209C18.1012 7.10357 17.9223 7.33621 17.8483 7.60927C17.7743 7.88232 17.8111 8.17362 17.9508 8.41958L18.5831 9.51783C18.7949 9.71246 18.9753 9.93871 19.1181 10.1886L21.1509 13.7148C21.7221 14.7034 22.0906 15.7962 22.2347 16.9292C22.6382 15.9573 22.8121 14.9053 22.7431 13.8551C22.6741 12.8049 22.3639 11.7848 21.8367 10.8743Z" fill="#FFFCF5"/>
</svg>
