<svg width="66" height="68" viewBox="0 0 66 68" fill="none" xmlns="http://www.w3.org/2000/svg">
<path d="M28.8444 2.50837C31.2443 0.482216 34.7557 0.482217 37.1556 2.50837C38.7504 3.85475 40.8986 4.34507 42.9196 3.82397C45.961 3.03977 49.1246 4.56328 50.4078 7.43008C51.2605 9.33507 52.9832 10.7089 55.0302 11.1163C58.1106 11.7294 60.2999 14.4746 60.2121 17.6143C60.1538 19.7006 61.1099 21.6858 62.7774 22.941C65.2868 24.8299 66.0681 28.2532 64.6268 31.0439C63.669 32.8983 63.669 35.1017 64.6268 36.9561C66.0681 39.7468 65.2868 43.1701 62.7774 45.059C61.1099 46.3142 60.1538 48.2994 60.2121 50.3857C60.2999 53.5254 58.1106 56.2706 55.0302 56.8837C52.9832 57.2911 51.2605 58.6649 50.4078 60.5699C49.1246 63.4367 45.961 64.9602 42.9196 64.176C40.8986 63.6549 38.7504 64.1452 37.1556 65.4916C34.7557 67.5178 31.2443 67.5178 28.8444 65.4916C27.2496 64.1452 25.1014 63.6549 23.0804 64.176C20.039 64.9602 16.8754 63.4367 15.5922 60.5699C14.7395 58.6649 13.0168 57.2911 10.9698 56.8837C7.88938 56.2706 5.7001 53.5254 5.78787 50.3857C5.84619 48.2994 4.89014 46.3142 3.22264 45.059C0.713249 43.1701 -0.0680958 39.7468 1.37322 36.9561C2.33097 35.1017 2.33097 32.8983 1.37322 31.0439C-0.0680957 28.2532 0.713249 24.8299 3.22264 22.941C4.89014 21.6858 5.84619 19.7006 5.78787 17.6143C5.7001 14.4746 7.88938 11.7294 10.9698 11.1163C13.0168 10.7089 14.7395 9.33507 15.5922 7.43008C16.8754 4.56327 20.039 3.03977 23.0804 3.82397C25.1014 4.34507 27.2496 3.85475 28.8444 2.50837Z" fill="#EDB53E"/>
</svg>
