<svg width="16" height="16" viewBox="0 0 16 16" fill="none" xmlns="http://www.w3.org/2000/svg">
<path d="M11.1993 11.9997C11.9461 11.9997 12.3195 11.9997 12.6047 11.8543C12.8556 11.7265 13.0595 11.5225 13.1874 11.2717C13.3327 10.9864 13.3327 10.6131 13.3327 9.86634V3.46634C13.3327 2.7196 13.3327 2.34624 13.1874 2.06102C13.0595 1.81014 12.8556 1.60616 12.6047 1.47833C12.3195 1.33301 11.9461 1.33301 11.1993 1.33301H7.46602C6.71928 1.33301 6.34591 1.33301 6.06069 1.47833C5.80981 1.60616 5.60584 1.81014 5.47801 2.06102C5.33268 2.34624 5.33268 2.7196 5.33268 3.46634M4.79935 14.6663H8.53268C9.27942 14.6663 9.65279 14.6663 9.938 14.521C10.1889 14.3932 10.3929 14.1892 10.5207 13.9383C10.666 13.6531 10.666 13.2797 10.666 12.533V6.13301C10.666 5.38627 10.666 5.0129 10.5207 4.72769C10.3929 4.4768 10.1889 4.27283 9.938 4.145C9.65279 3.99967 9.27942 3.99967 8.53268 3.99967H4.79935C4.05261 3.99967 3.67924 3.99967 3.39403 4.145C3.14315 4.27283 2.93917 4.4768 2.81134 4.72769C2.66602 5.0129 2.66602 5.38627 2.66602 6.13301V12.533C2.66602 13.2797 2.66602 13.6531 2.81134 13.9383C2.93917 14.1892 3.14315 14.3932 3.39403 14.521C3.67924 14.6663 4.05261 14.6663 4.79935 14.6663Z" stroke="#BBB8B0" stroke-width="1.2"/>
</svg>
