<svg width="116" height="119" viewBox="0 0 116 119" fill="none" xmlns="http://www.w3.org/2000/svg">
<path d="M52.8238 2.40585C55.8074 -0.133694 60.1926 -0.133698 63.1762 2.40584L66.5094 5.24291C68.4926 6.93094 71.1743 7.54591 73.6948 6.89068L77.9084 5.79535C81.6915 4.8119 85.6305 6.71139 87.2166 10.284L89.0316 14.3723C90.0832 16.7409 92.2187 18.452 94.7596 18.9618L99.0934 19.8314C102.906 20.5964 105.613 23.9959 105.505 27.8827L105.379 32.4498C105.307 35.0245 106.482 37.4756 108.534 39.0327L112.139 41.769C115.224 44.1097 116.184 48.3256 114.419 51.7716L112.325 55.8589C111.154 58.145 111.154 60.855 112.325 63.1411L114.419 67.2284C116.184 70.6744 115.224 74.8903 112.139 77.231L108.534 79.9673C106.482 81.5244 105.307 83.9755 105.379 86.5502L105.505 91.1173C105.613 95.0042 102.906 98.4036 99.0934 99.1686L94.7596 100.038C92.2187 100.548 90.0832 102.259 89.0316 104.628L87.2166 108.716C85.6305 112.289 81.6915 114.188 77.9084 113.205L73.6948 112.109C71.1743 111.454 68.4926 112.069 66.5094 113.757L63.1762 116.594C60.1926 119.134 55.8074 119.134 52.8238 116.594L49.4906 113.757C47.5074 112.069 44.8257 111.454 42.3052 112.109L38.0916 113.205C34.3085 114.188 30.3695 112.289 28.7834 108.716L26.9684 104.628C25.9168 102.259 23.7813 100.548 21.2404 100.038L16.9066 99.1686C13.0943 98.4036 10.387 95.0041 10.4948 91.1173L10.6214 86.5502C10.6928 83.9755 9.51804 81.5244 7.46631 79.9673L3.8607 77.231C0.776442 74.8903 -0.184465 70.6744 1.58086 67.2284L3.67473 63.1411C4.84588 60.855 4.84588 58.145 3.67473 55.8589L1.58086 51.7716C-0.184467 48.3256 0.776443 44.1097 3.8607 41.769L7.46631 39.0327C9.51804 37.4756 10.6928 35.0245 10.6214 32.4498L10.4948 27.8827C10.387 23.9958 13.0943 20.5964 16.9066 19.8314L21.2404 18.9618C23.7813 18.452 25.9168 16.7409 26.9684 14.3723L28.7834 10.284C30.3695 6.71139 34.3085 4.8119 38.0916 5.79535L42.3052 6.89068C44.8257 7.54591 47.5074 6.93094 49.4906 5.24291L52.8238 2.40585Z" fill="#FFFCF5"/>
</svg>
