<svg width="20" height="20" viewBox="0 0 20 20" fill="none" xmlns="http://www.w3.org/2000/svg">
<path d="M0 10C0 4.47715 4.47715 0 10 0C15.5228 0 20 4.47715 20 10C20 15.5228 15.5228 20 10 20C4.47715 20 0 15.5228 0 10Z" fill="#EDB53E"/>
<path d="M11.911 5.5949V4.87538C11.911 4.77997 11.9488 4.68846 12.0162 4.621C12.0835 4.55353 12.1749 4.51562 12.2702 4.51562C12.3655 4.51562 12.4568 4.55353 12.5242 4.621C12.5916 4.68846 12.6294 4.77997 12.6294 4.87538V5.5949C12.6294 5.69031 12.5916 5.78182 12.5242 5.84928C12.4568 5.91675 12.3655 5.95465 12.2702 5.95465C12.1749 5.95465 12.0835 5.91675 12.0162 5.84928C11.9488 5.78182 11.911 5.69031 11.911 5.5949ZM13.5199 6.35938C13.5764 6.39341 13.6412 6.41101 13.7071 6.4102C13.7688 6.41029 13.8294 6.3945 13.8832 6.36434C13.937 6.33417 13.9822 6.29065 14.0143 6.23796L14.3735 5.64841C14.3985 5.60807 14.4153 5.56317 14.4229 5.5163C14.4305 5.46943 14.4287 5.42152 14.4177 5.37534C14.4068 5.32915 14.3867 5.2856 14.3589 5.24719C14.331 5.20879 14.2958 5.17629 14.2553 5.15157C14.2148 5.12685 14.1699 5.1104 14.123 5.10316C14.0762 5.09593 14.0283 5.09806 13.9823 5.10942C13.9363 5.12078 13.8929 5.14116 13.8548 5.16938C13.8167 5.19759 13.7845 5.23308 13.7601 5.27381L13.4009 5.86291C13.376 5.90329 13.3593 5.9482 13.3518 5.99506C13.3443 6.04192 13.3461 6.0898 13.3572 6.13595C13.3683 6.1821 13.3883 6.2256 13.4163 6.26394C13.4442 6.30229 13.4794 6.33472 13.5199 6.35938ZM15.6502 6.92555C15.6357 6.88057 15.6125 6.8389 15.582 6.80289C15.5514 6.76689 15.5141 6.73727 15.4721 6.71572C15.4301 6.69417 15.3843 6.68112 15.3372 6.67731C15.2902 6.6735 15.2429 6.679 15.198 6.6935L14.5244 6.91161C14.4427 6.93775 14.3731 6.99229 14.3281 7.06535C14.2831 7.13842 14.2656 7.2252 14.2789 7.31002C14.2922 7.39484 14.3353 7.47211 14.4005 7.52786C14.4657 7.58362 14.5487 7.61418 14.6344 7.61403C14.6719 7.61389 14.7092 7.60797 14.7449 7.59649L15.4185 7.37839C15.4636 7.36391 15.5054 7.34063 15.5415 7.30991C15.5776 7.27918 15.6072 7.24161 15.6288 7.19935C15.6503 7.15709 15.6633 7.11099 15.667 7.06369C15.6706 7.01639 15.6649 6.96883 15.6502 6.92375V6.92555ZM14.303 8.72163C14.7002 9.40581 14.8602 10.2024 14.7579 10.9871C14.6556 11.7719 14.2969 12.5007 13.7377 13.0599C13.5436 13.7389 13.1543 14.3458 12.6182 14.8047C12.0821 15.2637 11.4229 15.5544 10.7229 15.6407C10.0229 15.727 9.31301 15.6051 8.68174 15.2901C8.05047 14.9751 7.52577 14.4809 7.17304 13.8693L5.60137 11.1428C5.50541 10.9761 5.45201 10.7883 5.4459 10.596C5.4398 10.4037 5.48118 10.2128 5.56637 10.0404C5.65156 9.86792 5.77793 9.71918 5.93428 9.60736C6.09063 9.49553 6.27211 9.42408 6.46264 9.39933L6.28303 9.08724C6.18855 8.92336 6.13521 8.73897 6.12758 8.5499C6.11994 8.36083 6.15824 8.17273 6.2392 8.00175C6.32015 7.83077 6.44133 7.68202 6.59233 7.56827C6.74333 7.45453 6.91965 7.37918 7.10613 7.34871C7.01259 7.09079 7.01262 6.80814 7.10621 6.55024C7.1998 6.29234 7.38098 6.07562 7.61805 5.93801C7.83543 5.81279 8.08724 5.76084 8.33634 5.78982C8.58544 5.81881 8.81865 5.9272 9.00156 6.09901C9.1136 5.93705 9.26468 5.80607 9.44079 5.71823C9.61689 5.6304 9.81231 5.58855 10.0089 5.59658C10.2055 5.60461 10.3968 5.66226 10.5652 5.76417C10.7336 5.86608 10.8735 6.00894 10.972 6.1795L11.5108 7.11442C11.6275 6.96143 11.7801 6.83965 11.9551 6.7599C12.13 6.68015 12.3219 6.64489 12.5138 6.65726C12.7056 6.66963 12.8914 6.72924 13.0547 6.8308C13.218 6.93236 13.3537 7.07272 13.4498 7.23943L14.303 8.72163ZM9.57231 6.98895L9.83859 7.45079C9.9275 7.53211 10.0032 7.62678 10.0631 7.7314L10.602 8.66452C10.7791 8.43417 11.035 8.27753 11.3205 8.22472L10.3501 6.53926C10.2905 6.43597 10.1924 6.36061 10.0774 6.32975C9.96236 6.29888 9.83979 6.31504 9.73666 6.37467C9.63352 6.4343 9.55827 6.53253 9.52745 6.64773C9.49662 6.76293 9.51276 6.88567 9.57231 6.98895ZM7.81293 7.17558L8.07922 7.63787L8.09359 7.65091C8.18071 7.52459 8.29188 7.41673 8.42072 7.33354C8.54957 7.25036 8.69355 7.19346 8.8444 7.16613L8.59069 6.72588C8.54629 6.64885 8.48008 6.58673 8.40042 6.54738C8.32077 6.50803 8.23126 6.49322 8.1432 6.50482C8.05514 6.51642 7.9725 6.55391 7.90572 6.61255C7.83894 6.67119 7.79102 6.74835 7.76803 6.83426C7.75256 6.89129 7.74857 6.95084 7.75628 7.00943C7.76399 7.06803 7.78324 7.1245 7.81293 7.17558ZM13.0601 12.8157C13.1587 12.4507 13.1841 12.0697 13.1348 11.6948C13.0854 11.3199 12.9624 10.9585 12.7727 10.6315L11.9195 9.15154C11.8615 9.05192 11.7674 8.97843 11.6568 8.94626C11.5462 8.9141 11.4275 8.92573 11.3252 8.97873C11.2229 9.03174 11.1449 9.12208 11.1072 9.23107C11.0696 9.34007 11.0752 9.45938 11.1229 9.56436L11.6357 10.4516C11.6833 10.5343 11.6962 10.6326 11.6715 10.7248C11.6468 10.817 11.5865 10.8957 11.5039 10.9434C11.4213 10.9911 11.3232 11.004 11.2311 10.9792C11.139 10.9545 11.0605 10.8941 11.0129 10.8114L9.44118 8.09206C9.37952 7.99428 9.28262 7.92405 9.1706 7.89596C9.05858 7.86786 8.94006 7.88406 8.83966 7.94119C8.73926 7.99833 8.6647 8.092 8.63146 8.20275C8.59822 8.3135 8.60887 8.43281 8.66119 8.53591L9.76719 10.4516C9.79227 10.4926 9.80891 10.5381 9.81612 10.5856C9.82333 10.6331 9.82096 10.6816 9.80917 10.7282C9.79737 10.7747 9.77638 10.8185 9.74744 10.8568C9.71849 10.8951 9.68218 10.9272 9.64064 10.9512C9.5991 10.9752 9.55317 10.9907 9.50557 10.9967C9.45797 11.0026 9.40966 10.999 9.36349 10.986C9.31732 10.9729 9.27422 10.9508 9.23674 10.9208C9.19926 10.8908 9.16815 10.8536 9.14526 10.8114L7.68271 8.27778C7.65344 8.22623 7.61428 8.18098 7.56747 8.14464C7.52067 8.10831 7.46715 8.0816 7.41 8.06606C7.35285 8.05052 7.29319 8.04646 7.23446 8.0541C7.17574 8.06175 7.1191 8.08095 7.06781 8.1106C7.01653 8.14026 6.97161 8.17978 6.93563 8.22689C6.89966 8.274 6.87335 8.32777 6.85821 8.38511C6.84308 8.44244 6.83941 8.50221 6.84743 8.56097C6.85546 8.61973 6.87501 8.67632 6.90496 8.72748L8.52153 11.5318C8.54512 11.5727 8.56043 11.6179 8.56658 11.6647C8.57273 11.7116 8.56961 11.7592 8.5574 11.8048C8.54518 11.8505 8.5241 11.8933 8.49538 11.9307C8.46665 11.9682 8.43083 11.9997 8.38996 12.0233C8.34909 12.0469 8.30398 12.0623 8.2572 12.0684C8.21042 12.0746 8.16288 12.0715 8.11731 12.0592C8.07173 12.047 8.02901 12.0259 7.99158 11.9971C7.95414 11.9683 7.92274 11.9325 7.89915 11.8915L7.00105 10.3338C6.94108 10.2314 6.84308 10.1568 6.72844 10.1265C6.6138 10.0961 6.49183 10.1124 6.38914 10.1718C6.28645 10.2312 6.21137 10.3288 6.18031 10.4434C6.14924 10.558 6.16469 10.6803 6.2233 10.7835L7.79497 13.51C8.07916 14.003 8.50297 14.4006 9.01281 14.6524C9.52264 14.9042 10.0956 14.9989 10.6592 14.9246C11.2228 14.8503 11.7517 14.6102 12.1791 14.2348C12.6064 13.8595 12.913 13.3656 13.0601 12.8157ZM13.6807 9.07959L12.8275 7.59964C12.7675 7.4972 12.6695 7.42267 12.5548 7.39231C12.4402 7.36196 12.3182 7.37825 12.2155 7.43763C12.1129 7.497 12.0378 7.59465 12.0067 7.70925C11.9756 7.82385 11.9911 7.94611 12.0497 8.04934L12.3151 8.51028C12.404 8.59196 12.4797 8.68692 12.5396 8.79179L13.3928 10.2717C13.6325 10.6867 13.7872 11.1453 13.8477 11.6208C14.017 11.2129 14.09 10.7714 14.0611 10.3306C14.0321 9.88986 13.9019 9.46173 13.6807 9.07959Z" fill="#FFFCF5"/>
</svg>
