<svg width="174" height="174" viewBox="0 0 174 174" fill="none" xmlns="http://www.w3.org/2000/svg">
<path d="M117.349 10.8736C128 8.11347 138.824 14.7074 141.255 25.4378C142.769 32.1161 147.676 37.5114 154.181 39.6497C164.635 43.0859 170.175 54.4849 166.421 64.8268C164.084 71.2642 165.294 78.4544 169.611 83.7715C176.546 92.3124 175.044 104.896 166.296 111.567C160.849 115.719 157.98 122.423 158.738 129.229C159.955 140.164 151.887 149.938 140.92 150.819C134.094 151.367 128.056 155.457 125.014 161.59C120.126 171.447 108.054 175.31 98.3519 170.122C92.3136 166.892 85.024 167.068 79.1468 170.585C69.7054 176.234 57.4616 172.956 52.1055 163.346C48.7716 157.365 42.5436 153.572 35.6997 153.352C24.7027 153 16.1753 143.624 16.865 132.643C17.2941 125.809 14.1063 119.25 8.46558 115.365C-0.594886 109.123 -2.70001 96.6251 3.81714 87.7589C7.87229 82.2416 8.73662 75.0001 6.09242 68.6832C1.84453 58.5341 6.83026 46.8821 17.1059 42.9474C23.5011 40.499 28.142 34.8732 29.3331 28.1302C31.247 17.2959 41.741 10.1885 52.512 12.4336C59.2159 13.831 66.1607 11.6085 70.8091 6.57904C78.2765 -1.50114 90.9464 -1.80682 98.7946 5.90595C103.679 10.7065 110.724 12.5918 117.352 10.8736H117.349Z" fill="#F8F2EA"/>
<path d="M138.912 109.361C138.494 111.85 137.194 114.092 135.895 116.256C132.147 122.499 128.131 128.709 122.685 133.541C117.237 138.372 110.128 141.733 102.862 141.273C93.8358 140.703 86.1369 134.077 82.4159 125.749C74.1119 102.859 97.6346 86.0408 97.6346 86.0408L101.856 75.9147C103.536 71.8848 105.873 68.2664 109.401 65.6942C111.36 64.266 113.649 63.4098 115.368 63.418C119.339 63.4357 121.125 66.5646 119.989 68.5271C122.082 64.9147 127.19 63.2281 130.783 65.7461C133.936 67.9551 134.621 72.853 132.486 75.9796C134.2 74.7742 137.336 75.7708 138.328 77.8913C139.515 80.4305 138.639 83.412 137.686 86.0479C135.516 92.0439 133.01 97.9171 130.182 103.631C131.268 101.353 134.694 100.958 136.691 102.501C138.689 104.046 139.33 106.871 138.912 109.361Z" fill="#EDB53E"/>
<path d="M39.2504 65.5772C32.6625 76.8391 29.1609 90.5316 32.6589 103.101C36.1569 115.671 47.8882 126.325 60.9286 125.866C69.321 125.571 77.099 120.908 82.8048 114.747C88.5106 108.586 92.4156 101.002 96.0103 93.4129C97.2569 90.7817 98.4952 88.0608 98.6934 85.156C98.8915 82.2512 97.8348 79.0811 95.3675 77.5349C92.9003 75.9887 89.0131 76.8296 88.0247 79.5681C90.6241 72.6888 92.8366 65.6645 94.6469 58.5375C95.443 55.4051 96.1117 51.8823 94.4618 49.1036C92.8118 46.3238 87.8207 45.7424 86.7086 48.7781C89.9023 45.0159 88.7265 38.4397 84.4265 36.0184C80.0168 33.5347 74.3452 36.0491 72.3508 40.4329C73.4335 38.0517 71.0288 34.6622 66.4693 35.0915C61.6044 35.5491 56.0743 42.7857 51.4369 48.4951C46.6451 54.3955 43.0976 58.9986 39.2493 65.5772H39.2504Z" fill="#9CAFE5"/>
<path d="M135.464 99.381L134.762 101.597C133.974 101.414 132.804 101.746 131.979 102.162C129.954 103.177 128.362 104.806 126.877 106.6C124.657 109.356 122.866 112.487 121.268 115.676C121.706 115.784 122.136 115.921 122.55 116.083C124.323 116.811 126.123 118.213 126.429 120.274L125.606 120.442C124.878 118.345 122.494 117.276 120.484 116.897C118.474 116.55 115.868 116.725 114.497 118.45L113.777 118.01C114.086 117.385 114.585 116.885 115.131 116.507C116.672 115.494 118.554 115.239 120.357 115.501L120.185 115.417C122.518 110.083 126.104 102.893 131.369 100.097C132.558 99.5072 133.932 99.0862 135.277 99.3362L135.354 99.3527L135.394 99.3633L135.464 99.3822V99.381Z" fill="#C45B0C"/>
<path d="M94.4936 77.1567C93.5654 77.0883 92.2905 77.4693 91.4225 77.8832C89.2902 78.8951 87.7558 80.3564 86.3736 81.9379C84.2743 84.417 82.7494 87.1637 81.4592 89.9341L80.2656 89.6546C82.0076 85.1529 84.8581 79.0461 90.3729 76.2887C91.6265 75.699 93.1185 75.2273 94.6929 75.2945L94.7837 75.3016L94.8297 75.3051L94.9123 75.3145L94.4936 77.1567Z" fill="#2E2E68"/>
<path d="M123.612 66.7555C123.598 66.7614 123.533 66.7932 123.516 66.8003C123.443 66.8262 123.309 66.9005 123.238 66.9454C122.941 67.1128 122.606 67.3676 122.337 67.6082C122.223 67.7108 121.991 67.8995 121.892 68.0092C121.561 68.3512 121.208 68.7015 120.912 69.0789C120.589 69.4445 120.155 70.0176 119.87 70.4233C119.723 70.6262 119.503 70.914 119.374 71.1263C116.805 75.0005 114.882 79.4173 113.2 83.7609C113.015 84.2551 112.443 85.7647 112.259 86.2565C112.152 86.5655 111.878 87.3627 111.592 88.193C112.737 89.3948 113.676 91.1202 114.156 92.092C114.257 92.2961 114.025 92.5025 113.832 92.3786C112.168 91.3113 110.007 90.2911 109.537 90.0741L109.4 90.0317C109.617 89.3276 110.524 86.3449 110.717 85.7305C111.568 83.1925 112.459 80.5672 113.482 78.0964C114.764 75.0265 116.146 71.9377 118.032 69.1461C118.63 68.2427 119.32 67.3192 120.063 66.529C120.246 66.3097 120.548 66.0278 120.759 65.8332C120.968 65.6209 121.304 65.3579 121.543 65.1763C121.668 65.069 121.85 64.9617 121.989 64.872C122.177 64.747 122.425 64.6149 122.633 64.5217C122.75 64.4628 122.909 64.4168 123.032 64.3731C123.099 64.3566 123.17 64.3389 123.237 64.3271L123.611 66.7496" fill="#C45B0C"/>
<path d="M134.13 76.7165C134.07 76.733 133.947 76.7873 133.886 76.8191C133.727 76.8828 133.489 77.0397 133.336 77.1281C129.488 79.7982 125.771 86.6268 123.628 90.869C123.245 91.6521 122.596 92.9223 122.243 93.7172L121.967 94.3175C123.089 95.517 124.006 97.2035 124.478 98.1599C124.578 98.364 124.347 98.5692 124.155 98.4465C122.717 97.5243 120.908 96.6374 120.139 96.2729C120.137 96.2729 120.133 96.2706 120.131 96.2682L119.557 96.0276C119.809 95.4226 120.869 92.8516 121.091 92.3232C122.06 90.1425 123.072 87.8876 124.183 85.7777C125.967 82.4294 127.905 79.0057 130.638 76.2978C131.418 75.5548 132.28 74.8319 133.294 74.4285L133.426 74.3778L133.493 74.353C133.579 74.3283 133.724 74.2905 133.812 74.2705C133.879 74.2599 133.95 74.2481 134.018 74.2422L134.201 76.7012" fill="#C45B0C"/>
<path d="M88.7969 47.4688C88.7969 47.4688 88.7945 47.4688 88.7933 47.4711C88.7721 47.477 88.745 47.4841 88.7214 47.4865C88.7061 47.49 88.6353 47.5183 88.6164 47.5254C88.5339 47.549 88.3841 47.6138 88.3062 47.6563C87.9737 47.8073 87.5963 48.0431 87.292 48.2708C87.1623 48.3675 86.9016 48.542 86.7872 48.6482C86.4075 48.9725 86.0076 49.3015 85.6656 49.6648C85.2965 50.0115 84.7952 50.5623 84.465 50.9527C84.2952 51.1473 84.0404 51.4232 83.8907 51.6273C80.8998 55.36 78.587 59.6706 76.5432 63.9199C76.3167 64.4035 75.6197 65.8812 75.3944 66.3624C75.1126 67.0052 73.9049 69.8121 73.6112 70.4902L72.7326 70.1942C71.6853 69.9607 69.8702 69.5868 68.2698 69.4099C68.0222 69.3828 67.9679 69.0761 68.1932 68.9818C69.2629 68.5407 71.2265 67.8154 73.0156 67.6125C73.3317 66.7964 73.6313 66.031 73.741 65.7538C74.793 63.263 75.8921 60.6896 77.1281 58.2742C78.6755 55.2763 80.3337 52.2641 82.5249 49.5763C83.2196 48.7059 84.018 47.8202 84.866 47.0702C85.0771 46.8614 85.4203 46.596 85.6597 46.4121C85.898 46.2127 86.2765 45.9674 86.5454 45.7988C86.687 45.6974 86.8898 45.5995 87.0479 45.5169C87.2566 45.4037 87.5361 45.2846 87.7661 45.202C87.897 45.1489 88.0716 45.1124 88.2095 45.0746C88.2827 45.0617 88.3605 45.0463 88.436 45.0381L88.7237 47.4782C88.7509 47.4759 88.7756 47.4735 88.8004 47.4664L88.7969 47.4688Z" fill="#2E2E68"/>
<path d="M75.9547 38.7797L75.95 38.782C75.9252 38.7879 75.9122 38.7879 75.8745 38.8056L75.8096 38.8292C75.6905 38.8634 75.4865 38.9825 75.352 39.0415C75.2541 39.104 74.9546 39.2868 74.8496 39.3505L74.1833 39.8447C74.05 39.9626 73.4957 40.4367 73.3789 40.5429C73.2869 40.6348 73.0169 40.9049 72.919 41.0016C72.8057 41.116 72.5675 41.3507 72.459 41.4604C72.3717 41.5583 71.8387 42.1645 71.7384 42.2777C71.3964 42.6445 70.9482 43.2413 70.6345 43.6352C70.4812 43.831 70.2382 44.1293 70.1026 44.331C69.5082 45.1542 68.6543 46.3831 68.1354 47.2335C65.3155 51.6479 63.0134 56.488 60.9023 61.1937L60.4742 61.0605C60.4742 61.0605 60.4695 61.0605 60.4671 61.0593C59.625 60.8364 57.1778 60.2101 55.0679 59.8964C54.8026 59.8575 54.7601 59.5497 55.009 59.4671C56.1541 59.0897 58.2298 58.4847 60.1286 58.3456C60.4388 57.5754 60.7301 56.8572 60.8374 56.5965C61.65 54.752 62.5039 52.7813 63.4061 50.9721C64.6857 48.322 66.1706 45.6543 67.8335 43.1564C68.1165 42.7212 68.6024 42.0843 68.9079 41.6527C69.2075 41.2151 69.7417 40.6054 70.0778 40.182C70.4116 39.7715 70.8574 39.3281 71.2148 38.933C71.3516 38.7915 71.9802 38.2207 72.1276 38.0768C72.5251 37.7513 72.9673 37.3916 73.4143 37.1109C73.9179 36.7783 74.4793 36.4846 75.1067 36.3171C75.1845 36.2995 75.3107 36.27 75.398 36.2617L75.8438 38.7962C75.8768 38.7927 75.9099 38.7891 75.9405 38.7809C75.9452 38.7809 75.9488 38.7785 75.95 38.7785L75.9547 38.7797Z" fill="#2E2E68"/>
<path d="M94.5123 123.036C98.5882 125.596 103.812 126.629 108.463 125.239C111.068 124.478 113.393 122.96 115.346 121.093L117.022 122.877C115.847 123.942 114.546 124.92 113.163 125.71C110.827 127.026 108.185 127.831 105.503 127.972C102.295 128.142 99.1295 127.443 96.2318 126.13C95.2541 125.682 94.3377 125.195 93.4414 124.571L94.5123 123.038V123.036Z" fill="#C45B0C"/>
<path d="M104.076 112.38L103.117 114.215L101.91 114.554C100.974 114.114 99.863 113.758 98.8499 113.752C98.002 113.742 97.2743 114.054 96.983 114.922C96.181 116.882 98.2131 117.9 99.9291 118.013L99.7262 120.518C98.9832 120.439 98.285 120.252 97.6116 119.962C95.7104 119.17 94.2291 117.39 94.6502 115.209C94.879 114.007 95.5099 112.856 96.6127 112.252C98.3298 111.346 100.335 111.855 102.015 112.604L102.677 111.569L104.076 112.38Z" fill="#C45B0C"/>
<path d="M53.8849 85.4973C55.0801 85.4973 56.049 84.5283 56.049 83.3331C56.049 82.1379 55.0801 81.1689 53.8849 81.1689C52.6896 81.1689 51.7207 82.1379 51.7207 83.3331C51.7207 84.5283 52.6896 85.4973 53.8849 85.4973Z" fill="#2E2E68"/>
<path d="M97.6349 108.948C98.8301 108.948 99.799 107.98 99.799 106.784C99.799 105.589 98.8301 104.62 97.6349 104.62C96.4396 104.62 95.4707 105.589 95.4707 106.784C95.4707 107.98 96.4396 108.948 97.6349 108.948Z" fill="#C45B0C"/>
<path d="M70.3927 86.9758C71.5879 86.9758 72.5568 86.0068 72.5568 84.8116C72.5568 83.6164 71.5879 82.6475 70.3927 82.6475C69.1974 82.6475 68.2285 83.6164 68.2285 84.8116C68.2285 86.0068 69.1974 86.9758 70.3927 86.9758Z" fill="#2E2E68"/>
<path d="M110.166 112.487C111.361 112.487 112.33 111.519 112.33 110.323C112.33 109.128 111.361 108.159 110.166 108.159C108.971 108.159 108.002 109.128 108.002 110.323C108.002 111.519 108.971 112.487 110.166 112.487Z" fill="#C45B0C"/>
<path d="M62.318 83.5764C66.8822 87.0473 75.0777 94.7958 69.0133 100.357C66.2359 102.768 62.3227 103.2 58.8035 103.145C58.4697 103.133 57.6725 103.086 57.334 103.071L57.6088 100.107L58.4945 100.186C61.5562 100.451 66.1003 100.266 68.1253 97.6546C69.9002 95.3466 67.8257 92.1162 66.3255 90.1337C65.04 88.4767 63.5222 86.9482 61.9324 85.5648C61.7059 85.369 61.4653 85.1674 61.246 84.9904L62.3168 83.5752L62.318 83.5764Z" fill="#2E2E68"/>
<path d="M47.0169 98.0684C47.366 100.93 48.681 103.692 50.6683 105.78C52.0918 107.279 53.8773 108.41 55.8162 109.152C59.4027 110.571 63.6084 110.924 67.1465 109.19C67.6442 108.947 68.1207 108.67 68.557 108.332C68.5665 108.325 68.5818 108.312 68.5783 108.316L69.8532 109.731L69.7836 109.793L69.7258 109.841C66.7302 112.219 62.6778 112.9 58.9581 112.387C55.8068 111.92 52.7286 110.807 50.1812 108.851C47.4592 106.759 45.4884 103.765 44.5178 100.48C44.3114 99.7796 44.1381 99.0579 44.0508 98.3278L47.0169 98.0695V98.0684Z" fill="#2E2E68"/>
</svg>
