<svg width="44" height="44" viewBox="0 0 44 44" fill="none" xmlns="http://www.w3.org/2000/svg">
<path d="M0 22C0 9.84974 9.84974 0 22 0C34.1503 0 44 9.84974 44 22C44 34.1503 34.1503 44 22 44C9.84974 44 0 34.1503 0 22Z" fill="#267F53"/>
<path d="M28.4886 20.6303H25.7386C25.5216 20.6303 25.3457 20.8062 25.3457 21.0232V24.166C25.3457 24.383 25.5216 24.5589 25.7386 24.5589H28.4886M28.4886 20.6303H29.6671C29.8841 20.6303 30.06 20.8062 30.06 21.0232V24.166C30.06 24.383 29.8841 24.5589 29.6671 24.5589H28.4886M28.4886 20.6303V19.116C28.4886 17.9959 28.4886 17.4359 28.2706 17.008C28.0788 16.6317 27.7729 16.3257 27.3965 16.134C26.9687 15.916 26.4087 15.916 25.2886 15.916H17.5457C16.4256 15.916 15.8655 15.916 15.4377 16.134C15.0614 16.3257 14.7554 16.6317 14.5637 17.008C14.3457 17.4359 14.3457 17.9959 14.3457 19.116V25.2874C14.3457 26.4075 14.3457 26.9676 14.5637 27.3954C14.7554 27.7717 15.0614 28.0777 15.4377 28.2695C15.8655 28.4874 16.4256 28.4874 17.5457 28.4874H25.2886C26.4087 28.4874 26.9687 28.4874 27.3965 28.2695C27.7729 28.0777 28.0788 27.7717 28.2706 27.3954C28.4886 26.9676 28.4886 26.4075 28.4886 25.2874V24.5589" stroke="#FFFCF5" stroke-width="1.5"/>
</svg>
