<svg width="44" height="44" viewBox="0 0 44 44" fill="none" xmlns="http://www.w3.org/2000/svg">
<path d="M0 22C0 9.84974 9.84974 0 22 0C34.1503 0 44 9.84974 44 22C44 34.1503 34.1503 44 22 44C9.84974 44 0 34.1503 0 22Z" fill="#BBB8B0"/>
<path d="M17.5 18.5H19.75M17.5 21.5H19.75M17.5 24.5H19.75M16.9 27.5H27.1C27.9401 27.5 28.3601 27.5 28.681 27.3365C28.9632 27.1927 29.1927 26.9632 29.3365 26.681C29.5 26.3601 29.5 25.9401 29.5 25.1V17.9C29.5 17.0599 29.5 16.6399 29.3365 16.319C29.1927 16.0368 28.9632 15.8073 28.681 15.6635C28.3601 15.5 27.9401 15.5 27.1 15.5H16.9C16.0599 15.5 15.6399 15.5 15.319 15.6635C15.0368 15.8073 14.8073 16.0368 14.6635 16.319C14.5 16.6399 14.5 17.0599 14.5 17.9V25.1C14.5 25.9401 14.5 26.3601 14.6635 26.681C14.8073 26.9632 15.0368 27.1927 15.319 27.3365C15.6399 27.5 16.0599 27.5 16.9 27.5ZM23.35 22.25H25.9C26.11 22.25 26.215 22.25 26.2952 22.2091C26.3658 22.1732 26.4232 22.1158 26.4591 22.0452C26.5 21.965 26.5 21.86 26.5 21.65V19.1C26.5 18.89 26.5 18.785 26.4591 18.7048C26.4232 18.6342 26.3658 18.5768 26.2952 18.5409C26.215 18.5 26.11 18.5 25.9 18.5H23.35C23.14 18.5 23.035 18.5 22.9548 18.5409C22.8842 18.5768 22.8268 18.6342 22.7909 18.7048C22.75 18.785 22.75 18.89 22.75 19.1V21.65C22.75 21.86 22.75 21.965 22.7909 22.0452C22.8268 22.1158 22.8842 22.1732 22.9548 22.2091C23.035 22.25 23.14 22.25 23.35 22.25Z" stroke="#343330" stroke-width="1.5" stroke-linecap="round"/>
</svg>
