<svg width="16" height="16" viewBox="0 0 16 16" fill="none" xmlns="http://www.w3.org/2000/svg">
<path d="M10.4708 7.13843C10.7311 6.87808 10.7311 6.45597 10.4708 6.19562C10.2104 5.93528 9.78833 5.93528 9.52798 6.19562L10.4708 7.13843ZM7.28581 9.29305L7.72236 8.7892L7.72236 8.7892L7.28581 9.29305ZM6.43593 7.67463C6.15766 7.43353 5.73663 7.46367 5.49553 7.74194C5.25443 8.02022 5.28457 8.44125 5.56284 8.68235L6.43593 7.67463ZM5.1238 2.51848L5.03894 1.85724V1.85724L5.1238 2.51848ZM5.54649 2.44727L5.735 3.08673L5.54649 2.44727ZM6.15646 2.09074L6.56402 2.61831H6.56402L6.15646 2.09074ZM5.80721 2.33928L5.48834 1.75381L5.80721 2.33928ZM2.60416 4.44956L3.2654 4.53442L2.60416 4.44956ZM2.84974 3.34113L3.42753 3.67371L2.84974 3.34113ZM4.44858 2.60513L4.53344 3.26638L4.53344 3.26638L4.44858 2.60513ZM3.34015 2.85072L3.67273 3.4285L3.34015 2.85072ZM2.08976 6.15743L1.56219 5.74987H1.56219L2.08976 6.15743ZM2.3383 5.80819L1.75284 5.48932L2.3383 5.80819ZM2.5175 5.12478L1.85626 5.03992H1.85626L2.5175 5.12478ZM2.44629 5.54747L3.08575 5.73598L2.44629 5.54747ZM1.67359 9.30457L2.20116 8.89701L1.67359 9.30457ZM1.06346 8.34714L1.70719 8.17375L1.06346 8.34714ZM1.67359 6.69616L2.20116 7.10372H2.20116L1.67359 6.69616ZM1.06346 7.65359L1.70719 7.82698L1.06346 7.65359ZM2.5175 10.8759L1.85626 10.9608L2.5175 10.8759ZM2.44629 10.4533L1.80683 10.6418L2.44629 10.4533ZM2.08976 9.84329L1.56219 10.2509L2.08976 9.84329ZM2.3383 10.1925L2.92376 9.87366L2.3383 10.1925ZM4.44858 13.3956L4.53344 12.7343H4.53344L4.44858 13.3956ZM3.34015 13.15L3.67273 12.5722L3.34015 13.15ZM2.60416 11.5512L3.2654 11.4663L2.60416 11.5512ZM2.84974 12.6596L2.27196 12.9922H2.27196L2.84974 12.6596ZM6.15646 13.91L6.56402 13.3824L6.56402 13.3824L6.15646 13.91ZM5.80721 13.6615L6.12609 13.076L5.80721 13.6615ZM5.1238 13.4822L5.03894 14.1435L5.03894 14.1435L5.1238 13.4822ZM5.54649 13.5535L5.735 12.914L5.54649 13.5535ZM9.30359 14.3262L9.71116 14.8537L9.30359 14.3262ZM8.34616 14.9363L8.17277 14.2926L8.34616 14.9363ZM6.69518 14.3262L6.28761 14.8537H6.28761L6.69518 14.3262ZM7.65261 14.9363L7.826 14.2926L7.65261 14.9363ZM10.875 13.4822L10.9598 14.1435L10.9598 14.1435L10.875 13.4822ZM10.4523 13.5535L10.2638 12.914L10.4523 13.5535ZM9.84232 13.91L9.43475 13.3824L9.84232 13.91ZM10.1916 13.6615L9.87269 13.076L10.1916 13.6615ZM13.3946 11.5512L12.7334 11.4663V11.4663L13.3946 11.5512ZM13.149 12.6596L13.7268 12.9922L13.149 12.6596ZM11.5502 13.3956L11.4653 12.7343H11.4653L11.5502 13.3956ZM12.6586 13.15L12.9912 13.7278L12.6586 13.15ZM13.909 9.84329L13.3814 9.43573H13.3814L13.909 9.84329ZM13.6605 10.1925L13.075 9.87366L13.6605 10.1925ZM13.4813 10.8759L14.1425 10.9608L14.1425 10.9608L13.4813 10.8759ZM13.5525 10.4533L12.913 10.2647L13.5525 10.4533ZM14.3252 6.69616L14.8528 6.28859L14.3252 6.69616ZM14.9353 7.65359L14.2916 7.82698L14.9353 7.65359ZM14.3252 9.30457L14.8528 9.71214V9.71214L14.3252 9.30457ZM14.9353 8.34714L14.2916 8.17375L14.9353 8.34714ZM13.4813 5.12478L14.1425 5.03992L14.1425 5.03992L13.4813 5.12478ZM13.5525 5.54747L12.913 5.73598L13.5525 5.54747ZM13.909 6.15743L13.3814 6.565L13.3814 6.565L13.909 6.15743ZM13.6605 5.80819L13.075 6.12706L13.6605 5.80819ZM11.5502 2.60513L11.4653 3.26638V3.26638L11.5502 2.60513ZM12.6586 2.85072L12.9912 2.27293V2.27293L12.6586 2.85072ZM13.3946 4.44956L12.7334 4.53442V4.53442L13.3946 4.44956ZM13.149 3.34113L12.5712 3.67371L13.149 3.34113ZM9.84232 2.09074L9.43475 2.61831V2.61831L9.84232 2.09074ZM10.1916 2.33928L9.87269 2.92474L10.1916 2.33928ZM10.875 2.51848L10.9598 1.85724V1.85724L10.875 2.51848ZM10.4523 2.44727L10.6408 1.80781L10.4523 2.44727ZM9.30359 1.67456L9.71116 1.14699V1.14699L9.30359 1.67456ZM8.34616 1.06444L8.17277 1.70816L8.34616 1.06444ZM6.69518 1.67456L6.28761 1.14699V1.14699L6.69518 1.67456ZM7.65261 1.06444L7.826 1.70816L7.65261 1.06444ZM7.37661 9.28981L7.84801 9.76121L10.4708 7.13843L9.99939 6.66703L9.52798 6.19562L6.9052 8.8184L7.37661 9.28981ZM7.28581 9.29305L7.72236 8.7892L6.43593 7.67463L5.99939 8.17849L5.56284 8.68235L6.84927 9.79691L7.28581 9.29305ZM7.37661 9.28981L6.9052 8.8184C7.12776 8.59585 7.48447 8.58309 7.72236 8.7892L7.28581 9.29305L6.84927 9.79691C7.14002 10.0488 7.576 10.0332 7.84801 9.76121L7.37661 9.28981ZM9.30359 1.67456L8.89603 2.20214L9.43475 2.61831L9.84232 2.09074L10.2499 1.56317L9.71116 1.14699L9.30359 1.67456ZM10.875 2.51848L10.7901 3.17972L11.4653 3.26638L11.5502 2.60513L11.635 1.94389L10.9598 1.85724L10.875 2.51848ZM13.3946 4.44956L12.7334 4.53442L12.82 5.20964L13.4813 5.12478L14.1425 5.03992L14.0559 4.3647L13.3946 4.44956ZM13.909 6.15743L13.3814 6.565L13.7976 7.10372L14.3252 6.69616L14.8528 6.28859L14.4366 5.74987L13.909 6.15743ZM14.3252 9.30457L13.7976 8.89701L13.3814 9.43573L13.909 9.84329L14.4366 10.2509L14.8528 9.71214L14.3252 9.30457ZM13.4813 10.8759L12.82 10.7911L12.7334 11.4663L13.3946 11.5512L14.0559 11.636L14.1425 10.9608L13.4813 10.8759ZM11.5502 13.3956L11.4653 12.7343L10.7901 12.821L10.875 13.4822L10.9598 14.1435L11.635 14.0568L11.5502 13.3956ZM9.84232 13.91L9.43475 13.3824L8.89603 13.7986L9.30359 14.3262L9.71116 14.8537L10.2499 14.4376L9.84232 13.91ZM6.69518 14.3262L7.10274 13.7986L6.56402 13.3824L6.15646 13.91L5.74889 14.4376L6.28761 14.8537L6.69518 14.3262ZM5.1238 13.4822L5.20866 12.821L4.53344 12.7343L4.44858 13.3956L4.36372 14.0568L5.03894 14.1435L5.1238 13.4822ZM2.60416 11.5512L3.2654 11.4663L3.17875 10.7911L2.5175 10.8759L1.85626 10.9608L1.94291 11.636L2.60416 11.5512ZM2.08976 9.84329L2.61734 9.43573L2.20116 8.89701L1.67359 9.30457L1.14601 9.71214L1.56219 10.2509L2.08976 9.84329ZM1.67359 6.69616L2.20116 7.10372L2.61734 6.565L2.08976 6.15743L1.56219 5.74987L1.14601 6.28859L1.67359 6.69616ZM2.5175 5.12478L3.17875 5.20964L3.2654 4.53442L2.60416 4.44956L1.94291 4.3647L1.85626 5.03992L2.5175 5.12478ZM4.44858 2.60513L4.53344 3.26638L5.20866 3.17972L5.1238 2.51848L5.03894 1.85724L4.36372 1.94389L4.44858 2.60513ZM6.15646 2.09074L6.56402 2.61831L7.10274 2.20214L6.69518 1.67456L6.28761 1.14699L5.74889 1.56317L6.15646 2.09074ZM5.1238 2.51848L5.20866 3.17972C5.40216 3.15489 5.57044 3.13524 5.735 3.08673L5.54649 2.44727L5.35798 1.80781C5.31871 1.81939 5.27314 1.82718 5.03894 1.85724L5.1238 2.51848ZM6.15646 2.09074L5.74889 1.56316C5.56203 1.70752 5.5243 1.73423 5.48834 1.75381L5.80721 2.33928L6.12609 2.92474C6.27675 2.84268 6.40964 2.73758 6.56402 2.61831L6.15646 2.09074ZM5.54649 2.44727L5.735 3.08673C5.87073 3.04672 6.00182 2.99242 6.12609 2.92474L5.80721 2.33928L5.48834 1.75381C5.44692 1.77637 5.40322 1.79447 5.35798 1.80781L5.54649 2.44727ZM2.60416 4.44956L3.2654 4.53442C3.34826 3.88877 3.37726 3.76104 3.42753 3.67371L2.84974 3.34113L2.27196 3.00855C2.05625 3.38329 2.01019 3.84048 1.94291 4.3647L2.60416 4.44956ZM4.44858 2.60513L4.36372 1.94389C3.83951 2.01116 3.38231 2.05723 3.00757 2.27293L3.34015 2.85072L3.67273 3.4285C3.76006 3.37824 3.8878 3.34924 4.53344 3.26638L4.44858 2.60513ZM2.84974 3.34113L3.42753 3.67371C3.4862 3.57177 3.5708 3.48718 3.67273 3.4285L3.34015 2.85072L3.00757 2.27293C2.70177 2.44896 2.44798 2.70275 2.27196 3.00855L2.84974 3.34113ZM2.08976 6.15743L2.61734 6.565C2.7366 6.41061 2.8417 6.27772 2.92376 6.12706L2.3383 5.80819L1.75284 5.48932C1.73325 5.52528 1.70654 5.56301 1.56219 5.74987L2.08976 6.15743ZM2.5175 5.12478L1.85626 5.03992C1.8262 5.27412 1.81841 5.31969 1.80683 5.35896L2.44629 5.54747L3.08575 5.73598C3.13426 5.57142 3.15391 5.40314 3.17875 5.20964L2.5175 5.12478ZM2.3383 5.80819L2.92376 6.12706C2.99144 6.0028 3.04574 5.8717 3.08575 5.73598L2.44629 5.54747L1.80683 5.35896C1.7935 5.4042 1.7754 5.4479 1.75284 5.48932L2.3383 5.80819ZM1.67359 9.30457L2.20116 8.89701C1.80321 8.38187 1.73339 8.27104 1.70719 8.17375L1.06346 8.34714L0.419737 8.52052C0.532192 8.93803 0.822905 9.29389 1.14601 9.71214L1.67359 9.30457ZM1.67359 6.69616L1.14601 6.28859C0.822906 6.70684 0.532192 7.0627 0.419737 7.4802L1.06346 7.65359L1.70719 7.82698C1.73339 7.72968 1.80321 7.61885 2.20116 7.10372L1.67359 6.69616ZM1.06346 8.34714L1.70719 8.17375C1.6766 8.06018 1.6766 7.94054 1.70719 7.82698L1.06346 7.65359L0.419737 7.4802C0.32797 7.8209 0.327969 8.17982 0.419737 8.52052L1.06346 8.34714ZM2.5175 10.8759L3.17875 10.7911C3.15391 10.5976 3.13426 10.4293 3.08575 10.2647L2.44629 10.4533L1.80683 10.6418C1.81841 10.681 1.8262 10.7266 1.85626 10.9608L2.5175 10.8759ZM2.08976 9.84329L1.56219 10.2509C1.70654 10.4377 1.73325 10.4755 1.75284 10.5114L2.3383 10.1925L2.92376 9.87366C2.8417 9.723 2.7366 9.59011 2.61734 9.43573L2.08976 9.84329ZM2.44629 10.4533L3.08575 10.2647C3.04574 10.129 2.99144 9.99793 2.92376 9.87366L2.3383 10.1925L1.75284 10.5114C1.7754 10.5528 1.7935 10.5965 1.80683 10.6418L2.44629 10.4533ZM4.44858 13.3956L4.53344 12.7343C3.8878 12.6515 3.76006 12.6225 3.67273 12.5722L3.34015 13.15L3.00757 13.7278C3.38231 13.9435 3.83951 13.9896 4.36372 14.0568L4.44858 13.3956ZM2.60416 11.5512L1.94291 11.636C2.01019 12.1602 2.05625 12.6174 2.27196 12.9922L2.84974 12.6596L3.42753 12.327C3.37726 12.2397 3.34826 12.112 3.2654 11.4663L2.60416 11.5512ZM3.34015 13.15L3.67273 12.5722C3.5708 12.5135 3.4862 12.429 3.42753 12.327L2.84974 12.6596L2.27196 12.9922C2.44798 13.298 2.70177 13.5518 3.00757 13.7278L3.34015 13.15ZM6.15646 13.91L6.56402 13.3824C6.40964 13.2631 6.27675 13.158 6.12609 13.076L5.80721 13.6615L5.48834 14.2469C5.5243 14.2665 5.56203 14.2932 5.74889 14.4376L6.15646 13.91ZM5.1238 13.4822L5.03894 14.1435C5.27315 14.1735 5.31871 14.1813 5.35798 14.1929L5.54649 13.5535L5.735 12.914C5.57044 12.8655 5.40215 12.8458 5.20866 12.821L5.1238 13.4822ZM5.80721 13.6615L6.12609 13.076C6.00182 13.0083 5.87073 12.954 5.735 12.914L5.54649 13.5535L5.35798 14.1929C5.40322 14.2063 5.44692 14.2244 5.48834 14.2469L5.80721 13.6615ZM9.30359 14.3262L8.89603 13.7986C8.3809 14.1965 8.27007 14.2664 8.17277 14.2926L8.34616 14.9363L8.51955 15.58C8.93705 15.4676 9.29291 15.1768 9.71116 14.8537L9.30359 14.3262ZM6.69518 14.3262L6.28761 14.8537C6.70586 15.1768 7.06172 15.4676 7.47923 15.58L7.65261 14.9363L7.826 14.2926C7.7287 14.2664 7.61787 14.1965 7.10274 13.7986L6.69518 14.3262ZM8.34616 14.9363L8.17277 14.2926C8.05921 14.3232 7.93957 14.3232 7.826 14.2926L7.65261 14.9363L7.47923 15.58C7.81993 15.6718 8.17884 15.6718 8.51955 15.58L8.34616 14.9363ZM10.875 13.4822L10.7901 12.821C10.5966 12.8458 10.4283 12.8655 10.2638 12.914L10.4523 13.5535L10.6408 14.1929C10.6801 14.1813 10.7256 14.1735 10.9598 14.1435L10.875 13.4822ZM9.84232 13.91L10.2499 14.4376C10.4367 14.2932 10.4745 14.2665 10.5104 14.2469L10.1916 13.6615L9.87269 13.076C9.72203 13.158 9.58914 13.2631 9.43475 13.3824L9.84232 13.91ZM10.4523 13.5535L10.2638 12.914C10.128 12.954 9.99695 13.0083 9.87269 13.076L10.1916 13.6615L10.5104 14.2469C10.5519 14.2244 10.5955 14.2063 10.6408 14.1929L10.4523 13.5535ZM13.3946 11.5512L12.7334 11.4663C12.6505 12.112 12.6215 12.2397 12.5712 12.327L13.149 12.6596L13.7268 12.9922C13.9425 12.6174 13.9886 12.1602 14.0559 11.636L13.3946 11.5512ZM11.5502 13.3956L11.635 14.0568C12.1593 13.9896 12.6165 13.9435 12.9912 13.7278L12.6586 13.15L12.326 12.5722C12.2387 12.6225 12.111 12.6515 11.4653 12.7343L11.5502 13.3956ZM13.149 12.6596L12.5712 12.327C12.5126 12.429 12.428 12.5135 12.326 12.5722L12.6586 13.15L12.9912 13.7278C13.297 13.5518 13.5508 13.298 13.7268 12.9922L13.149 12.6596ZM13.909 9.84329L13.3814 9.43573C13.2622 9.59011 13.1571 9.723 13.075 9.87366L13.6605 10.1925L14.2459 10.5114C14.2655 10.4754 14.2922 10.4377 14.4366 10.2509L13.909 9.84329ZM13.4813 10.8759L14.1425 10.9608C14.1726 10.7266 14.1804 10.681 14.1919 10.6418L13.5525 10.4533L12.913 10.2647C12.8645 10.4293 12.8449 10.5976 12.82 10.7911L13.4813 10.8759ZM13.6605 10.1925L13.075 9.87366C13.0073 9.99793 12.953 10.129 12.913 10.2647L13.5525 10.4533L14.1919 10.6418C14.2053 10.5965 14.2234 10.5528 14.2459 10.5114L13.6605 10.1925ZM14.3252 6.69616L13.7976 7.10372C14.1956 7.61885 14.2654 7.72968 14.2916 7.82698L14.9353 7.65359L15.579 7.4802C15.4666 7.0627 15.1759 6.70684 14.8528 6.28859L14.3252 6.69616ZM14.3252 9.30457L14.8528 9.71214C15.1759 9.29389 15.4666 8.93803 15.579 8.52052L14.9353 8.34714L14.2916 8.17375C14.2654 8.27104 14.1956 8.38187 13.7976 8.89701L14.3252 9.30457ZM14.9353 7.65359L14.2916 7.82698C14.3222 7.94055 14.3222 8.06018 14.2916 8.17375L14.9353 8.34714L15.579 8.52052C15.6708 8.17982 15.6708 7.8209 15.579 7.4802L14.9353 7.65359ZM13.4813 5.12478L12.82 5.20964C12.8449 5.40313 12.8645 5.57142 12.913 5.73598L13.5525 5.54747L14.1919 5.35896C14.1804 5.31969 14.1726 5.27413 14.1425 5.03992L13.4813 5.12478ZM13.909 6.15743L14.4366 5.74987C14.2922 5.56301 14.2655 5.52528 14.2459 5.48932L13.6605 5.80819L13.075 6.12706C13.1571 6.27772 13.2622 6.41061 13.3814 6.565L13.909 6.15743ZM13.5525 5.54747L12.913 5.73598C12.953 5.8717 13.0073 6.0028 13.075 6.12706L13.6605 5.80819L14.2459 5.48932C14.2234 5.4479 14.2053 5.4042 14.1919 5.35896L13.5525 5.54747ZM11.5502 2.60513L11.4653 3.26638C12.111 3.34924 12.2387 3.37824 12.326 3.4285L12.6586 2.85072L12.9912 2.27293C12.6165 2.05723 12.1593 2.01116 11.635 1.94389L11.5502 2.60513ZM13.3946 4.44956L14.0559 4.3647C13.9886 3.84049 13.9425 3.38329 13.7268 3.00855L13.149 3.34113L12.5712 3.67371C12.6215 3.76104 12.6505 3.88877 12.7334 4.53442L13.3946 4.44956ZM12.6586 2.85072L12.326 3.4285C12.428 3.48718 12.5126 3.57177 12.5712 3.67371L13.149 3.34113L13.7268 3.00855C13.5508 2.70275 13.297 2.44896 12.9912 2.27293L12.6586 2.85072ZM9.84232 2.09074L9.43475 2.61831C9.58914 2.73758 9.72203 2.84268 9.87269 2.92474L10.1916 2.33928L10.5104 1.75381C10.4745 1.73423 10.4367 1.70752 10.2499 1.56317L9.84232 2.09074ZM10.875 2.51848L10.9598 1.85724C10.7256 1.82718 10.6801 1.81939 10.6408 1.80781L10.4523 2.44727L10.2638 3.08673C10.4283 3.13524 10.5966 3.15489 10.7901 3.17972L10.875 2.51848ZM10.1916 2.33928L9.87269 2.92474C9.99695 2.99242 10.128 3.04672 10.2638 3.08673L10.4523 2.44727L10.6408 1.80781C10.5955 1.79447 10.5518 1.77637 10.5104 1.75381L10.1916 2.33928ZM9.30359 1.67456L9.71116 1.14699C9.29291 0.823882 8.93705 0.533168 8.51955 0.420714L8.34616 1.06444L8.17277 1.70816C8.27007 1.73437 8.3809 1.80419 8.89603 2.20214L9.30359 1.67456ZM6.69518 1.67456L7.10274 2.20214C7.61788 1.80419 7.7287 1.73437 7.826 1.70816L7.65261 1.06444L7.47923 0.420714C7.06172 0.533168 6.70586 0.823882 6.28761 1.14699L6.69518 1.67456ZM8.34616 1.06444L8.51955 0.420714C8.17884 0.328946 7.81993 0.328946 7.47923 0.420714L7.65261 1.06444L7.826 1.70816C7.93957 1.67757 8.05921 1.67757 8.17277 1.70816L8.34616 1.06444Z" fill="#FFFCF5"/>
</svg>
