<svg width="84" height="42" viewBox="0 0 84 42" fill="none" xmlns="http://www.w3.org/2000/svg">
<g clip-path="url(#clip0_3_22741)">
<path d="M72.2714 11.8952V22.0837H68.6333V14.9367H65.1303V22.0837H61.4922V11.8945H72.2714V11.8952Z" fill="black"/>
<path fill-rule="evenodd" clip-rule="evenodd" d="M54.0198 22.4481C57.2766 22.4481 59.695 20.4513 59.695 17.424C59.695 14.494 57.9107 12.5916 54.9286 12.5916C53.5523 12.5916 52.4167 13.0761 51.5614 13.912C51.7656 12.1843 53.2266 10.9229 54.8352 10.9229C55.2064 10.9229 58.0013 10.917 58.0013 10.917L59.5818 7.89258C59.5818 7.89258 56.0729 7.97245 54.4417 7.97245C50.7147 8.03739 48.1973 11.4251 48.1973 15.5397C48.1973 20.3332 50.6525 22.4481 54.0198 22.4481ZM54.0396 15.2705C55.2488 15.2705 56.0871 16.0651 56.0871 17.4237C56.0871 18.6465 55.3422 19.6539 54.0396 19.6567C52.7935 19.6567 51.9552 18.7232 51.9552 17.4445C51.9552 16.0856 52.7935 15.2705 54.0396 15.2705Z" fill="black"/>
<path d="M45.236 18.6736C45.236 18.6736 44.3768 19.1688 43.0936 19.2626C41.6184 19.3063 40.3039 18.3746 40.3039 16.7191C40.3039 15.1043 41.4638 14.1788 43.0565 14.1788C44.033 14.1788 45.3249 14.8556 45.3249 14.8556C45.3249 14.8556 46.2702 13.1209 46.7599 12.2534C45.8632 11.5738 44.6689 11.2012 43.2798 11.2012C39.774 11.2012 37.0586 13.487 37.0586 16.6986C37.0586 19.9512 39.6108 22.1839 43.2798 22.1165C44.3053 22.0783 45.7201 21.7182 46.5824 21.1643L45.236 18.6736Z" fill="black"/>
<path d="M0.5 9.07031L5.54668 18.0909V23.5932L0.505904 32.5961L0.5 9.07031Z" fill="#5B57A2"/>
<path d="M19.877 14.8098L24.6059 11.9114L34.2839 11.9023L19.877 20.7281V14.8098Z" fill="#D90751"/>
<path d="M19.8501 9.01783L19.8768 20.9608L14.8184 17.8526V0L19.8501 9.01783Z" fill="#FAB718"/>
<path d="M34.2838 11.9016L24.6054 11.9107L19.8501 9.01783L14.8184 0L34.2838 11.9016Z" fill="#ED6F26"/>
<path d="M19.8768 32.6462V26.8519L14.8184 23.8027L14.8211 41.6731L19.8768 32.6462Z" fill="#63B22F"/>
<path d="M24.5943 29.7741L5.54633 18.0909L0.5 9.07031L34.2636 29.7623L24.5943 29.7741Z" fill="#1487C9"/>
<path d="M14.8223 41.6743L19.8773 32.6475L24.5944 29.7755L34.2637 29.7637L14.8223 41.6743Z" fill="#017F36"/>
<path d="M0.505859 32.5958L14.86 23.8027L10.0342 20.8418L5.54663 23.593L0.505859 32.5958Z" fill="#984995"/>
<path d="M40.3057 28.9404C40.1945 29.0821 40.0483 29.189 39.8729 29.2613C39.693 29.3345 39.5005 29.3718 39.3062 29.371C39.113 29.3736 38.9209 29.3414 38.7391 29.2758C38.5758 29.2165 38.4266 29.1241 38.3008 29.0043C38.1766 28.8843 38.0791 28.7394 38.0146 28.5792C37.9449 28.4037 37.9101 28.2162 37.9122 28.0274C37.9122 27.8398 37.9445 27.6662 38.0115 27.5016C38.0758 27.3366 38.1692 27.1953 38.2862 27.0765C38.4033 26.9553 38.5436 26.8629 38.7012 26.7907C38.862 26.7213 39.0374 26.6838 39.2301 26.6838C39.4378 26.6838 39.6305 26.7098 39.8059 26.7615C39.9813 26.8136 40.1303 26.9005 40.2529 27.022L40.0396 27.3832C39.9365 27.2897 39.815 27.2187 39.683 27.1748C39.5574 27.1344 39.4263 27.114 39.2944 27.1144C39.1777 27.1144 39.0666 27.1373 38.9586 27.1807C38.8521 27.2236 38.7549 27.2864 38.6721 27.3658C38.5874 27.4475 38.5207 27.5459 38.4762 27.6547C38.4265 27.7673 38.4033 27.8916 38.4033 28.0302C38.4033 28.1718 38.4293 28.299 38.479 28.4087C38.529 28.5216 38.596 28.6171 38.6807 28.6976C38.7655 28.7789 38.8648 28.8393 38.9787 28.88C39.093 28.9234 39.2128 28.9435 39.3413 28.9435C39.4989 28.9435 39.6424 28.9116 39.7649 28.8508C39.8864 28.7921 39.9956 28.7108 40.0865 28.6112L40.3057 28.9404ZM40.9075 29.3102V26.7386H41.3694V28.6546L42.8714 26.7386H43.3332V29.3106H42.8714V27.3946L41.3694 29.3106L40.9075 29.3102ZM46.3928 28.9404C46.2792 29.0833 46.1301 29.1939 45.9604 29.2613C45.7804 29.3345 45.5877 29.3718 45.3933 29.371C45.2002 29.3736 45.0082 29.3414 44.8266 29.2758C44.6632 29.2166 44.5138 29.1241 44.3879 29.0043C44.2637 28.8843 44.1662 28.7394 44.1018 28.5792C44.032 28.4037 43.9972 28.2162 43.9993 28.0274C43.9993 27.8398 44.0316 27.6662 44.0987 27.5016C44.1632 27.3366 44.2567 27.1953 44.3734 27.0765C44.4904 26.9553 44.6307 26.8629 44.7884 26.7907C44.9549 26.7174 45.1353 26.6809 45.3173 26.6838C45.5249 26.6838 45.7177 26.7098 45.8931 26.7615C46.0684 26.8136 46.2174 26.9005 46.3403 27.022L46.1268 27.3832C46.0238 27.2896 45.9025 27.2187 45.7705 27.1748C45.6449 27.1344 45.5138 27.114 45.3819 27.1144C45.1497 27.1151 44.9268 27.2052 44.7592 27.3658C44.6753 27.4481 44.6087 27.5463 44.5633 27.6547C44.5137 27.7673 44.4904 27.8916 44.4904 28.0302C44.4904 28.1718 44.5168 28.299 44.5664 28.4087C44.6161 28.5216 44.6831 28.6171 44.7679 28.6976C44.8526 28.7789 44.9523 28.8393 45.0662 28.88C45.1801 28.9202 45.2999 28.9435 45.4284 28.9435C45.5864 28.9435 45.7267 28.9116 45.8521 28.8508C45.9735 28.7921 46.0827 28.7108 46.1737 28.6112L46.3928 28.9404ZM46.6296 26.7386H48.9995V27.1953H48.0469V29.3102H47.585V27.1953H46.6324V26.7386H46.6296Z" fill="black"/>
<path fill-rule="evenodd" clip-rule="evenodd" d="M51.1553 29.2852C51.3307 29.2303 51.4797 29.1463 51.6082 29.031L51.4679 28.6726C51.3832 28.748 51.2693 28.8115 51.1321 28.8636C50.9946 28.9157 50.8397 28.9414 50.6702 28.9414C50.416 28.9414 50.2055 28.8751 50.0388 28.7393C49.8725 28.6032 49.7819 28.4129 49.7614 28.1698H51.7603C51.7808 28.0802 51.7895 27.9791 51.7895 27.8607C51.7895 27.6843 51.7572 27.5255 51.6929 27.3811C51.6331 27.2408 51.5457 27.114 51.4359 27.0081C51.3246 26.9033 51.1935 26.8218 51.0501 26.7685C50.9001 26.7103 50.7405 26.6808 50.5796 26.6817C50.3632 26.6817 50.1732 26.7192 50.0069 26.7886C49.8496 26.8548 49.7074 26.9521 49.5888 27.0748C49.4736 27.1968 49.3851 27.3414 49.329 27.4995C49.2673 27.6678 49.2365 27.846 49.2384 28.0253C49.2384 28.2278 49.2734 28.4125 49.3377 28.5775C49.4002 28.7373 49.4958 28.882 49.6183 29.0022C49.7381 29.1203 49.884 29.2102 50.0566 29.2738C50.2413 29.3393 50.4363 29.3715 50.6323 29.3689C50.8099 29.3678 50.9862 29.3394 51.1553 29.2852ZM49.9864 27.3057C50.1295 27.1758 50.3194 27.1123 50.5591 27.1123C50.7841 27.1123 50.9654 27.1731 51.097 27.2946C51.2286 27.4158 51.2984 27.5835 51.3102 27.7971H49.7322C49.7546 27.608 49.8449 27.4331 49.9864 27.3057Z" fill="black"/>
<path d="M52.418 26.7402H52.8389L53.8383 28.0148L54.785 26.7402H55.1941V29.3122H54.7326V27.4369L53.8324 28.6301H53.8147L52.8798 27.4365V29.3118H52.418V26.7402Z" fill="black"/>
<path fill-rule="evenodd" clip-rule="evenodd" d="M56.4507 26.7487C56.3105 26.7853 56.1766 26.8427 56.0534 26.9189L56.176 27.2835C56.2812 27.2315 56.3864 27.188 56.4917 27.1505C56.5969 27.1127 56.7313 27.0953 56.8921 27.0953C57.0206 27.0953 57.123 27.1158 57.2018 27.1561C57.2807 27.1936 57.339 27.2516 57.38 27.321C57.421 27.3905 57.4474 27.477 57.462 27.578C57.4765 27.6791 57.4824 27.7888 57.4824 27.9076C57.3879 27.8418 57.2802 27.7973 57.1668 27.7774C57.0571 27.7556 56.9456 27.7439 56.8337 27.7426C56.6962 27.7426 56.5677 27.7631 56.4448 27.7975C56.3222 27.8322 56.217 27.8843 56.1322 27.9538C56.0457 28.0231 55.9758 28.1109 55.9277 28.2108C55.8762 28.3201 55.8502 28.4397 55.8516 28.5605C55.8516 28.8119 55.9249 29.0085 56.0708 29.1474C56.217 29.286 56.4097 29.3551 56.6493 29.3551C56.8657 29.3551 57.0383 29.3176 57.1695 29.2426C57.3012 29.1672 57.4064 29.0807 57.4824 28.9824V29.3148H57.9148V27.7371C57.9148 27.4016 57.8419 27.1419 57.6929 26.9595C57.5467 26.7776 57.2866 26.6852 56.9185 26.6852C56.7545 26.6852 56.5997 26.7081 56.4507 26.7487ZM57.2227 28.8324C57.1175 28.9074 56.9799 28.9418 56.8105 28.9418C56.6615 28.9418 56.5444 28.9043 56.4628 28.8321C56.3809 28.7571 56.3399 28.6588 56.3399 28.5372C56.3399 28.4653 56.3545 28.4046 56.3868 28.3497C56.4191 28.2948 56.4628 28.2514 56.5125 28.2167C56.5668 28.1804 56.6271 28.1539 56.6906 28.1385C56.758 28.1212 56.825 28.1125 56.8952 28.1125C57.1234 28.1125 57.3189 28.1674 57.4797 28.283V28.6095C57.4039 28.6944 57.3175 28.7695 57.2227 28.8324ZM61.9919 25.8354C62.0853 25.7923 62.1728 25.7201 62.2548 25.6131L62.0033 25.252C61.9391 25.3388 61.8662 25.3992 61.7842 25.4311C61.6973 25.4651 61.6073 25.4902 61.5154 25.5062L61.4279 25.5218C61.3518 25.535 61.2702 25.5496 61.1824 25.5642C61.0415 25.5902 60.9041 25.6329 60.7733 25.6913C60.5656 25.7809 60.3993 25.9021 60.2735 26.0552C60.1478 26.2084 60.0485 26.3817 59.9811 26.5727C59.9129 26.7662 59.8669 26.9668 59.844 27.1707C59.8203 27.379 59.8089 27.578 59.8089 27.7687C59.8089 28.0146 59.8408 28.2368 59.9051 28.4362C59.9697 28.6359 60.06 28.8032 60.1798 28.939C60.2996 29.0779 60.443 29.1821 60.6125 29.2571C60.782 29.3321 60.9719 29.3697 61.1852 29.3697C61.381 29.3697 61.5623 29.3321 61.7259 29.2627C61.8836 29.196 62.0266 29.0988 62.1468 28.9769C62.2635 28.8581 62.3572 28.7164 62.4215 28.5577C62.4885 28.3987 62.5208 28.2281 62.5208 28.0489C62.5208 27.8555 62.4916 27.6794 62.4361 27.5232C62.3849 27.3742 62.3033 27.2375 62.1964 27.1217C62.0894 27.0079 61.9586 26.919 61.8134 26.8613C61.6534 26.7982 61.4828 26.7669 61.3109 26.7689C61.1997 26.7689 61.0917 26.7835 60.9865 26.8123C60.8841 26.8411 60.7859 26.8829 60.6941 26.9366C60.605 26.9876 60.5234 27.0507 60.4517 27.1241C60.3815 27.1967 60.3232 27.2776 60.2822 27.37H60.2704C60.2794 27.2516 60.294 27.1304 60.3201 27.0061C60.3465 26.8817 60.3843 26.763 60.4343 26.6505C60.484 26.5379 60.5482 26.4365 60.6271 26.3441C60.7116 26.2509 60.8152 26.177 60.9309 26.1274C61.0582 26.0669 61.1928 26.0232 61.3314 25.9976L61.423 25.9809C61.5144 25.9642 61.6015 25.9483 61.6849 25.9309C61.796 25.908 61.8981 25.8784 61.9919 25.8354ZM60.367 28.3063C60.3218 28.1604 60.3001 28.0082 60.3027 27.8555C60.3223 27.7679 60.358 27.6846 60.4079 27.61C60.4576 27.5318 60.5218 27.4627 60.5979 27.4016C60.7695 27.2672 60.9817 27.1949 61.1997 27.1967C61.4717 27.1967 61.6762 27.2804 61.8193 27.4454C61.9627 27.6128 62.0329 27.8208 62.0329 28.0722C62.0329 28.1965 62.0092 28.3094 61.9686 28.4132C61.9291 28.5157 61.8695 28.6091 61.7932 28.688C61.7169 28.767 61.6255 28.8298 61.5244 28.8727C61.4192 28.9189 61.305 28.9422 61.1765 28.9422C61.048 28.9422 60.9309 28.9161 60.8229 28.864C60.7156 28.813 60.6208 28.739 60.5451 28.6473C60.4659 28.5451 60.4056 28.4297 60.367 28.3063ZM66.0627 26.74H65.6008V29.312H66.0627V26.74ZM63.1869 26.74H63.6488V27.5117H64.0756C64.277 27.5117 64.4406 27.5378 64.5722 27.5867C64.7038 27.636 64.809 27.7024 64.8879 27.7833C64.9667 27.8642 65.0223 27.9597 65.0545 28.0663C65.0865 28.1733 65.1042 28.283 65.1042 28.3987C65.1042 28.5143 65.0865 28.6244 65.0486 28.7341C65.0136 28.8439 64.9521 28.939 64.8701 29.0258C64.7885 29.1127 64.6774 29.1821 64.5371 29.2342C64.3968 29.286 64.2273 29.3148 64.0228 29.3148H63.1841V26.74H63.1869ZM63.6488 27.942V28.8842H63.9849C64.2159 28.8842 64.3794 28.8439 64.4729 28.7626C64.5666 28.6817 64.6132 28.5664 64.6132 28.4132C64.6132 28.257 64.5635 28.1389 64.4701 28.0576C64.3735 27.9767 64.2127 27.9361 63.9908 27.9361H63.6488V27.942Z" fill="black"/>
<path d="M69.1162 28.9404C69.0051 29.0821 68.8589 29.189 68.6835 29.2613C68.5035 29.3345 68.311 29.3718 68.1167 29.371C67.9235 29.3736 67.7314 29.3414 67.5496 29.2759C67.3863 29.2166 67.2371 29.1242 67.1114 29.0043C66.9872 28.8842 66.8896 28.7394 66.8248 28.5792C66.7553 28.4036 66.7207 28.2162 66.7227 28.0274C66.7227 27.8399 66.7547 27.6662 66.8221 27.5016C66.8863 27.3366 66.9797 27.1953 67.0968 27.0765C67.2138 26.9553 67.3538 26.8629 67.5118 26.7907C67.6783 26.7173 67.8587 26.6809 68.0407 26.6838C68.248 26.6838 68.4411 26.7098 68.6165 26.7615C68.7918 26.8136 68.9408 26.9005 69.0634 27.022L68.8502 27.3832C68.7471 27.2897 68.6256 27.2187 68.4935 27.1748C68.368 27.1344 68.2368 27.114 68.1049 27.1144C67.9882 27.1144 67.8771 27.1373 67.7688 27.1807C67.6624 27.2236 67.5653 27.2864 67.4826 27.3658C67.3986 27.448 67.332 27.5463 67.2867 27.6547C67.2371 27.7673 67.2138 27.8916 67.2138 28.0302C67.2138 28.1718 67.2398 28.299 67.2895 28.4087C67.3392 28.5216 67.4065 28.6171 67.4913 28.6976C67.576 28.7789 67.6753 28.8393 67.7892 28.88C67.9035 28.9202 68.0233 28.9435 68.1518 28.9435C68.3095 28.9435 68.4498 28.9116 68.5755 28.8508C68.697 28.7921 68.8061 28.7108 68.8971 28.6112L69.1162 28.9404ZM69.3527 26.7386H71.7229V27.1953H70.77V29.3102H70.3084V27.1953H69.3558V26.7386H69.3527Z" fill="black"/>
<path fill-rule="evenodd" clip-rule="evenodd" d="M72.6884 26.7398H72.2266V30.4557H72.6884V29.193C72.7819 29.2538 72.893 29.2972 73.0215 29.326C73.15 29.3548 73.2844 29.3691 73.4219 29.3691C73.6265 29.3691 73.8105 29.3316 73.9772 29.2625C74.1371 29.1941 74.282 29.095 74.4037 28.9708C74.5235 28.8461 74.6141 28.7016 74.6784 28.5311C74.7426 28.3609 74.7749 28.1786 74.7749 27.9852C74.7749 27.7942 74.7457 27.6181 74.6902 27.459C74.6379 27.308 74.5564 27.1687 74.4505 27.0489C74.3466 26.9321 74.2177 26.8402 74.0734 26.7801C73.9157 26.7123 73.7453 26.6788 73.5737 26.6818C73.3927 26.6818 73.2233 26.7166 73.0625 26.786C72.9017 26.8555 72.776 26.9388 72.6884 27.043V26.7398ZM73.01 27.2166C73.1417 27.1472 73.2847 27.1125 73.4396 27.1125C73.574 27.1125 73.6938 27.1326 73.8022 27.176C73.9074 27.2194 73.9949 27.2802 74.0682 27.3611C74.1411 27.442 74.1967 27.5347 74.2318 27.6441C74.2696 27.7539 74.2873 27.8727 74.2873 28.0025C74.2873 28.1414 74.2637 28.2654 74.2231 28.3811C74.1848 28.4907 74.124 28.5911 74.0446 28.6759C73.9648 28.7597 73.8682 28.8256 73.7612 28.8693C73.6419 28.9193 73.5134 28.9439 73.3841 28.9416C73.2587 28.9416 73.1416 28.9273 73.0305 28.8985C72.9088 28.8654 72.7934 28.8126 72.6888 28.7422V27.4677C72.7704 27.3698 72.8788 27.2861 73.01 27.2166ZM78.3168 26.7395H77.8549V29.3114H78.3168V26.7395ZM75.4382 26.7395H75.9001V27.5111H76.3266C76.5283 27.5111 76.6919 27.5372 76.8235 27.5861C76.9551 27.6355 77.0604 27.7018 77.1392 27.7827C77.218 27.8636 77.2736 27.9591 77.3055 28.0657C77.3378 28.1727 77.3552 28.2824 77.3552 28.3981C77.3552 28.5137 77.3378 28.6238 77.3 28.7336C77.2649 28.8433 77.2034 28.9385 77.1215 29.0253C77.0399 29.1121 76.9287 29.1816 76.7884 29.2336C76.6481 29.2854 76.4787 29.3142 76.2741 29.3142H75.4354V26.7395H75.4382ZM75.9032 27.9414V28.8836H76.2394C76.47 28.8836 76.6339 28.8433 76.7273 28.762C76.8207 28.6811 76.8676 28.5658 76.8676 28.4127C76.8676 28.2564 76.818 28.1383 76.7245 28.0571C76.628 27.9761 76.4672 27.9355 76.2453 27.9355H75.9032V27.9414Z" fill="black"/>
<path d="M80.5314 27.98L81.519 29.3122H80.9523L80.1893 28.2717L79.4149 29.3122H78.8773L79.859 28.0029L78.9356 26.7402H79.5027L80.207 27.7112L80.9227 26.7402H81.4607L80.5314 27.98ZM39.9631 32.4909H38.5459V34.635H38.084V32.0633H40.4247V34.635H39.9631V32.4909ZM43.0459 32.5197H42.1343L42.1048 32.9531C42.0728 33.3202 42.0291 33.615 41.9676 33.84C41.9062 34.0658 41.8301 34.2391 41.7426 34.3603C41.6551 34.4818 41.5526 34.5655 41.4356 34.6061C41.3149 34.6499 41.1872 34.6714 41.0588 34.6697L41.0237 34.2245C41.0734 34.2273 41.1317 34.2158 41.196 34.187C41.2606 34.1581 41.3248 34.0946 41.3859 33.9994C41.4474 33.9008 41.503 33.7622 41.5526 33.583C41.6023 33.4011 41.6346 33.1642 41.6519 32.8663L41.6988 32.0658H43.5078V34.6377H43.0459V32.5197Z" fill="black"/>
<path fill-rule="evenodd" clip-rule="evenodd" d="M44.7534 32.0675C44.6041 32.1077 44.4697 32.1654 44.3558 32.2376L44.4787 32.6019C44.5839 32.5498 44.6892 32.5064 44.7941 32.4689C44.8993 32.4314 45.034 32.414 45.1945 32.414C45.3233 32.414 45.4254 32.4342 45.5042 32.4745C45.5834 32.5123 45.6418 32.57 45.6827 32.6394C45.7234 32.7089 45.7498 32.7957 45.7644 32.8964C45.7789 32.9978 45.7848 33.1076 45.7848 33.226C45.6903 33.1602 45.5826 33.1159 45.4692 33.0961C45.3595 33.0743 45.248 33.0627 45.1361 33.0614C44.9989 33.0614 44.8701 33.0815 44.7475 33.1162C44.6246 33.151 44.5194 33.2031 44.4346 33.2725C44.3481 33.3419 44.2782 33.4297 44.2301 33.5295C44.1787 33.6389 44.1528 33.7584 44.1544 33.8792C44.1544 34.1303 44.2273 34.3272 44.3735 34.4658C44.5194 34.6043 44.7124 34.6738 44.9521 34.6738C45.1684 34.6738 45.3407 34.6363 45.4723 34.5609C45.6036 34.4859 45.7088 34.3991 45.7848 34.3008V34.6332H46.2176V33.0555C46.2176 32.7203 46.1443 32.4602 45.9953 32.2783C45.8491 32.0959 45.589 32.0039 45.2209 32.0039C45.0629 32.004 44.9057 32.0256 44.7534 32.0675ZM45.5279 34.1504C45.423 34.2258 45.2855 34.2605 45.116 34.2605C44.9639 34.2605 44.85 34.223 44.7684 34.1504C44.6864 34.0754 44.6454 33.9772 44.6454 33.856C44.6454 33.7837 44.66 33.7229 44.6923 33.6681C44.7242 33.6132 44.7684 33.5698 44.818 33.5351C44.8677 33.5003 44.9288 33.4743 44.9962 33.4569C45.063 33.4397 45.1317 33.431 45.2007 33.4312C45.4285 33.4312 45.6244 33.4861 45.7852 33.6014V33.9278C45.7093 34.0128 45.6228 34.0876 45.5279 34.1504Z" fill="black"/>
<path d="M46.6699 32.0625H49.0401V32.5188H48.0872V34.6341H47.6256V32.5192H46.673V32.0625H46.6699Z" fill="black"/>
<path fill-rule="evenodd" clip-rule="evenodd" d="M51.1967 34.6084C51.3721 34.5535 51.5211 34.4695 51.6495 34.3542L51.5092 33.9958C51.4245 34.0712 51.3106 34.1347 51.1731 34.1868C51.0359 34.2389 50.881 34.2646 50.7115 34.2646C50.4573 34.2646 50.2469 34.1983 50.0802 34.0625C49.9135 33.9267 49.8232 33.736 49.8027 33.493H51.8017C51.8218 33.4037 51.8308 33.3023 51.8308 33.1839C51.8308 33.0078 51.7985 32.8487 51.7343 32.7043C51.6744 32.564 51.5869 32.4373 51.477 32.3316C51.3659 32.2266 51.2348 32.145 51.0915 32.0917C50.9414 32.0335 50.7818 32.004 50.6209 32.0049C50.4045 32.0049 50.2146 32.0424 50.0482 32.1118C49.8909 32.1778 49.7486 32.2752 49.6301 32.398C49.515 32.52 49.4264 32.6647 49.37 32.8227C49.3084 32.9911 49.2777 33.1692 49.2794 33.3485C49.2794 33.5509 49.3144 33.7357 49.3787 33.9007C49.4433 34.0653 49.5395 34.207 49.6593 34.3254C49.7791 34.4438 49.9253 34.5334 50.0979 34.597C50.2826 34.6626 50.4774 34.6949 50.6733 34.6925C50.8459 34.6925 51.0213 34.6633 51.1967 34.6084ZM50.025 32.6261C50.1681 32.4963 50.358 32.4327 50.5976 32.4327C50.8258 32.4327 51.004 32.4963 51.1356 32.6147C51.2668 32.7362 51.337 32.9036 51.3488 33.1175H49.7708C49.793 32.9283 49.8834 32.7537 50.025 32.6261ZM52.0559 32.0629H52.6403L53.5315 33.3026L52.5789 34.6345H52.0121L53.0112 33.3023L52.0559 32.0629ZM53.6454 32.0629H54.1073V34.6345H53.6454V32.0629ZM55.7582 34.6345L54.7414 33.3023L55.6912 32.0625H55.1182L54.2212 33.3023L55.1856 34.6345H55.7582ZM57.8683 34.6084C58.0437 34.5535 58.1927 34.4695 58.3211 34.3542L58.1809 33.9958C58.0961 34.0712 57.9822 34.1347 57.845 34.1868C57.7075 34.2389 57.5526 34.2646 57.3831 34.2646C57.1289 34.2646 56.9185 34.1983 56.7518 34.0625C56.5854 33.9267 56.4948 33.736 56.4743 33.493H58.4733C58.4937 33.4037 58.5024 33.3023 58.5024 33.1839C58.5024 33.0078 58.4705 32.8487 58.4059 32.7043C58.346 32.5641 58.2587 32.4374 58.1489 32.3316C58.0377 32.2266 57.9065 32.145 57.7631 32.0917C57.6131 32.0335 57.4534 32.004 57.2925 32.0049C57.0765 32.0049 56.8865 32.0424 56.7198 32.1118C56.5626 32.1779 56.4205 32.2753 56.3021 32.398C56.1867 32.5199 56.0981 32.6645 56.042 32.8227C55.9802 32.991 55.9495 33.1692 55.9513 33.3485C55.9513 33.5509 55.9864 33.7357 56.0506 33.9007C56.1149 34.0653 56.2114 34.207 56.3312 34.3254C56.451 34.4438 56.5969 34.5334 56.7695 34.597C56.9543 34.6626 57.1492 34.6949 57.3453 34.6925C57.5229 34.6911 57.6992 34.6628 57.8683 34.6084ZM56.6966 32.6261C56.84 32.4963 57.03 32.4327 57.2696 32.4327C57.4946 32.4327 57.6756 32.4963 57.8072 32.6147C57.9388 32.7362 58.0089 32.9036 58.0204 33.1175H56.4424C56.4646 32.9283 56.555 32.7537 56.6966 32.6261ZM60.376 31.1988C60.1041 31.1988 59.9551 31.0484 59.9318 30.748H59.4963C59.4963 30.8633 59.5168 30.9675 59.5547 31.0658C59.5929 31.1641 59.6485 31.2478 59.7214 31.3172C59.7943 31.3867 59.8881 31.4416 59.9961 31.4846C60.1041 31.528 60.2298 31.5482 60.3729 31.5482C60.5045 31.5482 60.6215 31.528 60.7268 31.4846C60.832 31.4443 60.9195 31.3867 60.9956 31.3172C61.0685 31.2478 61.1272 31.1641 61.1678 31.0658C61.2088 30.9675 61.2293 30.8633 61.2293 30.748H60.7969C60.7764 31.0484 60.633 31.1988 60.376 31.1988ZM59.1279 32.0625V34.6345H59.5898L61.0918 32.7185V34.6345H61.5536V32.0625H61.0918L59.5898 33.9784V32.0625H59.1279Z" fill="black"/>
</g>
<defs>
<clipPath id="clip0_3_22741">
<rect width="83" height="41.6736" fill="white" transform="translate(0.5)"/>
</clipPath>
</defs>
</svg>
