<svg width="44" height="44" viewBox="0 0 44 44" fill="none" xmlns="http://www.w3.org/2000/svg">
<path d="M0 22C0 9.84974 9.84974 0 22 0C34.1503 0 44 9.84974 44 22C44 34.1503 34.1503 44 22 44C9.84974 44 0 34.1503 0 22Z" fill="#EDB53E"/>
<path d="M25.2766 14.5984V13.3818C25.2766 13.2204 25.3406 13.0657 25.4545 12.9516C25.5684 12.8375 25.7229 12.7734 25.884 12.7734C26.0451 12.7734 26.1996 12.8375 26.3135 12.9516C26.4274 13.0657 26.4914 13.2204 26.4914 13.3818V14.5984C26.4914 14.7597 26.4274 14.9144 26.3135 15.0285C26.1996 15.1426 26.0451 15.2067 25.884 15.2067C25.7229 15.2067 25.5684 15.1426 25.4545 15.0285C25.3406 14.9144 25.2766 14.7597 25.2766 14.5984ZM27.9971 15.8911C28.0926 15.9486 28.2023 15.9784 28.3138 15.977C28.418 15.9771 28.5205 15.9504 28.6115 15.8994C28.7025 15.8484 28.7788 15.7748 28.8331 15.6858L29.4406 14.6889C29.4828 14.6207 29.5112 14.5447 29.524 14.4655C29.5369 14.3862 29.5339 14.3052 29.5153 14.2271C29.4967 14.149 29.4629 14.0754 29.4158 14.0105C29.3686 13.9455 29.3091 13.8906 29.2407 13.8488C29.1722 13.807 29.0962 13.7791 29.017 13.7669C28.9377 13.7547 28.8569 13.7583 28.779 13.7775C28.7012 13.7967 28.6279 13.8312 28.5634 13.8789C28.499 13.9266 28.4446 13.9866 28.4034 14.0555L27.7959 15.0516C27.7538 15.1199 27.7256 15.1958 27.7129 15.275C27.7002 15.3543 27.7033 15.4352 27.722 15.5133C27.7407 15.5913 27.7747 15.6648 27.8219 15.7297C27.8691 15.7945 27.9287 15.8494 27.9971 15.8911ZM31.5992 16.8484C31.5748 16.7723 31.5356 16.7019 31.4839 16.641C31.4322 16.5801 31.3691 16.53 31.2981 16.4936C31.2271 16.4572 31.1496 16.4351 31.0701 16.4286C30.9906 16.4222 30.9106 16.4315 30.8346 16.456L29.6957 16.8248C29.5576 16.869 29.4399 16.9612 29.3637 17.0848C29.2876 17.2083 29.2581 17.3551 29.2806 17.4985C29.303 17.6419 29.376 17.7726 29.4862 17.8669C29.5965 17.9611 29.7367 18.0128 29.8817 18.0126C29.9451 18.0123 30.0081 18.0023 30.0685 17.9829L31.2074 17.6141C31.2837 17.5896 31.3544 17.5503 31.4155 17.4983C31.4765 17.4464 31.5267 17.3828 31.5631 17.3114C31.5995 17.2399 31.6214 17.162 31.6276 17.082C31.6338 17.002 31.6242 16.9216 31.5992 16.8454V16.8484ZM29.3213 19.8854C29.993 21.0423 30.2634 22.3892 30.0905 23.7162C29.9176 25.0431 29.311 26.2754 28.3654 27.2209C28.0373 28.3692 27.3789 29.3953 26.4724 30.1713C25.5659 30.9474 24.4514 31.439 23.2677 31.585C22.084 31.7309 20.8837 31.5247 19.8163 30.9921C18.7488 30.4594 17.8616 29.6239 17.2652 28.5897L14.6076 23.9794C14.4454 23.6975 14.3551 23.3799 14.3447 23.0548C14.3344 22.7296 14.4044 22.4069 14.5484 22.1153C14.6925 21.8237 14.9062 21.5722 15.1706 21.3831C15.4349 21.194 15.7418 21.0732 16.064 21.0313L15.7602 20.5036C15.6005 20.2265 15.5103 19.9147 15.4974 19.595C15.4845 19.2753 15.5493 18.9573 15.6861 18.6682C15.823 18.379 16.0279 18.1275 16.2832 17.9352C16.5386 17.7429 16.8367 17.6155 17.152 17.5639C16.9939 17.1278 16.9939 16.6499 17.1522 16.2138C17.3104 15.7777 17.6168 15.4112 18.0176 15.1786C18.3852 14.9668 18.811 14.879 19.2322 14.928C19.6534 14.977 20.0478 15.1603 20.357 15.4508C20.5465 15.1769 20.802 14.9555 21.0997 14.8069C21.3975 14.6584 21.7279 14.5877 22.0603 14.6012C22.3927 14.6148 22.7163 14.7123 23.001 14.8846C23.2857 15.0569 23.5223 15.2985 23.6889 15.5869L24.6 17.1678C24.7973 16.9091 25.0553 16.7032 25.3511 16.5683C25.647 16.4334 25.9715 16.3738 26.2958 16.3947C26.6202 16.4157 26.9344 16.5165 27.2105 16.6882C27.4866 16.8599 27.7162 17.0973 27.8787 17.3792L29.3213 19.8854ZM21.3221 16.9556L21.7724 17.7365C21.9227 17.874 22.0508 18.0341 22.152 18.211L23.0632 19.7888C23.3627 19.3993 23.7954 19.1345 24.2781 19.0452L22.6372 16.1952C22.5365 16.0206 22.3707 15.8931 22.1762 15.8409C21.9817 15.7888 21.7744 15.8161 21.6 15.9169C21.4256 16.0177 21.2984 16.1838 21.2463 16.3786C21.1941 16.5734 21.2214 16.781 21.3221 16.9556ZM18.3472 17.2712L18.7974 18.0529L18.8217 18.0749C18.9691 17.8613 19.157 17.6789 19.3749 17.5383C19.5928 17.3976 19.8362 17.3014 20.0913 17.2552L19.6623 16.5108C19.5872 16.3805 19.4753 16.2755 19.3406 16.209C19.2059 16.1424 19.0545 16.1174 18.9056 16.137C18.7567 16.1566 18.617 16.22 18.5041 16.3192C18.3912 16.4183 18.3101 16.5488 18.2713 16.694C18.2451 16.7905 18.2383 16.8912 18.2514 16.9902C18.2644 17.0893 18.297 17.1848 18.3472 17.2712ZM27.2196 26.8081C27.3864 26.1908 27.4293 25.5466 27.3459 24.9127C27.2625 24.2788 27.0544 23.6677 26.7337 23.1148L25.291 20.6124C25.1929 20.4439 25.0339 20.3196 24.8468 20.2652C24.6598 20.2109 24.4591 20.2305 24.2861 20.3201C24.1132 20.4098 23.9812 20.5625 23.9175 20.7468C23.8539 20.9311 23.8633 21.1329 23.944 21.3104L24.8111 22.8107C24.8917 22.9505 24.9134 23.1167 24.8716 23.2726C24.8298 23.4286 24.7279 23.5615 24.5882 23.6421C24.4486 23.7228 24.2827 23.7446 24.1269 23.7028C23.9712 23.6609 23.8385 23.5588 23.758 23.419L21.1004 18.8209C20.9961 18.6555 20.8323 18.5368 20.6429 18.4893C20.4535 18.4418 20.2531 18.4692 20.0833 18.5658C19.9135 18.6624 19.7874 18.8208 19.7312 19.008C19.675 19.1953 19.693 19.397 19.7815 19.5714L21.6517 22.8107C21.6941 22.8799 21.7222 22.957 21.7344 23.0373C21.7466 23.1176 21.7426 23.1995 21.7226 23.2783C21.7027 23.357 21.6672 23.4309 21.6183 23.4957C21.5693 23.5605 21.5079 23.6148 21.4377 23.6554C21.3674 23.6961 21.2898 23.7222 21.2093 23.7323C21.1288 23.7424 21.0471 23.7362 20.969 23.7142C20.891 23.6921 20.8181 23.6547 20.7547 23.604C20.6913 23.5533 20.6387 23.4904 20.6 23.419L18.127 19.1349C18.0775 19.0477 18.0113 18.9712 17.9321 18.9098C17.853 18.8483 17.7625 18.8032 17.6659 18.7769C17.5692 18.7506 17.4683 18.7438 17.369 18.7567C17.2697 18.7696 17.174 18.8021 17.0873 18.8522C17.0005 18.9024 16.9246 18.9692 16.8637 19.0488C16.8029 19.1285 16.7584 19.2194 16.7328 19.3164C16.7072 19.4133 16.701 19.5144 16.7146 19.6137C16.7282 19.7131 16.7612 19.8088 16.8119 19.8953L19.5454 24.6371C19.5852 24.7063 19.6111 24.7827 19.6215 24.8619C19.6319 24.9412 19.6267 25.0216 19.606 25.0988C19.5853 25.176 19.5497 25.2483 19.5011 25.3117C19.4526 25.3751 19.392 25.4283 19.3229 25.4682C19.2538 25.5082 19.1775 25.5341 19.0984 25.5445C19.0193 25.5549 18.9389 25.5497 18.8618 25.529C18.7848 25.5083 18.7125 25.4726 18.6492 25.4239C18.586 25.3753 18.5329 25.3146 18.493 25.2454L16.9744 22.6114C16.873 22.4382 16.7073 22.3122 16.5134 22.2609C16.3196 22.2095 16.1133 22.2371 15.9397 22.3375C15.766 22.4379 15.6391 22.603 15.5866 22.7968C15.534 22.9905 15.5602 23.1973 15.6593 23.3718L18.3168 27.9821C18.7973 28.8158 19.514 29.488 20.3761 29.9138C21.2381 30.3396 22.2069 30.4997 23.1599 30.3741C24.1129 30.2484 25.0073 29.8425 25.7299 29.2078C26.4525 28.573 26.971 27.7379 27.2196 26.8081ZM28.269 20.4907L26.8263 17.9882C26.7249 17.815 26.5592 17.689 26.3653 17.6377C26.1715 17.5863 25.9652 17.6139 25.7916 17.7143C25.6179 17.8147 25.491 17.9798 25.4385 18.1736C25.3859 18.3673 25.4121 18.5741 25.5112 18.7486L25.9599 19.528C26.1102 19.6662 26.2383 19.8267 26.3396 20.004L27.7822 22.5065C28.1876 23.2081 28.4491 23.9836 28.5514 24.7877C28.8377 24.098 28.9612 23.3514 28.9122 22.6061C28.8632 21.8608 28.6431 21.1369 28.269 20.4907Z" fill="#FFFCF5"/>
</svg>
