<svg width="16" height="20" viewBox="0 0 16 20" fill="none" xmlns="http://www.w3.org/2000/svg">
<path fill-rule="evenodd" clip-rule="evenodd" d="M2.16667 7.00065C2.16667 3.64637 4.72849 0.833984 8 0.833984C11.2715 0.833984 13.8333 3.64637 13.8333 7.00065C13.8333 7.89431 13.5541 8.87958 13.1634 9.81459C12.9188 10.3999 12.6208 10.9886 12.2939 11.554C12.2903 11.5603 12.2866 11.5666 12.283 11.5729C12.0843 11.9157 11.8751 12.2497 11.661 12.5692C11.0911 13.4194 10.4703 14.1898 9.89364 14.7583C9.60647 15.0414 9.31284 15.2918 9.0269 15.4771C8.76621 15.646 8.40261 15.834 8 15.834C7.59739 15.834 7.23378 15.646 6.9731 15.4771C6.68715 15.2918 6.39353 15.0414 6.10636 14.7583C5.52966 14.1898 4.90888 13.4194 4.33903 12.5692C4.32118 12.5426 4.30337 12.5158 4.2856 12.489C4.08617 12.188 3.89149 11.8747 3.70606 11.554C3.37923 10.9886 3.08116 10.3999 2.83657 9.81459C2.44586 8.87958 2.16667 7.89431 2.16667 7.00065ZM5.5 6.66732C5.5 5.28661 6.61929 4.16732 8 4.16732C9.38071 4.16732 10.5 5.28661 10.5 6.66732C10.5 8.04803 9.38071 9.16732 8 9.16732C6.61929 9.16732 5.5 8.04803 5.5 6.66732Z" fill="#267F53"/>
<path d="M9.93322 16.8758C9.59403 17.0955 8.89437 17.5006 8 17.5006C7.10563 17.5006 6.40597 17.0955 6.06678 16.8758C5.65333 16.6078 5.27051 16.2747 4.93628 15.9452C4.26085 15.2793 3.57041 14.4159 2.95458 13.4971C2.69999 13.1173 2.45011 12.716 2.21317 12.3011C2.03537 12.419 1.86841 12.5437 1.71369 12.6749C1.01475 13.2678 0.5 14.0581 0.5 15.0006C0.5 16.4068 1.61826 17.4555 2.91328 18.103C4.25814 18.7755 6.05773 19.1673 8 19.1673C9.94227 19.1673 11.7419 18.7755 13.0867 18.103C14.3817 17.4555 15.5 16.4068 15.5 15.0006C15.5 14.0581 14.9852 13.2678 14.2863 12.6749C14.1316 12.5437 13.9646 12.419 13.7868 12.3011C13.5499 12.716 13.3 13.1173 13.0454 13.4971C12.4296 14.4159 11.7392 15.2793 11.0637 15.9452C10.7295 16.2747 10.3467 16.6078 9.93322 16.8758Z" fill="#267F53"/>
</svg>
