<svg width="18" height="18" viewBox="0 0 18 18" fill="none" xmlns="http://www.w3.org/2000/svg">
<path fill-rule="evenodd" clip-rule="evenodd" d="M9 18C4.029 18 0 13.971 0 9C0 4.029 4.029 0 9 0C13.971 0 18 4.029 18 9C18 13.971 13.971 18 9 18ZM9 8C9.55228 8 10 8.44771 10 9V14C10 14.5523 9.55228 15 9 15C8.44771 15 8 14.5523 8 14V9C8 8.44771 8.44771 8 9 8ZM7.75001 5.25362C7.74693 4.55797 8.31132 4 8.999 4C9.68769 4 10.25 4.55712 10.25 5.25C10.25 5.94028 9.69029 6.5 9 6.5C8.31093 6.5 7.75196 5.94224 7.75001 5.25362Z" fill="#267F53"/>
</svg>
