<svg width="32" height="32" viewBox="0 0 32 32" fill="none" xmlns="http://www.w3.org/2000/svg">
<path d="M0 16C0 7.16344 7.16344 0 16 0C24.8366 0 32 7.16344 32 16C32 24.8366 24.8366 32 16 32C7.16344 32 0 24.8366 0 16Z" fill="#252525" fill-opacity="0.24"/>
<path fill-rule="evenodd" clip-rule="evenodd" d="M13.5718 10H15.7622C16.4847 9.99999 17.0675 9.99999 17.5394 10.0385C18.0253 10.0782 18.4521 10.1621 18.847 10.3633C19.4742 10.6829 19.9841 11.1928 20.3037 11.82C20.4152 12.0389 20.4907 12.2675 20.5425 12.5106L21.6769 12.227C22.5185 12.0166 23.3337 12.6531 23.3337 13.5205V18.4795C23.3337 19.3469 22.5185 19.9834 21.6769 19.773L20.5425 19.4894C20.4907 19.7325 20.4152 19.9611 20.3037 20.18C19.9841 20.8072 19.4742 21.3171 18.847 21.6367C18.4521 21.8379 18.0253 21.9218 17.5394 21.9615C17.0675 22 16.4847 22 15.7622 22H13.5718C12.8493 22 12.2665 22 11.7946 21.9615C11.3087 21.9218 10.8819 21.8379 10.487 21.6367C9.85982 21.3171 9.34988 20.8072 9.0303 20.18C8.82911 19.7851 8.74524 19.3583 8.70554 18.8724C8.66698 18.4005 8.66699 17.8177 8.66699 17.0952V14.9048C8.66699 14.1823 8.66698 13.5995 8.70554 13.1276C8.74524 12.6417 8.82911 12.2149 9.0303 11.82C9.34988 11.1928 9.85982 10.6829 10.487 10.3633C10.8819 10.1621 11.3087 10.0782 11.7946 10.0385C12.2665 9.99999 12.8493 9.99999 13.5718 10Z" fill="#FFFCF5"/>
</svg>
